<?xml version="1.0" encoding="utf-8"?><svg version="1.1" id="Calque_1" xmlns="http://www.w3.org/2000/svg" xmlns:xlink="http://www.w3.org/1999/xlink" x="0px" y="0px" width="2136px" height="718px" viewBox="-482 180 2136 718" enable-background="new -482 180 2136 718" xml:space="preserve"><g xmlns="http://www.w3.org/2000/svg"><polygon points="0,1440 0,0 2560,0 2560,1440" fill="rgb(255,255,255)" stroke-width="1" stroke-linecap="butt" stroke-linejoin="miter"/><path d="M362.5,869c459.00322,-39.96402 918.00645,-79.92805 1057.5,-149c139.49355,-69.07195 -40.52257,-167.25184 -27,-149c13.52257,18.25184 220.58384,152.9354 325,149c104.41616,-3.9354 106.1872,-146.48975 -176,-149c-282.1872,-2.51025 -848.33265,135.0236 -1016,149c-167.66735,13.9764 63.1434,-95.60463 420,-149c356.8566,-53.39537 839.75905,-50.60506 745,0c-94.75905,50.60506 -767.17959,149.02488 -1016,149c-248.82041,-0.02488 -74.0407,-98.49445 122,-149c196.0407,-50.50555 413.3424,-53.04707 298,0c-115.3424,53.04707 -563.32889,161.68272 -569,149c-5.67111,-12.68272 430.97316,-146.68381 718,-149c287.02684,-2.31619 424.43624,127.05252 474,149c49.56376,21.94748 11.28188,-63.52626 -27,-149c-38.28188,-85.47374 -391.64094,-42.73687 -745,0" fill-opacity="0" fill="rgb(0,0,0)" stroke="rgb(0,0,0)" stroke-width="25" stroke-linecap="round" stroke-linejoin="round"/></g></svg>