<?xml version="1.0" encoding="utf-8"?><svg version="1.1" id="Calque_1" xmlns="http://www.w3.org/2000/svg" xmlns:xlink="http://www.w3.org/1999/xlink" x="0px" y="0px" width="2136px" height="718px" viewBox="-482 180 2136 718" enable-background="new -482 180 2136 718" xml:space="preserve"><g xmlns="http://www.w3.org/2000/svg"><polygon points="0,1440 0,0 2560,0 2560,1440" fill="rgb(255,255,255)" stroke-width="1" stroke-linecap="butt" stroke-linejoin="miter"/><path d="M824,720c-15.20143,15.58222 -30.40287,31.16445 0,0c30.40287,-31.16445 106.41003,-109.07557 122,-149c15.58997,-39.92443 -29.23727,-41.86217 0,0c29.23727,41.86217 132.53904,127.52424 176,149c43.46096,21.47576 27.08112,-21.23479 0,0c-27.08112,21.23479 -64.86351,106.41493 -74,149c-9.13649,42.58507 10.37293,42.57509 0,0c-10.37293,-42.57509 -50.62822,-127.71528 -75,-149c-24.37178,-21.28472 -32.86005,21.28604 0,0c32.86005,-21.28604 107.06841,-106.42886 122,-149c14.93159,-42.57114 -29.41357,-42.57058 0,0c29.41357,42.57058 132.58589,127.71119 176,149c43.41411,21.28881 27.07,-21.27418 0,0c-27.07,21.27418 -64.8659,106.38553 -74,149c-9.1341,42.61447 10.39361,42.73207 0,0c-10.39361,-42.73207 -50.70854,-128.31382 -75,-149c-24.29146,-20.68618 -32.55944,23.52322 0,0c32.55944,-23.52322 105.94631,-114.77906 122,-149c16.05369,-34.22094 -25.22581,-11.40698 0,0c25.22581,11.40698 116.95694,11.40698 149,0c32.04306,-11.40698 4.39804,-34.22094 0,0c-4.39804,34.22094 14.45091,125.47678 27,149c12.54909,23.52322 18.79831,-20.68618 0,0c-18.79831,20.68618 -62.64414,106.26793 -74,149c-11.35586,42.73207 9.77825,42.61447 0,0c-9.77825,-42.61447 -50.46888,-127.72582 -75,-149c-24.53112,-21.27418 -32.90275,21.2888 0,0c32.90275,-21.2888 107.07988,-106.4294 122,-149c14.92012,-42.5706 -29.41675,-42.57121 0,0c29.41675,42.57121 132.58713,127.71423 176,149c43.41287,21.28577 27.06823,-21.2857 0,0c-27.06823,21.2857 -64.86006,106.42857 -74,149c-9.13994,42.57143 10.37201,42.57143 0,0c-10.37201,-42.57143 -50.62797,-127.71429 -75,-149c-24.37203,-21.28571 -32.86012,21.28571 0,0c32.86012,-21.28571 107.06845,-106.42857 122,-149c14.93155,-42.57143 -29.41369,-42.57143 0,0c29.41369,42.57143 132.58631,127.71429 176,149c43.41369,21.28571 27.06845,-21.28571 0,0c-27.06845,21.28571 -64.86012,106.42857 -74,149c-9.13988,42.57143 10.37202,42.57143 0,0c-10.37202,-42.57143 -50.62798,-127.71429 -75,-149c-24.37202,-21.28571 -32.86012,21.28572 0,0c32.86012,-21.28572 107.06845,-106.42857 122,-149c14.93155,-42.57143 -29.4137,-42.57142 0,0c29.4137,42.57142 132.58634,127.71424 176,149c43.41366,21.28576 27.06833,-21.28554 0,0c-27.06833,21.28554 -64.85968,106.42792 -74,149c-9.14032,42.57208 10.37038,42.57387 0,0c-10.37038,-42.57387 -50.62185,-127.72338 -75,-149c-24.37815,-21.27662 -32.88297,21.31966 0,0c32.88297,-21.31966 107.15372,-106.55527 122,-149c14.84628,-42.44473 -29.73193,-42.09859 0,0c29.73193,42.09859 133.77398,125.94962 176,149c42.22602,23.05038 22.63601,-14.69989 0,0c-22.63601,14.69989 -48.318,81.84995 -74,149c-25.682,67.15005 -12.841,33.57503 0,0" fill-opacity="0" fill="rgb(0,0,0)" stroke="rgb(0,0,0)" stroke-width="25" stroke-linecap="round" stroke-linejoin="round"/></g></svg>