<?xml version="1.0" encoding="utf-8"?><svg version="1.1" id="Calque_1" xmlns="http://www.w3.org/2000/svg" xmlns:xlink="http://www.w3.org/1999/xlink" x="0px" y="0px" width="2136px" height="718px" viewBox="-482 180 2136 718" enable-background="new -482 180 2136 718" xml:space="preserve"><g xmlns="http://www.w3.org/2000/svg"><polygon points="0,1440 0,0 2560,0 2560,1440" fill="rgb(255,255,255)" stroke-width="1" stroke-linecap="butt" stroke-linejoin="miter"/><path d="M1420,720c-289.57199,-66.15162 -579.14398,-132.30324 -623,-149c-43.85602,-16.69676 158.00393,16.06136 149,0c-9.00393,-16.06136 -228.87174,-80.94218 -149,0c79.87174,80.94218 459.48303,307.70736 698,298c238.51697,-9.70736 335.93961,-255.88725 47,-298c-288.93961,-42.11275 -964.24148,119.84166 -1016,149c-51.75852,29.15834 520.0263,-74.47938 745,0c224.9737,74.47938 103.13629,327.07585 0.5,298c-102.63629,-29.07585 -186.07146,-339.82401 -325.5,-447c-139.42854,-107.17599 -334.85045,-10.7798 -149,0c185.85045,10.7798 752.97325,-64.05678 745,0c-7.97325,64.05678 -591.04256,267.00693 -643,298c-51.95744,30.99307 427.19697,-109.97093 372,-149c-55.19697,-39.02907 -644.74534,23.87679 -745,0c-100.25466,-23.87679 288.78438,-134.53623 420,-149c131.21562,-14.46377 4.60781,67.26811 -122,149c-126.60781,81.73189 72.1961,-33.63406 271,-149" fill-opacity="0" fill="rgb(0,0,0)" stroke="rgb(0,0,0)" stroke-width="25" stroke-linecap="round" stroke-linejoin="round"/></g></svg>