<?xml version="1.0" encoding="utf-8"?><svg version="1.1" id="Calque_1" xmlns="http://www.w3.org/2000/svg" xmlns:xlink="http://www.w3.org/1999/xlink" x="0px" y="0px" width="2136px" height="718px" viewBox="-482 180 2136 718" enable-background="new -482 180 2136 718" xml:space="preserve"><g xmlns="http://www.w3.org/2000/svg"><polygon points="0,1440 0,0 2560,0 2560,1440" fill="rgb(255,255,255)" stroke-width="1" stroke-linecap="butt" stroke-linejoin="miter"/><path d="M1197,869c-177.29011,-114.78657 -354.58022,-229.57313 -251,-298c103.58022,-68.42687 488.03078,-90.49404 596,0c107.96922,90.49404 -60.54288,293.5493 -196,298c-135.45712,4.4507 -237.85926,-189.70317 -224,-149c13.85926,40.70317 143.97991,316.26338 149.5,298c5.52009,-18.26338 -113.56038,-330.35035 -27.5,-447c86.06038,-116.64965 377.2616,-37.86197 447,0c69.7384,37.86197 -81.98604,34.79822 -298,0c-216.01396,-34.79822 -496.31746,-101.33093 -447,0c49.31746,101.33093 428.25589,370.52548 325.5,447c-102.75589,76.47452 -687.20609,-39.77099 -909,-149c-221.79391,-109.22901 -80.93154,-211.44152 163.5,-149c244.43154,62.44152 592.43224,289.53707 745.5,298c153.06776,8.46293 111.20257,-201.70676 -149.5,-298c-260.70257,-96.29324 -740.24251,-78.71004 -596,0c144.24251,78.71004 912.26746,218.54692 969,149c56.73254,-69.54692 -597.82732,-348.47765 -698,-298c-100.17268,50.47765 354.04181,430.36367 474.5,447c120.45819,16.63633 -92.83992,-329.97702 -27.5,-447c65.33992,-117.02298 409.31785,-4.45557 447,0c37.68215,4.45557 -230.9315,-99.2007 -298,0c-67.0685,99.2007 67.40814,401.25835 -121.5,447c-188.90814,45.74165 -701.20107,-164.83272 -596.5,-298c104.70107,-133.16728 826.39614,-188.92749 1016,-149c189.60386,39.92749 -152.88348,175.54267 -345,298c-192.11652,122.45733 -233.86222,231.75682 -74.5,149c159.36222,-82.75682 519.83238,-357.56996 419.5,-447c-100.33238,-89.43004 -661.46728,6.52302 -718,149c-56.53272,142.47698 391.53675,331.47786 298.5,298c-93.03675,-33.47786 -727.17972,-289.43448 -745.5,-298c-18.32028,-8.56552 579.18214,230.26007 745.5,298c166.31786,67.73993 -98.54882,-35.60579 -74.5,-149c24.04882,-113.39421 337.01314,-236.8369 345,-298c7.98686,-61.1631 -289.00376,-60.0466 -447,0c-157.99624,60.0466 -176.99812,179.0233 -196,298c-19.00188,118.9767 176.49906,-15.01165 372,-149" fill-opacity="0" fill="rgb(0,0,0)" stroke="rgb(0,0,0)" stroke-width="25" stroke-linecap="round" stroke-linejoin="round"/></g></svg>