<?xml version="1.0" encoding="utf-8"?><svg version="1.1" id="Calque_1" xmlns="http://www.w3.org/2000/svg" xmlns:xlink="http://www.w3.org/1999/xlink" x="0px" y="0px" width="2136px" height="718px" viewBox="-482 180 2136 718" enable-background="new -482 180 2136 718" xml:space="preserve"><g xmlns="http://www.w3.org/2000/svg"><polygon points="0,1440 0,0 2560,0 2560,1440" fill="rgb(255,255,255)" stroke-width="1" stroke-linecap="butt" stroke-linejoin="miter"/><path d="M362.5,869c306.98046,-147.87816 613.96092,-295.75631 732.5,-298c118.53908,-2.24369 48.63678,141.14709 176,149c127.36322,7.85291 451.99198,-119.83203 271,-149c-180.99198,-29.16797 -867.60469,40.18104 -867,149c0.60469,108.81896 688.42678,257.10785 596.5,298c-91.92678,40.89215 -963.60242,-25.61246 -909,-149c54.60242,-123.38754 1035.4829,-303.658 1328.5,-298c293.0171,5.658 -101.82917,197.24446 -345,298c-243.17083,100.75554 -334.6662,110.68017 -447,0c-112.3338,-110.68017 -245.50602,-341.96515 -102,-298c143.50602,43.96515 563.69029,363.18043 474.5,447c-89.19029,83.81957 -687.75513,-67.75658 -909,-149c-221.24487,-81.24342 -65.16977,-92.15409 312.5,-149c377.66977,-56.84591 976.93422,-159.62704 1165,-149c188.06578,10.62704 -35.06712,134.66224 -122,149c-86.93288,14.33776 -37.66573,-81.02193 -176,-149c-138.33427,-67.97807 -464.26996,-108.57454 -447,0c17.26996,108.57454 377.74556,366.32007 176.5,447c-201.24556,80.67993 -964.21227,-15.70576 -909,-149c55.21227,-133.29424 928.60351,-303.49705 1179.5,-298c250.89649,5.49705 -120.70177,186.69396 -196,298c-75.29823,111.30604 145.70357,152.72121 -74.5,149c-220.20357,-3.72121 -881.6125,-52.57879 -909,-149c-27.3875,-96.42121 579.24643,-240.40606 732.5,-298c153.25357,-57.59394 -146.87321,-28.79697 -447,0c-300.12679,28.79697 371.43661,14.39848 1043,0" fill-opacity="0" fill="rgb(0,0,0)" stroke="rgb(0,0,0)" stroke-width="25" stroke-linecap="round" stroke-linejoin="round"/></g></svg>