<?xml version="1.0" encoding="utf-8"?><svg version="1.1" id="Calque_1" xmlns="http://www.w3.org/2000/svg" xmlns:xlink="http://www.w3.org/1999/xlink" x="0px" y="0px" width="2136px" height="718px" viewBox="-482 180 2136 718" enable-background="new -482 180 2136 718" xml:space="preserve"><g xmlns="http://www.w3.org/2000/svg"><polygon points="0,1440 0,0 2560,0 2560,1440" fill="rgb(255,255,255)" stroke-width="1" stroke-linecap="butt" stroke-linejoin="miter"/><path d="M1569,720c115.49262,-61.82248 230.98523,-123.64496 122,-149c-108.98523,-25.35504 -442.44831,-14.24264 -745,0c-302.55169,14.24264 -574.19199,31.61554 -420,149c154.19199,117.38446 734.21629,334.7805 745.5,298c11.28371,-36.7805 -546.17316,-327.73753 -623.5,-447c-77.32684,-119.26247 325.47635,-66.83036 596,0c270.52365,66.83036 408.76777,148.05898 474,149c65.23223,0.94102 57.45258,-78.40557 -176,-149c-233.45258,-70.59443 -692.5781,-132.43672 -745,0c-52.4219,132.43672 301.8598,459.15244 474.5,447c172.6402,-12.15244 163.63888,-363.17305 -27.5,-447c-191.13888,-83.82695 -564.41532,99.53977 -718,149c-153.58468,49.46023 -87.4776,-34.98604 149,0c236.4776,34.98604 643.3257,189.40438 820,149c176.6743,-40.40438 123.17479,-275.6315 47,-298c-76.17479,-22.3685 -175.02486,168.1216 -196,298c-20.97514,129.8784 35.92464,199.1451 -74.5,149c-110.42464,-50.1451 -388.1737,-219.702 -596.5,-298c-208.3263,-78.298 -347.22984,-65.33709 -149,0c198.22984,65.33709 733.59304,183.05035 969,149c235.40696,-34.05035 170.85767,-219.86432 -102,-298c-272.85767,-78.13568 -754.0237,-48.59307 -596,0c158.0237,48.59307 955.23715,116.2366 921,149c-34.23715,32.7634 -899.9249,30.64669 -1043,0c-143.0751,-30.64669 436.46245,-89.82334 1016,-149c579.53755,-59.17666 117.26877,119.41167 -345,298" fill-opacity="0" fill="rgb(0,0,0)" stroke="rgb(0,0,0)" stroke-width="25" stroke-linecap="round" stroke-linejoin="round"/></g></svg>