<?xml version="1.0" encoding="utf-8"?><svg version="1.1" id="Calque_1" xmlns="http://www.w3.org/2000/svg" xmlns:xlink="http://www.w3.org/1999/xlink" x="0px" y="0px" width="2136px" height="718px" viewBox="-482 180 2136 718" enable-background="new -482 180 2136 718" xml:space="preserve"><g xmlns="http://www.w3.org/2000/svg"><polygon points="0,1440 0,0 2560,0 2560,1440" fill="rgb(255,255,255)" stroke-width="1" stroke-linecap="butt" stroke-linejoin="miter"/><path d="M1420,720c-119.23195,16.96124 -238.4639,33.92248 -298,0c-59.5361,-33.92248 -59.37635,-118.72868 -27,-149c32.37635,-30.27132 96.96929,-6.00777 149,0c52.03071,6.00777 91.4992,-6.24023 149,0c57.5008,6.24023 133.03391,30.96869 149,0c15.96609,-30.96869 -27.63483,-117.63455 -75,-149c-47.36517,-31.36545 -98.49458,-7.4305 -149,0c-50.50542,7.4305 -100.38686,-1.64346 -149,0c-48.61314,1.64346 -95.958,14.00432 -149,0c-53.042,-14.00432 -111.78115,-54.37383 -149,0c-37.21885,54.37383 -52.9174,203.49101 -47,298c5.9174,94.50899 33.45076,134.40979 75,149c41.54924,14.59021 97.11434,3.86984 149,0c51.88566,-3.86984 100.09186,-0.88915 149,0c48.90814,0.88915 98.51822,-0.31324 149,0c50.48178,0.31324 101.83526,2.1421 149,0c47.16474,-2.1421 90.14074,-8.25517 149,0c58.85926,8.25517 133.60179,30.8786 149,0c15.39821,-30.8786 -28.54788,-115.25921 -75,-149c-46.45212,-33.74079 -95.41026,-16.84176 -149,0c-53.58974,16.84176 -111.8111,33.62626 -149,0c-37.1889,-33.62626 -53.34536,-117.66328 -27,-149c26.34536,-31.33672 95.19253,-9.97314 149,0c53.80747,9.97314 92.57523,8.55583 149,0c56.42477,-8.55583 130.50654,-24.25018 149,0c18.49346,24.25018 -18.60139,88.44491 -122,149c-103.39861,60.55509 -273.10099,117.47055 -372,149c-98.89901,31.52945 -126.99464,37.67289 -149,0c-22.00536,-37.67289 -37.92045,-119.16211 -75,-149c-37.07955,-29.83789 -95.32354,-8.02443 -149,0c-53.67646,8.02443 -102.78537,2.25985 -149,0c-46.21463,-2.25985 -89.53498,-1.01495 -149,0c-59.46502,1.01495 -135.07472,1.79995 -149,0c-13.92528,-1.79995 33.83386,-6.18486 0,0c-33.83386,6.18486 -149.26074,22.93948 -201,0c-51.73926,-22.93948 -39.79092,-85.57305 -13.5,-149c26.29092,-63.42695 66.9244,-127.64728 112.5,-149c45.5756,-21.35272 96.09332,0.16216 149,0c52.90668,-0.16216 108.20231,-22.00136 149,0c40.79769,22.00136 67.09745,87.84328 75,149c7.90255,61.15672 -2.59209,117.62825 27,149c29.59209,31.37175 99.27092,37.64373 149,0c49.72908,-37.64373 79.5084,-119.20317 122,-149c42.4916,-29.79683 97.69546,-7.83106 149,0c51.30454,7.83106 98.70975,1.52741 149,0c50.29025,-1.52741 103.46555,1.72141 149,0c45.53445,-1.72141 83.42804,-8.41306 149,0c65.57196,8.41306 158.82227,31.93085 149,0c-9.82227,-31.93085 -122.71714,-119.31032 -224,-149c-101.28286,-29.68968 -190.95371,-1.68958 -298,0c-107.04629,1.68958 -231.46801,-22.93138 -298,0c-66.53199,22.93138 -75.17426,93.41508 -74,149c1.17426,55.58492 12.16506,96.27106 27,149c14.83494,52.72894 33.51403,117.5007 75,149c41.48597,31.4993 105.77881,29.72615 149,0c43.22119,-29.72615 65.37074,-87.40531 74,-149c8.62926,-61.59469 3.73824,-127.10492 -27,-149c-30.73824,-21.89508 -87.32369,-0.17502 -149,0c-61.67631,0.17502 -128.44346,-21.19498 -149,0c-20.55654,21.19498 5.09753,84.95496 27,149c21.90247,64.04504 40.05332,128.37514 75,149c34.94668,20.62486 86.68917,-2.45552 149,0c62.31083,2.45552 135.19001,30.44692 149,0c13.80999,-30.44692 -31.4492,-119.33218 -75,-149c-43.5508,-29.66782 -85.39322,-0.1182 -149,0c-63.60678,0.1182 -148.97793,-29.19504 -149,0c-0.02207,29.19504 85.30492,116.89834 75,149c-10.30492,32.10166 -116.24175,8.60167 -149,0c-32.75825,-8.60167 7.6621,-2.30502 0,0c-7.6621,2.30502 -63.40664,0.61842 0,0c63.40664,-0.61842 245.96444,-0.16866 298,0c52.03556,0.16866 -26.45114,0.05622 0,0c26.45114,-0.05622 157.84011,-0.05622 149,0c-8.84011,0.05622 -157.90931,0.16866 -149,0c8.90931,-0.16866 175.79714,-0.61843 149,0c-26.79714,0.61843 -247.27924,2.30505 -298,0c-50.72076,-2.30505 68.3198,-8.60176 149,0c80.6802,8.60176 123.00002,32.10198 149,0c25.99998,-32.10198 35.68013,-119.80618 -75,-149c-110.68013,-29.19382 -341.72053,0.12274 -447,0c-105.27947,-0.12274 -84.798,-29.68478 -149,0c-64.202,29.68478 -213.08748,118.61636 -75,149c138.08748,30.38364 563.14792,2.21932 597,0c33.85208,-2.21932 -323.50419,21.50635 -447,0c-123.49581,-21.50635 -13.13117,-88.24472 74,-149c87.13117,-60.75528 151.02885,-115.52747 271,-149c119.97115,-33.47253 296.01575,-45.64539 149,0c-147.01575,45.64539 -617.09185,149.10902 -718,149c-100.90815,-0.10902 167.35164,-103.79069 271,-149c103.64836,-45.20931 42.68531,-31.94626 149,0c106.31469,31.94626 379.90714,82.57573 325,149c-54.90714,66.42427 -438.31388,148.64334 -521,149c-82.68612,0.35666 135.34837,-81.14909 223,-149c87.65163,-67.85091 44.9204,-122.04699 122,-149c77.0796,-26.95301 273.97005,-26.66294 149,0c-124.97005,26.66294 -571.80059,79.69874 -718,149c-146.19941,69.30126 8.2323,154.86796 74,149c65.7677,-5.86796 42.8714,-103.17058 75,-149c32.1286,-45.82942 119.28211,-40.18562 298,0c178.71789,40.18562 449.00018,114.91308 373,149c-76.00018,34.08692 -498.28282,27.53329 -596,0c-97.71718,-27.53329 129.1311,-76.04625 223,-149c93.8689,-72.95375 54.75844,-170.34828 -27,-149c-81.75844,21.34828 -206.16484,161.43938 -122,149c84.16484,-12.43938 376.90093,-177.40924 271,-149c-105.90093,28.40924 -610.43889,250.19756 -732.5,298c-122.06111,47.80244 138.35464,-78.38101 312.5,-149c174.14536,-70.61899 262.02032,-85.67352 149,0c-113.02032,85.67352 -426.93592,272.07507 -311.5,298c115.43592,25.92493 660.22338,-108.62677 684.5,-149c24.27662,-40.37323 -471.95759,13.43202 -597,0c-125.04241,-13.43202 121.10698,-94.10129 224,-149c102.89302,-54.89871 62.52967,-84.02685 122,-149c59.47033,-64.97315 218.77433,-165.79132 74,-149c-144.77433,16.79132 -593.62698,151.19211 -708.5,149c-114.87302,-2.19211 104.23358,-140.97714 112.5,-149c8.26642,-8.02286 -194.30734,114.71644 -112.5,149c81.80734,34.28356 447.99577,-19.88861 634.5,0c186.50423,19.88861 193.32426,113.838 176,149c-17.32426,35.162 -58.79279,11.53659 0,0c58.79279,-11.53659 217.84692,-10.98437 149,0c-68.84692,10.98437 -365.59488,32.4009 -447,0c-81.40512,-32.4009 52.5326,-118.61921 122,-149c69.4674,-30.38079 74.46448,-4.92404 149,0c74.53552,4.92404 218.60949,-10.68463 298,0c79.39051,10.68463 94.09756,47.66258 27,149c-67.09756,101.33742 -215.99974,267.03433 -148.5,298c67.49974,30.96567 351.40141,-72.7999 372.5,-149c21.09859,-76.2001 -220.60591,-124.83474 -224,-149c-3.39409,-24.16526 231.52222,-23.86115 149,0c-82.52222,23.86115 -482.48299,71.27934 -596,0c-113.51701,-71.27934 59.40972,-261.2562 196,-298c136.59028,-36.7438 236.84409,79.74545 373,149c136.15591,69.25455 308.21392,91.2744 176,149c-132.21392,57.7256 -568.69976,151.15695 -670,149c-101.30024,-2.15695 132.58512,-99.90221 223,-149c90.41488,-49.09779 37.35929,-49.5481 149,0c111.64071,49.5481 387.97771,149.0946 373,149c-14.97771,-0.0946 -321.27013,-99.83032 -373,-149c-51.72987,-49.16968 151.10281,-47.77333 149,0c-2.10281,47.77333 -209.14112,141.92363 -223,149c-13.85888,7.07637 165.46168,-72.92118 372,-149c206.53832,-76.07882 440.29442,-148.2389 420,-149c-20.29442,-0.7611 -294.63936,69.87676 -420,149c-125.36064,79.12324 -101.73699,166.73184 -74,149c27.73699,-17.73184 59.5873,-140.80412 223,-149c163.4127,-8.19588 458.38777,98.48464 322,149c-136.38777,50.51536 -704.13839,44.86555 -843,0c-138.86161,-44.86555 151.1658,-128.94685 74,-149c-77.1658,-20.05315 -521.52481,23.92186 -745,0c-223.47519,-23.92186 -226.06655,-115.74057 122,-149c348.06655,-33.25943 1046.79101,-7.95958 1043,0c-3.79101,7.95958 -710.09751,-1.42112 -745,0c-34.90249,1.42112 601.59901,13.64406 894,0c292.40099,-13.64406 240.70145,-53.15512 149,0c-91.70145,53.15512 -223.40483,198.97643 -420,149c-196.59517,-49.97643 -458.08213,-295.75059 -698,-298c-239.91787,-2.24941 -458.26665,239.02593 -494,298c-35.73335,58.97407 111.14871,-64.35314 122,-149c10.85129,-84.64686 -114.3282,-130.61339 74,-149c188.3282,-18.38661 690.1641,-9.19331 1192,0c501.8359,9.19331 -270.58205,4.59665 -1043,0" fill-opacity="0" fill="rgb(0,0,0)" stroke="rgb(0,0,0)" stroke-width="25" stroke-linecap="round" stroke-linejoin="round"/></g></svg>