<?xml version="1.0" encoding="utf-8"?><svg version="1.1" id="Calque_1" xmlns="http://www.w3.org/2000/svg" xmlns:xlink="http://www.w3.org/1999/xlink" x="0px" y="0px" width="2136px" height="718px" viewBox="-482 180 2136 718" enable-background="new -482 180 2136 718" xml:space="preserve"><g xmlns="http://www.w3.org/2000/svg"><polygon points="0,1440 0,0 2560,0 2560,1440" fill="rgb(255,255,255)" stroke-width="1" stroke-linecap="butt" stroke-linejoin="miter"/><path d="M526,720c315.59649,59.99744 631.19297,119.99487 671,149c39.80703,29.00513 -196.1754,27.01795 -298,0c-101.8246,-27.01795 -69.49138,-79.06666 -75,-149c-5.50862,-69.93334 -48.85908,-157.7513 -27,-149c21.85908,8.7513 108.9277,114.07185 176,149c67.0723,34.92815 114.14829,-0.5361 149,0c34.85171,0.5361 57.47916,37.07254 149,0c91.52084,-37.07254 251.93508,-147.75406 271,-149c19.06492,-1.24594 -103.21949,106.94371 -122,149c-18.78051,42.05629 65.94289,17.97923 149,0c83.05711,-17.97923 164.44794,-29.86062 149,0c-15.44794,29.86062 -127.73464,101.46324 -223,149c-95.26536,47.53676 -173.50938,71.00767 -149,0c24.50938,-71.00767 151.77216,-236.49392 345,-298c193.22784,-61.50608 452.42074,-19.03199 149,0c-303.42074,19.03199 -1169.4551,14.62189 -1341,0c-171.5449,-14.62189 351.39967,-39.45558 447,0c95.60033,39.45558 -236.14359,143.20041 -271,149c-34.85641,5.79959 227.17467,-86.34608 420,-149c192.82533,-62.65392 316.44491,-95.81611 298,0c-18.44491,95.81611 -178.95431,320.6105 -345,298c-166.04569,-22.6105 -337.62769,-292.6259 -400,-298c-62.37231,-5.3741 -15.53495,253.89312 102,298c117.53495,44.10688 305.76747,-126.94656 494,-298c188.23253,-171.05344 -227.88374,63.47328 -644,298" fill-opacity="0" fill="rgb(0,0,0)" stroke="rgb(0,0,0)" stroke-width="25" stroke-linecap="round" stroke-linejoin="round"/></g></svg>