<?xml version="1.0" encoding="utf-8"?><svg version="1.1" id="Calque_1" xmlns="http://www.w3.org/2000/svg" xmlns:xlink="http://www.w3.org/1999/xlink" x="0px" y="0px" width="2136px" height="718px" viewBox="-482 180 2136 718" enable-background="new -482 180 2136 718" xml:space="preserve"><g xmlns="http://www.w3.org/2000/svg"><polygon points="0,1440 0,0 2560,0 2560,1440" fill="rgb(255,255,255)" stroke-width="1" stroke-linecap="butt" stroke-linejoin="miter"/><path d="M1271,720c81.85822,20.80434 163.71644,41.60869 0,0c-163.71644,-41.60869 -573.00753,-145.63041 -474,-149c99.00753,-3.36959 706.31368,93.91294 921,149c214.68632,55.08706 36.75279,67.97866 0,0c-36.75279,-67.97866 67.67514,-216.82756 -27,-149c-94.67514,67.82756 -388.45335,352.33158 -419.5,447c-31.04665,94.66842 200.63827,-0.49875 223.5,-149c22.86173,-148.50125 -163.09974,-350.33658 -251,-298c-87.90026,52.33658 -77.73932,358.84509 27.5,447c105.23932,88.15491 305.557,-42.04376 74.5,-149c-231.057,-106.95624 -893.48869,-190.67005 -820,-149c73.48869,41.67005 882.89776,208.72396 969,149c86.10224,-59.72396 -551.10236,-346.2258 -698,-298c-146.89764,48.2258 196.51166,431.17924 474.5,447c277.98834,15.82076 490.55571,-335.49115 270.5,-447c-220.05571,-111.50885 -872.73449,16.78538 -867,149c5.73449,132.21462 669.88225,268.34965 596.5,298c-73.38225,29.65035 -884.29451,-47.18397 -909,-149c-24.70549,-101.81603 736.79581,-228.61378 881.5,-298c144.70419,-69.38622 -327.38872,-81.36091 -447,0c-119.61128,81.36091 113.25905,256.05744 251,298c137.74095,41.94256 180.3525,-48.86883 74,-149c-106.3525,-100.13117 -361.66904,-209.58211 -325,-149c36.66904,60.58211 365.32366,291.19727 549,298c183.67634,6.80273 222.3744,-210.20696 196,-298c-26.3744,-87.79304 -117.82126,-46.36944 -298,0c-180.17874,46.36944 -449.08937,97.68472 -718,149c-268.91063,51.31528 238.29469,174.65764 745.5,298" fill-opacity="0" fill="rgb(0,0,0)" stroke="rgb(0,0,0)" stroke-width="25" stroke-linecap="round" stroke-linejoin="round"/></g></svg>