<?xml version="1.0" encoding="utf-8"?><svg version="1.1" id="Calque_1" xmlns="http://www.w3.org/2000/svg" xmlns:xlink="http://www.w3.org/1999/xlink" x="0px" y="0px" width="2136px" height="718px" viewBox="-482 180 2136 718" enable-background="new -482 180 2136 718" xml:space="preserve"><g xmlns="http://www.w3.org/2000/svg"><polygon points="0,1440 0,0 2560,0 2560,1440" fill="rgb(255,255,255)" stroke-width="1" stroke-linecap="butt" stroke-linejoin="miter"/><path d="M973,720c266.44519,0 532.89037,0 596,0c63.10963,0 -77.1163,0 -149,0c-71.8837,0 -75.42518,0 -149,0c-73.57482,0 -217.18299,0 -149,0c68.18299,0 348.15712,0 447,0c98.84288,0 16.55449,0 -149,0c-165.55449,0 -414.37509,0 -447,0c-32.62491,0 150.94587,0 298,0c147.05413,0 257.5916,0 298,0c40.4084,0 10.68773,0 -149,0c-159.68773,0 -449.3425,0 -447,0c2.3425,0 296.68229,0 298,0c1.31771,0 -290.38664,0 -298,0c-7.61336,0 268.86429,0 298,0c29.13571,0 -189.07052,-0.00001 -149,0c40.07052,0.00001 338.41779,0.00002 447,0c108.58221,-0.00002 27.39935,-0.00008 -149,0c-176.39935,0.00008 -448.01519,0.0003 -447,0c1.01519,-0.0003 274.66142,-0.00111 298,0c23.33858,0.00111 -203.63047,0.00415 -149,0c54.63047,-0.00415 390.86047,-0.0155 447,0c56.13953,0.0155 -167.81142,0.05785 -298,0c-130.18858,-0.05785 -166.61479,-0.21588 -298,0c-131.38521,0.21588 -357.72941,0.80569 -149,0c208.72941,-0.80569 852.53244,-3.00688 894,0c41.46756,3.00688 -519.40035,11.22183 -596,0c-76.59965,-11.22183 331.06895,-41.88043 447,0c115.93105,41.88043 -59.87547,156.29991 -223,149c-163.12453,-7.29991 -313.56708,-136.31919 -373,-149c-59.43292,-12.68081 -27.85623,90.97686 75,149c102.85623,58.02314 276.99198,70.41175 447,0c170.00802,-70.41175 335.88832,-223.62387 196,-298c-139.88832,-74.37613 -585.54524,-69.91629 -745,0c-159.45476,69.91629 -32.70736,205.28902 176,149c208.70736,-56.28902 499.37466,-304.23978 494,-298c-5.37466,6.23978 -306.79129,266.67009 -494,298c-187.20871,31.32991 -260.20948,-166.44059 -176,-149c84.20948,17.44059 325.62923,250.09228 549,298c223.37077,47.90772 428.69256,-88.92852 223,-149c-205.69256,-60.07148 -822.39947,-43.3782 -894,0c-71.60053,43.3782 401.90531,113.44132 671,149c269.09469,35.55868 333.77821,36.61291 149,0c-184.77821,-36.61291 -619.01817,-110.89296 -820,-149c-200.98183,-38.10704 -168.70555,-40.04108 -149,0c19.70555,40.04108 26.84036,122.05726 224,149c197.15964,26.94274 584.34412,-1.18798 745,0c160.65588,1.18798 94.78317,31.69465 -149,0c-243.78317,-31.69465 -665.47679,-125.59063 -671,-149c-5.52321,-23.40937 405.12401,23.66788 596,0c190.87599,-23.66788 161.98077,-118.0809 271,-149c109.01923,-30.9191 355.95293,1.65573 149,0c-206.95293,-1.65573 -867.79248,-37.542 -1043,0c-175.20752,37.542 135.21697,148.51229 176,149c40.78303,0.48771 -188.07542,-109.50715 -325,-149c-136.92458,-39.49285 -181.91528,-8.48369 149,0c330.91528,8.48369 1037.73654,-5.55808 894,0c-143.73654,5.55808 -1138.0309,30.71601 -1043,0c95.0309,-30.71601 1279.38705,-117.30595 1266,-149c-13.38705,-31.69405 -1224.5173,-8.49222 -1341,0c-116.4827,8.49222 861.68214,2.27483 1341,0c479.31786,-2.27483 459.78874,-0.60709 0,0c-459.78874,0.60709 -1359.8371,0.15353 -1341,0c18.8371,-0.15353 956.55965,-0.00701 1341,0c384.44035,0.00701 215.5985,-0.12547 -149,0c-364.5985,0.12547 -924.95366,0.50888 -894,0c30.95366,-0.50888 653.21615,-1.91007 894,0c240.78385,1.91007 100.08905,7.1314 -149,0c-249.08905,-7.1314 -606.57234,-26.61552 -596,0c10.57234,26.61552 389.20032,99.33068 522,149c132.79968,49.66932 19.77105,76.29281 27,149c7.22895,72.70719 134.71549,191.49809 75,149c-59.71549,-42.49809 -306.633,-246.28517 -400,-298c-93.367,-51.71483 -33.1835,48.64258 27,149c60.1835,100.35742 -44.40825,50.17871 -149,0" fill-opacity="0" fill="rgb(0,0,0)" stroke="rgb(0,0,0)" stroke-width="25" stroke-linecap="round" stroke-linejoin="round"/></g></svg>