<?xml version="1.0" encoding="utf-8"?><svg version="1.1" id="Calque_1" xmlns="http://www.w3.org/2000/svg" xmlns:xlink="http://www.w3.org/1999/xlink" x="0px" y="0px" width="2136px" height="718px" viewBox="-482 180 2136 718" enable-background="new -482 180 2136 718" xml:space="preserve"><g xmlns="http://www.w3.org/2000/svg"><polygon points="0,1440 0,0 2560,0 2560,1440" fill="rgb(255,255,255)" stroke-width="1" stroke-linecap="butt" stroke-linejoin="miter"/><path d="M1095,571c144.68346,97.05006 289.36692,194.10012 176,149c-113.36692,-45.10012 -484.78423,-232.35042 -474,-149c10.78423,83.35042 403.77,437.30158 474.5,447c70.73,9.69842 -180.79576,-324.85589 -325.5,-447c-144.70424,-122.14411 -182.58696,-31.87803 -149,0c33.58696,31.87803 138.6436,5.36802 298,0c159.3564,-5.36802 373.01255,10.40596 298,0c-75.01255,-10.40596 -438.6938,-46.99188 -447,0c-8.3062,46.99188 338.76267,177.56154 400,298c61.23733,120.43846 -163.35687,230.74571 -74.5,149c88.85687,-81.74571 491.16481,-355.54437 419.5,-447c-71.66481,-91.45563 -617.30239,-0.56822 -718,149c-100.69761,149.56822 243.54473,357.81727 298.5,298c54.95527,-59.81727 -179.37653,-387.70085 -176.5,-447c2.87653,-59.29915 242.96139,149.98614 176,149c-66.96139,-0.98614 -440.96903,-212.24371 -474,-149c-33.03097,63.24371 274.91474,400.98869 474.5,447c199.58526,46.01131 290.81007,-199.71105 148.5,-298c-142.31007,-98.28895 -518.15504,-49.14447 -894,0c-375.84496,49.14447 -38.92248,24.57224 298,0" fill-opacity="0" fill="rgb(0,0,0)" stroke="rgb(0,0,0)" stroke-width="25" stroke-linecap="round" stroke-linejoin="round"/></g></svg>