<?xml version="1.0" encoding="utf-8"?><svg version="1.1" id="Calque_1" xmlns="http://www.w3.org/2000/svg" xmlns:xlink="http://www.w3.org/1999/xlink" x="0px" y="0px" width="2136px" height="718px" viewBox="-482 180 2136 718" enable-background="new -482 180 2136 718" xml:space="preserve"><g xmlns="http://www.w3.org/2000/svg"><polygon points="0,1440 0,0 2560,0 2560,1440" fill="rgb(255,255,255)" stroke-width="1" stroke-linecap="butt" stroke-linejoin="miter"/><path d="M648,571c40.60737,171.74918 81.21474,343.49835 102,298c20.78526,-45.49835 21.74841,-308.24424 47,-298c25.25159,10.24424 74.79161,293.47861 102,298c27.20839,4.52139 32.08516,-269.67021 47,-298c14.91484,-28.32979 39.86776,189.20223 102,298c62.13224,108.79777 161.44382,108.86129 149,0c-12.44382,-108.86129 -136.64303,-326.64741 -102,-298c34.64303,28.64741 228.1283,303.72833 251,298c22.8717,-5.72833 -124.87017,-292.26593 -102,-298c22.87017,-5.73407 216.35238,269.33538 251,298c34.64762,28.66462 -89.53933,-189.07557 -102,-298c-12.46067,-108.92443 86.80495,-109.03308 149,0c62.19505,109.03308 87.31952,327.20788 102,298c14.68048,-29.20788 18.91698,-305.79845 47,-298c28.08302,7.79845 80.01258,299.98593 102,298c21.98742,-1.98593 14.03271,-298.14525 47,-298c32.96729,0.14525 106.85656,296.59507 102,298c-4.85656,1.40493 -88.45897,-292.23504 47,-298c135.45897,-5.76496 489.97932,276.34508 200,298c-289.97932,21.65492 -1224.45832,-217.14527 -1541,-298c-316.54168,-80.85473 -15.14604,-3.764 0,0c15.14604,3.764 -255.95753,-65.79872 0,0c255.95753,65.79872 1038.97616,266.95888 1145,298c106.02384,31.04112 -464.9471,-108.03681 -820,-149c-355.0529,-40.96319 -494.18777,16.18834 -447,0c47.18777,-16.18834 280.69819,-105.71657 420,-149c139.30181,-43.28343 184.39503,-40.32208 149,0c-35.39503,40.32208 -151.27831,118.00488 -271,149c-119.72169,30.99512 -243.28178,15.30256 -298,0c-54.71822,-15.30256 -40.59458,-30.21512 298,0c338.59458,30.21512 1001.66008,105.55792 969,149c-32.66008,43.44208 -761.04574,54.98345 -894,0c-132.95426,-54.98345 329.52287,-176.49173 792,-298c462.47713,-121.50827 133.23857,88.24586 -196,298" fill-opacity="0" fill="rgb(0,0,0)" stroke="rgb(0,0,0)" stroke-width="25" stroke-linecap="round" stroke-linejoin="round"/></g></svg>