<?xml version="1.0" encoding="utf-8"?><svg version="1.1" id="Calque_1" xmlns="http://www.w3.org/2000/svg" xmlns:xlink="http://www.w3.org/1999/xlink" x="0px" y="0px" width="2136px" height="718px" viewBox="-482 180 2136 718" enable-background="new -482 180 2136 718" xml:space="preserve"><g xmlns="http://www.w3.org/2000/svg"><polygon points="0,1440 0,0 2560,0 2560,1440" fill="rgb(255,255,255)" stroke-width="1" stroke-linecap="butt" stroke-linejoin="miter"/><path d="M600,869c36.38621,-51.4497 72.77242,-102.8994 75,-149c2.22758,-46.1006 -29.70349,-86.85209 -27,-149c2.70349,-62.14791 40.04152,-145.69225 74,-149c33.95848,-3.30775 64.53741,73.62108 75,149c10.46259,75.37892 0.80885,149.20793 27,149c26.19115,-0.20793 88.22721,-74.45281 122,-149c33.77279,-74.54719 39.28232,-149.39668 74,-149c34.71768,0.39668 98.6435,76.03955 75,149c-23.6435,72.96045 -134.85631,143.23849 -122,149c12.85631,5.76151 149.78173,-52.99353 149,0c-0.78173,52.99353 -139.2706,217.73561 -74,149c65.2706,-68.73561 334.30066,-370.9489 419,-447c84.69934,-76.0511 -14.93203,74.06 -74,149c-59.06797,74.94 -77.57254,74.7089 -122,149c-44.42746,74.2911 -114.77779,223.1044 -74,149c40.77779,-74.1044 192.68372,-371.12648 270,-447c77.31628,-75.87352 80.04291,69.40153 75,149c-5.04291,79.59847 -17.85536,93.52035 27,149c44.85536,55.47965 147.37853,152.51706 75,149c-72.37853,-3.51706 -319.65876,-107.58859 -373,-149c-53.34124,-41.41141 87.25649,-20.16269 149,0c61.74351,20.16269 44.63278,39.23935 149,0c104.36722,-39.23935 330.21239,-136.7947 420,-149c89.78761,-12.2053 43.51768,60.93946 27,149c-16.51768,88.06054 -3.28309,191.03684 -74,149c-70.71691,-42.03684 -225.38532,-229.08684 -251,-298c-25.61468,-68.91316 77.82438,-19.68947 149,0c71.17562,19.68947 110.08781,9.84474 149,0c38.91219,-9.84474 93.95609,-4.92237 149,0" fill-opacity="0" fill="rgb(0,0,0)" stroke="rgb(0,0,0)" stroke-width="25" stroke-linecap="round" stroke-linejoin="round"/></g></svg>