<?xml version="1.0" encoding="utf-8"?><svg version="1.1" id="Calque_1" xmlns="http://www.w3.org/2000/svg" xmlns:xlink="http://www.w3.org/1999/xlink" x="0px" y="0px" width="2136px" height="718px" viewBox="-482 180 2136 718" enable-background="new -482 180 2136 718" xml:space="preserve"><g xmlns="http://www.w3.org/2000/svg"><polygon points="0,1440 0,0 2560,0 2560,1440" fill="rgb(255,255,255)" stroke-width="1" stroke-linecap="butt" stroke-linejoin="miter"/><path d="M648,571c362.93299,53.71327 725.86597,107.42655 623,149c-102.86597,41.57345 -671.53091,71.00708 -745,0c-73.46909,-71.00708 348.25767,-242.45486 569,-149c220.74233,93.45486 240.50023,451.81237 176.5,447c-64.00023,-4.81237 -211.7586,-372.79461 -176.5,-447c35.2586,-74.20539 253.53417,145.36609 176,149c-77.53417,3.63391 -450.87808,-208.66974 -474,-149c-23.12192,59.66974 303.97814,391.31288 474.5,447c170.52186,55.68712 184.46552,-164.58177 -0.5,-298c-184.96552,-133.41823 -568.84021,-179.98581 -474,-149c94.84021,30.98581 668.39531,139.52499 921,149c252.60469,9.47501 184.25896,-80.11416 0,0c-184.25896,80.11416 -484.43116,329.93167 -446.5,298c37.93116,-31.93167 413.96569,-345.6125 270.5,-447c-143.46569,-101.3875 -806.43161,9.51834 -867,149c-60.56839,139.48166 481.26075,307.53914 596.5,298c115.23925,-9.53914 -196.1114,-196.67489 -149.5,-298c46.6114,-101.32511 451.18485,-116.83959 569,-149c117.81515,-32.16041 -51.12799,-80.96674 -149,0c-97.87201,80.96674 -124.67289,291.70656 -196,298c-71.32711,6.29344 -187.18046,-191.85949 -224,-149c-36.81954,42.85949 5.39474,326.7314 149.5,298c144.10526,-28.7314 390.1015,-370.06611 419.5,-447c29.3985,-76.93389 -157.80075,110.53306 -345,298c-187.19925,187.46694 327.90038,93.73347 843,0" fill-opacity="0" fill="rgb(0,0,0)" stroke="rgb(0,0,0)" stroke-width="25" stroke-linecap="round" stroke-linejoin="round"/></g></svg>