<?xml version="1.0" encoding="utf-8"?><svg version="1.1" id="Calque_1" xmlns="http://www.w3.org/2000/svg" xmlns:xlink="http://www.w3.org/1999/xlink" x="0px" y="0px" width="2136px" height="718px" viewBox="-482 180 2136 718" enable-background="new -482 180 2136 718" xml:space="preserve"><g xmlns="http://www.w3.org/2000/svg"><polygon points="0,1440 0,0 2560,0 2560,1440" fill="rgb(255,255,255)" stroke-width="1" stroke-linecap="butt" stroke-linejoin="miter"/><path d="M1542,571c-10.38278,236.86179 -20.76555,473.72359 -270.5,447c-249.73445,-26.72359 -738.82056,-317.03256 -623.5,-447c115.32056,-129.96744 835.04781,-99.59336 1043,0c207.95219,99.59336 -95.87067,268.406 -345,298c-249.12933,29.594 -443.56514,-80.03064 -522,-149c-78.43486,-68.96936 -40.86876,-97.28346 -27,-149c13.86876,-51.71654 4.04019,-126.83553 149,0c144.95981,126.83553 444.70799,455.62559 325.5,447c-119.20799,-8.62559 -657.37214,-354.66683 -623.5,-447c33.87214,-92.33317 639.78056,69.04174 623,149c-16.78056,79.95826 -656.25011,78.49989 -745,0c-88.74989,-78.49989 373.21988,-234.04128 569,-149c195.78012,85.04128 125.37061,410.66522 176.5,447c51.12939,36.33478 223.7977,-216.61962 -0.5,-298c-224.2977,-81.38038 -845.5614,8.81324 -745,0c100.5614,-8.81324 922.94791,-116.63335 1314,-149c391.05209,-32.36665 350.76975,10.72017 0,0c-350.76975,-10.72017 -1012.02693,-75.24735 -1043,0c-30.97307,75.24735 568.33796,290.26921 549,298c-19.33796,7.73079 -657.32491,-191.82948 -671,-149c-13.67509,42.82948 596.96167,328.04873 596.5,298c-0.46167,-30.04873 -612.02179,-375.36542 -623.5,-447c-11.47821,-71.63458 577.12548,130.41296 623,149c45.87452,18.58704 -450.98013,-146.2864 -474,-149c-23.01987,-2.7136 427.79503,156.73265 549,298c121.20497,141.26735 -87.2,264.35579 -74.5,149c12.7,-115.35579 246.50497,-469.15579 270.5,-447c23.99503,22.15579 -161.81987,420.26739 -270.5,447c-108.68013,26.73261 -140.22548,-317.91378 -176.5,-447c-36.27452,-129.08622 -77.2782,-42.61228 149,0c226.2782,42.61228 719.83828,41.36292 596,0c-123.83828,-41.36292 -865.07493,-122.83938 -1043,0c-177.92507,122.83938 207.46145,449.99461 474.5,447c267.03855,-2.99461 415.72912,-336.13906 419.5,-447c3.77088,-110.86094 -137.37794,0.56163 -298,0c-160.62206,-0.56163 -340.71737,-113.10746 -298,0c42.71737,113.10746 308.24743,451.86822 176.5,447c-131.74743,-4.86822 -660.77235,-353.36541 -623.5,-447c37.27235,-93.63459 640.84198,67.59342 623,149c-17.84198,81.40658 -657.09557,82.99172 -745,0c-87.90443,-82.99172 375.54028,-250.5603 569,-149c193.45972,101.5603 116.93444,472.24948 176.5,447c59.56556,-25.24948 255.22197,-446.43761 270.5,-447c15.27803,-0.56239 -149.82233,419.50095 -270.5,447c-120.67767,27.49905 -196.93264,-337.56621 -176.5,-447c20.43264,-109.43379 137.55291,36.76387 176,149c38.44709,112.23613 -1.779,190.51072 75,149c76.779,-41.51072 270.5631,-202.80674 223,-149c-47.5631,53.80674 -336.4734,322.71626 -297.5,298c38.9734,-24.71626 405.8305,-343.05829 270.5,-447c-135.3305,-103.94171 -772.84862,6.5169 -867,149c-94.15138,142.4831 355.06396,316.99071 596.5,298c241.43604,-18.99071 275.09277,-231.47972 -0.5,-298c-275.59277,-66.52028 -860.43503,12.92819 -745,0c115.43503,-12.92819 931.14735,-118.23303 1314,-149c382.85265,-30.76697 332.84564,13.00394 0,0c-332.84564,-13.00394 -948.52993,-82.78274 -1043,0c-94.47007,82.78274 332.27406,318.12701 549,298c216.72594,-20.12701 223.4337,-295.7253 196,-298c-27.4337,-2.2747 -89.00885,268.77419 -196,298c-106.99115,29.22581 -259.39829,-183.37146 -224,-149c35.39829,34.37146 258.60201,315.71165 149.5,298c-109.10201,-17.71165 -550.50976,-334.47513 -474.5,-447c76.00976,-112.52487 669.43701,-20.81112 745,0c75.56299,20.81112 -366.7383,-29.28039 -447,0c-80.2617,29.28039 201.51618,137.93268 176,149c-25.51618,11.06732 -358.32641,-75.45033 -474,-149c-115.67359,-73.54967 -14.21054,-134.13136 149,0c163.21054,134.13136 388.16855,462.97578 325.5,447c-62.66855,-15.97578 -412.96367,-376.77176 -623.5,-447c-210.53633,-70.22824 -281.31388,150.11126 -122,149c159.31388,-1.11126 548.71919,-223.67327 718,-149c169.28081,74.67327 118.43711,446.58182 27.5,447c-90.93711,0.41818 -221.96762,-370.65401 -176.5,-447c45.46762,-76.34599 267.43336,142.03423 176,149c-91.43336,6.96577 -496.26584,-197.48292 -474,-149c22.26584,48.48292 471.62999,349.89746 474.5,447c2.87001,97.10254 -440.75413,-10.10691 -372.5,-149c68.25413,-138.89309 648.38654,-309.46981 792,-298c143.61346,11.46981 -149.29204,204.98615 -345,298c-195.70796,93.01385 -294.2184,85.5252 -447,0c-152.7816,-85.5252 -359.83436,-249.08696 -102,-298c257.83436,-48.91304 980.55584,16.82265 1043,0c62.44416,-16.82265 -535.38901,-116.20364 -745,0c-209.61099,116.20364 -30.9998,447.99189 176.5,447c207.4998,-0.99189 443.8882,-334.76393 270.5,-447c-173.3882,-112.23607 -756.55301,-2.93618 -867,149c-110.44699,151.93618 251.82382,346.50863 596.5,298c344.67618,-48.50863 671.75772,-340.09835 568.5,-447c-103.25772,-106.90165 -636.85471,-29.11523 -894,0c-257.14529,29.11523 -237.8389,9.55928 -149,0c88.8389,-9.55928 247.2103,-9.12189 298,0c50.7897,9.12189 -6.00232,26.92829 0,0c6.00232,-26.92829 74.79896,-98.59128 149,0c74.20104,98.59128 153.80646,367.43684 27.5,447c-126.30646,79.56316 -458.52482,-30.15607 -372.5,-149c86.02482,-118.84393 590.2928,-246.81255 792,-298c201.7072,-51.18745 100.8536,-25.59372 0,0c-100.8536,25.59372 -36.9268,87.29686 27,149" fill-opacity="0" fill="rgb(0,0,0)" stroke="rgb(0,0,0)" stroke-width="25" stroke-linecap="round" stroke-linejoin="round"/></g></svg>