<?xml version="1.0" encoding="utf-8"?><svg version="1.1" id="Calque_1" xmlns="http://www.w3.org/2000/svg" xmlns:xlink="http://www.w3.org/1999/xlink" x="0px" y="0px" width="2136px" height="718px" viewBox="-482 180 2136 718" enable-background="new -482 180 2136 718" xml:space="preserve"><g xmlns="http://www.w3.org/2000/svg"><polygon points="0,1440 0,0 2560,0 2560,1440" fill="rgb(255,255,255)" stroke-width="1" stroke-linecap="butt" stroke-linejoin="miter"/><path d="M2189,869c86.48901,-11.81625 172.97803,-23.6325 0,0c-172.97803,23.6325 -605.42309,82.71374 -694,0c-88.57691,-82.71374 166.71433,-307.22248 47,-298c-119.71433,9.22248 -614.43423,252.17616 -643,298c-28.56577,45.82384 409.02259,-105.48216 372,-149c-37.02259,-43.51784 -548.65613,20.75249 -745,0c-196.34387,-20.75249 -77.39806,-126.52778 271,-149c348.39806,-22.47222 926.24836,38.35863 921,149c-5.24836,110.64137 -593.59538,271.09326 -446.5,298c147.09538,26.90674 1029.63315,-79.73165 917.5,-149c-112.13315,-69.26835 -1218.93723,-101.16665 -1514,-149c-295.06277,-47.83335 221.61578,-111.60175 420,-149c198.38422,-37.39825 78.47412,-48.42633 -149,0c-227.47412,48.42633 -562.51226,156.30709 -420,149c142.51226,-7.30709 762.57493,-129.80203 867,-149c104.42507,-19.19797 -306.78747,64.90101 -718,149c-411.21253,84.09899 -205.60627,42.04949 0,0" fill-opacity="0" fill="rgb(0,0,0)" stroke="rgb(0,0,0)" stroke-width="25" stroke-linecap="round" stroke-linejoin="round"/></g></svg>