<?xml version="1.0" encoding="utf-8"?><svg version="1.1" id="Calque_1" xmlns="http://www.w3.org/2000/svg" xmlns:xlink="http://www.w3.org/1999/xlink" x="0px" y="0px" width="2136px" height="718px" viewBox="-482 180 2136 718" enable-background="new -482 180 2136 718" xml:space="preserve"><g xmlns="http://www.w3.org/2000/svg"><polygon points="0,1440 0,0 2560,0 2560,1440" fill="rgb(255,255,255)" stroke-width="1" stroke-linecap="butt" stroke-linejoin="miter"/><path d="M362.5,869c465.8355,-42.17047 931.671,-84.34093 908.5,-149c-23.171,-64.65907 -535.34849,-151.80674 -474,-149c61.34849,2.80674 696.22298,95.56788 921,149c224.77702,53.43212 39.45659,67.53521 0,0c-39.45659,-67.53521 66.95066,-216.70874 -27,-149c-93.95066,67.70874 -388.25923,352.29974 -419.5,447c-31.24077,94.70026 200.58626,-0.49022 223.5,-149c22.91374,-148.50978 -163.0858,-350.33887 -251,-298c-87.9142,52.33887 -77.74305,358.8457 27.5,447c105.24305,88.1543 305.558,-42.04392 74.5,-149c-231.058,-106.95608 -893.48896,-190.67001 -820,-149c73.48896,41.67001 882.89783,208.72395 969,149c86.10217,-59.72395 -551.10237,-346.2258 -698,-298c-146.89763,48.2258 196.51166,431.17924 474.5,447c277.98834,15.82076 490.55573,-335.49115 270.5,-447c-220.05573,-111.50885 -872.73459,16.78538 -867,149c5.73459,132.21462 669.88262,268.34963 596.5,298c-73.38262,29.65037 -884.29588,-47.18389 -909,-149c-24.70412,-101.81611 736.80089,-228.61406 881.5,-298c144.69911,-69.38594 -327.40768,-81.35986 -447,0c-119.59232,81.35986 113.32981,256.05349 251,298c137.67019,41.94651 180.08842,-48.85411 74,-149c-106.08842,-100.14589 -360.68349,-209.63704 -325,-149c35.68349,60.63704 361.64556,291.40228 549,298c187.35444,6.59772 236.10127,-210.97208 196,-298c-40.10127,-87.02792 -169.05063,-43.51396 -298,0c-128.94937,43.51396 -423.47468,96.25698 -718,149" fill-opacity="0" fill="rgb(0,0,0)" stroke="rgb(0,0,0)" stroke-width="25" stroke-linecap="round" stroke-linejoin="round"/></g></svg>