<?xml version="1.0" encoding="utf-8"?><svg version="1.1" id="Calque_1" xmlns="http://www.w3.org/2000/svg" xmlns:xlink="http://www.w3.org/1999/xlink" x="0px" y="0px" width="2136px" height="718px" viewBox="-482 180 2136 718" enable-background="new -482 180 2136 718" xml:space="preserve"><g xmlns="http://www.w3.org/2000/svg"><polygon points="0,1440 0,0 2560,0 2560,1440" fill="rgb(255,255,255)" stroke-width="1" stroke-linecap="butt" stroke-linejoin="miter"/><path d="M675,720c106.23261,-76.7862 212.46522,-153.5724 122,-149c-90.46522,4.5724 -377.62827,90.50339 -271,149c106.62827,58.49661 607.04785,89.55882 820,149c212.95215,59.44118 138.43688,147.26133 -74.5,149c-212.93688,1.73867 -564.29536,-82.60414 -372.5,-149c191.79536,-66.39586 926.74458,-114.84478 819,-149c-107.74458,-34.15522 -1058.18294,-54.01673 -1192,0c-133.81706,54.01673 548.98718,181.9117 969,149c420.01282,-32.9117 577.23422,-226.63007 345,-298c-232.23422,-71.36993 -853.92406,-20.39141 -1043,0c-189.07594,20.39141 54.46203,10.1957 298,0c243.53797,-10.1957 121.76898,-5.09785 0,0" fill-opacity="0" fill="rgb(0,0,0)" stroke="rgb(0,0,0)" stroke-width="25" stroke-linecap="round" stroke-linejoin="round"/></g></svg>