<?xml version="1.0" encoding="utf-8"?><svg version="1.1" id="Calque_1" xmlns="http://www.w3.org/2000/svg" xmlns:xlink="http://www.w3.org/1999/xlink" x="0px" y="0px" width="2136px" height="718px" viewBox="-482 180 2136 718" enable-background="new -482 180 2136 718" xml:space="preserve"><g xmlns="http://www.w3.org/2000/svg"><polygon points="0,1440 0,0 2560,0 2560,1440" fill="rgb(255,255,255)" stroke-width="1" stroke-linecap="butt" stroke-linejoin="miter"/><path d="M600,869c-0.95872,0 -1.91744,0 0,0c1.91744,0 6.71104,0 0,0c-6.71104,0 -24.92671,0 0,0c24.92671,0 92.99579,0 150,0c57.00421,0 102.94355,0 149,0c46.05645,0 92.23002,0 149,0c56.76998,0 124.13638,0 149,0c24.86362,0 7.22445,0 0,0c-7.22445,0 -4.03417,0 0,0c4.03417,0 8.91223,0 0,0c-8.91223,0 -31.61473,0 0,0c31.61473,0 117.54671,0 149,0c31.45329,0 8.42788,0 0,0c-8.42788,0 -2.25824,0 0,0c2.25824,0 0.60509,0 0,0c-0.60509,0 -0.16213,0 0,0c0.16213,0 0.04344,0 0,0c-0.04344,0 -0.01164,0 0,0c0.01164,0 0.00312,0 0,0c-0.00312,0 -0.00084,0 0,0c0.00084,0 0.00022,0 0,0c-0.00022,0 -0.00006,0 0,0c0.00006,0 0.00002,0 0,0c-0.00002,0 0,0 0,0c0,0 0,0 0,0c0,0 0,0 0,0c0,0 0,0 0,0c0,0 0,0 0,0c0,0 0,0 0,0c0,0 0,0 0,0c0,0 0,0 0,0c0,0 0,0 0,0c0,0 0,0 0,0c0,0 0,0 0,0L1346,869L1346,869L1346,869L1346,869L1346,869L1346,869L1346,869L1346,869L1346,869L1346,869L1346,869L1346,869L1346,869L1346,869L1346,869L1346,869L1346,869L1346,869L1346,869L1346,869L1346,869L1346,869L1346,869L1346,869L1346,869L1346,869L1346,869L1346,869L1346,869L1346,869L1346,869L1346,869L1346,869L1346,869L1346,869L1346,869L1346,869L1346,869L1346,869L1346,869L1346,869L1346,869L1346,869L1346,869L1346,869L1346,869L1346,869L1346,869L1346,869L1346,869L1346,869L1346,869L1346,869L1346,869L1346,869L1346,869L1346,869L1346,869L1346,869L1346,869L1346,869L1346,869L1346,869L1346,869L1346,869L1346,869L1346,869L1346,869L1346,869L1346,869L1346,869L1346,869L1346,869L1346,869L1346,869L1346,869L1346,869L1346,869L1346,869L1346,869L1346,869L1346,869L1346,869L1346,869L1346,869L1346,869L1346,869L1346,869L1346,869L1346,869L1346,869L1346,869L1346,869L1346,869L1346,869L1346,869L1346,869L1346,869L1346,869L1346,869L1346,869L1346,869L1346,869L1346,869L1346,869L1346,869L1346,869L1346,869L1346,869L1346,869L1346,869L1346,869L1346,869L1346,869L1346,869L1346,869L1346,869L1346,869L1346,869L1346,869L1346,869L1346,869L1346,869L1346,869L1346,869L1346,869L1346,869L1346,869L1346,869L1346,869L1346,869L1346,869L1346,869L1346,869L1346,869c0,0 0,0 0,0c0,0 0,0 0,0c0,0 0,0 0,0c0,0 0,0 0,0c0,0 0,0 0,0c0,0 0,0 0,0c0,0 0,0 0,0c0,0 0,0 0,0c0,0 0,0 0,0c0,0 0,0 0,0c0,0 -0.00001,0.00002 0,0c0.00001,-0.00002 0.00003,-0.00006 0,0c-0.00003,0.00006 -0.00011,0.00023 0,0c0.00011,-0.00023 0.00042,-0.00084 0,0c-0.00042,0.00084 -0.00156,0.00314 0,0c0.00156,-0.00314 0.00581,-0.01171 0,0c-0.00581,0.01171 -0.02169,0.04369 0,0c0.02169,-0.04369 0.08095,-0.16304 0,0c-0.08095,0.16304 -0.30212,0.60847 0,0c0.30212,-0.60847 1.12752,-2.27084 0,0c-1.12752,2.27084 -4.20798,8.4749 0,0c4.20798,-8.4749 15.70439,-31.62875 0,0c-15.70439,31.62875 -58.60958,118.04012 -74.5,149c-15.89042,30.95988 -4.76607,6.46828 0,0c4.76607,-6.46828 3.17385,5.08677 0,0c-3.17385,-5.08677 -7.92935,-26.81534 0,0c7.92935,26.81534 28.54355,102.17461 0,0c-28.54355,-102.17461 -106.24484,-381.88311 -176.5,-447c-70.25516,-65.11689 -133.06421,84.35781 -122,149c11.06421,64.64219 96.00166,44.45187 149,0c52.99834,-44.45187 74.05757,-113.16528 122,-149c47.94243,-35.83472 122.76808,-38.79075 149,0c26.23192,38.79075 3.87013,119.32828 27,149c23.12987,29.67172 91.75139,8.47763 149,0c57.24861,-8.47763 103.1243,-4.23882 149,0c45.8757,4.23882 97.43785,2.11941 149,0" fill-opacity="0" fill="rgb(0,0,0)" stroke="rgb(0,0,0)" stroke-width="25" stroke-linecap="round" stroke-linejoin="round"/></g></svg>