<?xml version="1.0" encoding="utf-8"?><svg version="1.1" id="Calque_1" xmlns="http://www.w3.org/2000/svg" xmlns:xlink="http://www.w3.org/1999/xlink" x="0px" y="0px" width="2136px" height="718px" viewBox="-482 180 2136 718" enable-background="new -482 180 2136 718" xml:space="preserve"><g xmlns="http://www.w3.org/2000/svg"><polygon points="0,1440 0,0 2560,0 2560,1440" fill="rgb(255,255,255)" stroke-width="1" stroke-linecap="butt" stroke-linejoin="miter"/><path d="M946,571c-67.96186,-14.12249 -135.92371,-28.24497 -149,0c-13.07629,28.24497 28.733,98.8574 27,149c-1.733,50.1426 -47.00828,79.81538 75,149c122.00828,69.18462 411.30012,177.88108 372.5,149c-38.80012,-28.88108 -405.69219,-195.33971 -298.5,-298c107.19219,-102.66029 688.46862,-141.52223 718,-149c29.53138,-7.47777 -492.68231,16.42864 -745,0c-252.31769,-16.42864 -234.73938,-73.19233 -149,0c85.73938,73.19233 239.63982,276.34066 251,298c11.36018,21.65934 -119.81991,-138.17033 -251,-298c-131.18009,-159.82967 8.90996,-79.91483 149,0" fill-opacity="0" fill="rgb(0,0,0)" stroke="rgb(0,0,0)" stroke-width="25" stroke-linecap="round" stroke-linejoin="round"/></g></svg>