<?xml version="1.0" encoding="utf-8"?><svg version="1.1" id="Calque_1" xmlns="http://www.w3.org/2000/svg" xmlns:xlink="http://www.w3.org/1999/xlink" x="0px" y="0px" width="2136px" height="718px" viewBox="-482 180 2136 718" enable-background="new -482 180 2136 718" xml:space="preserve"><g xmlns="http://www.w3.org/2000/svg"><polygon points="0,1440 0,0 2560,0 2560,1440" fill="rgb(255,255,255)" stroke-width="1" stroke-linecap="butt" stroke-linejoin="miter"/><path d="M600,869c434.51229,-37.81551 869.02458,-75.63101 820,-149c-49.02458,-73.36899 -581.58604,-182.29146 -623,-149c-41.41396,33.29146 408.31958,208.79686 549,298c140.68042,89.20314 -27.69227,92.10404 0,0c27.69227,-92.10404 251.4495,-279.213 196,-298c-55.4495,-18.787 -390.10573,130.74797 -569,149c-178.89427,18.25203 -202.02659,-94.77886 -176,-149c26.02659,-54.22114 101.21209,-49.63251 149,0c47.78791,49.63251 68.17823,144.30892 27,149c-41.17823,4.69108 -143.92499,-80.60315 -176,-149c-32.07501,-68.39685 6.52175,-119.8963 149,0c142.47825,119.8963 388.83799,411.18835 325.5,447c-63.33799,35.81165 -436.37372,-183.8571 -447.5,-298c-11.12628,-114.1429 339.65687,-122.75995 569,-149c229.34313,-26.24005 337.24623,-70.10309 298,0c-39.24623,70.10309 -225.64178,254.17231 -345,298c-119.35822,43.82769 -171.67911,-52.58616 -224,-149c-52.32089,-96.41384 48.58956,100.79308 149.5,298" fill-opacity="0" fill="rgb(0,0,0)" stroke="rgb(0,0,0)" stroke-width="25" stroke-linecap="round" stroke-linejoin="round"/></g></svg>