<?xml version="1.0" encoding="utf-8"?><svg version="1.1" id="Calque_1" xmlns="http://www.w3.org/2000/svg" xmlns:xlink="http://www.w3.org/1999/xlink" x="0px" y="0px" width="2136px" height="718px" viewBox="-482 180 2136 718" enable-background="new -482 180 2136 718" xml:space="preserve"><g xmlns="http://www.w3.org/2000/svg"><polygon points="0,1440 0,0 2560,0 2560,1440" fill="rgb(255,255,255)" stroke-width="1" stroke-linecap="butt" stroke-linejoin="miter"/><path d="M1271.5,1018c152.89404,-109.04646 305.78808,-218.09292 297.5,-298c-8.28808,-79.90708 -177.75828,-130.67479 -325,-149c-147.24172,-18.32521 -272.25497,-4.20794 -298,0c-25.74503,4.20794 47.77816,-1.49347 149,0c101.22184,1.49347 230.14235,10.18181 149,0c-81.14235,-10.18181 -372.34754,-39.23376 -447,0c-74.65246,39.23376 67.24782,146.75325 176,149c108.75218,2.24675 184.35625,-100.77922 122,-149c-62.35625,-48.22078 -262.67284,-41.63636 -298,0c-35.32716,41.63636 94.3351,118.32468 176,149c81.6649,30.67532 115.33245,15.33766 149,0c33.66755,-15.33766 599.33377,-82.16883 1165,-149" fill-opacity="0" fill="rgb(0,0,0)" stroke="rgb(0,0,0)" stroke-width="25" stroke-linecap="round" stroke-linejoin="round"/></g></svg>