<?xml version="1.0" encoding="utf-8"?><svg version="1.1" id="Calque_1" xmlns="http://www.w3.org/2000/svg" xmlns:xlink="http://www.w3.org/1999/xlink" x="0px" y="0px" width="2136px" height="718px" viewBox="-482 180 2136 718" enable-background="new -482 180 2136 718" xml:space="preserve"><g xmlns="http://www.w3.org/2000/svg"><polygon points="0,1440 0,0 2560,0 2560,1440" fill="rgb(255,255,255)" stroke-width="1" stroke-linecap="butt" stroke-linejoin="miter"/><path d="M1095,571c13.76613,80.9496 27.53226,161.8992 176,149c148.46774,-12.8992 431.63709,-119.64721 271,-149c-160.63709,-29.35279 -765.08062,18.68964 -867,149c-101.91938,130.31036 298.6854,342.88865 596.5,298c297.8146,-44.88865 492.83901,-347.24422 270.5,-447c-222.33901,-99.75578 -862.04145,3.08825 -867,149c-4.95855,145.91175 624.8268,334.89123 596.5,298c-28.3268,-36.89123 -714.76574,-299.65318 -745.5,-298c-30.73426,1.65318 594.23618,267.72147 745.5,298c151.26382,30.27853 -171.17897,-175.2327 -149.5,-298c21.67897,-122.7673 387.47971,-162.79066 420,-149c32.52029,13.79066 -268.23985,81.39533 -569,149c-300.76015,67.60467 -89.38007,-40.69766 122,-149" fill-opacity="0" fill="rgb(0,0,0)" stroke="rgb(0,0,0)" stroke-width="25" stroke-linecap="round" stroke-linejoin="round"/></g></svg>