<?xml version="1.0" encoding="utf-8"?><svg version="1.1" id="Calque_1" xmlns="http://www.w3.org/2000/svg" xmlns:xlink="http://www.w3.org/1999/xlink" x="0px" y="0px" width="2136px" height="718px" viewBox="-482 180 2136 718" enable-background="new -482 180 2136 718" xml:space="preserve"><g xmlns="http://www.w3.org/2000/svg"><polygon points="0,1440 0,0 2560,0 2560,1440" fill="rgb(255,255,255)" stroke-width="1" stroke-linecap="butt" stroke-linejoin="miter"/><path d="M362.5,869c512.79411,-179.81484 1025.58823,-359.62967 1179.5,-298c153.91177,61.62967 -51.0588,364.70386 -270.5,447c-219.4412,82.29614 -453.35302,-56.18577 -372.5,-149c80.85302,-92.81423 476.47089,-139.96079 372,-149c-104.47089,-9.03921 -709.03055,20.02891 -745,0c-35.96945,-20.02891 496.65131,-89.15486 569,-149c72.34869,-59.84514 -315.57469,-110.40946 -298,0c17.57469,110.40946 440.64746,381.7927 474.5,447c33.85254,65.2073 -321.51515,-75.76133 -372.5,-149c-50.98485,-73.23867 202.41312,-78.74738 372,-149c169.58688,-70.25262 255.36266,-205.24915 271,-149c15.63734,56.24915 -38.86375,303.74397 -196,298c-157.13625,-5.74397 -416.90765,-264.72674 -549,-298c-132.09235,-33.27326 -136.50565,159.16297 -122,149c14.50565,-10.16297 47.93025,-222.92516 122,-149c74.06975,73.92516 188.78466,434.53766 474.5,447c285.71534,12.46234 742.43113,-323.22549 568.5,-447c-173.93113,-123.77451 -978.50917,-35.63571 -1043,0c-64.49083,35.63571 611.10555,18.76834 894,0c282.89445,-18.76834 173.08697,-39.43763 149,0c-24.08697,39.43763 37.54658,138.98218 -122,149c-159.54658,10.01782 -540.27329,-69.49109 -921,-149c-380.72671,-79.50891 530.63665,183.74554 1442,447" fill-opacity="0" fill="rgb(0,0,0)" stroke="rgb(0,0,0)" stroke-width="25" stroke-linecap="round" stroke-linejoin="round"/></g></svg>