<?xml version="1.0" encoding="utf-8"?><svg version="1.1" id="Calque_1" xmlns="http://www.w3.org/2000/svg" xmlns:xlink="http://www.w3.org/1999/xlink" x="0px" y="0px" width="2136px" height="718px" viewBox="-482 180 2136 718" enable-background="new -482 180 2136 718" xml:space="preserve"><g xmlns="http://www.w3.org/2000/svg"><polygon points="0,1440 0,0 2560,0 2560,1440" fill="rgb(255,255,255)" stroke-width="1" stroke-linecap="butt" stroke-linejoin="miter"/><path d="M1095,571c13.76142,80.95317 27.52284,161.90635 176,149c148.47716,-12.90635 431.67004,-119.67222 271,-149c-160.67004,-29.32778 -765.20302,18.78252 -867,149c-101.79698,130.21748 299.14204,342.54212 596.5,298c297.35796,-44.54212 491.13487,-345.95101 270.5,-447c-220.63487,-101.04899 -855.68152,-1.73809 -867,149c-11.31848,150.73809 601.09122,352.90338 596.5,298c-4.59122,-54.90338 -626.18335,-366.87544 -623.5,-447c2.68335,-80.12456 629.64217,71.59837 623,149c-6.64217,77.40163 -646.88533,80.48195 -745,0c-98.11467,-80.48195 345.89915,-244.52618 569,-149c223.10085,95.52618 225.28874,450.62278 176.5,447c-48.78874,-3.62278 -148.5541,-365.96492 -176.5,-447c-27.9459,-81.03508 15.92767,119.23692 176,149c160.07233,29.76308 436.34343,-110.98276 271,-149c-165.34343,-38.01724 -772.30137,26.69413 -867,149c-94.69863,122.30587 322.86207,302.20623 596.5,298c273.63793,-4.20623 403.35311,-192.51905 446.5,-298c43.14689,-105.48095 -0.27451,-128.13004 -27,-149c-26.72549,-20.86996 -36.75509,-39.96079 0,0c36.75509,39.96079 120.29485,138.97321 -122,149c-242.29485,10.02679 -810.42431,-68.93205 -894,0c-83.57569,68.93205 317.40239,285.75498 596.5,298c279.09761,12.24502 436.31474,-180.08788 446.5,-298c10.18526,-117.91212 -126.66135,-161.40346 -176,-149c-49.33865,12.40346 -11.16932,80.70173 27,149c38.16932,68.29827 -366.91534,-40.35087 -772,-149" fill-opacity="0" fill="rgb(0,0,0)" stroke="rgb(0,0,0)" stroke-width="25" stroke-linecap="round" stroke-linejoin="round"/></g></svg>