<?xml version="1.0" encoding="utf-8"?><svg version="1.1" id="Calque_1" xmlns="http://www.w3.org/2000/svg" xmlns:xlink="http://www.w3.org/1999/xlink" x="0px" y="0px" width="2136px" height="718px" viewBox="-482 180 2136 718" enable-background="new -482 180 2136 718" xml:space="preserve"><g xmlns="http://www.w3.org/2000/svg"><polygon points="0,1440 0,0 2560,0 2560,1440" fill="rgb(255,255,255)" stroke-width="1" stroke-linecap="butt" stroke-linejoin="miter"/><path d="M1244,571c220.51379,15.55733 441.02758,31.11466 447,0c5.97242,-31.11466 -202.59651,-108.90132 -298,0c-95.40349,108.90132 -77.64152,404.49061 -121.5,447c-43.85848,42.50939 -149.33739,-168.06111 -298.5,-298c-149.16261,-129.93889 -342.0089,-179.24617 -176,-149c166.0089,30.24617 690.873,140.0458 921,149c230.127,8.9542 165.51689,-82.93702 0,0c-165.51689,82.93702 -431.94056,340.70228 -446.5,298c-14.55944,-42.70228 222.74536,-385.87211 270.5,-447c47.75464,-61.12789 -94.04088,159.78617 -196,298c-101.95912,138.21383 -164.08182,193.72742 -74.5,149c89.58182,-44.72742 330.86818,-189.69584 446.5,-298c115.63182,-108.30416 105.60909,-179.94404 -27,-149c-132.60909,30.94404 -387.80455,164.47202 -643,298c-255.19545,133.52798 -253.09773,-82.23601 -251,-298" fill-opacity="0" fill="rgb(0,0,0)" stroke="rgb(0,0,0)" stroke-width="25" stroke-linecap="round" stroke-linejoin="round"/></g></svg>