<?xml version="1.0" encoding="utf-8"?><svg version="1.1" id="Calque_1" xmlns="http://www.w3.org/2000/svg" xmlns:xlink="http://www.w3.org/1999/xlink" x="0px" y="0px" width="2136px" height="718px" viewBox="-482 180 2136 718" enable-background="new -482 180 2136 718" xml:space="preserve"><g xmlns="http://www.w3.org/2000/svg"><polygon points="0,1440 0,0 2560,0 2560,1440" fill="rgb(255,255,255)" stroke-width="1" stroke-linecap="butt" stroke-linejoin="miter"/><path d="M946,571c-131.55956,-12.31265 -263.11913,-24.62531 -298,0c-34.88087,24.62531 26.91694,86.18857 27,149c0.08306,62.81143 -61.54864,126.87103 -75,149c-13.45136,22.12897 21.27762,2.3273 150,0c128.72238,-2.3273 351.43817,12.81976 447,0c95.56183,-12.81976 63.9697,-53.60634 74,-149c10.0303,-95.39366 61.68305,-245.39442 47,-298c-14.68305,-52.60558 -95.70188,-7.81599 -149,0c-53.29812,7.81599 -78.87551,-21.34161 -149,0c-70.12449,21.34161 -184.79607,93.18243 -223,149c-38.20393,55.81757 0.0598,95.61189 27,149c26.9402,53.38811 42.55688,120.36999 75,149c32.44312,28.63001 81.71269,18.90813 149,0c67.28731,-18.90813 152.59235,-47.00251 223,-149c70.40765,-101.99749 125.91791,-277.89809 47,-298c-78.91791,-20.10191 -292.26398,115.59488 -372,149c-79.73602,33.40512 -25.86199,-35.48144 149,0c174.86199,35.48144 470.71195,175.33087 623,149c152.28805,-26.33087 161.01418,-218.84203 196,-298c34.98582,-79.15797 96.23133,-44.96273 149,0c52.76867,44.96273 97.06052,100.69296 75,149c-22.06052,48.30704 -110.47339,89.19089 -122,149c-11.52661,59.80911 53.83306,138.54349 -74,149c-127.83306,10.45651 -448.85884,-47.36486 -522,-149c-73.14116,-101.63514 101.60231,-247.08407 196,-298c94.39769,-50.91593 108.44962,-7.29888 149,0c40.55038,7.29888 107.59922,-21.72041 149,0c41.40078,21.72041 57.15349,94.18052 75,149c17.84651,54.81948 37.78683,91.99832 27,149c-10.78683,57.00168 -52.30081,133.82618 -74,149c-21.69919,15.17382 -23.58359,-31.30306 -149,0c-125.41641,31.30306 -374.36482,140.38605 -521.5,149c-147.13518,8.61395 -192.45713,-83.24115 -223.5,-149c-31.04287,-65.75885 -47.80667,-105.42143 -75,-149c-27.19333,-43.57857 -64.8162,-91.07311 -27,-149c37.8162,-57.92689 151.07147,-126.28614 223,-149c71.92853,-22.71386 102.53034,0.21765 149,0c46.46966,-0.21765 108.80719,-23.58447 149,0c40.19281,23.58447 58.24091,94.12023 75,149c16.75909,54.87977 32.22918,94.10354 27,149c-5.22918,54.89646 -31.15763,125.4656 -74,149c-42.84237,23.5344 -102.59867,0.03408 -149,0c-46.40133,-0.03408 -79.4477,23.3981 -149,0c-69.5523,-23.3981 -175.61054,-93.62648 -224,-149c-48.38946,-55.37352 -39.11014,-95.89218 -27,-149c12.11014,-53.10782 27.05108,-118.80479 74,-149c46.94892,-30.19521 125.9058,-24.88867 149,0c23.0942,24.88867 -9.67429,69.35948 75,149c84.67429,79.64052 286.79134,194.45074 176,149c-110.79134,-45.45074 -534.49108,-251.16244 -698,-298c-163.50892,-46.83756 -66.82702,65.19902 -74,149c-7.17298,83.80098 -118.20084,139.36637 -122,149c-3.79916,9.63363 99.6304,-26.66448 149,0c49.3696,26.66448 44.67925,116.29156 75,149c30.32075,32.70844 95.65258,8.49823 149,0c53.34742,-8.49823 94.71041,-1.2845 149,0c54.28959,1.2845 121.50577,-3.36023 149,0c27.49423,3.36023 15.26649,14.72542 149,0c133.73351,-14.72542 413.42825,-55.54146 223,-149c-190.42825,-93.45854 -850.9795,-239.55958 -1145,-298c-294.0205,-58.44042 -221.51025,-29.22021 -149,0c72.51025,29.22021 54.50512,89.1101 36.5,149" fill-opacity="0" fill="rgb(0,0,0)" stroke="rgb(0,0,0)" stroke-width="25" stroke-linecap="round" stroke-linejoin="round"/></g></svg>