<?xml version="1.0" encoding="utf-8"?><svg version="1.1" id="Calque_1" xmlns="http://www.w3.org/2000/svg" xmlns:xlink="http://www.w3.org/1999/xlink" x="0px" y="0px" width="2136px" height="718px" viewBox="-482 180 2136 718" enable-background="new -482 180 2136 718" xml:space="preserve"><g xmlns="http://www.w3.org/2000/svg"><polygon points="0,1440 0,0 2560,0 2560,1440" fill="rgb(255,255,255)" stroke-width="1" stroke-linecap="butt" stroke-linejoin="miter"/><path d="M1271,720c-313.78372,1.60291 -627.56744,3.20582 -745,0c-117.43256,-3.20582 -38.51395,-11.22038 149,0c187.51395,11.22038 483.62324,41.6757 596,0c112.37676,-41.6757 41.02097,-155.48244 -176,-149c-217.02097,6.48244 -579.70714,133.25404 -569,149c10.70714,15.74596 394.8076,-79.53371 596,0c201.1924,79.53371 219.47675,333.8808 149.5,298c-69.97675,-35.8808 -228.21462,-361.98948 -176.5,-447c51.71462,-85.01052 313.38171,71.07712 176,149c-137.38171,77.92288 -673.81223,77.68099 -745,0c-71.18777,-77.68099 322.86719,-232.80109 569,-149c246.13281,83.80109 344.34345,406.52337 176.5,447c-167.84345,40.47663 -601.74099,-201.29239 -745.5,-298c-143.75901,-96.70761 2.62049,-48.3538 149,0c146.37951,48.3538 73.18975,24.1769 0,0" fill-opacity="0" fill="rgb(0,0,0)" stroke="rgb(0,0,0)" stroke-width="25" stroke-linecap="round" stroke-linejoin="round"/></g></svg>