<?xml version="1.0" encoding="utf-8"?><svg version="1.1" id="Calque_1" xmlns="http://www.w3.org/2000/svg" xmlns:xlink="http://www.w3.org/1999/xlink" x="0px" y="0px" width="2136px" height="718px" viewBox="-482 180 2136 718" enable-background="new -482 180 2136 718" xml:space="preserve"><g xmlns="http://www.w3.org/2000/svg"><polygon points="0,1440 0,0 2560,0 2560,1440" fill="rgb(255,255,255)" stroke-width="1" stroke-linecap="butt" stroke-linejoin="miter"/><path d="M1569,720c-125.92104,84.07746 -251.84208,168.15493 -223,149c28.84208,-19.15493 212.44728,-141.54224 223,-149c10.55272,-7.45776 -151.94703,100.01403 -223,149c-71.05297,48.98597 -50.65915,39.48611 0,0c50.65915,-39.48611 131.58365,-108.95848 223,-149c91.41635,-40.04152 193.32456,-50.65218 149,0c-44.32456,50.65218 -234.88188,162.5672 -223,149c11.88188,-13.5672 226.20296,-152.6166 223,-149c-3.20296,3.6166 -223.92994,149.89922 -223,149c0.92994,-0.89922 223.51682,-148.98028 223,-149c-0.51682,-0.01972 -224.13733,148.02192 -223,149c1.13733,0.97808 227.03249,-145.10738 223,-149c-4.03249,-3.89262 -237.99261,134.40761 -223,149c14.99261,14.59239 278.93797,-94.52304 372,-149c93.06203,-54.47696 15.24072,-54.31544 -149,0c-164.24072,54.31544 -414.90085,162.7848 -372,149c42.90085,-13.7848 379.36269,-149.82377 372,-149c-7.36269,0.82377 -358.54991,138.51028 -372,149c-13.45009,10.48972 310.83694,-106.21735 372,-149c61.16306,-42.78265 -140.79784,-11.64089 -149,0c-8.20216,11.64089 177.35442,3.7809 149,0c-28.35442,-3.7809 -270.61983,-3.48273 -298,0c-27.38017,3.48273 160.1249,10.15001 149,0c-11.1249,-10.15001 -220.87978,-37.11731 -298,0c-77.12022,37.11731 -21.60578,138.31923 75,149c96.60578,10.68077 234.30289,-69.15962 372,-149c137.69711,-79.84038 -5.65144,-39.92019 -149,0" fill-opacity="0" fill="rgb(0,0,0)" stroke="rgb(0,0,0)" stroke-width="25" stroke-linecap="round" stroke-linejoin="round"/></g></svg>