<?xml version="1.0" encoding="utf-8"?><svg version="1.1" id="Calque_1" xmlns="http://www.w3.org/2000/svg" xmlns:xlink="http://www.w3.org/1999/xlink" x="0px" y="0px" width="2136px" height="718px" viewBox="-482 180 2136 718" enable-background="new -482 180 2136 718" xml:space="preserve"><g xmlns="http://www.w3.org/2000/svg"><polygon points="0,1440 0,0 2560,0 2560,1440" fill="rgb(255,255,255)" stroke-width="1" stroke-linecap="butt" stroke-linejoin="miter"/><path d="M1048,869c-36.63405,-96.72291 -73.2681,-193.44582 -224,-149c-150.7319,44.44582 -415.56166,230.06036 -512.5,298c-96.93834,67.93964 -25.98526,18.20438 0,0c25.98526,-18.20438 7.00271,-4.87787 0,0c-7.00271,4.87787 -2.02559,1.30712 0,0c2.02559,-1.30712 1.09964,-0.3506 0,0c-1.09964,0.3506 -2.37298,0.09527 0,0c2.37298,-0.09527 8.39227,-0.03048 0,0c-8.39227,0.03048 -31.1961,0.02664 0,0c31.1961,-0.02664 116.39212,-0.07607 201,0c84.60788,0.07607 168.62763,0.27765 200,0c31.37237,-0.27765 10.09737,-1.03453 0,0c-10.09737,1.03453 -9.0171,3.86048 0,0c9.0171,-3.86048 25.97104,-14.4074 0,0c-25.97104,14.4074 -94.86707,53.76912 0,0c94.86707,-53.76912 353.49722,-200.66907 409.5,-298c56.00278,-97.33093 -90.62181,-145.09285 -176,-149c-85.37819,-3.90715 -109.50998,36.04047 -149,0c-39.49002,-36.04047 -94.33826,-148.06902 74,-149c168.33826,-0.93098 559.86304,109.2356 671,149c111.13696,39.7644 -58.11388,9.12663 -149,0c-90.88612,-9.12663 -103.40752,3.25788 -149,0" fill-opacity="0" fill="rgb(0,0,0)" stroke="rgb(0,0,0)" stroke-width="25" stroke-linecap="round" stroke-linejoin="round"/></g></svg>