<?xml version="1.0" encoding="utf-8"?><svg version="1.1" id="Calque_1" xmlns="http://www.w3.org/2000/svg" xmlns:xlink="http://www.w3.org/1999/xlink" x="0px" y="0px" width="2136px" height="718px" viewBox="-482 180 2136 718" enable-background="new -482 180 2136 718" xml:space="preserve"><g xmlns="http://www.w3.org/2000/svg"><polygon points="0,1440 0,0 2560,0 2560,1440" fill="rgb(255,255,255)" stroke-width="1" stroke-linecap="butt" stroke-linejoin="miter"/><path d="M1840,571c-81.35246,-62.94971 -162.70491,-125.89942 -224,-149c-61.29509,-23.10058 -102.53281,-6.35203 -149,0c-46.46719,6.35203 -98.16383,2.30755 -149,0c-50.83617,-2.30755 -100.81186,-2.87818 -149,0c-48.18814,2.87818 -94.58872,9.20516 -149,0c-54.41128,-9.20516 -116.83327,-33.94247 -149,0c-32.16673,33.94247 -34.07819,126.56472 -74,149c-39.92181,22.43528 -117.85396,-25.31642 -149,0c-31.14604,25.31642 -15.50596,123.70097 27,149c42.50596,25.29903 111.87779,-22.48745 149,0c37.12221,22.48745 41.99481,115.24884 75,149c33.00519,33.75116 94.14297,8.4921 149,0c54.85703,-8.4921 103.43331,-0.21722 149,0c45.56669,0.21722 88.1238,-7.6232 149,0c60.8762,7.6232 140.07148,30.71003 149,0c8.92852,-30.71003 -52.40972,-115.21692 -75,-149c-22.59028,-33.78308 -6.43261,-16.84235 0,0c6.43261,16.84235 3.14017,33.58631 0,0c-3.14017,-33.58631 -6.12806,-117.50291 122,-149c128.12806,-31.49709 387.37208,-10.57467 149,0c-238.37208,10.57467 -974.36025,10.8016 -1043,0c-68.63975,-10.8016 530.06891,-32.63174 745,0c214.93109,32.63174 46.0846,119.72534 -271,149c-317.0846,29.27466 -782.40732,0.73036 -596,0c186.40732,-0.73036 1024.54467,26.3532 1341,0c316.45533,-26.3532 111.22862,-106.14316 -176,-149c-287.22862,-42.85684 -656.45917,-48.78056 -745,0c-88.54083,48.78056 103.60805,152.26538 176,149c72.39195,-3.26538 25.02696,-113.28097 122,-149c96.97304,-35.71903 338.28412,2.85851 149,0c-189.28412,-2.85851 -809.16345,-47.15307 -894,0c-84.83655,47.15307 365.36969,185.75377 549,298c183.63031,112.24623 100.68468,198.13799 223.5,149c122.81532,-49.13799 451.39157,-233.30573 297.5,-298c-153.89157,-64.69427 -790.25096,-9.91505 -894,0c-103.74904,9.91505 325.11228,-25.03405 447,0c121.88772,25.03405 -63.19817,110.05126 -74,149c-10.80183,38.94874 152.68038,31.82902 149,0c-3.68038,-31.82902 -174.52336,-88.36732 -75,-149c99.52336,-60.63268 469.41307,-125.35972 569,-149c99.58693,-23.64028 -71.12893,-6.19378 -298,0c-226.87107,6.19378 -509.89736,1.13485 -596,0c-86.10264,-1.13485 24.71838,1.65439 149,0c124.28162,-1.65439 262.02383,-7.75239 298,0c35.97617,7.75239 -29.81372,29.35519 -149,0c-119.18628,-29.35519 -291.76895,-109.66837 -373,-149c-81.23105,-39.33163 -71.11048,-37.68172 149,0c220.11048,37.68172 650.21088,111.39524 671,149c20.78912,37.60476 -367.73305,39.10075 -447,0c-79.26695,-39.10075 150.72133,-118.79826 372,-149c221.27867,-30.20174 433.84773,-10.90771 298,0c-135.84773,10.90771 -620.11223,13.42912 -745,0c-124.88777,-13.42912 109.60121,-42.80876 298,0c188.39879,42.80876 330.70741,157.80592 75,149c-255.70741,-8.80592 -909.43084,-141.41492 -820,-149c89.43084,-7.58508 922.01595,109.85377 1118,149c195.98405,39.14623 -244.63295,-0.00016 -596,0c-351.36705,0.00016 -613.48416,39.14685 -447,0c166.48416,-39.14685 761.56959,-156.58726 670,-149c-91.56959,7.58726 -869.79418,140.20219 -1006.5,149c-136.70582,8.79781 368.10715,-106.22149 559.5,-149c191.39285,-42.77851 69.36559,-13.31623 149,0c79.63441,13.31623 360.93048,10.48643 298,0c-62.93048,-10.48643 -470.08751,-28.62947 -447,0c23.08751,28.62947 476.41954,104.03145 671,149c194.58046,44.96855 130.40933,59.50368 -149,0c-279.40933,-59.50368 -774.05688,-193.04616 -671,-149c103.05688,44.04616 803.81817,265.68096 847,298c43.18183,32.31904 -571.21581,-124.67767 -921,-149c-349.78419,-24.32233 -434.95494,84.02971 -122,149c312.95494,64.97029 1024.03558,86.55883 1192,0c167.96442,-86.55883 -207.18736,-281.26504 -251,-298c-43.81264,-16.73496 243.71386,144.50131 224,149c-19.71386,4.49869 -346.66808,-147.74021 -373,-149c-26.33192,-1.25979 247.95844,148.45954 224,149c-23.95844,0.54046 -346.1657,-148.09793 -373,-149c-26.8343,-0.90207 241.70435,145.9322 224,149c-17.70435,3.0678 -321.6517,-137.63087 -373,-149c-51.3483,-11.36913 149.90244,106.59128 224,149c74.09756,42.40872 21.04193,9.26576 -149,0c-170.04193,-9.26576 -457.07017,5.34568 -447,0c10.07017,-5.34568 317.23873,-30.64847 298,0c-19.23873,30.64847 -364.88477,117.24821 -420,149c-55.11523,31.75179 180.30034,8.65563 298,0c117.69966,-8.65563 117.6834,-2.87072 149,0c31.3166,2.87072 93.96605,2.82724 149,0c55.03395,-2.82724 102.4524,-8.43823 149,0c46.5476,8.43823 92.22435,30.92568 149,0c56.77565,-30.92568 124.65018,-115.26448 122,-149c-2.65018,-33.73552 -75.82509,-16.86776 -149,0c-73.17491,16.86776 410.41255,8.43388 894,0" fill-opacity="0" fill="rgb(0,0,0)" stroke="rgb(0,0,0)" stroke-width="25" stroke-linecap="round" stroke-linejoin="round"/></g></svg>