<?xml version="1.0" encoding="utf-8"?><svg version="1.1" id="Calque_1" xmlns="http://www.w3.org/2000/svg" xmlns:xlink="http://www.w3.org/1999/xlink" x="0px" y="0px" width="2136px" height="718px" viewBox="-482 180 2136 718" enable-background="new -482 180 2136 718" xml:space="preserve"><g xmlns="http://www.w3.org/2000/svg"><polygon points="0,1440 0,0 2560,0 2560,1440" fill="rgb(255,255,255)" stroke-width="1" stroke-linecap="butt" stroke-linejoin="miter"/><path d="M675,720c630.53162,-54.50888 1261.06324,-109.01776 1165,-149c-96.06324,-39.98224 -918.72132,-65.43783 -1043,0c-124.27868,65.43783 449.82206,221.76908 549,298c99.17794,76.23092 -276.56692,72.36151 -447,0c-170.43308,-72.36151 -135.55437,-213.21511 -102,-298c33.55437,-84.78489 65.7844,-113.50107 149,0c83.2156,113.50107 217.41676,369.21938 325.5,447c108.08324,77.78062 190.04855,-22.37646 223.5,-149c33.45145,-126.62354 18.38905,-279.71352 47,-298c28.61095,-18.28648 100.89526,98.23056 176,149c75.10474,50.76944 153.02993,35.79127 0,0c-153.02993,-35.79127 -537.01496,-92.39563 -921,-149c-383.98504,-56.60437 -117.49252,-28.30218 149,0" fill-opacity="0" fill="rgb(0,0,0)" stroke="rgb(0,0,0)" stroke-width="25" stroke-linecap="round" stroke-linejoin="round"/></g></svg>