<?xml version="1.0" encoding="utf-8"?><svg version="1.1" id="Calque_1" xmlns="http://www.w3.org/2000/svg" xmlns:xlink="http://www.w3.org/1999/xlink" x="0px" y="0px" width="2136px" height="718px" viewBox="-482 180 2136 718" enable-background="new -482 180 2136 718" xml:space="preserve"><g xmlns="http://www.w3.org/2000/svg"><polygon points="0,1440 0,0 2560,0 2560,1440" fill="rgb(255,255,255)" stroke-width="1" stroke-linecap="butt" stroke-linejoin="miter"/><path d="M526,720c17.63307,1.24108 35.26614,2.48215 149,0c113.73386,-2.48215 323.5685,-8.68754 596,0c272.4315,8.68754 607.45987,32.26799 447,0c-160.45987,-32.26799 -816.40798,-120.38442 -921,-149c-104.59202,-28.61558 342.17206,2.26969 447,0c104.82794,-2.26969 -132.28024,-37.69435 -149,0c-16.71976,37.69435 186.94891,148.5077 176,149c-10.94891,0.4923 -236.51542,-109.33645 -474,-149c-237.48458,-39.66355 -486.88725,-9.1619 -298,0c188.88725,9.1619 816.06443,-3.01595 894,0c77.93557,3.01595 -393.37045,21.22569 -596,0c-202.62955,-21.22569 -136.58262,-81.88682 0,0c136.58262,81.88682 343.70094,306.32159 549,298c205.29906,-8.32159 408.77887,-249.39954 345,-298c-63.77887,-48.60046 -394.81642,95.27657 -718,149c-323.18358,53.72343 -638.51319,17.29327 -447,0c191.51319,-17.29327 889.86916,-15.44967 1192,0c302.13084,15.44967 208.03654,44.50539 0,0c-208.03654,-44.50539 -530.01532,-162.57189 -623,-149c-92.98468,13.57189 43.02472,158.78215 176,149c132.97528,-9.78215 262.91642,-174.55673 271,-149c8.08358,25.55673 -105.69041,241.44478 -196,298c-90.30959,56.55522 -157.1548,-46.22239 -224,-149c-66.8452,-102.77761 -256.9226,-51.3888 -447,0" fill-opacity="0" fill="rgb(0,0,0)" stroke="rgb(0,0,0)" stroke-width="25" stroke-linecap="round" stroke-linejoin="round"/></g></svg>