<?xml version="1.0" encoding="utf-8"?><svg version="1.1" id="Calque_1" xmlns="http://www.w3.org/2000/svg" xmlns:xlink="http://www.w3.org/1999/xlink" x="0px" y="0px" width="2136px" height="718px" viewBox="-482 180 2136 718" enable-background="new -482 180 2136 718" xml:space="preserve"><g xmlns="http://www.w3.org/2000/svg"><polygon points="0,1440 0,0 2560,0 2560,1440" fill="rgb(255,255,255)" stroke-width="1" stroke-linecap="butt" stroke-linejoin="miter"/><path d="M824,720c392.76111,-107.29224 785.52222,-214.58448 867,-149c81.47778,65.58448 -148.32777,304.04568 -345,298c-196.67223,-6.04568 -360.21114,-256.59824 -251,-298c109.21114,-41.40176 491.17233,126.3473 623,149c131.82767,22.6527 13.52182,-99.79094 -27,-149c-40.52182,-49.20906 -3.25962,-25.18355 0,0c3.25962,25.18355 -27.48336,51.52513 -122,149c-94.51664,97.47487 -252.80694,266.08305 -297.5,298c-44.69306,31.91695 24.21114,-72.85731 -74.5,-149c-98.71114,-76.14269 -365.03761,-123.6538 -522,-149c-156.96239,-25.3462 -204.56068,-28.52749 -149,0c55.56068,28.52749 214.28034,88.76374 373,149c158.71966,60.23626 414.35983,-44.38187 670,-149" fill-opacity="0" fill="rgb(0,0,0)" stroke="rgb(0,0,0)" stroke-width="25" stroke-linecap="round" stroke-linejoin="round"/></g></svg>