<?xml version="1.0" encoding="utf-8"?><svg version="1.1" id="Calque_1" xmlns="http://www.w3.org/2000/svg" xmlns:xlink="http://www.w3.org/1999/xlink" x="0px" y="0px" width="2136px" height="718px" viewBox="-482 180 2136 718" enable-background="new -482 180 2136 718" xml:space="preserve"><g xmlns="http://www.w3.org/2000/svg"><polygon points="0,1440 0,0 2560,0 2560,1440" fill="rgb(255,255,255)" stroke-width="1" stroke-linecap="butt" stroke-linejoin="miter"/><path d="M526,720c613.70416,22.92042 1227.40831,45.84083 1192,0c-35.40831,-45.84083 -719.92909,-160.44291 -1070,-149c-350.07091,11.44291 -365.69195,148.93081 -122,149c243.69195,0.06919 746.69689,-137.28031 718,-149c-28.69689,-11.71969 -589.09561,102.19045 -569,149c20.09561,46.80955 620.68555,26.51851 596,0c-24.68555,-26.51851 -674.64661,-59.26448 -745,0c-70.35339,59.26448 438.90087,210.53941 522,149c83.09913,-61.53941 -259.95686,-335.89316 -251,-298c8.95686,37.89316 369.92658,388.03322 474.5,447c104.57342,58.96678 -47.24946,-173.23971 -0.5,-298c46.74946,-124.76029 292.07128,-142.07437 420,-149c127.92872,-6.92563 138.46436,-3.46282 149,0c10.53564,3.46282 -516.23218,1.73141 -1043,0" fill-opacity="0" fill="rgb(0,0,0)" stroke="rgb(0,0,0)" stroke-width="25" stroke-linecap="round" stroke-linejoin="round"/></g></svg>