<?xml version="1.0" encoding="utf-8"?><svg version="1.1" id="Calque_1" xmlns="http://www.w3.org/2000/svg" xmlns:xlink="http://www.w3.org/1999/xlink" x="0px" y="0px" width="2136px" height="718px" viewBox="-482 180 2136 718" enable-background="new -482 180 2136 718" xml:space="preserve"><g xmlns="http://www.w3.org/2000/svg"><polygon points="0,1440 0,0 2560,0 2560,1440" fill="rgb(255,255,255)" stroke-width="1" stroke-linecap="butt" stroke-linejoin="miter"/><path d="M362.5,869c507.57397,-67.43466 1015.14794,-134.86932 908.5,-149c-106.64794,-14.13068 -827.51779,25.04262 -745,0c82.51779,-25.04262 968.42321,-114.30115 1314,-149c345.57679,-34.69885 150.82494,-14.83802 0,0c-150.82494,14.83802 -257.72297,24.65324 -596,0c-338.27703,-24.65324 -907.93304,-83.77494 -820,-149c87.93304,-65.22506 833.45514,-136.55348 1043,0c209.54486,136.55348 -116.88752,480.98884 -195.5,596c-78.61248,115.01116 90.59495,0.5981 223.5,-149c132.90505,-149.5981 229.50771,-334.38126 196,-298c-33.50771,36.38126 -197.12578,293.92694 -345,298c-147.87422,4.07306 -280.0046,-245.32648 -251,-298c29.0046,-52.67352 219.14417,91.379 176,149c-43.14417,57.621 -319.57209,28.8105 -596,0c-276.42791,-28.8105 618.78604,60.09475 1514,149" fill-opacity="0" fill="rgb(0,0,0)" stroke="rgb(0,0,0)" stroke-width="25" stroke-linecap="round" stroke-linejoin="round"/></g></svg>