<?xml version="1.0" encoding="utf-8"?><svg version="1.1" id="Calque_1" xmlns="http://www.w3.org/2000/svg" xmlns:xlink="http://www.w3.org/1999/xlink" x="0px" y="0px" width="2136px" height="718px" viewBox="-482 180 2136 718" enable-background="new -482 180 2136 718" xml:space="preserve"><g xmlns="http://www.w3.org/2000/svg"><polygon points="0,1440 0,0 2560,0 2560,1440" fill="rgb(255,255,255)" stroke-width="1" stroke-linecap="butt" stroke-linejoin="miter"/><path d="M1244,571c218.18923,14.02008 436.37847,28.04015 447,0c10.62153,-28.04015 -186.32463,-98.14054 -298,0c-111.67537,98.14054 -138.07994,364.52201 -121.5,447c16.57994,82.47799 76.14439,-18.94749 -74.5,-149c-150.64439,-130.05251 -511.49761,-288.73206 -400,-298c111.49761,-9.26794 695.34604,130.87572 921,149c225.65396,18.12428 93.11343,-85.77081 -176,-149c-269.11343,-63.22919 -674.79977,-85.79247 -745,0c-70.20023,85.79247 195.08565,279.94071 251,298c55.91435,18.05929 -97.54282,-139.97035 -251,-298c-153.45718,-158.02965 -63.22859,-4.51482 27,149" fill-opacity="0" fill="rgb(0,0,0)" stroke="rgb(0,0,0)" stroke-width="25" stroke-linecap="round" stroke-linejoin="round"/></g></svg>