<?xml version="1.0" encoding="utf-8"?><svg version="1.1" id="Calque_1" xmlns="http://www.w3.org/2000/svg" xmlns:xlink="http://www.w3.org/1999/xlink" x="0px" y="0px" width="2136px" height="718px" viewBox="-482 180 2136 718" enable-background="new -482 180 2136 718" xml:space="preserve"><g xmlns="http://www.w3.org/2000/svg"><polygon points="0,1440 0,0 2560,0 2560,1440" fill="rgb(255,255,255)" stroke-width="1" stroke-linecap="butt" stroke-linejoin="miter"/><path d="M1271,720c-42.45448,23.4428 -84.90897,46.88561 0,0c84.90897,-46.88561 297.18138,-164.09962 420,-149c122.81862,15.09962 156.18344,162.51288 27,149c-129.18344,-13.51288 -420.91515,-187.95191 -474,-149c-53.08485,38.95191 132.47716,291.29474 251,298c118.52284,6.70526 170.00653,-232.22707 196,-298c25.99347,-65.77293 26.49674,41.61353 27,149c0.50326,107.38647 -236.74837,-20.80677 -474,-149" fill-opacity="0" fill="rgb(0,0,0)" stroke="rgb(0,0,0)" stroke-width="25" stroke-linecap="round" stroke-linejoin="round"/></g></svg>