<?xml version="1.0" encoding="utf-8"?><svg version="1.1" id="Calque_1" xmlns="http://www.w3.org/2000/svg" xmlns:xlink="http://www.w3.org/1999/xlink" x="0px" y="0px" width="2136px" height="718px" viewBox="-482 180 2136 718" enable-background="new -482 180 2136 718" xml:space="preserve"><g xmlns="http://www.w3.org/2000/svg"><polygon points="0,1440 0,0 2560,0 2560,1440" fill="rgb(255,255,255)" stroke-width="1" stroke-linecap="butt" stroke-linejoin="miter"/><path d="M1420,720c66.05782,-0.0078 132.11564,-0.0156 149,0c16.88436,0.0156 -15.40473,0.05459 0,0c15.40473,-0.05459 78.50329,-0.20277 149,0c70.49671,0.20277 148.39157,0.75649 149,0c0.60843,-0.75649 -76.06959,-2.82318 -149,0c-72.93041,2.82318 -142.11323,10.53625 -149,0c-6.88677,-10.53625 48.52252,-39.3218 149,0c100.47748,39.3218 246.02316,146.75096 75,149c-171.02316,2.24904 -658.61516,-100.68204 -820,-149c-161.38484,-48.31796 3.4375,-42.02279 149,0c145.5625,42.02279 271.86518,119.77321 224,149c-47.86518,29.22679 -269.89822,9.92996 -298,0c-28.10178,-9.92996 137.7277,-10.49305 149,0c11.2723,10.49305 -132.01258,32.04226 -298,0c-165.98742,-32.04226 -354.67739,-117.67597 -373,-149c-18.32261,-31.32403 133.72215,-8.33839 298,0c164.27785,8.33839 340.78878,2.02952 447,0c106.21122,-2.02952 142.12272,0.2203 149,0c6.87728,-0.2203 -15.27967,-2.91071 -149,0c-133.72033,2.91071 -379.00403,11.42255 -447,0c-67.99597,-11.42255 41.29581,-42.77948 298,0c256.70419,42.77948 660.82081,159.69536 671,149c10.17919,-10.69536 -373.57905,-149.00196 -373,-149c0.57905,0.00196 385.49537,138.31247 522,149c136.50463,10.68753 24.59755,-106.24792 -224,-149c-248.59755,-42.75208 -633.88557,-11.32077 -596,0c37.88557,11.32077 498.94475,2.53101 447,0c-51.94475,-2.53101 -616.89341,1.19672 -745,0c-128.10659,-1.19672 180.6289,-7.31791 298,0c117.3711,7.31791 43.37782,28.0749 149,0c105.62218,-28.0749 390.85982,-104.9817 271,-149c-119.85982,-44.0183 -644.81709,-55.14808 -745,0c-100.18291,55.14808 224.40855,176.57404 549,298c324.59145,121.42596 50.29573,-13.78702 -224,-149" fill-opacity="0" fill="rgb(0,0,0)" stroke="rgb(0,0,0)" stroke-width="25" stroke-linecap="round" stroke-linejoin="round"/></g></svg>