<?xml version="1.0" encoding="utf-8"?><svg version="1.1" id="Calque_1" xmlns="http://www.w3.org/2000/svg" xmlns:xlink="http://www.w3.org/1999/xlink" x="0px" y="0px" width="2136px" height="718px" viewBox="-482 180 2136 718" enable-background="new -482 180 2136 718" xml:space="preserve"><g xmlns="http://www.w3.org/2000/svg"><polygon points="0,1440 0,0 2560,0 2560,1440" fill="rgb(255,255,255)" stroke-width="1" stroke-linecap="butt" stroke-linejoin="miter"/><path d="M946,571c382.5829,-44.85469 765.16581,-89.70939 745,0c-20.16581,89.70939 -443.08032,313.98286 -494,298c-50.91968,-15.98286 270.15549,-272.22205 345,-298c74.84451,-25.77795 -96.54164,178.90533 -196,298c-99.45836,119.09467 -126.98894,152.60073 -74.5,149c52.48894,-3.60073 184.99741,-44.30826 223.5,-149c38.50259,-104.69174 -17.00069,-273.36767 47,-298c64.00069,-24.63233 247.50534,94.77896 176,149c-71.50534,54.22104 -398.02067,43.25182 -596,0c-197.97933,-43.25182 -267.42267,-118.78623 -176,-149c91.42267,-30.21377 343.71133,-15.10688 596,0c252.28867,15.10688 102.64433,156.55344 -47,298" fill-opacity="0" fill="rgb(0,0,0)" stroke="rgb(0,0,0)" stroke-width="25" stroke-linecap="round" stroke-linejoin="round"/></g></svg>