<?xml version="1.0" encoding="utf-8"?><svg version="1.1" id="Calque_1" xmlns="http://www.w3.org/2000/svg" xmlns:xlink="http://www.w3.org/1999/xlink" x="0px" y="0px" width="2136px" height="718px" viewBox="-482 180 2136 718" enable-background="new -482 180 2136 718" xml:space="preserve"><g xmlns="http://www.w3.org/2000/svg"><polygon points="0,1440 0,0 2560,0 2560,1440" fill="rgb(255,255,255)" stroke-width="1" stroke-linecap="butt" stroke-linejoin="miter"/><path d="M1793,869c-3.54083,-92.20054 -7.08165,-184.40107 -75,-149c-67.91835,35.40107 -200.21422,198.40375 -223,149c-22.78578,-49.40375 63.93852,-311.21394 47,-298c-16.93852,13.21394 -137.53985,301.45201 -196,298c-58.46015,-3.45201 -54.77911,-298.5941 -102,-298c-47.22089,0.5941 -145.34372,296.92439 -196,298c-50.65628,1.07561 -53.84601,-293.10344 -102,-298c-48.15399,-4.89656 -141.27223,279.48939 -196,298c-54.72777,18.51061 -71.06508,-228.85411 -102,-298c-30.93492,-69.14589 -76.46746,39.92706 -122,149c-45.53254,109.07294 573.23373,54.53647 1192,0" fill-opacity="0" fill="rgb(0,0,0)" stroke="rgb(0,0,0)" stroke-width="25" stroke-linecap="round" stroke-linejoin="round"/></g></svg>