<?xml version="1.0" encoding="utf-8"?><svg version="1.1" id="Calque_1" xmlns="http://www.w3.org/2000/svg" xmlns:xlink="http://www.w3.org/1999/xlink" x="0px" y="0px" width="2136px" height="718px" viewBox="-482 180 2136 718" enable-background="new -482 180 2136 718" xml:space="preserve"><g xmlns="http://www.w3.org/2000/svg"><polygon points="0,1440 0,0 2560,0 2560,1440" fill="rgb(255,255,255)" stroke-width="1" stroke-linecap="butt" stroke-linejoin="miter"/><path d="M2189,869c-260.12226,-126.04294 -520.24451,-252.08588 -647,-298c-126.75549,-45.91412 -120.14421,-11.69941 -149,0c-28.85579,11.69941 -93.17865,0.88353 -149,0c-55.82135,-0.88353 -103.14119,8.16527 -149,0c-45.85881,-8.16527 -90.25658,-33.54463 -149,0c-58.74342,33.54463 -131.83248,126.01325 -122,149c9.83248,22.98675 102.5865,-23.50836 149,0c46.4135,23.50836 46.48649,117.0202 75,149c28.51351,31.9798 85.46754,2.42758 149,0c63.53246,-2.42758 133.64336,22.2695 149,0c15.35664,-22.2695 -24.04096,-91.50557 -75,-149c-50.95904,-57.49443 -113.47952,-103.24721 -176,-149c-62.52048,-45.75279 -92.26024,51.62361 -122,149" fill-opacity="0" fill="rgb(0,0,0)" stroke="rgb(0,0,0)" stroke-width="25" stroke-linecap="round" stroke-linejoin="round"/></g></svg>