<?xml version="1.0" encoding="utf-8"?><svg version="1.1" id="Calque_1" xmlns="http://www.w3.org/2000/svg" xmlns:xlink="http://www.w3.org/1999/xlink" x="0px" y="0px" width="2136px" height="718px" viewBox="-482 180 2136 718" enable-background="new -482 180 2136 718" xml:space="preserve"><g xmlns="http://www.w3.org/2000/svg"><polygon points="0,1440 0,0 2560,0 2560,1440" fill="rgb(255,255,255)" stroke-width="1" stroke-linecap="butt" stroke-linejoin="miter"/><path d="M797,571c-132.7209,42.72607 -265.44181,85.45214 -271,149c-5.55819,63.54786 116.04633,147.91752 224,149c107.95367,1.08248 202.25648,-81.12222 223,-149c20.74352,-67.87778 -32.07224,-121.42863 -27,-149c5.07224,-27.57137 68.03248,-29.16325 149,0c80.96752,29.16325 179.94231,89.08162 176,149c-3.94231,59.91838 -110.80171,119.83675 -74,149c36.80171,29.16325 217.26455,27.57137 298,0c80.73545,-27.57137 61.74352,-81.12222 74,-149c12.25648,-67.87778 55.76136,-150.08248 122,-149c66.23864,1.08248 155.21104,85.45214 176,149c20.78896,63.54786 -26.60552,106.27393 -74,149c-47.39448,42.72607 -98.19724,21.36303 -149,0" fill-opacity="0" fill="rgb(0,0,0)" stroke="rgb(0,0,0)" stroke-width="25" stroke-linecap="round" stroke-linejoin="round"/></g></svg>