<?xml version="1.0" encoding="utf-8"?><svg version="1.1" id="Calque_1" xmlns="http://www.w3.org/2000/svg" xmlns:xlink="http://www.w3.org/1999/xlink" x="0px" y="0px" width="2136px" height="718px" viewBox="-482 180 2136 718" enable-background="new -482 180 2136 718" xml:space="preserve"><g xmlns="http://www.w3.org/2000/svg"><polygon points="0,1440 0,0 2560,0 2560,1440" fill="rgb(255,255,255)" stroke-width="1" stroke-linecap="butt" stroke-linejoin="miter"/><path d="M648,571c334.64306,87.20584 669.28613,174.41168 623,149c-46.28613,-25.41168 -473.50145,-163.44088 -474,-149c-0.49855,14.44088 425.71966,181.35183 549,298c123.28034,116.64817 -56.37721,183.03356 -74.5,149c-18.12279,-34.03356 125.28916,-168.48608 -0.5,-298c-125.78916,-129.51392 -520.77943,-254.08924 -474,-149c46.77943,105.08924 535.32856,439.84304 474.5,447c-60.82856,7.15696 -671.03482,-313.28292 -623.5,-447c47.53482,-133.71708 752.81072,-80.71136 1043,0c290.18928,80.71136 165.29193,189.12835 -122,149c-287.29193,-40.12835 -736.97845,-228.80205 -772,-149c-35.02155,79.80205 344.62186,428.07985 474.5,447c129.87814,18.92015 9.99099,-291.51737 121.5,-447c111.50901,-155.48263 454.41416,-156.01039 447,0c-7.41416,156.01039 -365.14764,468.55892 -568.5,447c-203.35236,-21.55892 -252.3236,-377.22529 -176.5,-447c75.8236,-69.77471 276.44204,146.34222 176,149c-100.44204,2.65778 -501.94458,-208.1436 -474,-149c27.94458,59.1436 485.33626,388.23219 474.5,447c-10.83626,58.76781 -489.90046,-152.78517 -447.5,-298c42.40046,-145.21483 606.26556,-224.09152 718,-149c111.73444,75.09152 -228.6618,304.15126 -196,298c32.6618,-6.15126 438.38163,-247.5135 345,-298c-93.38163,-50.4865 -685.86474,89.90276 -1016,149c-330.13526,59.09724 -397.92269,36.90246 -149,0c248.92269,-36.90246 814.55548,-88.5126 867,-149c52.44452,-60.4874 -408.29924,-129.85206 -447,0c-38.70076,129.85206 344.64147,458.92084 325.5,447c-19.14147,-11.92084 -440.76663,-364.8313 -623.5,-447c-182.73337,-82.1687 -126.57495,106.40434 -122,149c4.57495,42.59566 -42.43358,-60.78608 149,0c191.43358,60.78608 621.30926,285.73997 596.5,298c-24.80926,12.26003 -504.30347,-188.1738 -596.5,-298c-92.19653,-109.8262 202.90464,-129.04478 420,-149c217.09536,-19.95522 356.18493,-40.64709 447,0c90.81507,40.64709 133.35564,142.63312 176,149c42.64436,6.36688 85.39249,-82.88541 0,0c-85.39249,82.88541 -298.92561,337.90852 -446.5,298c-147.57439,-39.90852 -229.19004,-374.74868 -176.5,-447c52.69004,-72.25132 239.68578,118.08618 176,149c-63.68578,30.91382 -378.05308,-97.59605 -474,-149c-95.94692,-51.40395 26.52654,-25.70197 149,0c122.47346,25.70197 -13.26327,12.85099 -149,0" fill-opacity="0" fill="rgb(0,0,0)" stroke="rgb(0,0,0)" stroke-width="25" stroke-linecap="round" stroke-linejoin="round"/></g></svg>