<?xml version="1.0" encoding="utf-8"?><svg version="1.1" id="Calque_1" xmlns="http://www.w3.org/2000/svg" xmlns:xlink="http://www.w3.org/1999/xlink" x="0px" y="0px" width="2136px" height="718px" viewBox="-482 180 2136 718" enable-background="new -482 180 2136 718" xml:space="preserve"><g xmlns="http://www.w3.org/2000/svg"><polygon points="0,1440 0,0 2560,0 2560,1440" fill="rgb(255,255,255)" stroke-width="1" stroke-linecap="butt" stroke-linejoin="miter"/><path d="M526,720c613.71634,22.72084 1227.43269,45.44167 1192,0c-35.43269,-45.44167 -720.01441,-159.04585 -1070,-149c-349.98559,10.04585 -365.37505,143.74173 -122,149c243.37505,5.25827 745.51462,-117.92108 718,-149c-27.51462,-31.07892 -584.68341,29.94258 -569,149c15.68341,119.05742 604.21904,296.15074 596.5,298c-7.71904,1.84926 -611.69273,-171.54556 -596.5,-298c15.19273,-126.45444 649.55189,-205.9685 718,-149c68.44811,56.9685 -429.01483,250.41957 -494,298c-64.98517,47.58043 302.50741,-50.70979 670,-149c367.49259,-98.29021 -263.25371,-49.14511 -894,0" fill-opacity="0" fill="rgb(0,0,0)" stroke="rgb(0,0,0)" stroke-width="25" stroke-linecap="round" stroke-linejoin="round"/></g></svg>