<?xml version="1.0" encoding="utf-8"?><svg version="1.1" id="Calque_1" xmlns="http://www.w3.org/2000/svg" xmlns:xlink="http://www.w3.org/1999/xlink" x="0px" y="0px" width="2136px" height="718px" viewBox="-482 180 2136 718" enable-background="new -482 180 2136 718" xml:space="preserve"><g xmlns="http://www.w3.org/2000/svg"><polygon points="0,1440 0,0 2560,0 2560,1440" fill="rgb(255,255,255)" stroke-width="1" stroke-linecap="butt" stroke-linejoin="miter"/><path d="M648,571c205.20541,97.53877 410.41082,195.07755 623,149c212.58918,-46.07755 432.56211,-235.77141 420,-149c-12.56211,86.77141 -257.65928,450.0081 -419.5,447c-161.84072,-3.0081 -240.42499,-372.26097 -176.5,-447c63.92499,-74.73903 270.35926,145.0358 176,149c-94.35926,3.9642 -489.51203,-207.88222 -474,-149c15.51203,58.88222 441.68886,388.49309 474.5,447c32.81114,58.50691 -327.74341,-154.09013 -298.5,-298c29.24341,-143.90987 448.28477,-219.13256 420,-149c-28.28477,70.13256 -503.89566,285.62037 -494,298c9.89566,12.37963 505.29788,-178.34891 670,-149c164.70212,29.34891 -1.29584,278.77527 -297.5,298c-296.20416,19.22473 -722.6145,-191.75216 -745.5,-298c-22.8855,-106.24784 357.75385,-107.76663 420,-149c62.24615,-41.23337 -193.90089,-122.18132 -149,0c44.90089,122.18132 390.84972,447.4919 474.5,447c83.65028,-0.4919 -94.998,-326.78628 -27.5,-447c67.498,-120.21372 381.14229,-34.34678 447,0c65.85771,34.34678 -116.07114,17.17339 -298,0c-181.92886,-17.17339 -606.21443,140.41331 -1030.5,298" fill-opacity="0" fill="rgb(0,0,0)" stroke="rgb(0,0,0)" stroke-width="25" stroke-linecap="round" stroke-linejoin="round"/></g></svg>