<?xml version="1.0" encoding="utf-8"?><svg version="1.1" id="Calque_1" xmlns="http://www.w3.org/2000/svg" xmlns:xlink="http://www.w3.org/1999/xlink" x="0px" y="0px" width="2136px" height="718px" viewBox="-482 180 2136 718" enable-background="new -482 180 2136 718" xml:space="preserve"><g xmlns="http://www.w3.org/2000/svg"><polygon points="0,1440 0,0 2560,0 2560,1440" fill="rgb(255,255,255)" stroke-width="1" stroke-linecap="butt" stroke-linejoin="miter"/><path d="M648,571c-93.15638,-0.00045 -186.31275,-0.0009 -149,0c37.31275,0.0009 205.09464,0.00314 298,0c92.90536,-0.00314 110.93421,-0.01166 149,0c38.06579,0.01166 96.16853,0.04349 149,0c52.83147,-0.04349 100.39168,-0.16229 149,0c48.60832,0.16229 98.26475,0.60569 149,0c50.73525,-0.60569 102.54932,-2.26047 149,0c46.45068,2.26047 87.53798,8.43619 149,0c61.46202,-8.43619 143.29875,-31.48429 149,0c5.70125,31.48429 -64.73297,117.50098 -122,149c-57.26703,31.49902 -101.36687,8.48036 -149,0c-47.63313,-8.48036 -98.79957,-2.42241 -149,0c-50.20043,2.42241 -99.43487,1.20929 -149,0c-49.56513,-1.20929 -99.46096,-2.41476 -149,0c-49.53904,2.41476 -98.7213,8.44973 -149,0c-50.2787,-8.44973 -101.65384,-31.38418 -149,0c-47.34616,31.38418 -90.66333,117.08698 -74,149c16.66333,31.91302 93.30716,10.03627 149,0c55.69284,-10.03627 90.43468,-8.23207 149,0c58.56532,8.23207 140.95414,22.89201 149,0c8.04586,-22.89201 -58.25122,-83.33598 -75,-149c-16.74878,-65.66402 16.05074,-136.54809 -27,-149c-43.05074,-12.45191 -161.95175,33.52836 -149,0c12.95175,-33.52836 157.75624,-146.56533 223,-149c65.24376,-2.43467 50.92679,105.73295 75,149c24.07321,43.26705 86.53661,21.63352 149,0c62.46339,-21.63352 44.7317,63.68324 27,149" fill-opacity="0" fill="rgb(0,0,0)" stroke="rgb(0,0,0)" stroke-width="25" stroke-linecap="round" stroke-linejoin="round"/></g></svg>