<?xml version="1.0" encoding="utf-8"?><svg version="1.1" id="Calque_1" xmlns="http://www.w3.org/2000/svg" xmlns:xlink="http://www.w3.org/1999/xlink" x="0px" y="0px" width="2136px" height="718px" viewBox="-482 180 2136 718" enable-background="new -482 180 2136 718" xml:space="preserve"><g xmlns="http://www.w3.org/2000/svg"><polygon points="0,1440 0,0 2560,0 2560,1440" fill="rgb(255,255,255)" stroke-width="1" stroke-linecap="butt" stroke-linejoin="miter"/><path d="M1495,869c109.99423,-164.57229 219.98846,-329.14459 47,-298c-172.98846,31.14459 -628.95961,258.00606 -643,298c-14.04039,39.99394 413.84998,-106.87965 372,-149c-41.84998,-42.12035 -553.4403,20.51255 -745,0c-191.5597,-20.51255 -63.08877,-124.17056 271,-149c334.08877,-24.82944 873.79537,29.16968 921,149c47.20463,119.83032 -398.09273,305.49182 -446.5,298c-48.40727,-7.49182 300.07555,-208.13696 148.5,-298c-151.57555,-89.86304 -803.20947,-68.94396 -894,0c-90.79053,68.94396 379.26233,185.91281 373,149c-6.26233,-36.91281 -488.83986,-227.7073 -400,-298c88.83986,-70.2927 749.0971,-20.08363 894,0c144.9029,20.08363 -225.54855,10.04181 -596,0c-370.45145,-10.04181 -246.22572,69.47909 -122,149" fill-opacity="0" fill="rgb(0,0,0)" stroke="rgb(0,0,0)" stroke-width="25" stroke-linecap="round" stroke-linejoin="round"/></g></svg>