<?xml version="1.0" encoding="utf-8"?><svg version="1.1" id="Calque_1" xmlns="http://www.w3.org/2000/svg" xmlns:xlink="http://www.w3.org/1999/xlink" x="0px" y="0px" width="2136px" height="718px" viewBox="-482 180 2136 718" enable-background="new -482 180 2136 718" xml:space="preserve"><g xmlns="http://www.w3.org/2000/svg"><polygon points="0,1440 0,0 2560,0 2560,1440" fill="rgb(255,255,255)" stroke-width="1" stroke-linecap="butt" stroke-linejoin="miter"/><path d="M1495,869c26.17903,48.04159 52.35806,96.08319 0,0c-52.35806,-96.08319 -183.25322,-336.29116 -251,-298c-67.74678,38.29116 -72.34517,355.08146 27.5,447c99.84517,91.91854 304.13389,-41.03467 74.5,-149c-229.63389,-107.96533 -893.19039,-190.94278 -820,-149c73.19039,41.94278 883.12767,208.80579 969,149c85.87233,-59.80579 -552.32031,-346.28039 -698,-298c-145.67969,48.28039 201.15356,431.31575 474.5,447c273.34644,15.68425 473.20608,-335.98262 270.5,-447c-202.70608,-111.01738 -807.97788,18.61472 -867,149c-59.02212,130.38528 428.20543,261.52373 596.5,298c168.29457,36.47627 17.65615,-21.70966 74.5,-149c56.84385,-127.29034 321.16998,-323.6851 196,-298c-125.16998,25.6851 -639.83607,273.45004 -643,298c-3.16393,24.54996 505.17431,-174.11507 670,-149c164.82569,25.11507 -13.86115,274.01022 -297.5,298c-283.63885,23.98978 -672.22969,-176.92583 -596.5,-298c75.72969,-121.07417 615.77991,-162.30691 718,-149c102.22009,13.30691 -233.38996,81.15345 -569,149c-335.61004,67.84655 -316.80502,33.92327 -298,0" fill-opacity="0" fill="rgb(0,0,0)" stroke="rgb(0,0,0)" stroke-width="25" stroke-linecap="round" stroke-linejoin="round"/></g></svg>