<?xml version="1.0" encoding="utf-8"?><svg version="1.1" id="Calque_1" xmlns="http://www.w3.org/2000/svg" xmlns:xlink="http://www.w3.org/1999/xlink" x="0px" y="0px" width="2136px" height="718px" viewBox="-482 180 2136 718" enable-background="new -482 180 2136 718" xml:space="preserve"><g xmlns="http://www.w3.org/2000/svg"><polygon points="0,1440 0,0 2560,0 2560,1440" fill="rgb(255,255,255)" stroke-width="1" stroke-linecap="butt" stroke-linejoin="miter"/><path d="M1197,869c58.89939,44.08368 117.79878,88.16737 0,0c-117.79878,-88.16737 -412.29574,-308.58579 -400,-298c12.29574,10.58579 331.38417,252.1758 549,298c217.61583,45.8242 333.75907,-104.11742 372,-149c38.24093,-44.88258 -1.42046,15.29388 0,0c1.42046,-15.29388 43.92278,-106.05809 -27,-149c-70.92278,-42.94191 -255.27065,-38.06152 -447,0c-191.72935,38.06152 -390.84016,109.30415 -420,149c-29.15984,39.69585 111.6313,47.8449 298,0c186.3687,-47.8449 418.31498,-151.68375 569,-149c150.68502,2.68375 220.10879,111.89009 27,149c-193.10879,37.10991 -648.75015,2.12337 -894,0c-245.24985,-2.12337 -280.10821,28.61642 -149,0c131.10821,-28.61642 428.18298,-116.58903 420,-149c-8.18298,-32.41097 -321.62371,-9.26028 -298,0c23.62371,9.26028 384.31185,4.63014 745,0c360.68815,-4.63014 82.34407,146.68493 -196,298" fill-opacity="0" fill="rgb(0,0,0)" stroke="rgb(0,0,0)" stroke-width="25" stroke-linecap="round" stroke-linejoin="round"/></g></svg>