<?xml version="1.0" encoding="utf-8"?><svg version="1.1" id="Calque_1" xmlns="http://www.w3.org/2000/svg" xmlns:xlink="http://www.w3.org/1999/xlink" x="0px" y="0px" width="2136px" height="718px" viewBox="-482 180 2136 718" enable-background="new -482 180 2136 718" xml:space="preserve"><g xmlns="http://www.w3.org/2000/svg"><polygon points="0,1440 0,0 2560,0 2560,1440" fill="rgb(255,255,255)" stroke-width="1" stroke-linecap="butt" stroke-linejoin="miter"/><path d="M1691,571c6.52592,-76.75452 13.05183,-153.50905 -75,-149c-88.05183,4.50905 -270.68142,90.28166 -372,149c-101.31858,58.71834 -121.32615,90.3824 -122,149c-0.67385,58.6176 17.98602,144.18873 75,149c57.01398,4.81127 152.38208,-71.13732 223,-149c70.61792,-77.86268 116.48566,-157.63944 122,-149c5.51434,8.63944 -29.32472,105.69509 -122,149c-92.67528,43.30491 -243.18679,32.85908 -298,0c-54.81321,-32.85908 -13.92814,-88.13139 -27,-149c-13.07186,-60.86861 -80.10066,-127.33351 -75,-149c5.10066,-21.66649 82.33078,1.46542 149,0c66.66922,-1.46542 122.77753,-27.52816 149,0c26.22247,27.52816 22.55911,108.64724 75,149c52.44089,40.35276 160.98602,39.93922 149,0c-11.98602,-39.93922 -144.50321,-119.40411 -224,-149c-79.49679,-29.59589 -105.9732,-9.32279 -149,0c-43.0268,9.32279 -102.60398,7.69525 -149,0c-46.39602,-7.69525 -79.61086,-21.45822 -149,0c-69.38914,21.45822 -174.95256,78.13763 -223,149c-48.04744,70.86237 -38.57889,155.9077 27,149c65.57889,-6.9077 187.26812,-105.76844 271,-149c83.73188,-43.23156 129.50641,-30.83395 149,0c19.49359,30.83395 12.70625,80.10423 27,149c14.29375,68.89577 49.66859,157.41704 75,149c25.33141,-8.41704 40.61938,-113.77239 74,-149c33.38062,-35.22761 84.85389,-0.32749 149,0c64.14611,0.32749 140.96507,-33.91764 149,0c8.03493,33.91764 -52.71418,135.99805 -74,149c-21.28582,13.00195 -3.10837,-63.07458 74,-149c77.10837,-85.92542 213.14764,-181.69974 122,-149c-91.14764,32.69974 -409.48221,193.87355 -494,298c-84.51779,104.12645 64.7812,151.20555 74.5,149c9.7188,-2.20555 -120.14258,-53.69574 -223.5,-149c-103.35742,-95.30426 -180.21087,-234.42259 -251,-298c-70.78913,-63.57741 -135.51393,-51.61391 -149,0c-13.48607,51.61391 24.26658,142.87825 27,149c2.73342,6.12175 -29.55241,-72.89907 -27,-149c2.55241,-76.10093 39.94305,-149.28197 74,-149c34.05695,0.28197 64.7802,74.02695 75,149c10.2198,74.97305 -0.06385,151.17415 27,149c27.06385,-2.17415 91.4752,-82.72357 122,-149c30.5248,-66.27643 27.16304,-118.27987 74,-149c46.83696,-30.72013 143.87264,-40.15697 149,0c5.12736,40.15697 -81.6536,129.90773 -74,149c7.6536,19.09227 109.74177,-32.47397 149,0c39.25823,32.47397 15.68651,148.98813 27,149c11.31349,0.01187 57.51219,-116.47855 122,-149c64.48781,-32.52145 147.26475,18.92607 149,0c1.73525,-18.92607 -77.57117,-108.22573 -75,-149c2.57117,-40.77427 87.01995,-33.02316 149,0c61.98005,33.02316 101.49139,91.31837 75,149c-26.49139,57.68163 -118.98549,114.74968 -122,149c-3.01451,34.25032 83.45059,45.68291 149,0c65.54941,-45.68291 110.18313,-148.48133 122,-149c11.81687,-0.51867 -9.18311,101.24242 27,149c36.18311,47.75758 129.5493,41.51166 149,0c19.4507,-41.51166 -35.01409,-118.28904 -27,-149c8.01409,-30.71096 78.50704,-15.35548 149,0c70.49296,15.35548 -25.75352,82.17774 -122,149" fill-opacity="0" fill="rgb(0,0,0)" stroke="rgb(0,0,0)" stroke-width="25" stroke-linecap="round" stroke-linejoin="round"/></g></svg>