<?xml version="1.0" encoding="utf-8"?><svg version="1.1" id="Calque_1" xmlns="http://www.w3.org/2000/svg" xmlns:xlink="http://www.w3.org/1999/xlink" x="0px" y="0px" width="2136px" height="718px" viewBox="-482 180 2136 718" enable-background="new -482 180 2136 718" xml:space="preserve"><g xmlns="http://www.w3.org/2000/svg"><polygon points="0,1440 0,0 2560,0 2560,1440" fill="rgb(255,255,255)" stroke-width="1" stroke-linecap="butt" stroke-linejoin="miter"/><path d="M1393,571c50.62101,-0.00625 101.24202,-0.01249 149,0c47.75798,0.01249 92.65293,0.04372 149,0c56.34707,-0.04372 124.14626,-0.16237 149,0c24.85374,0.16237 6.76204,0.60577 0,0c-6.76204,-0.60577 -2.19441,-2.2607 0,0c2.19441,2.2607 2.01561,8.43703 0,0c-2.01561,-8.43703 -5.86802,-31.48741 0,0c5.86802,31.48741 21.45648,117.5126 27,149c5.54352,31.4874 1.04211,8.43702 0,0c-1.04211,-8.43702 1.3751,-2.26069 0,0c-1.3751,2.26069 -6.5425,0.60575 0,0c6.5425,-0.60575 24.79491,-0.16231 0,0c-24.79491,0.16231 -92.63713,0.04349 -149,0c-56.36287,-0.04349 -101.2464,-0.01165 -149,0c-47.7536,0.01165 -98.37729,0.00312 -149,0c-50.62271,-0.00312 -101.24445,-0.00084 -149,0c-47.75555,0.00084 -92.64492,0.00022 -149,0c-56.35508,-0.00022 -124.17587,-0.00006 -149,0c-24.82413,0.00006 -6.65161,0.00002 0,0c6.65161,-0.00002 1.78229,0 0,0c-1.78229,0 -0.47756,0 0,0c0.47756,0 0.12795,0.00002 0,0c-0.12795,-0.00002 -0.03426,-0.00006 0,0c0.03426,0.00006 0.00908,0.00022 0,0c-0.00908,-0.00022 -0.00205,-0.00084 0,0c0.00205,0.00084 -0.00089,0.00312 0,0c0.00089,-0.00312 0.00561,-0.01165 0,0c-0.00561,0.01165 -0.02155,0.04349 0,0c0.02155,-0.04349 0.0806,-0.16231 0,0c-0.0806,0.16231 -0.30084,0.60575 0,0c0.30084,-0.60575 1.12276,-2.26069 0,0c-1.12276,2.26069 -4.1902,8.43702 0,0c4.1902,-8.43702 15.63804,-31.4874 0,0c-15.63804,31.4874 -58.36198,117.5126 -74,149c-15.63802,31.4874 -4.19014,8.43702 0,0c4.19014,-8.43702 1.12254,-2.26069 0,0c-1.12254,2.26069 -0.30001,0.60575 0,0c0.30001,-0.60575 0.07749,-0.16231 0,0c-0.07749,0.16231 -0.00994,0.04349 0,0c0.00994,-0.04349 -0.03772,-0.01165 0,0c0.03772,0.01165 0.16082,0.00312 0,0c-0.16082,-0.00312 -0.60556,-0.00084 0,0c0.60556,0.00084 2.26143,0.00023 0,0c-2.26143,-0.00023 -8.44015,-0.00008 0,0c8.44015,0.00008 31.49917,0.00008 0,0c-31.49917,-0.00008 -117.55652,-0.00022 -149,0c-31.44348,0.00022 -8.2731,0.00082 0,0c8.2731,-0.00082 1.64892,-0.00306 0,0c-1.64892,0.00306 1.67742,0.01143 0,0c-1.67742,-0.01143 -8.35858,-0.04265 0,0c8.35858,0.04265 31.75692,0.15919 0,0c-31.75692,-0.15919 -118.66908,-0.5941 -150,0c-31.33092,0.5941 -7.08058,2.2172 0,0c7.08058,-2.2172 -3.00861,-8.27471 0,0c3.00861,8.27471 19.115,30.88165 0,0c-19.115,-30.88165 -73.45139,-115.2519 -74,-149c-0.54861,-33.7481 52.69057,-16.87405 0,0c-52.69057,16.87405 -211.31087,33.7481 0,0c211.31087,-33.7481 792.55292,-118.11835 1016,-149c223.44708,-30.88165 89.09917,-8.27471 0,0c-89.09917,8.27471 -132.94962,2.2172 -149,0c-16.05038,-2.2172 -4.30069,-0.5941 0,0c4.30069,0.5941 1.15237,0.15919 0,0c-1.15237,-0.15919 -0.30878,-0.04266 0,0c0.30878,0.04266 0.08277,0.01143 0,0c-0.08277,-0.01143 -0.02228,-0.00308 0,0c0.02228,0.00308 0.00637,0.00088 0,0c-0.00637,-0.00088 -0.00318,-0.00044 0,0c0.00318,0.00044 0.00159,0.00022 0,0" fill-opacity="0" fill="rgb(0,0,0)" stroke="rgb(0,0,0)" stroke-width="25" stroke-linecap="round" stroke-linejoin="round"/></g></svg>