<?xml version="1.0" encoding="utf-8"?><svg version="1.1" id="Calque_1" xmlns="http://www.w3.org/2000/svg" xmlns:xlink="http://www.w3.org/1999/xlink" x="0px" y="0px" width="2136px" height="718px" viewBox="-482 180 2136 718" enable-background="new -482 180 2136 718" xml:space="preserve"><g xmlns="http://www.w3.org/2000/svg"><polygon points="0,1440 0,0 2560,0 2560,1440" fill="rgb(255,255,255)" stroke-width="1" stroke-linecap="butt" stroke-linejoin="miter"/><path d="M1122,720c291.92817,-64.15887 583.85635,-128.31775 420,-149c-163.85635,-20.68225 -783.49721,2.11211 -745,0c38.49721,-2.11211 735.13249,-29.13071 894,0c158.86751,29.13071 -220.03274,114.41071 -420,149c-199.96726,34.58929 -221.00153,18.48785 -149,0c72.00153,-18.48785 237.03887,-39.36211 298,0c60.96113,39.36211 17.84604,138.9606 -74,149c-91.84604,10.0394 -232.42302,-69.4803 -373,-149c-140.57698,-79.5197 4.21151,-39.75985 149,0" fill-opacity="0" fill="rgb(0,0,0)" stroke="rgb(0,0,0)" stroke-width="25" stroke-linecap="round" stroke-linejoin="round"/></g></svg>