<?xml version="1.0" encoding="utf-8"?><svg version="1.1" id="Calque_1" xmlns="http://www.w3.org/2000/svg" xmlns:xlink="http://www.w3.org/1999/xlink" x="0px" y="0px" width="2136px" height="718px" viewBox="-482 180 2136 718" enable-background="new -482 180 2136 718" xml:space="preserve"><g xmlns="http://www.w3.org/2000/svg"><polygon points="0,1440 0,0 2560,0 2560,1440" fill="rgb(255,255,255)" stroke-width="1" stroke-linecap="butt" stroke-linejoin="miter"/><path d="M1569,720c-49.66461,1.55935 -99.32922,3.1187 -149,0c-49.67078,-3.1187 -99.34773,-10.91544 -149,0c-49.65227,10.91544 -99.27987,40.54306 -149,0c-49.72013,-40.54306 -99.53281,-151.25681 -176,-149c-76.46719,2.25681 -179.58889,117.48416 -271,149c-91.41111,31.51584 -171.11161,-20.67985 -149,0c22.11161,20.67985 146.03534,114.23523 224,149c77.96466,34.76477 109.97025,10.73892 149,0c39.02975,-10.73892 85.08365,-8.19091 149,0c63.91635,8.19091 145.69513,22.0247 149,0c3.30487,-22.0247 -71.86417,-79.90791 -75,-149c-3.13583,-69.09209 65.76157,-149.39307 122,-149c56.23843,0.39307 99.8179,81.48018 176,149c76.1821,67.51982 184.96682,121.47234 224,149c39.03318,27.52766 8.31482,28.63046 0,0c-8.31482,-28.63046 5.77389,-86.99418 74,-149c68.22611,-62.00582 190.58963,-127.65374 122,-149c-68.58963,-21.34626 -328.13241,1.60912 -447,0c-118.86759,-1.60912 -97.06001,-27.78276 -149,0c-51.93999,27.78276 -177.62757,109.5219 -271,149c-93.37243,39.4781 -154.42972,36.69516 -149,0c5.42972,-36.69516 77.34646,-107.30254 -27,-149c-104.34646,-41.69746 -384.95613,-54.48499 -298,0c86.95613,54.48499 541.47807,176.24249 996,298c454.52193,121.75751 -220.23903,60.87875 -895,0" fill-opacity="0" fill="rgb(0,0,0)" stroke="rgb(0,0,0)" stroke-width="25" stroke-linecap="round" stroke-linejoin="round"/></g></svg>