<?xml version="1.0" encoding="utf-8"?><svg version="1.1" id="Calque_1" xmlns="http://www.w3.org/2000/svg" xmlns:xlink="http://www.w3.org/1999/xlink" x="0px" y="0px" width="2136px" height="718px" viewBox="-482 180 2136 718" enable-background="new -482 180 2136 718" xml:space="preserve"><g xmlns="http://www.w3.org/2000/svg"><polygon points="0,1440 0,0 2560,0 2560,1440" fill="rgb(255,255,255)" stroke-width="1" stroke-linecap="butt" stroke-linejoin="miter"/><path d="M1197,869c-219.83063,-164.53569 -439.66126,-329.07137 -400,-298c39.66126,31.07137 338.81441,257.74981 549,298c210.18559,40.25019 331.40361,-105.92786 372,-149c40.59639,-43.07214 0.57114,16.96162 0,0c-0.57114,-16.96162 38.31185,-110.91864 -27,-149c-65.31185,-38.08136 -234.81852,-20.28708 -447,0c-212.18148,20.28708 -467.03776,43.06695 -420,149c47.03776,105.93305 395.96958,295.01927 447.5,298c51.53042,2.98073 -194.34055,-180.14403 -149.5,-298c44.84055,-117.85597 380.39262,-170.44316 569,-149c188.60738,21.44316 230.27008,116.91667 27,149c-203.27008,32.08333 -651.47292,0.77647 -894,0c-242.52708,-0.77647 -279.37839,28.97744 -149,0c130.37839,-28.97744 427.98649,-116.68623 420,-149c-7.98649,-32.31377 -321.56757,-9.2325 -298,0c23.56757,9.2325 384.28378,4.61625 745,0c360.71622,-4.61625 82.35811,146.69187 -196,298" fill-opacity="0" fill="rgb(0,0,0)" stroke="rgb(0,0,0)" stroke-width="25" stroke-linecap="round" stroke-linejoin="round"/></g></svg>