<?xml version="1.0" encoding="utf-8"?><svg version="1.1" id="Calque_1" xmlns="http://www.w3.org/2000/svg" xmlns:xlink="http://www.w3.org/1999/xlink" x="0px" y="0px" width="2136px" height="718px" viewBox="-482 180 2136 718" enable-background="new -482 180 2136 718" xml:space="preserve"><g xmlns="http://www.w3.org/2000/svg"><polygon points="0,1440 0,0 2560,0 2560,1440" fill="rgb(255,255,255)" stroke-width="1" stroke-linecap="butt" stroke-linejoin="miter"/><path d="M1542,571c-55.0819,115.4301 -110.16379,230.8602 -196,298c-85.83621,67.1398 -202.42672,85.98929 -298,0c-95.57328,-85.98929 -170.12933,-276.81735 -251,-298c-80.87067,-21.18265 -168.05594,127.28011 -122,149c46.05594,21.71989 225.35311,-83.30308 420,-149c194.64689,-65.69692 404.64349,-92.06781 447,0c42.35651,92.06781 -82.92708,302.5743 -196,298c-113.07292,-4.5743 -213.93516,-224.22938 -102,-298c111.93516,-73.77062 436.66771,-1.65677 447,0c10.33229,1.65677 -293.73567,-67.14355 -298,0c-4.26433,67.14355 291.27499,270.23095 102,298c-189.27499,27.76905 -863.36428,-119.78027 -969,-149c-105.63572,-29.21973 357.18214,59.89014 820,149c462.81786,89.10986 -104.09107,-29.94507 -671,-149" fill-opacity="0" fill="rgb(0,0,0)" stroke="rgb(0,0,0)" stroke-width="25" stroke-linecap="round" stroke-linejoin="round"/></g></svg>