<?xml version="1.0" encoding="utf-8"?><svg version="1.1" id="Calque_1" xmlns="http://www.w3.org/2000/svg" xmlns:xlink="http://www.w3.org/1999/xlink" x="0px" y="0px" width="2136px" height="718px" viewBox="-482 180 2136 718" enable-background="new -482 180 2136 718" xml:space="preserve"><g xmlns="http://www.w3.org/2000/svg"><polygon points="0,1440 0,0 2560,0 2560,1440" fill="rgb(255,255,255)" stroke-width="1" stroke-linecap="butt" stroke-linejoin="miter"/><path d="M573,422c4.77789,0 9.55578,0 0,0c-9.55578,0 -33.44524,0 0,0c33.44524,0 124.22518,0 149,0c24.77482,0 -16.45547,0 0,0c16.45547,0 90.59672,0 149,0c58.40328,0 101.06861,0 149,0c47.93139,0 101.12884,0 149,0c47.87116,0 90.41604,0 149,0c58.58396,0 133.20701,0 149,0c15.79299,0 -27.24408,0.00002 0,0c27.24408,-0.00002 124.76931,-0.00006 149,0c24.23069,0.00006 -24.83317,0.00023 0,0c24.83317,-0.00023 123.56338,-0.00084 149,0c25.43662,0.00084 -22.42036,0.00314 0,0c22.42036,-0.00314 115.11806,-0.01171 149,0c33.88194,0.01171 8.94813,0.04372 0,0c-8.94813,-0.04372 -1.91058,-0.16315 0,0c1.91058,0.16315 -1.30582,0.60887 0,0c1.30582,-0.60887 7.13385,-2.27235 0,0c-7.13385,2.27235 -27.22958,8.48052 0,0c27.22958,-8.48052 101.78446,-31.64973 149,0c47.21554,31.64973 67.09175,118.11841 75,149c7.90825,30.88159 3.84856,6.17611 0,0c-3.84856,-6.17611 -7.48597,6.17717 0,0c7.48597,-6.17717 26.09532,-30.88478 0,0c-26.09532,30.88478 -96.89532,117.36194 -122,149c-25.10468,31.63806 -4.51405,8.43702 0,0c4.51405,-8.43702 -7.04847,-2.11004 0,0c7.04847,2.11004 32.70793,0.00312 0,0c-32.70793,-0.00312 -123.78326,2.09755 -149,0c-25.21674,-2.09755 15.4251,-8.39331 0,0c-15.4251,8.39331 -86.91715,31.47571 -149,0c-62.08285,-31.47571 -114.75649,-117.50952 -176,-149c-61.24351,-31.49048 -131.05689,-8.43764 -149,0c-17.94311,8.43764 15.98405,2.26008 0,0c-15.98405,-2.26008 -81.87931,-0.60269 -149,0c-67.12069,0.60269 -135.46682,0.15069 -149,0c-13.53318,-0.15069 27.7466,-0.00006 0,0c-27.7466,0.00006 -124.51958,-0.15043 -149,0c-24.48042,0.15043 23.33173,0.60179 0,0c-23.33173,-0.60179 -117.80735,-2.25674 -149,0c-31.19265,2.25674 0.89768,8.42516 0,0c-0.89768,-8.42516 -34.78335,-31.44391 0,0c34.78335,31.44391 138.23574,117.35048 176,149c37.76426,31.64952 9.84041,9.04199 0,0c-9.84041,-9.04199 -1.59737,-4.51845 0,0c1.59737,4.51845 -3.45094,9.0318 0,0c3.45094,-9.0318 15.40114,-31.60875 0,0c-15.40114,31.60875 -58.15363,117.4032 -74,149c-15.84637,31.5968 -4.78662,8.99594 0,0c4.78662,-8.99594 3.30011,-4.38696 0,0c-3.30011,4.38696 -8.41382,8.55189 0,0c8.41382,-8.55189 30.35516,-29.8206 0,0c-30.35516,29.8206 -113.00684,110.73052 -186.5,149c-73.49316,38.26948 -137.82782,33.89854 -200,0c-62.17218,-33.89854 -122.1819,-97.32466 -150,-149c-27.8181,-51.67534 -23.4446,-91.59991 -37.5,-149c-14.0554,-57.40009 -46.53971,-132.27572 -13.5,-149c33.03971,-16.72428 131.60343,24.70277 187.5,0c55.89657,-24.70277 69.126,-115.53536 74,-149c4.874,-33.46464 1.39257,-9.56133 0,0c-1.39257,9.56133 -0.69629,4.78066 0,0c0.69629,-4.78066 0.34814,-2.39033 0,0" fill-opacity="0" fill="rgb(0,0,0)" stroke="rgb(0,0,0)" stroke-width="25" stroke-linecap="round" stroke-linejoin="round"/></g></svg>