<?xml version="1.0" encoding="utf-8"?><svg version="1.1" id="Calque_1" xmlns="http://www.w3.org/2000/svg" xmlns:xlink="http://www.w3.org/1999/xlink" x="0px" y="0px" width="2136px" height="718px" viewBox="-482 180 2136 718" enable-background="new -482 180 2136 718" xml:space="preserve"><g xmlns="http://www.w3.org/2000/svg"><polygon points="0,1440 0,0 2560,0 2560,1440" fill="rgb(255,255,255)" stroke-width="1" stroke-linecap="butt" stroke-linejoin="miter"/><path d="M2287,571c-13.95137,111.17392 -27.90274,222.34784 -98,298c-70.09726,75.65216 -196.34042,115.78255 -247,0c-50.65958,-115.78255 -25.73559,-387.47804 -28,-447c-2.26441,-59.52196 -31.71723,93.12961 -74,149c-42.28277,55.87039 -97.3955,14.95961 -149,0c-51.6045,-14.95961 -99.70076,-3.96805 -149,0c-49.29924,3.96805 -99.80146,0.91258 -149,0c-49.19854,-0.91258 -97.09339,0.31774 -149,0c-51.90661,-0.31774 -107.825,-2.18352 -149,0c-41.175,2.18352 -67.60663,8.41635 -149,0c-81.39337,-8.41635 -217.74847,-31.48186 -149,0c68.74847,31.48186 342.60052,117.51111 474,149c131.39948,31.48889 120.34638,8.43742 149,0c28.65362,-8.43742 97.01396,-2.2608 149,0c51.98604,2.2608 87.59779,0.60578 149,0c61.40221,-0.60578 148.59487,-0.16233 149,0c0.40513,0.16233 -85.97728,0.04355 -149,0c-63.02272,-0.04355 -102.68574,-0.01188 -149,0c-46.31426,0.01188 -99.27976,0.00396 -149,0c-49.72024,-0.00396 -96.19523,-0.00396 -149,0c-52.80477,0.00396 -111.93931,0.01188 -149,0c-37.06069,-0.01188 -52.04751,-0.04355 -149,0c-96.95249,0.04355 -275.87065,0.16233 -149,0c126.87065,-0.16233 559.5301,-0.60576 745,0c185.4699,0.60576 123.75023,2.2607 149,0c25.24977,-2.2607 137.46897,-8.43704 149,0c11.53103,8.43704 -77.62611,31.48744 -149,0c-71.37389,-31.48744 -124.96453,-117.51274 -176,-149c-51.03547,-31.48726 -99.51578,-8.43649 -149,0c-49.48422,8.43649 -99.97234,2.25869 -149,0c-49.02766,-2.25869 -96.59485,-0.59826 -149,0c-52.40515,0.59826 -109.64827,0.13436 -149,0c-39.35173,-0.13436 -60.81207,0.06083 -149,0c-88.18793,-0.06083 -243.10344,-0.37768 -149,0c94.10344,0.37768 437.22584,1.4499 596,0c158.77416,-1.4499 133.20008,-5.42193 149,0c15.79992,5.42193 72.97384,20.23781 149,0c76.02616,-20.23781 170.90455,-75.52933 149,0c-21.90455,75.52933 -160.59204,281.8795 -196,298c-35.40796,16.1205 32.46361,-157.98867 47,-298c14.53639,-140.01133 -24.2624,-245.92483 -75,-149c-50.7376,96.92483 -113.41402,396.68798 -121,447c-7.58598,50.31202 39.91849,-148.8271 47,-298c7.08151,-149.1729 -26.25994,-248.3796 -75,-149c-48.74006,99.3796 -112.87872,397.34549 -121,447c-8.12128,49.65451 39.77482,-149.00237 47,-298c7.22518,-148.99763 -26.22058,-248.336 -75,-149c-48.77942,99.336 -112.89252,397.34637 -121,447c-8.10748,49.65363 39.79064,-149.04946 47,-298c7.20936,-148.95054 -26.27004,-248.14852 -75,-149c-48.72996,99.14852 -112.71047,396.64352 -121,447c-8.28953,50.35648 39.11191,-146.42558 47,-298c7.88809,-151.57442 -23.73717,-257.94121 -75,-149c-51.26283,108.94121 -122.16323,433.19043 -121,447c1.16323,13.80957 74.3901,-282.8205 47,-298c-27.3901,-15.1795 -155.39717,251.09157 -197,298c-41.60283,46.90843 3.19859,-125.54579 48,-298c44.80141,-172.45421 841.90071,-86.22711 1639,0" fill-opacity="0" fill="rgb(0,0,0)" stroke="rgb(0,0,0)" stroke-width="25" stroke-linecap="round" stroke-linejoin="round"/></g></svg>