<?xml version="1.0" encoding="utf-8"?><svg version="1.1" id="Calque_1" xmlns="http://www.w3.org/2000/svg" xmlns:xlink="http://www.w3.org/1999/xlink" x="0px" y="0px" width="2136px" height="718px" viewBox="-482 180 2136 718" enable-background="new -482 180 2136 718" xml:space="preserve"><g xmlns="http://www.w3.org/2000/svg"><polygon points="0,1440 0,0 2560,0 2560,1440" fill="rgb(255,255,255)" stroke-width="1" stroke-linecap="butt" stroke-linejoin="miter"/><path d="M797,571c71.21315,-1.14256 142.42631,-2.28512 0,0c-142.42631,2.28512 -498.49208,7.99792 -298,0c200.49208,-7.99792 957.54201,-29.70656 894,0c-63.54201,29.70656 -947.67596,110.82832 -867,149c80.67596,38.17168 1126.16182,33.39329 1192,0c65.83818,-33.39329 -847.97131,-95.40148 -1043,0c-195.02869,95.40148 328.72341,348.21264 596.5,298c267.77659,-50.21264 279.57768,-403.44908 270.5,-447c-9.07768,-43.55092 -39.03414,222.58369 -196,298c-156.96586,75.41631 -440.94113,-39.88569 -373,-149c67.94113,-109.11431 487.79865,-212.04095 569,-149c81.20135,63.04095 -176.25348,292.04949 -196,298c-19.74652,5.95051 198.21528,-211.157 196,-298c-2.21528,-86.843 -224.60764,-43.4215 -447,0c-222.39236,43.4215 -36.69618,21.71075 149,0" fill-opacity="0" fill="rgb(0,0,0)" stroke="rgb(0,0,0)" stroke-width="25" stroke-linecap="round" stroke-linejoin="round"/></g></svg>