<?xml version="1.0" encoding="utf-8"?><svg version="1.1" id="Calque_1" xmlns="http://www.w3.org/2000/svg" xmlns:xlink="http://www.w3.org/1999/xlink" x="0px" y="0px" width="2136px" height="718px" viewBox="-482 180 2136 718" enable-background="new -482 180 2136 718" xml:space="preserve"><g xmlns="http://www.w3.org/2000/svg"><polygon points="0,1440 0,0 2560,0 2560,1440" fill="rgb(255,255,255)" stroke-width="1" stroke-linecap="butt" stroke-linejoin="miter"/><path d="M1122,720c346.31397,-83.95879 692.62795,-167.91759 718,-149c25.37205,18.91759 -270.19781,140.71155 -271,149c-0.80219,8.28845 293.16329,-96.92863 122,-149c-171.16329,-52.07137 -807.45536,-50.99702 -894,0c-86.54464,50.99702 376.65814,151.91673 623,149c246.34186,-2.91673 275.82281,-109.66989 122,-149c-153.82281,-39.33011 -490.94937,-11.23717 -596,0c-105.05063,11.23717 21.97469,5.61859 149,0c127.02531,-5.61859 300.51266,71.69071 474,149" fill-opacity="0" fill="rgb(0,0,0)" stroke="rgb(0,0,0)" stroke-width="25" stroke-linecap="round" stroke-linejoin="round"/></g></svg>