<?xml version="1.0" encoding="utf-8"?><svg version="1.1" id="Calque_1" xmlns="http://www.w3.org/2000/svg" xmlns:xlink="http://www.w3.org/1999/xlink" x="0px" y="0px" width="2136px" height="718px" viewBox="-482 180 2136 718" enable-background="new -482 180 2136 718" xml:space="preserve"><g xmlns="http://www.w3.org/2000/svg"><polygon points="0,1440 0,0 2560,0 2560,1440" fill="rgb(255,255,255)" stroke-width="1" stroke-linecap="butt" stroke-linejoin="miter"/><path d="M1095,571c135.1775,81.11045 270.355,162.2209 176,149c-94.355,-13.2209 -418.24248,-120.77315 -474,-149c-55.75752,-28.22685 156.61494,22.87171 149,0c-7.61494,-22.87171 -235.21729,-119.7137 -149,0c86.21729,119.7137 486.25422,455.9831 474.5,447c-11.75422,-8.9831 -435.2996,-363.21869 -623.5,-447c-188.2004,-83.78131 -141.05584,102.89164 -122,149c19.05584,46.10836 10.02295,-48.34789 149,0c138.97705,48.34789 425.96405,239.49992 596.5,298c170.53595,58.50008 224.62085,-15.65179 74.5,-149c-150.12085,-133.34821 -504.44745,-325.89275 -549,-298c-44.55255,27.89275 220.66897,276.22278 251,298c30.33103,21.77722 -174.22841,-182.99838 -251,-298c-76.77159,-115.00162 -25.75533,-140.22926 149,0c174.75533,140.22926 473.24974,445.91543 325.5,447c-147.74974,1.08457 -741.74364,-302.43246 -745.5,-298c-3.75636,4.43246 582.72482,316.8144 745.5,298c162.77518,-18.8144 -98.15565,-368.82514 -176.5,-447c-78.34435,-78.17486 25.89778,115.48615 176,149c150.10222,33.51385 346.06454,-93.11948 271,-149c-75.06454,-55.88052 -421.15593,-41.00825 -596,0c-174.84407,41.00825 -178.44082,108.15247 -122,149c56.44082,40.84753 172.91923,55.39837 298,0c125.08077,-55.39837 258.76392,-180.74596 271,-149c12.23608,31.74596 -96.9749,220.58545 -47,298c49.9749,77.41455 259.13569,43.40416 149,0c-110.13569,-43.40416 -539.56784,-96.20208 -969,-149c-429.43216,-52.79792 195.28392,48.10104 820,149" fill-opacity="0" fill="rgb(0,0,0)" stroke="rgb(0,0,0)" stroke-width="25" stroke-linecap="round" stroke-linejoin="round"/></g></svg>