<?xml version="1.0" encoding="utf-8"?><svg version="1.1" id="Calque_1" xmlns="http://www.w3.org/2000/svg" xmlns:xlink="http://www.w3.org/1999/xlink" x="0px" y="0px" width="2136px" height="718px" viewBox="-482 180 2136 718" enable-background="new -482 180 2136 718" xml:space="preserve"><g xmlns="http://www.w3.org/2000/svg"><polygon points="0,1440 0,0 2560,0 2560,1440" fill="rgb(255,255,255)" stroke-width="1" stroke-linecap="butt" stroke-linejoin="miter"/><path d="M600,869c57.98206,18.32887 115.96412,36.65773 150,0c34.03588,-36.65773 44.12559,-128.30207 74,-149c29.87441,-20.69793 79.53351,29.55055 149,0c69.46649,-29.55055 158.74036,-138.90014 122,-149c-36.74036,-10.09986 -199.49496,79.05 -271,149c-71.50504,69.95 -51.76053,120.70013 -74,149c-22.23947,28.29987 -86.46293,34.14947 -150,0c-63.53707,-34.14947 -126.38777,-108.29801 -74,-149c52.38777,-40.70199 220.01399,-47.95743 298,0c77.98601,47.95743 66.3318,151.12774 75,149c8.6682,-2.12774 37.65882,-109.55352 74,-149c36.34118,-39.44648 80.03294,-10.91365 149,0c68.96706,10.91365 163.20942,4.20814 149,0c-14.20942,-4.20814 -136.87061,-5.91889 -149,0c-12.12939,5.91889 86.27304,19.46743 149,0c62.72696,-19.46743 89.77845,-71.95083 122,-149c32.22155,-77.04917 69.61314,-178.66412 74,-149c4.38686,29.66412 -24.23103,190.60731 -47,298c-22.76897,107.39269 -39.68902,161.23488 -74,149c-34.31098,-12.23488 -86.01288,-90.54684 -75,-149c11.01288,-58.45316 84.74054,-97.04751 122,-149c37.25946,-51.95249 38.05072,-117.26311 74,-149c35.94928,-31.73689 107.05659,-29.90004 149,0c41.94341,29.90004 54.72293,87.86325 75,149c20.27707,61.13675 48.0517,125.44702 27,149c-21.0517,23.55298 -90.92973,6.34868 -149,0c-58.07027,-6.34868 -104.33279,-1.84173 -149,0c-44.66721,1.84173 -87.73912,1.01823 -149,0c-61.26088,-1.01823 -140.71075,-2.23118 -149,0c-8.28925,2.23118 54.58211,7.9065 149,0c94.41789,-7.9065 220.3823,-29.39482 298,0c77.6177,29.39482 106.88868,109.67278 75,149c-31.88868,39.32722 -124.93702,37.7037 -149,0c-24.06298,-37.7037 20.85941,-111.48759 74,-149c53.14059,-37.51241 114.49939,-38.75334 149,0c34.50061,38.75334 42.14303,117.50095 75,149c32.85697,31.49905 90.92848,15.74952 149,0c58.07152,-15.74952 66.03576,-82.37476 74,-149" fill-opacity="0" fill="rgb(0,0,0)" stroke="rgb(0,0,0)" stroke-width="25" stroke-linecap="round" stroke-linejoin="round"/></g></svg>