<?xml version="1.0" encoding="utf-8"?><svg version="1.1" id="Calque_1" xmlns="http://www.w3.org/2000/svg" xmlns:xlink="http://www.w3.org/1999/xlink" x="0px" y="0px" width="2136px" height="718px" viewBox="-482 180 2136 718" enable-background="new -482 180 2136 718" xml:space="preserve"><g xmlns="http://www.w3.org/2000/svg"><polygon points="0,1440 0,0 2560,0 2560,1440" fill="rgb(255,255,255)" stroke-width="1" stroke-linecap="butt" stroke-linejoin="miter"/><path d="M824,720c396.67029,-109.52197 793.34058,-219.04393 867,-149c73.65942,70.04393 -175.69202,319.65376 -345,298c-169.30798,-21.65376 -258.57251,-314.57109 -251,-298c7.57251,16.57109 111.98204,342.63061 176.5,447c64.51796,104.36939 89.14434,-12.95136 -74.5,-149c-163.64434,-136.04864 -515.55939,-290.82519 -400,-298c115.55939,-7.17481 698.59324,133.25211 921,149c222.40676,15.74789 84.18644,-93.18326 -176,-149c-260.18644,-55.81674 -642.33898,-58.51907 -745,0c-102.66102,58.51907 74.16949,178.25953 251,298c176.83051,119.74047 -37.08475,-89.12977 -251,-298" fill-opacity="0" fill="rgb(0,0,0)" stroke="rgb(0,0,0)" stroke-width="25" stroke-linecap="round" stroke-linejoin="round"/></g></svg>