<?xml version="1.0" encoding="utf-8"?><svg version="1.1" id="Calque_1" xmlns="http://www.w3.org/2000/svg" xmlns:xlink="http://www.w3.org/1999/xlink" x="0px" y="0px" width="2136px" height="718px" viewBox="-482 180 2136 718" enable-background="new -482 180 2136 718" xml:space="preserve"><g xmlns="http://www.w3.org/2000/svg"><polygon points="0,1440 0,0 2560,0 2560,1440" fill="rgb(255,255,255)" stroke-width="1" stroke-linecap="butt" stroke-linejoin="miter"/><path d="M1569,720c196.72863,-142.82307 393.45727,-285.64614 494,-298c100.54273,-12.35386 104.89957,105.76148 75,149c-29.89957,43.23852 -94.05555,11.60021 -149,0c-54.94445,-11.60021 -100.67738,-3.16234 -149,0c-48.32262,3.16234 -99.23493,1.04915 -149,0c-49.76507,-1.04915 -98.38289,-1.03425 -149,0c-50.61711,1.03425 -103.23351,3.08784 -149,0c-45.76649,-3.08784 -84.68306,-11.31711 -149,0c-64.31694,11.31711 -154.03425,42.1806 -149,0c5.03425,-42.1806 104.82004,-157.40528 74,-149c-30.82004,8.40528 -192.24592,140.4405 -223,149c-30.75408,8.5595 69.16365,-106.35674 74,-149c4.83635,-42.64326 -85.40866,-13.01354 -149,0c-63.59134,13.01354 -100.529,9.41088 -149,0c-48.471,-9.41088 -108.47535,-24.63 -149,0c-40.52465,24.63 -61.5696,89.10911 -74,149c-12.4304,59.89089 -16.24627,115.19355 27,149c43.24627,33.80645 133.55467,46.11667 149,0c15.44533,-46.11667 -43.97239,-150.66025 -27,-149c16.97239,1.66025 110.33491,109.52431 176,149c65.66509,39.47569 103.63276,10.56299 149,0c45.36724,-10.56299 98.13404,-2.77628 149,0c50.86596,2.77628 99.83107,0.54213 149,0c49.16893,-0.54213 98.54168,0.60774 149,0c50.45832,-0.60774 102.00221,-2.9731 149,0c46.99779,2.9731 89.44948,11.28467 149,0c59.55052,-11.28467 136.19987,-42.16558 149,0c12.80013,42.16558 -38.24898,157.37765 -74,149c-35.75102,-8.37765 -56.20397,-140.34502 -75,-149c-18.79603,-8.65498 -35.93514,106.00241 -74,149c-38.06486,42.99759 -97.05546,14.33537 -149,0c-51.94454,-14.33537 -96.84301,-14.34388 -149,0c-52.15699,14.34388 -111.5725,43.04017 -149,0c-37.4275,-43.04017 -52.86699,-157.81679 -75,-149c-22.13301,8.81679 -50.95954,141.22699 -74,149c-23.04046,7.77301 -40.29483,-109.09117 -75,-149c-34.70517,-39.90883 -86.86112,-2.86232 -149,0c-62.13888,2.86232 -134.26069,-28.45957 -149,0c-14.73931,28.45957 27.90387,116.70059 75,149c47.09613,32.29941 98.6452,8.65722 149,0c50.3548,-8.65722 99.51533,-2.32947 149,0c49.48467,2.32947 99.29348,0.66067 149,0c49.70652,-0.66067 99.31074,-0.31319 149,0c49.68926,0.31319 99.46354,0.59209 149,0c49.53646,-0.59209 98.83508,-2.05519 149,0c50.16492,2.05519 101.19615,7.62866 149,0c47.80385,-7.62866 92.38034,-28.45945 149,0c56.61966,28.45945 125.2825,106.20915 87.5,149c-37.7825,42.79085 -182.01032,50.62285 -199.5,0c-17.48968,-50.62285 91.7588,-159.70054 -37,-149c-128.7588,10.70054 -495.52487,141.17933 -521.5,149c-25.97513,7.82067 288.84068,-107.01678 372.5,-149c83.65932,-41.98322 -63.83784,-11.11222 -149,0c-85.16216,11.11222 -107.98934,2.46566 -149,0c-41.01066,-2.46566 -100.20482,1.24958 -149,0c-48.79518,-1.24958 -87.19137,-7.464 -149,0c-61.80863,7.464 -147.02969,28.60641 -149,0c-1.97031,-28.60641 79.31013,-106.96163 74,-149c-5.31013,-42.03837 -97.21083,-47.75987 -149,0c-51.78917,47.75987 -63.46681,149.00112 -74,149c-10.53319,-0.00112 -19.92193,-101.2446 -75,-149c-55.07807,-47.7554 -155.84547,-42.02273 -149,0c6.84547,42.02273 121.30379,120.33553 74,149c-47.30379,28.66447 -256.36971,7.68062 -237.5,0c18.86971,-7.68062 265.67506,-2.05802 387.5,0c121.82494,2.05802 118.66948,0.55144 149,0c30.33052,-0.55144 94.14702,-0.14776 149,0c54.85298,0.14776 100.74244,0.03959 149,0c48.25756,-0.03959 98.88323,-0.01061 149,0c50.11677,0.01061 99.72466,0.00284 149,0c49.27534,-0.00284 98.21813,-0.00076 149,0c50.78187,0.00076 103.40281,0.00021 149,0c45.59719,-0.00021 84.17063,-0.00006 149,0c64.82937,0.00006 155.91469,0.00003 247,0c91.08531,-0.00003 -40.95734,-74.50001 -173,-149" fill-opacity="0" fill="rgb(0,0,0)" stroke="rgb(0,0,0)" stroke-width="25" stroke-linecap="round" stroke-linejoin="round"/></g></svg>