<?xml version="1.0" encoding="utf-8"?><svg version="1.1" id="Calque_1" xmlns="http://www.w3.org/2000/svg" xmlns:xlink="http://www.w3.org/1999/xlink" x="0px" y="0px" width="2136px" height="718px" viewBox="-482 180 2136 718" enable-background="new -482 180 2136 718" xml:space="preserve"><g xmlns="http://www.w3.org/2000/svg"><polygon points="0,1440 0,0 2560,0 2560,1440" fill="rgb(255,255,255)" stroke-width="1" stroke-linecap="butt" stroke-linejoin="miter"/><path d="M362.5,869c570.46494,-41.49975 1140.92987,-82.9995 1355.5,-149c214.57013,-66.0005 73.24545,-156.50176 -176,-149c-249.24545,7.50176 -606.41166,113.00652 -867,149c-260.58834,35.99348 -424.5988,2.47568 -149,0c275.5988,-2.47568 990.80686,26.09077 1192,0c201.19314,-26.09077 -111.62864,-106.83876 -325,-149c-213.37136,-42.16124 -327.29229,-45.73572 -298,0c29.29229,45.73572 201.7978,140.78163 176,149c-25.7978,8.21837 -249.8989,-70.39082 -474,-149c-224.1011,-78.60918 -37.55055,-39.30459 149,0" fill-opacity="0" fill="rgb(0,0,0)" stroke="rgb(0,0,0)" stroke-width="25" stroke-linecap="round" stroke-linejoin="round"/></g></svg>