<?xml version="1.0" encoding="utf-8"?><svg version="1.1" id="Calque_1" xmlns="http://www.w3.org/2000/svg" xmlns:xlink="http://www.w3.org/1999/xlink" x="0px" y="0px" width="2136px" height="718px" viewBox="-482 180 2136 718" enable-background="new -482 180 2136 718" xml:space="preserve"><g xmlns="http://www.w3.org/2000/svg"><polygon points="0,1440 0,0 2560,0 2560,1440" fill="rgb(255,255,255)" stroke-width="1" stroke-linecap="butt" stroke-linejoin="miter"/><path d="M275,422c13.40113,50.68704 26.80226,101.37408 36.5,149c9.69774,47.62592 15.69209,92.19074 13.5,149c-2.19209,56.80926 -12.57064,125.86298 37.5,149c50.07064,23.13702 160.59046,0.35735 237.5,0c76.90954,-0.35735 120.20881,21.70761 150,0c29.79119,-21.70761 46.07431,-87.1878 74,-149c27.92569,-61.8122 67.49397,-119.9564 122,-149c54.50603,-29.0436 123.94983,-28.98658 149,0c25.05017,28.98658 5.70673,86.90273 27,149c21.29327,62.09727 83.22326,128.37566 75,149c-8.22326,20.62434 -86.59976,-4.40536 -149,0c-62.40024,4.40536 -108.82423,38.24579 -149,0c-40.17577,-38.24579 -74.10333,-148.57778 -75,-149c-0.89667,-0.42222 31.23757,109.06533 75,149c43.76243,39.93467 99.15307,10.31644 149,0c49.84693,-10.31644 94.15016,-1.3311 149,0c54.84984,1.3311 120.24629,-4.99205 149,0c28.75371,4.99205 20.86466,21.29929 0,0c-20.86466,-21.29929 -54.70495,-80.2051 -75,-149c-20.29505,-68.7949 -27.04488,-147.47888 -27,-149c0.04488,-1.52112 6.88447,74.12061 27,149c20.11553,74.87939 53.50698,148.99643 75,149c21.49302,0.00357 31.08759,-74.10632 74,-149c42.91241,-74.89368 119.14265,-150.57116 122,-149c2.85735,1.57116 -67.6582,80.39097 -122,149c-54.3418,68.60903 -92.50983,127.00729 -74,149c18.50983,21.99271 93.69754,7.57986 149,0c55.30246,-7.57986 90.71966,-8.32674 149,0c58.28034,8.32674 139.42383,25.72709 149,0c9.57617,-25.72709 -52.41497,-94.58161 -75,-149c-22.58503,-54.41839 -5.76396,-94.40066 -27,-149c-21.23604,-54.59934 -80.5292,-123.81575 -75,-149c5.5292,-25.18425 75.88077,-6.33634 149,0c73.11923,6.33634 149.00614,0.16112 149,0c-0.00614,-0.16112 -75.90531,5.69185 -149,0c-73.09469,-5.69185 -143.3849,-22.92852 -149,0c-5.6151,22.92852 53.44491,86.02224 75,149c21.55509,62.97776 5.60526,125.83955 27,149c21.39474,23.16045 80.13403,6.61955 149,0c68.86597,-6.61955 147.85861,-3.31775 149,0c1.14139,3.31775 -75.56847,6.65144 -149,0c-73.43153,-6.65144 -143.58474,-23.28802 -149,0c-5.41526,23.28802 53.90743,86.50062 75,149c21.09257,62.49938 3.95502,124.28554 37,149c33.04498,24.71446 116.27249,12.35723 199.5,0c83.22751,-12.35723 146.36375,-6.17862 209.5,0" fill-opacity="0" fill="rgb(0,0,0)" stroke="rgb(0,0,0)" stroke-width="25" stroke-linecap="round" stroke-linejoin="round"/></g></svg>