<?xml version="1.0" encoding="utf-8"?><svg version="1.1" id="Calque_1" xmlns="http://www.w3.org/2000/svg" xmlns:xlink="http://www.w3.org/1999/xlink" x="0px" y="0px" width="2136px" height="718px" viewBox="-482 180 2136 718" enable-background="new -482 180 2136 718" xml:space="preserve"><g xmlns="http://www.w3.org/2000/svg"><polygon points="0,1440 0,0 2560,0 2560,1440" fill="rgb(255,255,255)" stroke-width="1" stroke-linecap="butt" stroke-linejoin="miter"/><path d="M1495,869c95.77317,2.44631 191.54633,4.89262 149,0c-42.54633,-4.89262 -223.41217,-17.12418 -298,0c-74.58783,17.12418 -42.89767,63.60409 -149,0c-106.10233,-63.60409 -349.99715,-237.29219 -400,-298c-50.00285,-60.70781 93.88627,-8.43534 149,0c55.11373,8.43534 21.45206,-26.96647 149,0c127.54794,26.96647 416.30549,116.30121 474,149c57.69451,32.69879 -115.67401,8.76163 -149,0c-33.32599,-8.76163 73.39055,-2.34773 -149,0c-222.39055,2.34773 -773.88819,0.62929 -745,0c28.88819,-0.62929 638.1622,-0.16942 894,0c255.8378,0.16942 158.23937,0.04841 149,0c-9.23937,-0.04841 69.88031,-0.0242 149,0c79.11969,0.0242 -569.94016,-74.4879 -1219,-149" fill-opacity="0" fill="rgb(0,0,0)" stroke="rgb(0,0,0)" stroke-width="25" stroke-linecap="round" stroke-linejoin="round"/></g></svg>