<?xml version="1.0" encoding="utf-8"?><svg version="1.1" id="Calque_1" xmlns="http://www.w3.org/2000/svg" xmlns:xlink="http://www.w3.org/1999/xlink" x="0px" y="0px" width="2136px" height="718px" viewBox="-482 180 2136 718" enable-background="new -482 180 2136 718" xml:space="preserve"><g xmlns="http://www.w3.org/2000/svg"><polygon points="0,1440 0,0 2560,0 2560,1440" fill="rgb(255,255,255)" stroke-width="1" stroke-linecap="butt" stroke-linejoin="miter"/><path d="M362.5,869c269.09829,-151.13746 538.19658,-302.27493 732.5,-298c194.30342,4.27493 313.81197,163.96225 176,149c-137.81197,-14.96225 -532.94447,-204.57408 -474,-149c58.94447,55.57408 571.9659,356.33406 474.5,447c-97.4659,90.66594 -805.41914,-28.76216 -909,-149c-103.58086,-120.23784 397.21068,-241.28542 583.5,-298c186.28932,-56.71458 58.07644,-49.09615 -149,0c-207.07644,49.09615 -493.01644,139.67002 -271,149c222.01644,9.32998 951.9893,-62.58393 1192,0c240.0107,62.58393 -9.94078,259.66569 -446.5,298c-436.55922,38.33431 -1059.72618,-82.07882 -909,-149c150.72618,-66.92118 1075.3455,-80.35039 1355.5,-149c280.1545,-68.64961 -84.15582,-192.5196 -325,-149c-240.84418,43.5196 -358.22223,254.42879 -494,298c-135.77777,43.57121 -289.95526,-80.19558 -373,-149c-83.04474,-68.80442 -94.95674,-82.64649 149,0c243.95674,82.64649 743.78222,261.78153 596.5,298c-147.28222,36.21847 -941.67214,-70.47964 -909,-149c32.67214,-78.52036 892.40632,-128.86296 1057.5,-149c165.09368,-20.13704 -364.45316,-10.06852 -894,0c-529.54684,10.06852 -115.77342,5.03426 298,0" fill-opacity="0" fill="rgb(0,0,0)" stroke="rgb(0,0,0)" stroke-width="25" stroke-linecap="round" stroke-linejoin="round"/></g></svg>