<?xml version="1.0" encoding="utf-8"?><svg version="1.1" id="Calque_1" xmlns="http://www.w3.org/2000/svg" xmlns:xlink="http://www.w3.org/1999/xlink" x="0px" y="0px" width="2136px" height="718px" viewBox="-482 180 2136 718" enable-background="new -482 180 2136 718" xml:space="preserve"><g xmlns="http://www.w3.org/2000/svg"><polygon points="0,1440 0,0 2560,0 2560,1440" fill="rgb(255,255,255)" stroke-width="1" stroke-linecap="butt" stroke-linejoin="miter"/><path d="M1346,869c226.75676,-108.74443 453.51352,-217.48887 345,-298c-108.51352,-80.51113 -552.29732,-132.78897 -596,0c-43.70268,132.78897 312.67577,450.64475 176.5,447c-136.17577,-3.64475 -764.90576,-328.79002 -772.5,-447c-7.59424,-118.20998 605.94726,-29.48465 894,0c288.05274,29.48465 250.61673,-0.27137 149,0c-101.61673,0.27137 -267.41416,30.57014 -447,0c-179.58584,-30.57014 -372.96008,-122.00917 -298,0c74.96008,122.00917 418.2545,457.46655 474.5,447c56.2455,-10.46655 -174.55791,-366.85701 -176.5,-447c-1.94209,-80.14299 224.97713,115.9615 176,149c-48.97713,33.0385 -373.85061,-96.989 -474,-149c-100.14939,-52.011 24.4253,-26.0055 149,0c124.5747,26.0055 -12.21265,13.00275 -149,0" fill-opacity="0" fill="rgb(0,0,0)" stroke="rgb(0,0,0)" stroke-width="25" stroke-linecap="round" stroke-linejoin="round"/></g></svg>