<?xml version="1.0" encoding="utf-8"?><svg version="1.1" id="Calque_1" xmlns="http://www.w3.org/2000/svg" xmlns:xlink="http://www.w3.org/1999/xlink" x="0px" y="0px" width="2136px" height="718px" viewBox="-482 180 2136 718" enable-background="new -482 180 2136 718" xml:space="preserve"><g xmlns="http://www.w3.org/2000/svg"><polygon points="0,1440 0,0 2560,0 2560,1440" fill="rgb(255,255,255)" stroke-width="1" stroke-linecap="butt" stroke-linejoin="miter"/><path d="M675,720c-47.50513,57.3289 -95.01025,114.6578 -75,149c20.01025,34.3422 107.53588,45.69769 150,0c42.46412,-45.69769 39.86675,-148.44856 74,-149c34.13325,-0.55144 104.99713,101.09654 75,149c-29.99713,47.90346 -160.85527,42.0624 -149,0c11.85527,-42.0624 166.42394,-120.34616 223,-149c56.57606,-28.65384 15.15951,-7.67777 0,0c-15.15951,7.67777 -4.06197,2.05725 0,0c4.06197,-2.05725 1.08836,-0.55124 0,0c-1.08836,0.55124 -0.29146,0.1477 0,0c0.29146,-0.1477 0.07749,-0.03958 0,0c-0.07749,0.03958 -0.01849,0.0106 0,0c0.01849,-0.0106 -0.00353,-0.00284 0,0c0.00353,0.00284 0.03262,0.00076 0,0c-0.03262,-0.00076 -0.12695,-0.0002 0,0c0.12695,0.0002 0.47517,0.00005 0,0c-0.47517,-0.00005 -1.77373,-0.00001 0,0c1.77373,0.00001 6.61976,0 0,0c-6.61976,0 -24.70532,0 0,0c24.70532,0 92.20152,0 149,0c56.79848,0 102.89924,0 149,0c46.10076,0 92.20152,0 149,0c56.79848,0 124.29468,0 149,0c24.70532,0 6.61977,0 0,0c-6.61977,0 -1.77376,0 0,0c1.77376,0 0.47528,0 0,0c-0.47528,0 -0.12735,0 0,0c0.12735,0 0.03412,0 0,0c-0.03412,0 -0.00914,0 0,0c0.00914,0 0.00245,0 0,0c-0.00245,0 -0.00066,0 0,0c0.00066,0 0.00018,0 0,0c-0.00018,0 -0.00005,0 0,0c0.00005,0 0.00001,0 0,0c-0.00001,0 0,0 0,0c0,0 0,0 0,0c0,0 0,0 0,0c0,0 0,0 0,0c0,0 0,0 0,0c0,0 0.00002,-0.00001 0,0c-0.00002,0.00001 -0.00006,0.00004 0,0c0.00006,-0.00004 0.00022,-0.00016 0,0c-0.00022,0.00016 -0.00081,0.00061 0,0c0.00081,-0.00061 0.00303,-0.00229 0,0c-0.00303,0.00229 -0.01129,0.00853 0,0c0.01129,-0.00853 0.04214,-0.03184 0,0c-0.04214,0.03184 -0.15725,0.11882 0,0c0.15725,-0.11882 0.58687,-0.44344 0,0c-0.58687,0.44344 -2.19024,1.65495 0,0c2.19024,-1.65495 8.1741,-6.17637 0,0c-8.1741,6.17637 -30.50614,23.05055 0,0c30.50614,-23.05055 113.85048,-86.02581 122,-149c8.14952,-62.97419 -58.89577,-125.94732 -75,-149c-16.10423,-23.05268 18.73262,-6.18491 0,0c-18.73262,6.18491 -91.0347,1.68694 -149,0c-57.9653,-1.68694 -101.59383,-0.56287 -149,0c-47.40617,0.56287 -98.58999,0.56455 -149,0c-50.41001,-0.56455 -100.0462,-1.69531 -149,0c-48.9538,1.69531 -97.22519,6.2167 -149,0c-51.77481,-6.2167 -107.05304,-23.17149 -149,0c-41.94696,23.17149 -70.56264,86.46925 -74,149c-3.43736,62.53075 18.30361,124.2945 27,149c8.69639,24.7055 4.34819,12.35275 0,0c-4.34819,-12.35275 -2.1741,-6.17637 0,0" fill-opacity="0" fill="rgb(0,0,0)" stroke="rgb(0,0,0)" stroke-width="25" stroke-linecap="round" stroke-linejoin="round"/></g></svg>