<?xml version="1.0" encoding="utf-8"?><svg version="1.1" id="Calque_1" xmlns="http://www.w3.org/2000/svg" xmlns:xlink="http://www.w3.org/1999/xlink" x="0px" y="0px" width="2136px" height="718px" viewBox="-482 180 2136 718" enable-background="new -482 180 2136 718" xml:space="preserve"><g xmlns="http://www.w3.org/2000/svg"><polygon points="0,1440 0,0 2560,0 2560,1440" fill="rgb(255,255,255)" stroke-width="1" stroke-linecap="butt" stroke-linejoin="miter"/><path d="M2189,869c-642.70612,9.32337 -1285.41224,18.64675 -1290,0c-4.58776,-18.64675 628.94284,-65.26362 819,-149c190.05716,-83.73638 -63.35913,-204.59225 -176,-149c-112.64087,55.59225 -84.50632,287.63264 -196,298c-111.49368,10.36736 -362.61561,-200.93832 -251,-298c111.61561,-97.06168 585.96875,-79.87937 596,0c10.03125,79.87937 -444.25938,222.4558 -345,298c99.25938,75.5442 752.06876,84.05616 843,0c90.93124,-84.05616 -380.01565,-260.68046 -498,-298c-117.98435,-37.31954 116.99383,64.66567 325,149c208.00617,84.33433 389.04033,151.01776 173,149c-216.04033,-2.01776 -829.15514,-72.73672 -1067,-149c-237.84486,-76.26328 -100.41977,-158.07088 -176,-149c-75.58023,9.07088 -364.16578,109.02025 -420,149c-55.83422,39.97975 121.08289,19.98987 298,0c176.91711,-19.98987 298.45856,-84.49494 420,-149" fill-opacity="0" fill="rgb(0,0,0)" stroke="rgb(0,0,0)" stroke-width="25" stroke-linecap="round" stroke-linejoin="round"/></g></svg>