<?xml version="1.0" encoding="utf-8"?><svg version="1.1" id="Calque_1" xmlns="http://www.w3.org/2000/svg" xmlns:xlink="http://www.w3.org/1999/xlink" x="0px" y="0px" width="2136px" height="718px" viewBox="-482 180 2136 718" enable-background="new -482 180 2136 718" xml:space="preserve"><g xmlns="http://www.w3.org/2000/svg"><polygon points="0,1440 0,0 2560,0 2560,1440" fill="rgb(255,255,255)" stroke-width="1" stroke-linecap="butt" stroke-linejoin="miter"/><path d="M1644,869c-487.85357,1.21369 -975.70714,2.42737 -894,0c81.70714,-2.42737 732.97501,-8.4958 745,0c12.02499,8.4958 -615.19288,31.55582 -596,0c19.19288,-31.55582 684.79651,-117.72749 670,-149c-14.79651,-31.27251 -709.99316,-7.64586 -745,0c-35.00684,7.64586 590.17613,-0.68906 596,0c5.82387,0.68906 -607.71135,10.40212 -596,0c11.71135,-10.40212 648.66928,-40.91941 745,0c96.33072,40.91941 -347.96577,153.27552 -670,149c-322.03423,-4.27552 -521.80621,-125.18267 -373,-149c148.80621,-23.81733 646.19062,49.45517 820,149c173.80938,99.54483 24.04372,225.36201 -74.5,149c-98.54372,-76.36201 -145.86549,-354.9032 -27.5,-447c118.36549,-92.0968 402.41823,2.25079 447,0c44.58177,-2.25079 -150.30742,-101.09994 -298,0c-147.69258,101.09994 -248.18853,402.14899 -121.5,447c126.68853,44.85101 480.56154,-166.496 595.5,-298c114.93846,-131.504 -9.05765,-183.16499 -27,-149c-17.94235,34.16499 70.16905,154.15598 -122,149c-192.16905,-5.15598 -664.61855,-135.45891 -921,-149c-256.38145,-13.54109 -296.69485,89.67967 -271,149c25.69485,59.32033 117.39797,74.74022 149,0c31.60203,-74.74022 3.10299,-239.64055 122,-149c118.89701,90.64055 385.19008,436.82198 474.5,447c89.30992,10.17802 1.63669,-315.64738 -176.5,-447c-178.13669,-131.35262 -446.73682,-68.23244 -298,0c148.73682,68.23244 714.81061,141.57716 921,149c206.18939,7.42284 52.49438,-51.07621 0,0c-52.49438,51.07621 -3.78812,211.72768 -223,149c-219.21188,-62.72768 -706.34189,-348.83451 -698,-298c8.34189,50.83451 512.15567,438.61034 474.5,447c-37.65567,8.38966 -616.78078,-362.60687 -623.5,-447c-6.71922,-84.39313 558.96744,117.81715 623,149c64.03256,31.18285 -373.58897,-108.66171 -474,-149c-100.41103,-40.33829 136.38846,18.8297 149,0c12.61154,-18.8297 -198.96485,-115.6571 -149,0c49.96485,115.6571 361.47096,443.79869 474.5,447c113.02904,3.20131 27.58101,-318.53765 -27.5,-447c-55.08101,-128.46235 -79.79502,-63.64809 -149,0c-69.20498,63.64809 -182.90094,126.13003 -271,149c-88.09906,22.86997 -150.60121,6.12799 -149,0c1.60121,-6.12799 67.30579,-1.642 298,0c230.69421,1.642 626.37807,0.43999 745,0c118.62193,-0.43999 -39.81805,-0.11797 -149,0c-109.18195,0.11797 -169.10588,0.03188 -149,0c20.10588,-0.03188 120.24155,-0.00954 -149,0c-269.24155,0.00954 -907.86032,0.00629 -745,0c162.86032,-0.00629 1127.19973,-0.01561 1192,0c64.80027,0.01561 -769.93861,0.05616 -1043,0c-273.06139,-0.05616 15.55471,-0.20904 149,0c133.44529,0.20904 111.71976,0.77998 149,0c37.28024,-0.77998 133.56624,-2.91088 298,0c164.43376,2.91088 397.01528,10.86353 447,0c49.98472,-10.86353 -82.62735,-40.54325 -149,0c-66.37265,40.54325 -66.50586,151.30947 -223,149c-156.49414,-2.30947 -469.3492,-117.69465 -224,-149c245.3492,-31.30535 1048.90268,21.46911 894,0c-154.90268,-21.46911 -1268.2615,-117.18179 -1368,-149c-99.7385,-31.81821 814.14334,0.25807 894,0c79.85666,-0.25807 -674.31185,-32.85047 -745,0c-70.68815,32.85047 542.10405,131.14383 623,149c80.89595,17.85617 -370.10437,-44.72484 -447,0c-76.89563,44.72484 220.31343,196.75551 373,149c152.68657,-47.75551 160.85067,-295.29722 196,-298c35.14933,-2.70278 97.2839,239.43338 -196,298c-293.2839,58.56662 -941.98626,-66.43629 -1021,-149c-79.01374,-82.56371 411.66116,-122.68823 472,-149c60.33884,-26.31177 -309.65837,-38.8108 -149,0c160.65837,38.8108 851.97231,128.93142 1070,149c218.02769,20.06858 -37.23088,-29.91489 -149,0c-111.76912,29.91489 -80.04878,139.72813 -223,149c-142.95122,9.27187 -460.574,-81.99763 -373,-149c87.574,-67.00237 580.34477,-109.73761 718,-149c137.65523,-39.26239 -79.80506,-75.05192 -149,0c-69.19494,75.05192 9.87549,260.94531 -196,298c-205.87549,37.05469 -696.6969,-74.72931 -820,-149c-123.3031,-74.27069 120.91211,-111.02806 122,-149c1.08789,-37.97194 -240.95153,-77.15845 149,0c389.95153,77.15845 1411.894,270.66185 1392,298c-19.894,27.33815 -1081.62448,-111.48897 -1216,-149c-134.37552,-37.51103 658.60391,26.29402 596,0c-62.60391,-26.29402 -980.79118,-142.6871 -921,-149c59.79118,-6.3129 1097.56079,97.45438 1070,149c-27.56079,51.54562 -1120.45199,50.86957 -1393,0c-272.54801,-50.86957 275.24718,-151.93267 472,-149c196.75282,2.93267 42.46328,109.86112 176,149c133.53672,39.13888 554.89972,10.4882 447,0c-107.89972,-10.4882 -745.06216,-2.81392 -894,0c-148.93784,2.81392 190.3489,0.76747 298,0c107.6511,-0.76747 -16.33346,-0.25597 149,0c165.33346,0.25597 619.98495,0.2564 745,0c125.01505,-0.2564 -79.60633,-0.76961 -149,0c-69.39367,0.76961 -3.55962,2.82206 -149,0c-145.44038,-2.82206 -502.15519,-10.51862 -745,0c-242.84481,10.51862 -371.81961,39.25244 -149,0c222.81961,-39.25244 797.43365,-146.49113 1016,-149c218.56635,-2.50887 81.08503,99.71208 -122,149c-203.08503,49.28792 -471.77375,45.64282 -447,0c24.77375,-45.64282 343.00998,-133.28335 569,-149c225.99002,-15.71665 359.73382,40.49059 149,0c-210.73382,-40.49059 -765.94527,-177.679 -820,-149c-54.05473,28.679 393.04727,223.22543 549,298c155.95273,74.77457 20.75619,29.7773 -149,0c-169.75619,-29.7773 -374.07202,-44.33464 -298,0c76.07202,44.33464 432.53191,147.56124 373,149c-59.53191,1.43876 -535.0556,-98.91033 -671,-149c-135.9444,-50.08967 67.6905,-49.91994 149,0c81.3095,49.91994 40.29358,149.59009 224,149c183.70642,-0.59009 592.13516,-101.4404 670,-149c77.86484,-47.5596 -174.83423,-41.82848 -149,0c25.83423,41.82848 330.20176,119.75431 373,149c42.79824,29.24569 -175.97283,9.81124 -596,0c-420.02717,-9.81124 -1041.31046,-9.99927 -983.5,0c57.81046,9.99927 794.71466,30.18582 834.5,0c39.78534,-30.18582 -617.54819,-110.74402 -522,-149c95.54819,-38.25598 943.97808,-34.20974 1043,0c99.02192,34.20974 -551.36414,98.58297 -670,149c-118.63586,50.41703 294.47849,86.87787 298,0c3.52151,-86.87787 -402.54982,-297.09443 -549,-298c-146.45018,-0.90557 -33.2792,207.49986 251,298c284.2792,90.50014 739.66661,63.095 894,0c154.33339,-63.095 7.61277,-161.87988 -373,-149c-380.61277,12.87988 -995.11769,137.4245 -1206.5,149c-211.38231,11.5755 -19.64199,-89.81812 312.5,-149c332.14199,-59.18188 804.68567,-76.152 894,0c89.31433,76.152 -204.60069,245.42614 -297.5,298c-92.89931,52.57386 15.2171,-11.55256 0,0c-15.2171,11.55256 -153.76771,98.78412 0,0c153.76771,-98.78412 599.85375,-383.5839 419.5,-447c-180.35375,-63.4161 -987.14727,94.55149 -1016,149c-28.85273,54.44851 720.23535,5.37795 745,0c24.76465,-5.37795 -674.79413,32.93671 -894,0c-219.20587,-32.93671 41.94118,-137.12477 271,-149c229.05882,-11.87523 426.02941,68.56239 623,149c196.97059,80.43761 -125.0147,40.21881 -447,0" fill-opacity="0" fill="rgb(0,0,0)" stroke="rgb(0,0,0)" stroke-width="25" stroke-linecap="round" stroke-linejoin="round"/></g></svg>