<?xml version="1.0" encoding="utf-8"?><svg version="1.1" id="Calque_1" xmlns="http://www.w3.org/2000/svg" xmlns:xlink="http://www.w3.org/1999/xlink" x="0px" y="0px" width="2136px" height="718px" viewBox="-482 180 2136 718" enable-background="new -482 180 2136 718" xml:space="preserve"><g xmlns="http://www.w3.org/2000/svg"><polygon points="0,1440 0,0 2560,0 2560,1440" fill="rgb(255,255,255)" stroke-width="1" stroke-linecap="butt" stroke-linejoin="miter"/><path d="M499,571c-2.93251,83.96718 -5.86502,167.93435 27,149c32.86502,-18.93435 101.52756,-140.77023 122,-149c20.47244,-8.22977 -7.24521,97.14655 27,149c34.24521,51.85345 130.45329,50.18402 149,0c18.54671,-50.18402 -40.56796,-148.88265 -27,-149c13.56796,-0.11735 99.81856,98.34656 176,149c76.18144,50.65344 142.29371,53.49641 149,0c6.70629,-53.49641 -45.99342,-163.3322 -27,-149c18.99342,14.3322 109.67996,152.83238 176,149c66.32004,-3.83238 108.27358,-149.99733 122,-149c13.72642,0.99733 -0.77427,149.15695 27,149c27.77427,-0.15695 97.82349,-148.63045 122,-149c24.17651,-0.36955 2.4803,147.36486 27,149c24.5197,1.63514 95.2553,-142.829 122,-149c26.7447,-6.171 9.49848,125.95114 27,149c17.50152,23.04886 69.75076,-62.97557 122,-149c52.24924,-86.02443 -34.87538,31.48779 -122,149" fill-opacity="0" fill="rgb(0,0,0)" stroke="rgb(0,0,0)" stroke-width="25" stroke-linecap="round" stroke-linejoin="round"/></g></svg>