<?xml version="1.0" encoding="utf-8"?><svg version="1.1" id="Calque_1" xmlns="http://www.w3.org/2000/svg" xmlns:xlink="http://www.w3.org/1999/xlink" x="0px" y="0px" width="2136px" height="718px" viewBox="-482 180 2136 718" enable-background="new -482 180 2136 718" xml:space="preserve"><g xmlns="http://www.w3.org/2000/svg"><polygon points="0,1440 0,0 2560,0 2560,1440" fill="rgb(255,255,255)" stroke-width="1" stroke-linecap="butt" stroke-linejoin="miter"/><path d="M1840,571c-461.47647,11.35493 -922.95294,22.70986 -894,0c28.95294,-22.70986 548.33529,-79.48451 596,0c47.66471,79.48451 -376.38821,295.22817 -643,298c-266.61179,2.77183 -375.78244,-207.42818 -102,-298c273.78244,-90.57182 930.51796,-61.51545 894,0c-36.51796,61.51545 -766.28941,155.48999 -718,149c48.28941,-6.48999 874.63968,-113.4445 867,-149c-7.63968,-35.5555 -849.26931,0.28802 -894,0c-44.73069,-0.28802 707.43758,-36.70756 745,0c37.56242,36.70756 -639.48099,146.54223 -718,149c-78.51901,2.45777 441.48639,-102.46135 569,-149c127.51361,-46.53865 -137.46459,-34.69682 -447,0c-309.53541,34.69682 -663.62805,92.24863 -420,149c243.62805,56.75137 1084.97678,112.70229 1118,149c33.02322,36.29771 -742.27908,52.9422 -894,0c-151.72092,-52.9422 320.13954,-175.4711 792,-298c471.86046,-122.5289 137.93023,87.73555 -196,298" fill-opacity="0" fill="rgb(0,0,0)" stroke="rgb(0,0,0)" stroke-width="25" stroke-linecap="round" stroke-linejoin="round"/></g></svg>