<?xml version="1.0" encoding="utf-8"?><svg version="1.1" id="Calque_1" xmlns="http://www.w3.org/2000/svg" xmlns:xlink="http://www.w3.org/1999/xlink" x="0px" y="0px" width="2136px" height="718px" viewBox="-482 180 2136 718" enable-background="new -482 180 2136 718" xml:space="preserve"><g xmlns="http://www.w3.org/2000/svg"><polygon points="0,1440 0,0 2560,0 2560,1440" fill="rgb(255,255,255)" stroke-width="1" stroke-linecap="butt" stroke-linejoin="miter"/><path d="M362.5,869c536.36813,-28.61832 1072.73626,-57.23664 1057.5,-149c-15.23626,-91.76336 -582.0769,-246.67175 -623,-149c-40.9231,97.67175 444.07135,447.92365 474.5,447c30.42865,-0.92365 -393.70848,-353.02283 -176.5,-447c217.20848,-93.97717 1075.76258,70.16769 921,149c-154.76258,78.83231 -1322.84184,72.35207 -1490,0c-167.15816,-72.35207 666.60477,-210.57599 1016,-149c349.39523,61.57599 214.42277,322.95188 -47,298c-261.42277,-24.95188 -649.29583,-336.23153 -698,-298c-48.70417,38.23153 241.76055,425.97423 474.5,447c232.73945,21.02577 407.75362,-324.6654 419.5,-447c11.74638,-122.3346 -139.77503,-21.31262 -298,0c-158.22497,21.31262 -323.15349,-37.08412 -447,0c-123.84651,37.08412 -206.61101,169.64909 -271,149c-64.38899,-20.64909 -110.40246,-194.51224 122,-149c232.40246,45.51224 743.22086,310.39987 698,298c-45.22086,-12.39987 -646.48097,-302.08725 -698,-298c-51.51903,4.08725 446.70302,301.94911 549,298c102.29698,-3.94911 -191.33113,-309.7092 -251,-298c-59.66887,11.7092 114.62149,340.8877 176.5,447c61.87851,106.1123 11.34517,-10.84159 -74.5,-149c-85.84517,-138.15841 -207.00219,-297.52135 -400,-298c-192.99781,-0.47865 -457.83643,157.92699 -271,149c186.83643,-8.92699 825.34791,-185.18662 867,-149c41.65209,36.18662 -513.55521,284.81947 -494,298c19.55521,13.18053 613.87292,-209.09128 792,-298c178.12708,-88.90872 -59.93646,-44.45436 -298,0c-238.06354,44.45436 104.46823,22.22718 447,0" fill-opacity="0" fill="rgb(0,0,0)" stroke="rgb(0,0,0)" stroke-width="25" stroke-linecap="round" stroke-linejoin="round"/></g></svg>