<?xml version="1.0" encoding="utf-8"?><svg version="1.1" id="Calque_1" xmlns="http://www.w3.org/2000/svg" xmlns:xlink="http://www.w3.org/1999/xlink" x="0px" y="0px" width="2136px" height="718px" viewBox="-482 180 2136 718" enable-background="new -482 180 2136 718" xml:space="preserve"><g xmlns="http://www.w3.org/2000/svg"><polygon points="0,1440 0,0 2560,0 2560,1440" fill="rgb(255,255,255)" stroke-width="1" stroke-linecap="butt" stroke-linejoin="miter"/><path d="M499,571c60.6753,62.67138 121.3506,125.34277 176,149c54.6494,23.65723 103.27291,8.30031 149,0c45.72709,-8.30031 88.55777,-9.544 149,0c60.44223,9.544 138.49603,29.87569 149,0c10.50397,-29.87569 -46.54187,-109.95876 -27,-149c19.54187,-39.04124 115.67147,-37.04066 149,0c33.32853,37.04066 3.85599,109.12139 27,149c23.14401,39.87861 98.90458,47.55509 149,0c50.09542,-47.55509 74.52569,-150.34176 122,-149c47.47431,1.34176 117.99266,106.81193 176,149c58.00734,42.18807 103.50367,21.09403 149,0c45.49633,-21.09403 9.24817,-85.04702 -27,-149" fill-opacity="0" fill="rgb(0,0,0)" stroke="rgb(0,0,0)" stroke-width="25" stroke-linecap="round" stroke-linejoin="round"/></g></svg>