<?xml version="1.0" encoding="utf-8"?><svg version="1.1" id="Calque_1" xmlns="http://www.w3.org/2000/svg" xmlns:xlink="http://www.w3.org/1999/xlink" x="0px" y="0px" width="2136px" height="718px" viewBox="-482 180 2136 718" enable-background="new -482 180 2136 718" xml:space="preserve"><g xmlns="http://www.w3.org/2000/svg"><polygon points="0,1440 0,0 2560,0 2560,1440" fill="rgb(255,255,255)" stroke-width="1" stroke-linecap="butt" stroke-linejoin="miter"/><path d="M362.5,869c317.75777,-124.81855 635.51553,-249.6371 881.5,-298c245.98447,-48.3629 420.19564,-20.27014 447,0c26.80436,20.27014 -93.79807,32.71765 -298,0c-204.20193,-32.71765 -492.00334,-110.60045 -447,0c45.00334,110.60045 422.81144,409.68416 325.5,447c-97.31144,37.31584 -669.74242,-187.13617 -745.5,-298c-75.75758,-110.86383 345.15825,-108.13947 420,-149c74.84175,-40.86053 -196.39057,-125.30596 -149,0c47.39057,125.30596 413.40404,460.36332 474.5,447c61.09596,-13.36332 -182.7256,-375.14732 -176.5,-447c6.2256,-71.85268 262.49837,146.22596 176,149c-86.49837,2.77404 -515.76787,-209.75651 -474,-149c41.76787,60.75651 554.57311,394.8001 474.5,447c-80.07311,52.1999 -753.02456,-177.44387 -745.5,-298c7.52456,-120.55613 695.52512,-132.02461 867,-149c171.47488,-16.97539 -173.57593,-39.45768 -298,0c-124.42407,39.45768 -28.22138,140.85532 176,149c204.22138,8.14468 516.46147,-76.96361 420,-149c-96.46147,-72.03639 -601.62451,-131.00087 -745,0c-143.37549,131.00087 75.03656,451.96708 325.5,447c250.46344,-4.96708 532.97827,-335.86746 419.5,-447c-113.47827,-111.13254 -622.94964,-2.49724 -718,149c-95.05036,151.49724 224.3203,345.85641 298.5,298c74.1797,-47.85641 -96.83156,-337.92842 -27.5,-447c69.33156,-109.07158 379.00595,-37.14273 447,0c67.99405,37.14273 -105.69222,39.49936 -298,0c-192.30778,-39.49936 -403.23705,-120.8547 -447,0c-43.76295,120.8547 79.64043,443.91943 325.5,447c245.85957,3.08057 614.17532,-313.82304 419.5,-447c-194.67532,-133.17696 -952.34171,-82.62728 -1043,0c-90.65829,82.62728 485.6915,197.33216 698,298c212.3085,100.66784 60.57569,187.29866 -74.5,149c-135.07569,-38.29866 -253.49426,-201.52678 -298.5,-298c-45.00574,-96.47322 -16.59866,-126.19153 -27,-149c-10.40134,-22.80847 -59.61111,-38.70711 -149,0c-89.38889,38.70711 -218.9569,132.01997 -122,149c96.9569,16.98003 420.43873,-42.37275 596,0c175.56127,42.37275 203.20199,186.47105 75,149c-128.20199,-37.47105 -412.24669,-256.51144 -549,-298c-136.75331,-41.48856 -126.21523,94.5747 -122,149c4.21523,54.4253 2.10762,27.21265 0,0c-2.10762,-27.21265 557.94619,60.89367 1118,149" fill-opacity="0" fill="rgb(0,0,0)" stroke="rgb(0,0,0)" stroke-width="25" stroke-linecap="round" stroke-linejoin="round"/></g></svg>