<?xml version="1.0" encoding="utf-8"?><svg version="1.1" id="Calque_1" xmlns="http://www.w3.org/2000/svg" xmlns:xlink="http://www.w3.org/1999/xlink" x="0px" y="0px" width="2136px" height="718px" viewBox="-482 180 2136 718" enable-background="new -482 180 2136 718" xml:space="preserve"><g xmlns="http://www.w3.org/2000/svg"><polygon points="0,1440 0,0 2560,0 2560,1440" fill="rgb(255,255,255)" stroke-width="1" stroke-linecap="butt" stroke-linejoin="miter"/><path d="M600,869c42.65443,-114.8012 85.30886,-229.60241 197,-298c111.69114,-68.39759 292.41899,-90.39158 447,0c154.58101,90.39158 283.01517,293.16873 102,298c-181.01517,4.83127 -671.47969,-188.28333 -549,-298c122.47969,-109.71667 857.90359,-136.03542 1043,0c185.09641,136.03542 -180.13466,434.42502 -568.5,447c-388.36534,12.57498 -799.86496,-260.66467 -745.5,-298c54.36496,-37.33533 574.59449,161.23367 671,149c96.40551,-12.23367 -231.01301,-235.27001 -400,-298c-168.98699,-62.72999 -179.54245,34.84636 -122,149c57.54245,114.15364 183.18281,244.88456 596.5,298c413.31719,53.11544 1114.31123,28.61539 917.5,-149c-196.81123,-177.61539 -1291.42771,-508.34611 -1467,-447c-175.57229,61.34611 567.89961,514.76906 549.5,596c-18.39961,81.23094 -798.67073,-209.73013 -946.5,-298c-147.82927,-88.26987 336.78332,26.15144 499,0c162.21668,-26.15144 2.03746,-192.87564 -27,-149c-29.03746,43.87564 73.06684,298.35114 251,298c177.93316,-0.35114 431.69519,-255.5289 494,-298c62.30481,-42.4711 -66.84759,127.76445 -196,298c-129.15241,170.23555 -101.8262,159.61778 -74.5,149" fill-opacity="0" fill="rgb(0,0,0)" stroke="rgb(0,0,0)" stroke-width="25" stroke-linecap="round" stroke-linejoin="round"/></g></svg>