<?xml version="1.0" encoding="utf-8"?><svg version="1.1" id="Calque_1" xmlns="http://www.w3.org/2000/svg" xmlns:xlink="http://www.w3.org/1999/xlink" x="0px" y="0px" width="2136px" height="718px" viewBox="-482 180 2136 718" enable-background="new -482 180 2136 718" xml:space="preserve"><g xmlns="http://www.w3.org/2000/svg"><polygon points="0,1440 0,0 2560,0 2560,1440" fill="rgb(255,255,255)" stroke-width="1" stroke-linecap="butt" stroke-linejoin="miter"/><path d="M1718,720c48.67357,15.33339 97.34714,30.66679 0,0c-97.34714,-30.66679 -340.71499,-107.33376 -325,-149c15.71499,-41.66624 290.51283,-48.33174 149,0c-141.51283,48.33174 -699.33631,151.66071 -867,149c-167.66369,-2.66071 54.83241,-111.31112 271,-149c216.16759,-37.68888 426.00666,-4.41624 596,0c169.99334,4.41624 300.14095,-20.02393 149,0c-151.14095,20.02393 -583.57048,84.51197 -1016,149c-432.42952,64.48803 82.03524,181.24402 596.5,298" fill-opacity="0" fill="rgb(0,0,0)" stroke="rgb(0,0,0)" stroke-width="25" stroke-linecap="round" stroke-linejoin="round"/></g></svg>