<?xml version="1.0" encoding="utf-8"?><svg version="1.1" id="Calque_1" xmlns="http://www.w3.org/2000/svg" xmlns:xlink="http://www.w3.org/1999/xlink" x="0px" y="0px" width="2136px" height="718px" viewBox="-482 180 2136 718" enable-background="new -482 180 2136 718" xml:space="preserve"><g xmlns="http://www.w3.org/2000/svg"><polygon points="0,1440 0,0 2560,0 2560,1440" fill="rgb(255,255,255)" stroke-width="1" stroke-linecap="butt" stroke-linejoin="miter"/><path d="M899,869c286.51896,-126.8423 573.03791,-253.6846 643,-298c69.96209,-44.3154 -76.63269,-6.10392 -149,0c-72.36731,6.10392 -70.50715,-19.89974 -149,0c-78.49285,19.89974 -237.33872,85.70287 27,149c264.33872,63.29713 951.86202,124.08826 918,149c-33.86202,24.91174 -789.10936,13.94409 -843,0c-53.89064,-13.94409 593.57541,-30.86464 843,0c249.42459,30.86464 100.80771,109.51445 50,149c-50.80771,39.48555 -3.80627,39.80683 0,0c3.80627,-39.80683 -35.58265,-119.74177 -50,-149c-14.41735,-29.25823 -3.86312,-7.83973 0,0c3.86312,7.83973 1.03515,2.1007 0,0c-1.03515,-2.1007 -0.27746,-0.56307 0,0c0.27746,0.56307 0.0747,0.1516 0,0c-0.0747,-0.1516 -0.02134,-0.04331 0,0c0.02134,0.04331 0.01067,0.02166 0,0c-0.01067,-0.02166 -0.00534,-0.01083 0,0" fill-opacity="0" fill="rgb(0,0,0)" stroke="rgb(0,0,0)" stroke-width="25" stroke-linecap="round" stroke-linejoin="round"/></g></svg>