<?xml version="1.0" encoding="utf-8"?><svg version="1.1" id="Calque_1" xmlns="http://www.w3.org/2000/svg" xmlns:xlink="http://www.w3.org/1999/xlink" x="0px" y="0px" width="2136px" height="718px" viewBox="-482 180 2136 718" enable-background="new -482 180 2136 718" xml:space="preserve"><g xmlns="http://www.w3.org/2000/svg"><polygon points="0,1440 0,0 2560,0 2560,1440" fill="rgb(255,255,255)" stroke-width="1" stroke-linecap="butt" stroke-linejoin="miter"/><path d="M675,720c465.64464,-52.85312 931.28927,-105.70625 1016,-149c84.71073,-43.29375 -211.51246,-77.02814 -298,0c-86.48754,77.02814 36.76055,264.81879 -47,298c-83.76055,33.18121 -374.52976,-88.24702 -522,-149c-147.47024,-60.75298 -151.64151,-60.83069 -149,0c2.64151,60.83069 12.09579,182.5698 224,149c211.90421,-33.5698 626.25835,-222.44851 792,-298c165.74165,-75.55149 82.87083,-37.77574 0,0c-82.87083,37.77574 -27.93541,93.38787 27,149" fill-opacity="0" fill="rgb(0,0,0)" stroke="rgb(0,0,0)" stroke-width="25" stroke-linecap="round" stroke-linejoin="round"/></g></svg>