<?xml version="1.0" encoding="utf-8"?><svg version="1.1" id="Calque_1" xmlns="http://www.w3.org/2000/svg" xmlns:xlink="http://www.w3.org/1999/xlink" x="0px" y="0px" width="2136px" height="718px" viewBox="-482 180 2136 718" enable-background="new -482 180 2136 718" xml:space="preserve"><g xmlns="http://www.w3.org/2000/svg"><polygon points="0,1440 0,0 2560,0 2560,1440" fill="rgb(255,255,255)" stroke-width="1" stroke-linecap="butt" stroke-linejoin="miter"/><path d="M1095,571c145.02344,95.9076 290.04688,191.8152 176,149c-114.04688,-42.8152 -487.1641,-224.35319 -474,-149c13.1641,75.35319 412.6095,407.59758 474.5,447c61.8905,39.40242 -213.77391,-214.03712 -149.5,-298c64.27391,-83.96288 468.48613,1.55088 596,0c127.51387,-1.55088 -21.67063,-90.16642 -176,-149c-154.32937,-58.83358 -313.80362,-87.8852 -447,0c-133.19638,87.8852 -240.11489,292.7072 -196,298c44.11489,5.2928 239.26317,-188.94362 372,-149c132.73683,39.94362 203.06222,314.06726 0.5,298c-202.56222,-16.06726 -678.01203,-322.32543 -623.5,-447c54.51203,-124.67457 638.9859,-67.76553 894,0c255.0141,67.76553 180.56841,146.38756 176,149c-4.56841,2.61244 60.74044,-70.78473 0,0c-60.74044,70.78473 -247.53019,285.75134 -446.5,298c-198.96981,12.24866 -410.11969,-178.22063 -298.5,-298c111.61969,-119.77937 546.00895,-168.86882 718,-149c171.99105,19.86882 81.58388,108.69591 27,149c-54.58388,40.30409 -73.34446,32.08518 0,0c73.34446,-32.08518 238.79396,-88.03664 -27,-149c-265.79396,-60.96336 -962.83137,-126.93863 -1043,0c-80.16863,126.93863 456.53152,446.79117 623.5,447c166.96848,0.20883 -35.79472,-319.22605 -27.5,-447c8.29472,-127.77395 227.64736,-63.88698 447,0c219.35264,63.88698 -39.32368,31.94349 -298,0" fill-opacity="0" fill="rgb(0,0,0)" stroke="rgb(0,0,0)" stroke-width="25" stroke-linecap="round" stroke-linejoin="round"/></g></svg>