<?xml version="1.0" encoding="utf-8"?><svg version="1.1" id="Calque_1" xmlns="http://www.w3.org/2000/svg" xmlns:xlink="http://www.w3.org/1999/xlink" x="0px" y="0px" width="2136px" height="718px" viewBox="-482 180 2136 718" enable-background="new -482 180 2136 718" xml:space="preserve"><g xmlns="http://www.w3.org/2000/svg"><polygon points="0,1440 0,0 2560,0 2560,1440" fill="rgb(255,255,255)" stroke-width="1" stroke-linecap="butt" stroke-linejoin="miter"/><path d="M946,571c-4.39044,-59.53471 -8.78089,-119.06943 74,-149c82.78089,-29.93057 252.73311,-30.257 298,0c45.26689,30.257 -34.15154,91.09744 -223,149c-188.84846,57.90256 -487.12695,112.86723 -271,149c216.12695,36.13277 946.65933,53.43363 1043,0c96.34067,-53.43363 -441.51037,-177.60174 -474,-149c-32.48963,28.60174 440.38214,209.97332 400,298c-40.38214,88.02668 -594.0182,82.70844 -745,0c-150.9818,-82.70844 100.69067,-242.80709 196,-298c95.30933,-55.19291 34.25554,-5.48009 149,0c114.74446,5.48009 405.28719,-33.27254 298,0c-107.28719,33.27254 -612.4043,138.57027 -718,149c-105.5957,10.42973 188.33002,-74.00853 271,-149c82.66998,-74.99147 -45.91577,-140.53617 74,-149c119.91577,-8.46383 488.33308,40.15319 522,149c33.66692,108.84681 -267.41654,277.9234 -568.5,447c-301.08346,169.0766 128.70827,84.5383 558.5,0" fill-opacity="0" fill="rgb(0,0,0)" stroke="rgb(0,0,0)" stroke-width="25" stroke-linecap="round" stroke-linejoin="round"/></g></svg>