<?xml version="1.0" encoding="utf-8"?><svg version="1.1" id="Calque_1" xmlns="http://www.w3.org/2000/svg" xmlns:xlink="http://www.w3.org/1999/xlink" x="0px" y="0px" width="2136px" height="718px" viewBox="-482 180 2136 718" enable-background="new -482 180 2136 718" xml:space="preserve"><g xmlns="http://www.w3.org/2000/svg"><polygon points="0,1440 0,0 2560,0 2560,1440" fill="rgb(255,255,255)" stroke-width="1" stroke-linecap="butt" stroke-linejoin="miter"/><path d="M675,720c50.53968,-72.57817 101.07937,-145.15635 122,-149c20.92063,-3.84365 12.22222,61.04721 27,149c14.77778,87.95279 53.03175,198.9675 75,149c21.96825,-49.9675 27.65079,-260.9172 47,-298c19.34921,-37.0828 52.3651,99.70132 27,149c-25.3651,49.29868 -109.11119,11.11194 -149,0c-39.88881,-11.11194 -35.92034,4.85094 0,0c35.92034,-4.85094 103.79257,-30.5157 149,0c45.20743,30.5157 67.75007,117.21186 75,149c7.24993,31.78814 -0.79286,8.66826 0,0c0.79286,-8.66826 10.42135,-2.88489 0,0c-10.42135,2.88489 -40.89255,2.87132 0,0c40.89255,-2.87132 153.14885,-8.60038 149,0c-4.14885,8.60038 -124.70284,31.53019 -149,0c-24.29716,-31.53019 47.66249,-117.52038 74,-149c26.33751,-31.47962 7.05286,-8.44865 0,0c-7.05286,8.44865 -1.87393,2.315 0,0c1.87393,-2.315 0.44286,-0.81135 0,0c-0.44286,0.81135 0.10248,0.93038 0,0c-0.10248,-0.93038 -0.85278,-2.91018 0,0c0.85278,2.91018 3.30863,10.71034 0,0c-3.30863,-10.71034 -12.38173,-39.93117 0,0c12.38173,39.93117 46.21829,149.01434 75,149c28.78171,-0.01434 52.50857,-109.12619 74,-149c21.49143,-39.87381 40.74742,-10.50957 0,0c-40.74742,10.50957 -141.49827,2.16446 -149,0c-7.50173,-2.16446 78.24564,1.85172 149,0c70.75436,-1.85172 126.51569,-9.57134 149,0c22.48431,9.57134 11.69158,36.43365 0,0c-11.69158,-36.43365 -24.28201,-136.16325 -27,-149c-2.71799,-12.83675 4.43645,61.21935 27,149c22.56355,87.78065 60.53621,189.28584 75,149c14.46379,-40.28584 5.4187,-222.3627 47,-298c41.5813,-75.6373 133.78899,-44.83502 149,0c15.21101,44.83502 -46.57464,103.7028 -122,149c-75.42536,45.2972 -164.49041,77.02383 -149,0c15.49041,-77.02383 135.5363,-262.79813 196,-298c60.4637,-35.20187 61.34522,80.1687 75,149c13.65478,68.8313 40.08281,91.12334 27,149c-13.08281,57.87666 -65.67648,151.33792 -74,149c-8.32352,-2.33792 27.62311,-100.47504 74,-149c46.37689,-48.52496 103.18405,-47.43776 149,0c45.81595,47.43776 80.6407,141.22608 75,149c-5.6407,7.77392 -51.74684,-70.46657 -75,-149c-23.25316,-78.53343 -23.65333,-157.35981 -27,-149c-3.34667,8.35981 -9.63985,103.90581 27,149c36.63985,45.09419 116.21274,39.73659 149,0c32.78726,-39.73659 18.78888,-113.85216 -27,-149c-45.78888,-35.14784 -123.36825,-31.32795 -149,0c-25.63175,31.32795 0.68413,90.16398 27,149c26.31587,58.83602 87.65794,29.41801 149,0" fill-opacity="0" fill="rgb(0,0,0)" stroke="rgb(0,0,0)" stroke-width="25" stroke-linecap="round" stroke-linejoin="round"/></g></svg>