<?xml version="1.0" encoding="utf-8"?><svg version="1.1" id="Calque_1" xmlns="http://www.w3.org/2000/svg" xmlns:xlink="http://www.w3.org/1999/xlink" x="0px" y="0px" width="2136px" height="718px" viewBox="-482 180 2136 718" enable-background="new -482 180 2136 718" xml:space="preserve"><g xmlns="http://www.w3.org/2000/svg"><polygon points="0,1440 0,0 2560,0 2560,1440" fill="rgb(255,255,255)" stroke-width="1" stroke-linecap="butt" stroke-linejoin="miter"/><path d="M871,422c85.83069,-12.02813 171.66139,-24.05625 149,0c-22.66139,24.05625 -153.81486,84.19688 -223,149c-69.18514,64.80312 -76.40195,134.26872 -122,149c-45.59805,14.73128 -129.57732,-25.27175 -149,0c-19.42268,25.27175 25.71125,115.81828 74,149c48.28875,33.18172 99.73232,8.99862 150,0c50.26768,-8.99862 99.35948,-2.81278 149,0c49.64052,2.81278 99.82978,2.2525 149,0c49.17022,-2.2525 97.32141,-6.19721 149,0c51.67859,6.19721 106.88458,22.53633 149,0c42.11542,-22.53633 71.14026,-83.9481 74,-149c2.85974,-65.0519 -20.44561,-133.74391 -27,-149c-6.55439,-15.25609 3.64218,22.92375 0,0c-3.64218,-22.92375 -21.12312,-106.95109 -75,-149c-53.87688,-42.04891 -144.14972,-42.1194 -149,0c-4.85028,42.1194 75.72199,126.42869 75,149c-0.72199,22.57131 -82.73824,-16.59538 -149,0c-66.26176,16.59538 -116.76903,88.95281 -122,149c-5.23097,60.04719 34.81434,107.78412 75,149c40.18566,41.21588 80.51165,75.91071 149,0c68.48835,-75.91071 165.13905,-262.42695 196,-298c30.86095,-35.57305 -4.06784,79.79711 27,149c31.06784,69.20289 128.13233,92.23852 75,149c-53.13233,56.76148 -256.46147,147.24883 -223.5,149c32.96147,1.75117 302.21357,-85.23383 372.5,-149c70.28643,-63.76617 -58.39279,-104.31349 -75,-149c-16.60721,-44.68651 78.85761,-93.5122 122,-149c43.14239,-55.4878 33.96237,-117.63772 74,-149c40.03763,-31.36228 129.29291,-31.93693 149,0c19.70709,31.93693 -30.13402,96.38542 -74,149c-43.86598,52.61458 -81.75683,93.39525 -122,149c-40.24317,55.60475 -82.83866,126.0336 -74,149c8.83866,22.9664 69.11147,-1.52963 149,0c79.88853,1.52963 179.39278,29.08492 149,0c-30.39278,-29.08492 -190.6826,-114.81005 -224,-149c-33.3174,-34.18995 60.3376,-16.84473 149,0c88.6624,16.84473 172.33218,33.18897 149,0c-23.33218,-33.18897 -153.66634,-115.91113 -176,-149c-22.33366,-33.08887 63.33317,-16.54443 149,0c85.66683,16.54443 79.83342,-66.22778 74,-149" fill-opacity="0" fill="rgb(0,0,0)" stroke="rgb(0,0,0)" stroke-width="25" stroke-linecap="round" stroke-linejoin="round"/></g></svg>