<?xml version="1.0" encoding="utf-8"?><svg version="1.1" id="Calque_1" xmlns="http://www.w3.org/2000/svg" xmlns:xlink="http://www.w3.org/1999/xlink" x="0px" y="0px" width="2136px" height="718px" viewBox="-482 180 2136 718" enable-background="new -482 180 2136 718" xml:space="preserve"><g xmlns="http://www.w3.org/2000/svg"><polygon points="0,1440 0,0 2560,0 2560,1440" fill="rgb(255,255,255)" stroke-width="1" stroke-linecap="butt" stroke-linejoin="miter"/><path d="M1420,720c244.3406,-78.55766 488.68121,-157.11531 271,-149c-217.68121,8.11531 -897.38423,102.9036 -1016,149c-118.61577,46.0964 323.8557,43.50092 596,0c272.1443,-43.50092 373.96144,-127.90727 122,-149c-251.96144,-21.09273 -857.70147,21.12815 -867,149c-9.29853,127.87185 577.84444,341.39466 745.5,298c167.65556,-43.39466 -84.17631,-343.70678 -27.5,-447c56.67631,-103.29322 421.86078,-9.56752 447,0c25.13922,9.56752 -289.76681,-65.02314 -298,0c-8.23319,65.02314 290.20645,269.66008 102,298c-188.20645,28.33992 -863.05899,-119.61716 -969,-149c-105.94101,-29.38284 357.02949,59.80858 820,149c462.97051,89.19142 -104.01475,-29.90429 -671,-149" fill-opacity="0" fill="rgb(0,0,0)" stroke="rgb(0,0,0)" stroke-width="25" stroke-linecap="round" stroke-linejoin="round"/></g></svg>