<?xml version="1.0" encoding="utf-8"?><svg version="1.1" id="Calque_1" xmlns="http://www.w3.org/2000/svg" xmlns:xlink="http://www.w3.org/1999/xlink" x="0px" y="0px" width="2136px" height="718px" viewBox="-482 180 2136 718" enable-background="new -482 180 2136 718" xml:space="preserve"><g xmlns="http://www.w3.org/2000/svg"><polygon points="0,1440 0,0 2560,0 2560,1440" fill="rgb(255,255,255)" stroke-width="1" stroke-linecap="butt" stroke-linejoin="miter"/><path d="M1095,571c-51.64962,46.96437 -103.29923,93.92874 -122,149c-18.70077,55.07126 -4.45269,118.24942 75,149c79.45269,30.75058 224.10999,29.07359 298,0c73.89001,-29.07359 77.01272,-85.54377 74,-149c-3.01272,-63.45623 -12.16087,-133.89849 -27,-149c-14.83913,-15.10151 -35.36925,25.13774 -149,0c-113.63075,-25.13774 -320.36212,-115.65247 -373,-149c-52.63788,-33.34753 48.81775,-9.52787 149,0c100.18225,9.52787 199.09113,4.76393 298,0c98.90887,-4.76393 123.95444,-2.38197 149,0" fill-opacity="0" fill="rgb(0,0,0)" stroke="rgb(0,0,0)" stroke-width="25" stroke-linecap="round" stroke-linejoin="round"/></g></svg>