<?xml version="1.0" encoding="utf-8"?><svg version="1.1" id="Calque_1" xmlns="http://www.w3.org/2000/svg" xmlns:xlink="http://www.w3.org/1999/xlink" x="0px" y="0px" width="2136px" height="718px" viewBox="-482 180 2136 718" enable-background="new -482 180 2136 718" xml:space="preserve"><g xmlns="http://www.w3.org/2000/svg"><polygon points="0,1440 0,0 2560,0 2560,1440" fill="rgb(255,255,255)" stroke-width="1" stroke-linecap="butt" stroke-linejoin="miter"/><path d="M946,571c-73.69475,-14.12249 -147.38949,-28.24497 -149,0c-1.61051,28.24497 68.86323,98.8574 27,149c-41.86323,50.1426 -196.06342,79.81538 -74,149c122.06342,69.18462 520.39046,177.88108 521.5,149c1.10954,-28.88108 -394.99841,-195.33971 -298.5,-298c96.49841,-102.66029 685.60316,-141.52223 718,-149c32.39684,-7.47777 -491.91425,16.42864 -745,0c-253.08575,-16.42864 -234.94616,-73.19233 -149,0c85.94616,73.19233 239.6989,276.34066 251,298c11.3011,21.65934 -119.84945,-138.17033 -251,-298c-131.15055,-159.82967 8.92473,-79.91483 149,0" fill-opacity="0" fill="rgb(0,0,0)" stroke="rgb(0,0,0)" stroke-width="25" stroke-linecap="round" stroke-linejoin="round"/></g></svg>