<?xml version="1.0" encoding="utf-8"?><svg version="1.1" id="Calque_1" xmlns="http://www.w3.org/2000/svg" xmlns:xlink="http://www.w3.org/1999/xlink" x="0px" y="0px" width="2136px" height="718px" viewBox="-482 180 2136 718" enable-background="new -482 180 2136 718" xml:space="preserve"><g xmlns="http://www.w3.org/2000/svg"><polygon points="0,1440 0,0 2560,0 2560,1440" fill="rgb(255,255,255)" stroke-width="1" stroke-linecap="butt" stroke-linejoin="miter"/><path d="M1095,571c150.47451,97.10394 300.94901,194.20788 176,149c-124.94901,-45.20788 -525.32154,-232.72758 -474,-149c51.32154,83.72758 554.33716,438.70242 474.5,447c-79.83716,8.29758 -742.5271,-330.08212 -772.5,-447c-29.9729,-116.91788 572.77124,-12.37393 894,0c321.22876,12.37393 360.94214,-67.42214 149,0c-211.94214,67.42214 -675.53978,282.06249 -643,298c32.53978,15.93751 561.21699,-166.82782 670,-149c108.78301,17.82782 -202.32819,236.24878 -297.5,298c-95.17181,61.75122 25.59578,-33.16732 -74.5,-149c-100.09578,-115.83268 -421.05493,-252.57951 -251,-298c170.05493,-45.42049 831.12395,0.48534 745,0c-86.12395,-0.48534 -919.44085,-47.36187 -1043,0c-123.55915,47.36187 462.63947,188.96212 698,298c235.36053,109.03788 119.88298,185.51338 -74.5,149c-194.38298,-36.51338 -467.67137,-186.01565 -298.5,-298c169.17137,-111.98435 780.80252,-186.4508 718,-149c-62.80252,37.4508 -800.0387,186.81883 -941,298c-140.9613,111.18117 314.35228,184.17546 521.5,149c207.14772,-35.17546 166.12958,-178.52069 148.5,-298c-17.62958,-119.47931 -11.87062,-215.0927 -27,-149c-15.12938,66.0927 -51.14712,293.89149 102,298c153.14712,4.10851 495.45909,-215.47325 345,-298c-150.45909,-82.52675 -793.68925,-27.99848 -1043,0c-249.31075,27.99848 -104.70211,29.46717 27,149c131.70211,119.53283 250.49768,357.1298 447.5,298c197.00232,-59.1298 472.21139,-414.98638 419.5,-447c-52.71139,-32.01362 -433.34324,259.81571 -643,298c-209.65676,38.18429 -248.33842,-177.27645 -251,-298c-2.66158,-120.72355 30.69693,-146.70991 149,0c118.30307,146.70991 321.55071,466.11609 325.5,447c3.94929,-19.11609 -191.39977,-376.75445 -176.5,-447c14.89977,-70.24555 240.04837,146.90172 176,149c-64.04837,2.09828 -417.29373,-210.85244 -474,-149c-56.70627,61.85244 183.12653,398.50805 474.5,447c291.37347,48.49195 634.28759,-191.17977 446.5,-298c-187.78759,-106.82023 -906.27691,-80.78899 -1192,0c-285.72309,80.78899 -138.67994,216.33572 74,149c212.67994,-67.33572 490.99669,-337.55391 644,-298c153.00331,39.55391 180.6932,388.8799 27.5,447c-153.1932,58.1201 -487.26949,-174.96569 -447.5,-298c39.76949,-123.03431 453.38474,-136.01716 867,-149c413.61526,-12.98284 -77.69237,68.00858 -569,149" fill-opacity="0" fill="rgb(0,0,0)" stroke="rgb(0,0,0)" stroke-width="25" stroke-linecap="round" stroke-linejoin="round"/></g></svg>