<?xml version="1.0" encoding="utf-8"?><svg version="1.1" id="Calque_1" xmlns="http://www.w3.org/2000/svg" xmlns:xlink="http://www.w3.org/1999/xlink" x="0px" y="0px" width="2136px" height="718px" viewBox="-482 180 2136 718" enable-background="new -482 180 2136 718" xml:space="preserve"><g xmlns="http://www.w3.org/2000/svg"><polygon points="0,1440 0,0 2560,0 2560,1440" fill="rgb(255,255,255)" stroke-width="1" stroke-linecap="butt" stroke-linejoin="miter"/><path d="M899,869c439.09847,-128.14549 878.19693,-256.29098 792,-298c-86.19693,-41.70902 -697.68927,3.01842 -745,0c-47.31073,-3.01842 469.56015,-53.78269 596,0c126.43985,53.78269 -137.55132,212.11234 -196,298c-58.44868,85.88766 88.64514,99.33333 0,0c-88.64514,-99.33333 -413.02922,-311.44567 -549,-298c-135.97078,13.44567 -83.52825,252.44936 102,298c185.52825,45.55064 504.14222,-102.35175 372,-149c-132.14222,-46.64825 -715.04063,7.95764 -745,0c-29.95937,-7.95764 493.02032,-78.47882 1016,-149c522.97968,-70.52118 -134.51016,113.73941 -792,298" fill-opacity="0" fill="rgb(0,0,0)" stroke="rgb(0,0,0)" stroke-width="25" stroke-linecap="round" stroke-linejoin="round"/></g></svg>