<?xml version="1.0" encoding="utf-8"?><svg version="1.1" id="Calque_1" xmlns="http://www.w3.org/2000/svg" xmlns:xlink="http://www.w3.org/1999/xlink" x="0px" y="0px" width="2136px" height="718px" viewBox="-482 180 2136 718" enable-background="new -482 180 2136 718" xml:space="preserve"><g xmlns="http://www.w3.org/2000/svg"><polygon points="0,1440 0,0 2560,0 2560,1440" fill="rgb(255,255,255)" stroke-width="1" stroke-linecap="butt" stroke-linejoin="miter"/><path d="M600,869c172.62753,-0.00033 345.25506,-0.00066 299,0c-46.25506,0.00066 -311.39271,0.0023 -299,0c12.39271,-0.0023 302.31578,-0.00853 299,0c-3.31578,0.00853 -299.8704,0.03184 -299,0c0.8704,-0.03184 299.16582,-0.11882 299,0c-0.16582,0.11882 -298.79289,0.44344 -299,0c-0.20711,-0.44344 298.00574,-1.65493 299,0c0.99426,1.65493 -295.23006,6.17629 -299,0c-3.76994,-6.17629 284.91451,-23.05022 299,0c14.08549,23.05022 -246.42799,86.02458 -299,0c-52.57201,-86.02458 102.79744,-321.04809 197,-298c94.20256,23.04809 127.23822,304.1678 102,298c-25.23822,-6.1678 -108.75032,-299.62311 -102,-298c6.75032,1.62311 103.76308,298.32462 102,298c-1.76308,-0.32462 -102.30198,-297.67538 -102,-298c0.30198,-0.32462 101.44484,296.37689 102,298c0.55516,1.62311 -99.47738,-291.8322 -102,-298c-2.52262,-6.1678 92.46467,274.95191 102,298c9.53533,23.04809 -66.38131,-211.97542 -102,-298c-35.61869,-86.02458 -30.93944,-23.05022 0,0c30.93944,23.05022 88.13906,6.17629 0,0c-88.13906,-6.17629 -321.61679,-1.65493 -298,0c23.61679,1.65493 304.3281,0.44344 298,0c-6.3281,-0.44344 -299.69561,-0.11882 -298,0c1.69561,0.11882 298.45433,0.03184 298,0c-0.45433,-0.03184 -298.12173,-0.00853 -298,0c0.12173,0.00853 298.03257,0.00227 298,0c-0.03257,-0.00227 -298.00856,-0.00057 -298,0c0.00856,0.00057 298.00167,0 298,0c-0.00167,0 -297.99813,0.00057 -298,0c-0.00187,-0.00057 297.99086,-0.00227 298,0c0.00914,0.00227 -297.96532,0.00853 -298,0c-0.03468,-0.00853 297.8704,-0.03184 298,0c0.1296,0.03184 -297.51629,0.11882 -298,0c-0.48371,-0.11882 296.19476,-0.44344 298,0c1.80524,0.44344 -291.26277,1.65494 -298,0c-6.73723,-1.65494 272.8563,-6.17633 298,0c25.1437,6.17633 -204.16245,23.05037 -298,0c-93.83755,-23.05037 -52.20651,-86.02515 0,0c52.20651,86.02515 114.98849,321.05022 101,298c-13.98849,-23.05022 -104.74744,-304.17572 -101,-298c3.74744,6.17572 102.00128,299.65266 101,298c-1.00128,-1.65266 -101.25766,-298.43491 -101,-298c0.25766,0.43491 101.02937,298.08698 101,298c-0.02937,-0.08698 -100.85983,-297.91302 -101,-298c-0.14017,-0.08698 100.40996,297.56509 101,298c0.59004,0.43491 -98.77999,-296.34734 -101,-298c-2.22001,-1.65266 92.71,291.82428 101,298c8.29,6.17572 -70.06,-274.94977 -101,-298c-30.94,-23.05023 -14.47,211.97481 101,298c115.47,86.02519 329.93999,23.05053 299,0c-30.93999,-23.05053 -307.28997,-6.17694 -299,0c8.28997,6.17694 301.21988,1.65722 299,0c-2.21988,-1.65722 -299.58957,-0.45196 -299,0c0.58957,0.45196 299.13838,0.15061 299,0c-0.13838,-0.15061 -298.96397,-0.15049 -299,0c-0.03603,0.15049 298.71748,0.45136 299,0c0.28252,-0.45136 -297.90596,-1.65494 -299,0c-1.09404,1.65494 294.90636,6.16841 299,0c4.09364,-6.16841 -283.71948,-23.01871 -299,0c-15.28052,23.01871 241.97157,85.90641 299,0c57.02843,-85.90641 -86.16679,-320.60695 -102,-298c-15.83321,22.60695 95.6956,302.52139 102,298c6.3044,-4.52139 -92.6156,-293.47861 -102,-298c-9.3844,-4.52139 70.7668,275.39306 102,298c31.2332,22.60694 13.54839,-212.09363 -102,-298c-115.54839,-85.90637 -328.96038,-23.01854 -298,0c30.96038,23.01854 306.29312,6.1678 298,0c-8.29312,-6.1678 -300.21209,-1.65266 -298,0c2.21209,1.65266 298.55526,0.44282 298,0c-0.55526,-0.44282 -298.00895,-0.11864 -298,0c0.00895,0.11864 297.48055,0.03173 298,0c0.51945,-0.03173 -295.91323,-0.00829 -298,0c-2.08677,0.00829 290.17238,0.00145 298,0c7.82762,-0.00145 -268.77628,0.00251 -298,0c-29.22372,-0.00251 188.93274,-0.01149 298,0c109.06726,0.01149 109.04531,0.04345 0,0c-109.04531,-0.04345 -327.11398,-0.1623 -298,0c29.11398,0.1623 305.41061,0.60575 298,0c-7.41061,-0.60575 -298.52847,-2.26069 -298,0c0.52847,2.26069 292.70328,8.43702 298,0c5.29672,-8.43702 -276.28466,-31.4874 -298,0c-21.71534,31.4874 216.43536,117.5126 325,149c108.56464,31.4874 87.54323,8.43702 149,0c61.45677,-8.43702 205.39172,-2.26069 149,0c-56.39172,2.26069 -313.11012,0.60575 -298,0c15.11012,-0.60575 302.04874,-0.16231 298,0c-4.04874,0.16231 -299.08485,0.04349 -298,0c1.08485,-0.04349 298.29068,-0.01165 298,0c-0.29068,0.01165 -298.07785,0.00311 -298,0c0.07785,-0.00311 298.02071,-0.00078 298,0c-0.02071,0.00078 -298.00501,0.00003 -298,0c0.00501,-0.00003 297.99933,0.00067 298,0c0.00067,-0.00067 -297.9923,-0.0027 -298,0c-0.0077,0.0027 297.96987,0.01014 298,0c0.03013,-0.01014 -297.88716,-0.03786 -298,0c-0.11284,0.03786 297.57878,0.14129 298,0c0.42122,-0.14129 -296.42797,-0.5273 -298,0c-1.57203,0.5273 292.13311,1.96791 298,0c5.86689,-1.96791 -276.10447,-7.34434 -298,0c-21.89553,7.34434 216.28477,27.40945 298,0c81.71523,-27.40945 6.96537,-102.29348 -27,-149c-33.96537,-46.70652 -27.14627,-65.23555 0,0c27.14627,65.23555 74.6197,214.23567 102,298c27.3803,83.76433 34.66746,102.29288 0,0c-34.66746,-102.29288 -111.28953,-325.40717 -102,-298c9.28953,27.40717 104.49065,305.33581 102,298c-2.49065,-7.33581 -102.67309,-299.93607 -102,-298c0.67309,1.93607 102.20171,298.40848 102,298c-0.20171,-0.40848 -102.13374,-297.69785 -102,-298c0.13374,-0.30215 102.33325,296.38292 102,298c-0.33325,1.61708 -103.19928,-291.83381 -102,-298c1.19928,-6.16619 106.46385,274.95234 102,298c-4.46385,23.04766 -118.65614,-211.97554 -102,-298c16.65614,-86.02446 164.16071,-23.05018 149,0c-15.16071,23.05018 -192.98669,6.17627 -149,0c43.98669,-6.17627 309.78604,-1.65488 298,0c-11.78604,1.65488 -301.15747,0.44327 -298,0c3.15747,-0.44327 298.84383,-0.11821 298,0c-0.84383,0.11821 -298.21785,0.02955 -298,0c0.21785,-0.02955 298.02757,0 298,0c-0.02757,0 -297.89244,-0.02955 -298,0c-0.10756,0.02955 297.54218,0.11821 298,0c0.45782,-0.11821 -296.27629,-0.44328 -298,0c-1.72371,0.44328 291.56297,1.65489 298,0c6.43703,-1.65489 -273.97559,-6.1763 -298,0c-24.02441,6.1763 208.33937,23.05032 298,0c89.66063,-23.05032 36.61809,-86.02498 0,0c-36.61809,86.02498 -56.81175,321.0496 -47,298c9.81175,-23.0496 49.62891,-304.17343 47,-298c-2.62891,6.17343 -47.70389,299.64413 -47,298c0.70389,-1.64413 47.18666,-298.40307 47,-298c-0.18666,0.40307 -47.04273,297.96817 -47,298c0.04273,0.03183 46.98428,-297.46959 47,-298c0.01572,-0.53041 -46.89438,295.91019 -47,298c-0.10562,2.08981 46.59325,-290.17118 47,-298c0.40675,-7.82882 -45.47862,268.77451 -47,298c-1.52138,29.22549 41.32124,-188.92688 47,-298c5.67876,-109.07312 -25.80633,-109.06699 0,0c25.80633,109.06699 108.90409,327.19484 102,298c-6.90409,-29.19484 -103.81004,-305.71237 -102,-298c1.81004,7.71237 102.33606,299.65466 102,298c-0.33606,-1.65466 -101.53421,-296.90626 -102,-298c-0.46579,-1.09374 99.80079,291.97037 102,298c2.19921,6.02963 -93.66895,-274.97521 -102,-298c-8.33105,-23.02479 70.875,211.93048 102,298c31.125,86.06952 14.16896,23.25328 0,0c-14.16896,-23.25328 -25.55085,-6.94362 0,0c25.55085,6.94362 88.03444,4.52118 0,0c-88.03444,-4.52118 -326.58691,-11.1411 -298,0c28.58691,11.1411 324.31319,40.04323 298,0c-26.31319,-40.04323 -374.66584,-149.03183 -373,-149c1.66584,0.03183 353.35017,109.0841 373,149c19.64983,39.9159 -292.73484,10.69543 -298,0c-5.26516,-10.69543 296.58921,-2.86583 298,0c1.41079,2.86583 -297.62198,0.7679 -298,0c-0.37802,-0.7679 297.8987,-0.20576 298,0c0.1013,0.20576 -297.97284,0.05513 -298,0c-0.02716,-0.05513 297.99264,-0.01477 298,0c0.00736,0.01477 -297.99772,0.00396 -298,0c-0.00228,-0.00396 297.99825,-0.00106 298,0c0.00175,0.00106 -297.99529,0.00028 -298,0c-0.00471,-0.00028 297.9829,-0.00008 298,0c0.0171,0.00008 -297.93631,0.00002 -298,0c-0.06369,-0.00002 297.76236,-0.00001 298,0c0.23764,0.00001 -297.11312,0 -298,0c-0.88688,0 294.69011,0 298,0c3.30989,0 -285.64734,0 -298,0c-12.35266,0 251.89924,0 298,0c46.10076,0 -125.94962,0 -298,0c-172.05038,0 62.97481,0 298,0" fill-opacity="0" fill="rgb(0,0,0)" stroke="rgb(0,0,0)" stroke-width="25" stroke-linecap="round" stroke-linejoin="round"/></g></svg>