<?xml version="1.0" encoding="utf-8"?><svg version="1.1" id="Calque_1" xmlns="http://www.w3.org/2000/svg" xmlns:xlink="http://www.w3.org/1999/xlink" x="0px" y="0px" width="2136px" height="718px" viewBox="-482 180 2136 718" enable-background="new -482 180 2136 718" xml:space="preserve"><g xmlns="http://www.w3.org/2000/svg"><polygon points="0,1440 0,0 2560,0 2560,1440" fill="rgb(255,255,255)" stroke-width="1" stroke-linecap="butt" stroke-linejoin="miter"/><path d="M2189,869c-230.27595,-183.50265 -460.5519,-367.0053 -647,-298c-186.4481,69.0053 -329.06836,390.51853 -270.5,447c58.56836,56.48147 318.32533,-152.06884 446.5,-298c128.17467,-145.93116 124.76702,-229.24319 -27,-149c-151.76702,80.24319 -451.89342,324.04158 -643,298c-191.10658,-26.04158 -273.19336,-321.92314 -251,-298c22.19336,23.92314 148.66684,367.65096 474.5,447c325.83316,79.34904 851.02598,-105.68072 917.5,-149c66.47402,-43.31928 -325.77077,55.0719 -694,0c-368.22923,-55.0719 -712.44289,-263.6069 -698,-298c14.44289,-34.3931 387.54232,105.3557 325,149c-62.54232,43.6443 -560.72638,-8.81592 -596,0c-35.27362,8.81592 392.36319,78.90796 820,149c427.63681,70.09204 635.31841,35.04602 843,0" fill-opacity="0" fill="rgb(0,0,0)" stroke="rgb(0,0,0)" stroke-width="25" stroke-linecap="round" stroke-linejoin="round"/></g></svg>