<?xml version="1.0" encoding="utf-8"?><svg version="1.1" id="Calque_1" xmlns="http://www.w3.org/2000/svg" xmlns:xlink="http://www.w3.org/1999/xlink" x="0px" y="0px" width="2136px" height="718px" viewBox="-482 180 2136 718" enable-background="new -482 180 2136 718" xml:space="preserve"><g xmlns="http://www.w3.org/2000/svg"><polygon points="0,1440 0,0 2560,0 2560,1440" fill="rgb(255,255,255)" stroke-width="1" stroke-linecap="butt" stroke-linejoin="miter"/><path d="M648,571c-56.00914,47.36742 -112.01828,94.73484 -122,149c-9.98172,54.26516 26.06398,115.42807 74,149c47.93602,33.57193 107.76237,39.55289 150,0c42.23763,-39.55289 66.88656,-124.63962 74,-149c7.11344,-24.36038 -3.3086,12.0056 0,0c3.3086,-12.0056 20.34783,-72.38279 -27,-149c-47.34783,-76.61721 -159.08273,-169.47443 -224,-149c-64.91727,20.47443 -83.01692,154.28051 -74,149c9.01692,-5.28051 45.15039,-149.64762 74,-149c28.84961,0.64762 50.41535,146.30998 75,149c24.58465,2.69002 52.18822,-137.59231 74,-149c21.81178,-11.40769 37.83177,106.05924 75,149c37.16823,42.94076 95.48468,11.35534 149,0c53.51532,-11.35534 102.22949,-2.4806 149,0c46.77051,2.4806 91.59736,-1.43293 149,0c57.40264,1.43293 127.38109,8.21232 149,0c21.61891,-8.21232 -5.12171,-31.41637 0,0c5.12171,31.41637 42.10577,117.45314 27,149c-15.10577,31.54686 -82.30135,8.60381 -149,0c-66.69865,-8.60381 -132.90038,-2.86838 -149,0c-16.09962,2.86838 17.90286,2.86971 0,0c-17.90286,-2.86971 -87.71106,-8.61044 -149,0c-61.28894,8.61044 -114.05862,31.57207 -149,0c-34.94138,-31.57207 -52.05445,-117.67785 -27,-149c25.05445,-31.32215 92.27644,-7.86068 149,0c56.72356,7.86068 102.9487,0.12057 149,0c46.0513,-0.12057 91.92877,7.37839 149,0c57.07123,-7.37839 125.33622,-29.63413 149,0c23.66378,29.63413 2.72636,111.15815 27,149c24.27364,37.84185 93.75834,32.00155 149,0c55.24166,-32.00155 96.24028,-90.16436 122,-149c25.75972,-58.83564 36.28055,-118.34413 74,-149c37.71945,-30.65587 102.63751,-32.45912 149,0c46.36249,32.45912 74.1694,99.18063 75,149c0.8306,49.81937 -25.31513,82.73661 27,149c52.31513,66.26339 183.0911,165.87294 -74,149c-257.0911,-16.87294 -902.04927,-150.22839 -1118,-149c-215.95073,1.22839 -2.89401,137.0406 75,149c77.89401,11.9594 20.62531,-99.93401 74,-149c53.37469,-49.06599 217.39277,-35.30457 298,0c80.60723,35.30457 77.80362,92.15228 75,149c-2.80362,56.84772 35.59819,-46.07614 74,-149" fill-opacity="0" fill="rgb(0,0,0)" stroke="rgb(0,0,0)" stroke-width="25" stroke-linecap="round" stroke-linejoin="round"/></g></svg>