<?xml version="1.0" encoding="utf-8"?><svg version="1.1" id="Calque_1" xmlns="http://www.w3.org/2000/svg" xmlns:xlink="http://www.w3.org/1999/xlink" x="0px" y="0px" width="2136px" height="718px" viewBox="-482 180 2136 718" enable-background="new -482 180 2136 718" xml:space="preserve"><g xmlns="http://www.w3.org/2000/svg"><polygon points="0,1440 0,0 2560,0 2560,1440" fill="rgb(255,255,255)" stroke-width="1" stroke-linecap="butt" stroke-linejoin="miter"/><path d="M362.5,869c406.14431,-145.77313 812.28862,-291.54626 1179.5,-298c367.21138,-6.45374 695.48982,126.4119 474,149c-221.48982,22.5881 -992.74789,-65.10134 -1192,0c-199.25211,65.10134 173.50173,282.99346 447.5,298c273.99827,15.00654 449.24097,-172.8725 446.5,-298c-2.74097,-125.1275 -183.46561,-187.50347 -176,-149c7.46561,38.50347 203.12148,177.88637 27,149c-176.12148,-28.88637 -724.0203,-226.042 -772,-149c-47.9797,77.042 403.95972,428.28165 474.5,447c70.54028,18.71835 -240.31858,-295.08459 -176.5,-447c63.81858,-151.91541 502.31461,-141.9433 596,0c93.68539,141.9433 -157.43985,415.85777 -419.5,447c-262.06015,31.14223 -535.05521,-180.4878 -596.5,-298c-61.44479,-117.5122 88.66069,-140.90659 122,-149c33.33931,-8.09341 -50.08754,-0.88585 0,0c50.08754,0.88585 233.68946,-4.55002 447,0c213.31054,4.55002 456.32969,19.08594 447,0c-9.32969,-19.08594 -271.00823,-71.79375 -298,0c-26.99177,71.79375 180.70324,268.08905 -47,298c-227.70324,29.91095 -890.80472,-106.56244 -820,-149c70.80472,-42.43756 875.51563,9.1607 1043,0c167.48437,-9.1607 -302.25782,-79.08035 -772,-149c-469.74218,-69.91965 -221.37109,39.54017 27,149" fill-opacity="0" fill="rgb(0,0,0)" stroke="rgb(0,0,0)" stroke-width="25" stroke-linecap="round" stroke-linejoin="round"/></g></svg>