<?xml version="1.0" encoding="utf-8"?><svg version="1.1" id="Calque_1" xmlns="http://www.w3.org/2000/svg" xmlns:xlink="http://www.w3.org/1999/xlink" x="0px" y="0px" width="2136px" height="718px" viewBox="-482 180 2136 718" enable-background="new -482 180 2136 718" xml:space="preserve"><g xmlns="http://www.w3.org/2000/svg"><polygon points="0,1440 0,0 2560,0 2560,1440" fill="rgb(255,255,255)" stroke-width="1" stroke-linecap="butt" stroke-linejoin="miter"/><path d="M424,422c4.5214,0 9.04279,0 0,0c-9.04279,0 -31.64978,0 0,0c31.64978,0 117.55631,0 149,0c31.44369,0 8.42453,0 0,0c-8.42453,0 -2.25445,0 0,0c2.25445,0 0.59326,0 0,0c-0.59326,0 -0.1186,0 0,0c0.1186,0 -0.11886,0 0,0c0.11886,0 0.59405,0 0,0c-0.59405,0 -2.25735,0 0,0c2.25735,0 8.43535,0 0,0c-8.43535,0 -31.48406,0 0,0c31.48406,0 117.50088,0 149,0c31.49912,0 8.48053,0 0,0c-8.48053,0 -2.42301,0 0,0c2.42301,0 1.2115,0 0,0c-1.2115,0 -2.423,0 0,0c2.423,0 8.48052,0 0,0c-8.48052,0 -31.49906,0 0,0c31.49906,0 117.51572,0 149,0c31.48428,0 8.43619,0 0,0c-8.43619,0 -2.26047,0 0,0c2.26047,0 0.60569,0 0,0c-0.60569,0 -0.1623,0 0,0c0.1623,0 0.04349,0.00002 0,0c-0.04349,-0.00002 -0.01167,-0.00006 0,0c0.01167,0.00006 0.00319,0.00022 0,0c-0.00319,-0.00022 -0.00108,-0.00084 0,0c0.00108,0.00084 0.00114,0.00312 0,0c-0.00114,-0.00312 -0.00346,-0.01165 0,0c0.00346,0.01165 0.01272,0.04349 0,0c-0.01272,-0.04349 -0.0474,-0.16231 0,0c0.0474,0.16231 0.17689,0.60577 0,0c-0.17689,-0.60577 -0.66017,-2.26075 0,0c0.66017,2.26075 2.4638,8.43723 0,0c-2.4638,-8.43723 -9.19501,-31.48819 0,0c9.19501,31.48819 34.31626,117.51551 75,149c40.68374,31.48449 96.92998,8.42615 149,0c52.07002,-8.42615 99.96383,-2.2201 149,0c49.03617,2.2201 99.21472,0.45426 149,0c49.78528,-0.45426 99.17731,0.40307 149,0c49.82269,-0.40307 100.07606,-2.06655 149,0c48.92394,2.06655 96.51845,7.86311 149,0c52.48155,-7.86311 109.85015,-29.3859 149,0c39.14985,29.3859 60.08095,109.6805 27,149c-33.08095,39.3195 -120.17393,37.6639 -149,0c-28.82607,-37.6639 0.61479,-111.3361 -27,-149c-27.61479,-37.6639 -112.28522,-39.3195 -149,0c-36.71478,39.3195 -25.47391,119.61409 27,149c52.47391,29.38591 146.18086,7.86313 149,0c2.81914,-7.86313 -85.24953,-2.06661 -149,0c-63.75047,2.06661 -103.18275,0.4033 -149,0c-45.81725,-0.4033 -98.01946,0.45342 -149,0c-50.98054,-0.45342 -100.73942,-2.21698 -149,0c-48.26058,2.21698 -95.02286,8.41449 -149,0c-53.97714,-8.41449 -115.16913,-31.441 -149,0c-33.83087,31.441 -40.30062,117.3495 -74,149c-33.69938,31.6505 -94.62839,9.043 -149,0c-54.37161,-9.043 -102.1858,-4.5215 -150,0c-47.8142,4.5215 -142.6571,2.26075 -237.5,0" fill-opacity="0" fill="rgb(0,0,0)" stroke="rgb(0,0,0)" stroke-width="25" stroke-linecap="round" stroke-linejoin="round"/></g></svg>