<?xml version="1.0" encoding="utf-8"?><svg version="1.1" id="Calque_1" xmlns="http://www.w3.org/2000/svg" xmlns:xlink="http://www.w3.org/1999/xlink" x="0px" y="0px" width="2136px" height="718px" viewBox="-482 180 2136 718" enable-background="new -482 180 2136 718" xml:space="preserve"><g xmlns="http://www.w3.org/2000/svg"><polygon points="0,1440 0,0 2560,0 2560,1440" fill="rgb(255,255,255)" stroke-width="1" stroke-linecap="butt" stroke-linejoin="miter"/><path d="M675,720c382.82317,-103.73787 765.64633,-207.47574 718,-149c-47.64633,58.47574 -525.76217,279.1651 -494,298c31.76217,18.8349 573.40234,-164.18464 670,-149c96.59766,15.18464 -251.8472,228.57347 -297.5,298c-45.6528,69.42653 211.48644,-5.10925 223.5,-149c12.01356,-143.89075 -221.09858,-357.13647 -251,-298c-29.90142,59.13647 143.40787,390.65514 27.5,447c-115.90787,56.34486 -521.03289,-162.48408 -447.5,-298c73.53289,-135.51592 625.72368,-187.71884 718,-149c92.27632,38.71884 -275.36184,168.35942 -643,298c-367.63816,129.64058 151.18092,-9.67971 670,-149" fill-opacity="0" fill="rgb(0,0,0)" stroke="rgb(0,0,0)" stroke-width="25" stroke-linecap="round" stroke-linejoin="round"/></g></svg>