<?xml version="1.0" encoding="utf-8"?><svg version="1.1" id="Calque_1" xmlns="http://www.w3.org/2000/svg" xmlns:xlink="http://www.w3.org/1999/xlink" x="0px" y="0px" width="2136px" height="718px" viewBox="-482 180 2136 718" enable-background="new -482 180 2136 718" xml:space="preserve"><g xmlns="http://www.w3.org/2000/svg"><polygon points="0,1440 0,0 2560,0 2560,1440" fill="rgb(255,255,255)" stroke-width="1" stroke-linecap="butt" stroke-linejoin="miter"/><path d="M675,720c-48.03064,64.2675 -96.06127,128.53499 -75,149c21.06127,20.46501 111.21445,-2.87248 150,0c38.78555,2.87248 26.20348,31.95493 0,0c-26.20348,-31.95493 -66.02837,-124.94725 -75,-149c-8.97163,-24.05275 12.90999,20.83407 0,0c-12.90999,-20.83407 -60.61158,-107.38903 -27,-149c33.61158,-41.61097 148.53632,-38.27795 149,0c0.46368,38.27795 -113.53369,111.50084 -122,149c-8.46631,37.49916 88.59845,39.27458 149,0c60.40155,-39.27458 84.13988,-119.59916 122,-149c37.86012,-29.40084 89.84201,-7.87793 149,0c59.15799,7.87793 125.49208,2.11088 149,0c23.50792,-2.11088 4.18968,-0.56559 0,0c-4.18968,0.56559 6.74922,0.15149 0,0c-6.74922,-0.15149 -31.18656,-0.04038 0,0c31.18656,0.04038 117.997,0.01004 149,0c31.003,-0.01004 6.19855,0.00021 0,0c-6.19855,-0.00021 6.20878,-0.01087 0,0c-6.20878,0.01087 -31.03369,0.04328 0,0c31.03369,-0.04328 117.92598,-0.16225 149,0c31.07402,0.16225 6.32976,0.60574 0,0c-6.32976,-0.60574 5.75497,-2.26069 0,0c-5.75497,2.26069 -29.34966,8.43702 0,0c29.34966,-8.43702 111.64366,-31.4874 149,0c37.35634,31.4874 29.77503,117.51259 27,149c-2.77503,31.48741 -0.74378,8.43702 0,0c0.74378,-8.43702 0.20007,-2.26069 0,0c-0.20007,2.26069 -0.05651,0.60575 0,0c0.05651,-0.60575 0.02596,-0.16231 0,0c-0.02596,0.16231 -0.04734,0.04349 0,0c0.04734,-0.04349 0.16339,-0.01165 0,0c-0.16339,0.01165 -0.60621,0.00312 0,0c0.60621,-0.00312 2.26144,-0.00084 0,0c-2.26144,0.00084 -8.43955,0.00022 0,0c8.43955,-0.00022 31.49678,-0.00006 0,0c-31.49678,0.00006 -117.54756,0.00002 -149,0c-31.45244,-0.00002 -8.30655,0 0,0c8.30655,0 1.77375,0 0,0c-1.77375,0 1.21156,0.00001 0,0c-1.21156,-0.00001 -6.62,-0.00005 0,0c6.62,0.00005 25.26843,0.0002 0,0c-25.26843,-0.0002 -94.45372,-0.00075 -149,0c-54.54628,0.00075 -94.45354,0.00279 -149,0c-54.54646,-0.00279 -123.73211,-0.01041 -149,0c-25.26789,0.01041 -6.618,0.03886 0,0c6.618,-0.03886 1.20412,-0.14502 0,0c-1.20412,0.14502 1.80151,0.54124 0,0c-1.80151,-0.54124 -8.41018,-2.01993 0,0c8.41018,2.01993 31.83919,7.53849 0,0c-31.83919,-7.53849 -118.94659,-28.13403 -149,0c-30.05341,28.13403 -3.05284,104.99762 -74,149c-70.94716,44.00238 -239.84205,55.14354 -149,0" fill-opacity="0" fill="rgb(0,0,0)" stroke="rgb(0,0,0)" stroke-width="25" stroke-linecap="round" stroke-linejoin="round"/></g></svg>