<?xml version="1.0" encoding="utf-8"?><svg version="1.1" id="Calque_1" xmlns="http://www.w3.org/2000/svg" xmlns:xlink="http://www.w3.org/1999/xlink" x="0px" y="0px" width="2136px" height="718px" viewBox="-482 180 2136 718" enable-background="new -482 180 2136 718" xml:space="preserve"><g xmlns="http://www.w3.org/2000/svg"><polygon points="0,1440 0,0 2560,0 2560,1440" fill="rgb(255,255,255)" stroke-width="1" stroke-linecap="butt" stroke-linejoin="miter"/><path d="M1542,571c-62.90946,-0.00046 -125.81892,-0.00091 -149,0c-23.18108,0.00091 -6.63379,0.0032 0,0c6.63379,-0.0032 3.35408,-0.01188 0,0c-3.35408,0.01188 -6.78252,0.04433 0,0c6.78252,-0.04433 23.77602,-0.16544 0,0c-23.77602,0.16544 -88.32155,0.61742 -149,0c-60.67845,-0.61742 -117.48983,-2.30424 -149,0c-31.51017,2.30424 -37.71912,8.59955 0,0c37.71912,-8.59955 119.36632,-32.09395 149,0c29.63368,32.09395 7.25383,119.77625 27,149c19.74617,29.22375 81.61835,-0.01105 149,0c67.38165,0.01105 140.27276,29.26793 149,0c8.72724,-29.26793 -46.7094,-117.06069 -27,-149c19.7094,-31.93931 114.56482,-8.02518 149,0c34.43518,8.02518 8.45011,0.16141 0,0c-8.45011,-0.16141 0.63474,7.37953 0,0c-0.63474,-7.37953 -10.98907,-29.67951 0,0c10.98907,29.67951 43.32154,111.33853 27,149c-16.32154,37.66147 -81.29709,31.32538 -149,0c-67.70291,-31.32538 -138.13318,-87.64006 -176,-149c-37.86682,-61.35994 -43.17018,-127.76512 -75,-149c-31.82982,-21.23488 -90.18608,2.70056 -149,0c-58.81392,-2.70056 -118.08549,-32.03712 -149,0c-30.91451,32.03712 -33.47197,125.44791 -74,149c-40.52803,23.55209 -119.02665,-22.75452 -149,0c-29.97335,22.75452 -11.42143,114.57016 27,149c38.42143,34.42984 96.71238,11.47386 149,0c52.28762,-11.47386 98.57192,-11.46562 149,0c50.42808,11.46562 104.99994,34.3886 149,0c44.00006,-34.3886 77.42833,-126.08879 122,-149c44.57167,-22.91121 100.28673,22.96656 149,0c48.71327,-22.96656 90.42473,-114.77747 74,-149c-16.42473,-34.22253 -90.98565,-10.85669 -149,0c-58.01435,10.85669 -99.48211,9.20424 -149,0c-49.51789,-9.20424 -107.08589,-25.96026 -149,0c-41.91411,25.96026 -68.17433,94.63678 -74,149c-5.82567,54.36322 8.7832,94.41312 27,149c18.2168,54.58688 40.04152,123.71074 75,149c34.95848,25.28926 83.05071,6.74392 149,0c65.94929,-6.74392 149.75565,-1.68643 149,0c-0.75565,1.68643 -86.0733,0.00181 -149,0c-62.9267,-0.00181 -103.46245,1.67921 -149,0c-45.53755,-1.67921 -96.07689,-6.71863 -149,0c-52.92311,6.71863 -108.23,25.19532 -149,0c-40.77,-25.19532 -67.00311,-94.06264 -75,-149c-7.99689,-54.93736 2.24243,-95.94475 -27,-149c-29.24243,-53.05525 -97.96663,-118.15836 74,-149c171.96663,-30.84164 584.62408,-27.42181 745,0c160.37592,27.42181 68.47031,78.84562 75,149c6.52969,70.15438 111.49469,159.03934 176,149c64.50531,-10.03934 88.55093,-119.003 122,-149c33.44907,-29.997 76.30161,18.97264 149,0c72.69839,-18.97264 175.24265,-105.88756 -75,-149c-250.24265,-43.11244 -853.2722,-42.42239 -1043,0c-189.7278,42.42239 33.84616,126.57714 75,149c41.15384,22.42286 -100.11243,-16.88615 -149,0c-48.88757,16.88615 -5.39645,89.96747 27,149c32.39645,59.03253 53.69822,104.01626 75,149c21.30178,44.98374 122.40089,96.99187 223.5,149" fill-opacity="0" fill="rgb(0,0,0)" stroke="rgb(0,0,0)" stroke-width="25" stroke-linecap="round" stroke-linejoin="round"/></g></svg>