<?xml version="1.0" encoding="utf-8"?><svg version="1.1" id="Calque_1" xmlns="http://www.w3.org/2000/svg" xmlns:xlink="http://www.w3.org/1999/xlink" x="0px" y="0px" width="2136px" height="718px" viewBox="-482 180 2136 718" enable-background="new -482 180 2136 718" xml:space="preserve"><g xmlns="http://www.w3.org/2000/svg"><polygon points="0,1440 0,0 2560,0 2560,1440" fill="rgb(255,255,255)" stroke-width="1" stroke-linecap="butt" stroke-linejoin="miter"/><path d="M1718,720c-181.71266,-57.22668 -363.42533,-114.45336 -325,-149c38.42533,-34.54664 296.98865,-46.41323 149,0c-147.98865,46.41323 -702.52927,151.10627 -867,149c-164.47073,-2.10627 61.12844,-111.01186 271,-149c209.87156,-37.98814 404.01552,-5.05885 596,0c191.98448,5.05885 381.80949,-17.75274 149,0c-232.80949,17.75274 -888.25349,76.06983 -1016,149c-127.74651,72.93017 272.20447,160.47343 373,149c100.79553,-11.47343 -97.56437,-121.96355 -75,-149c22.56437,-27.03645 266.05303,29.38076 298,0c31.94697,-29.38076 -147.64773,-144.55948 -176,-149c-28.35227,-4.44052 94.5379,101.85717 176,149c81.4621,47.14283 121.49614,35.13079 149,0c27.50386,-35.13079 42.47755,-93.38035 122,-149c79.52245,-55.61965 223.59365,-108.60939 74,-149c-149.59365,-40.39061 -592.85214,-68.18209 -745,0c-152.14786,68.18209 -13.1851,232.33774 102,298c115.1851,65.66226 206.59255,32.83113 298,0c91.40745,-32.83113 181.20372,-90.91557 271,-149" fill-opacity="0" fill="rgb(0,0,0)" stroke="rgb(0,0,0)" stroke-width="25" stroke-linecap="round" stroke-linejoin="round"/></g></svg>