<?xml version="1.0" encoding="utf-8"?><svg version="1.1" id="Calque_1" xmlns="http://www.w3.org/2000/svg" xmlns:xlink="http://www.w3.org/1999/xlink" x="0px" y="0px" width="2136px" height="718px" viewBox="-482 180 2136 718" enable-background="new -482 180 2136 718" xml:space="preserve"><g xmlns="http://www.w3.org/2000/svg"><polygon points="0,1440 0,0 2560,0 2560,1440" fill="rgb(255,255,255)" stroke-width="1" stroke-linecap="butt" stroke-linejoin="miter"/><path d="M675,720c-1.19957,-7.29065 -2.39914,-14.58129 149,0c151.39914,14.58129 455.39697,51.03453 447,0c-8.39697,-51.03453 -329.18876,-189.55682 -325,-149c4.18876,40.55682 333.35807,260.19276 549,298c215.64193,37.80724 317.75648,-106.21422 223,-149c-94.75648,-42.78578 -386.38397,15.6641 -447,0c-60.61603,-15.6641 109.77942,-105.44219 122,-149c12.22058,-43.55781 -133.73371,-40.89532 -298,0c-164.26629,40.89532 -346.84457,120.02349 -271,149c75.84457,28.97651 410.112,7.80137 447,0c36.888,-7.80137 -223.60343,-2.22896 -298,0c-74.39657,2.22896 37.30171,1.11448 149,0c111.69829,-1.11448 191.34914,-75.05724 271,-149" fill-opacity="0" fill="rgb(0,0,0)" stroke="rgb(0,0,0)" stroke-width="25" stroke-linecap="round" stroke-linejoin="round"/></g></svg>