<?xml version="1.0" encoding="utf-8"?><svg version="1.1" id="Calque_1" xmlns="http://www.w3.org/2000/svg" xmlns:xlink="http://www.w3.org/1999/xlink" x="0px" y="0px" width="2136px" height="718px" viewBox="-482 180 2136 718" enable-background="new -482 180 2136 718" xml:space="preserve"><g xmlns="http://www.w3.org/2000/svg"><polygon points="0,1440 0,0 2560,0 2560,1440" fill="rgb(255,255,255)" stroke-width="1" stroke-linecap="butt" stroke-linejoin="miter"/><path d="M499,571c7.24806,47.005 14.49611,94.00999 27,149c12.50389,54.99001 30.2636,117.96503 74,149c43.7364,31.03497 113.44949,30.12989 150,0c36.55051,-30.12989 39.93843,-89.48459 74,-149c34.06157,-59.51541 98.7968,-119.19154 122,-149c23.2032,-29.80846 4.87435,-29.74925 0,0c-4.87435,29.74925 3.70578,89.18854 27,149c23.29422,59.81146 61.30254,119.99508 75,149c13.69746,29.00492 3.08405,26.83114 0,0c-3.08405,-26.83114 1.36124,-78.31964 74,-149c72.63876,-70.68036 213.47099,-160.55259 271,-149c57.52901,11.55259 31.75479,124.52998 27,149c-4.75479,24.47002 11.50983,-39.56735 0,0c-11.50983,39.56735 -50.79411,182.73942 -74,149c-23.20589,-33.73942 -30.33338,-244.39032 -251,-298c-220.66662,-53.60968 -654.87238,49.82185 -569,149c85.87238,99.17815 691.82289,194.10292 969,149c277.17711,-45.10292 225.58081,-230.23353 196,-298c-29.58081,-67.76647 -37.14614,-18.16879 0,0c37.14614,18.16879 119.00376,4.90868 149,0c29.99624,-4.90868 8.13111,-1.46592 0,0c-8.13111,1.46592 -2.5282,0.955 0,0c2.5282,-0.955 1.98167,-2.35407 0,0c-1.98167,2.35407 -5.39849,8.46127 0,0c5.39849,-8.46127 19.6123,-31.491 0,0c-19.6123,31.491 -73.05072,117.50274 -122,149c-48.94928,31.49726 -93.40942,8.48003 0,0c93.40942,-8.48003 324.68841,-2.42287 149,0c-175.68841,2.42287 -758.3442,1.21143 -1341,0c-582.6558,-1.21143 -391.8279,-0.60572 -201,0" fill-opacity="0" fill="rgb(0,0,0)" stroke="rgb(0,0,0)" stroke-width="25" stroke-linecap="round" stroke-linejoin="round"/></g></svg>