<?xml version="1.0" encoding="utf-8"?><svg version="1.1" id="Calque_1" xmlns="http://www.w3.org/2000/svg" xmlns:xlink="http://www.w3.org/1999/xlink" x="0px" y="0px" width="2136px" height="718px" viewBox="-482 180 2136 718" enable-background="new -482 180 2136 718" xml:space="preserve"><g xmlns="http://www.w3.org/2000/svg"><polygon points="0,1440 0,0 2560,0 2560,1440" fill="rgb(255,255,255)" stroke-width="1" stroke-linecap="butt" stroke-linejoin="miter"/><path d="M362.5,869c498.21381,-186.35627 996.42762,-372.71254 1179.5,-298c183.07238,74.71254 51.00332,410.49389 -270.5,447c-321.50332,36.50611 -832.4409,-226.26302 -745.5,-298c86.9409,-71.73698 771.76029,47.5582 969,149c197.23971,101.4418 -93.10027,185.03022 -223.5,149c-130.39973,-36.03022 -100.85922,-191.67909 -0.5,-298c100.35922,-106.32091 271.53714,-163.31385 420,-149c148.46286,14.31385 274.21067,99.93451 27,149c-247.21067,49.06549 -867.37983,61.57581 -894,0c-26.62017,-61.57581 540.30863,-197.23776 718,-149c177.69137,48.23776 -33.85469,280.37522 -196,298c-162.14531,17.62478 -274.88988,-179.26314 -224,-149c50.88988,30.26314 265.4142,287.67733 149.5,298c-115.9142,10.32267 -562.26691,-226.44618 -596.5,-298c-34.23309,-71.55382 343.65345,22.10741 596,0c252.34655,-22.10741 379.1531,-159.98344 271,-149c-108.1531,10.98344 -451.26587,170.82635 -569,149c-117.73413,-21.82635 -10.08962,-225.32196 122,-149c132.08962,76.32196 288.62436,432.46149 176.5,447c-112.12436,14.53851 -492.9078,-312.52399 -623.5,-447c-130.5922,-134.47601 -10.99316,-76.36553 149,0c159.99316,76.36553 360.38043,170.98611 474,149c113.61957,-21.98611 140.47144,-160.57891 271,-149c130.52856,11.57891 364.73382,173.32955 176,149c-188.73382,-24.32955 -800.40672,-234.73927 -921,-149c-120.59328,85.73927 249.89306,467.62754 474.5,447c224.60694,-20.62754 303.33449,-443.77089 270.5,-447c-32.83449,-3.22911 -177.23102,413.45601 -270.5,447c-93.26898,33.54399 -135.41041,-316.05315 -176.5,-447c-41.08959,-130.94685 -81.12734,-43.24339 149,0c230.12734,43.24339 730.41976,42.02673 596,0c-134.41976,-42.02673 -903.5517,-124.86352 -1043,0c-139.4483,124.86352 350.78705,457.42733 474.5,447c123.71295,-10.42733 -119.09651,-363.84582 -176.5,-447c-57.40349,-83.15418 70.599,103.95595 176,149c105.401,45.04405 188.2005,-51.97797 271,-149c82.7995,-97.02203 -392.10025,25.98899 -867,149" fill-opacity="0" fill="rgb(0,0,0)" stroke="rgb(0,0,0)" stroke-width="25" stroke-linecap="round" stroke-linejoin="round"/></g></svg>