<?xml version="1.0" encoding="utf-8"?><svg version="1.1" id="Calque_1" xmlns="http://www.w3.org/2000/svg" xmlns:xlink="http://www.w3.org/1999/xlink" x="0px" y="0px" width="2136px" height="718px" viewBox="-482 180 2136 718" enable-background="new -482 180 2136 718" xml:space="preserve"><g xmlns="http://www.w3.org/2000/svg"><polygon points="0,1440 0,0 2560,0 2560,1440" fill="rgb(255,255,255)" stroke-width="1" stroke-linecap="butt" stroke-linejoin="miter"/><path d="M1420,720c-464.61504,-29.26136 -929.23008,-58.52273 -894,0c35.23008,58.52273 570.30527,204.82954 820,149c249.69473,-55.82954 214.00901,-313.79544 196,-298c-18.00901,15.79544 -18.34131,305.35221 -196,298c-177.65869,-7.35221 -532.64377,-311.61342 -549,-298c-16.35623,13.61342 305.91639,345.10145 474.5,447c168.58361,101.89855 183.4782,-25.79238 223.5,-149c40.0218,-123.20762 105.17079,-241.93194 196,-298c90.82921,-56.06806 207.33863,-49.47986 0,0c-207.33863,49.47986 -738.52532,141.85139 -867,149c-128.47468,7.14861 145.76266,-70.92569 420,-149c274.23734,-78.07431 150.86867,184.46285 27.5,447" fill-opacity="0" fill="rgb(0,0,0)" stroke="rgb(0,0,0)" stroke-width="25" stroke-linecap="round" stroke-linejoin="round"/></g></svg>