<?xml version="1.0" encoding="utf-8"?><svg version="1.1" id="Calque_1" xmlns="http://www.w3.org/2000/svg" xmlns:xlink="http://www.w3.org/1999/xlink" x="0px" y="0px" width="2136px" height="718px" viewBox="-482 180 2136 718" enable-background="new -482 180 2136 718" xml:space="preserve"><g xmlns="http://www.w3.org/2000/svg"><polygon points="0,1440 0,0 2560,0 2560,1440" fill="rgb(255,255,255)" stroke-width="1" stroke-linecap="butt" stroke-linejoin="miter"/><path d="M600,869c68.4365,-46.87323 136.873,-93.74646 224,-149c87.127,-55.25354 192.94448,-118.8874 271,-149c78.05552,-30.1126 128.34906,-26.70395 149,0c20.65094,26.70395 11.65927,76.7032 27,149c15.34073,72.2968 55.01387,166.89113 -74,149c-129.01387,-17.89113 -426.71474,-148.26774 -373,-149c53.71474,-0.73226 458.84511,128.17981 671,149c212.15489,20.82019 231.33432,-66.4515 223,-149c-8.33432,-82.5485 -44.1824,-160.37383 -176,-149c-131.8176,11.37383 -359.60474,111.9468 -420,149c-60.39526,37.0532 46.60135,10.58663 149,0c102.39865,-10.58663 200.19932,-5.29331 298,0c97.80068,5.29331 -25.59966,2.64666 -149,0" fill-opacity="0" fill="rgb(0,0,0)" stroke="rgb(0,0,0)" stroke-width="25" stroke-linecap="round" stroke-linejoin="round"/></g></svg>