<?xml version="1.0" encoding="utf-8"?><svg version="1.1" id="Calque_1" xmlns="http://www.w3.org/2000/svg" xmlns:xlink="http://www.w3.org/1999/xlink" x="0px" y="0px" width="2136px" height="718px" viewBox="-482 180 2136 718" enable-background="new -482 180 2136 718" xml:space="preserve"><g xmlns="http://www.w3.org/2000/svg"><polygon points="0,1440 0,0 2560,0 2560,1440" fill="rgb(255,255,255)" stroke-width="1" stroke-linecap="butt" stroke-linejoin="miter"/><path d="M797,571c49.73527,0 99.47053,0 149,0c49.52947,0 98.85313,0 149,0c50.14687,0 101.11695,0.00002 149,0c47.88305,-0.00002 92.67907,-0.00006 149,0c56.32093,0.00006 124.16675,0.00022 149,0c24.83325,-0.00022 6.65391,-0.00084 0,0c-6.65391,0.00084 -1.78238,0.00312 0,0c1.78238,-0.00312 0.47563,-0.01165 0,0c-0.47563,0.01165 -0.12012,0.04349 0,0c0.12012,-0.04349 0.00487,-0.16231 0,0c-0.00487,0.16231 0.10064,0.60575 0,0c-0.10064,-0.60575 -0.40742,-2.26069 0,0c0.40742,2.26069 1.52903,8.43702 0,0c-1.52903,-8.43702 -5.70872,-31.4874 0,0c5.70872,31.4874 21.30584,117.5126 27,149c5.69416,31.4874 1.48536,8.43702 0,0c-1.48536,-8.43702 -0.24729,-2.26069 0,0c0.24729,2.26069 -0.49621,0.60575 0,0c0.49621,-0.60575 2.23212,-0.16231 0,0c-2.23212,0.16231 -8.43227,0.04347 0,0c8.43227,-0.04347 31.49696,-0.01159 0,0c-31.49696,0.01159 -117.55556,0.0029 -149,0c-31.44444,-0.0029 -8.27471,0 0,0c8.27471,0 1.65442,-0.0029 0,0c-1.65442,0.0029 1.65704,0.01159 0,0c-1.65704,-0.01159 -8.28259,-0.04348 0,0c8.28259,0.04348 31.47331,0.16232 0,0c-31.47331,-0.16232 -117.61066,-0.60581 -149,0c-31.38934,0.60581 -8.03067,2.26092 0,0c8.03067,-2.26092 0.73336,-8.43786 0,0c-0.73336,8.43786 5.09724,31.49053 0,0c-5.09724,-31.49053 -21.12233,-117.52425 -27,-149c-5.87767,-31.47575 -1.60791,-8.39353 0,0c1.60791,8.39353 0.55399,2.09838 0,0c-0.55399,-2.09838 -0.60804,0 0,0c0.60804,0 1.87816,-2.09838 0,0c-1.87816,2.09838 -6.90462,8.39353 0,0c6.90462,-8.39353 25.74031,-31.47575 0,0c-25.74031,31.47575 -96.05664,117.50947 -122,149c-25.94336,31.49053 -7.51376,8.43786 0,0c7.51376,-8.43786 4.11169,-2.26092 0,0c-4.11169,2.26092 -8.93299,0.60581 0,0c8.93299,-0.60581 31.62028,-0.16233 0,0c-31.62028,0.16233 -117.54814,0.0435 -149,0c-31.45186,-0.0435 -8.42771,-0.01165 0,0c8.42771,0.01165 2.25897,0.00312 0,0c-2.25897,-0.00312 -0.60819,-0.00083 0,0c0.60819,0.00083 0.17378,0.00021 0,0c-0.17378,-0.00021 -0.08692,0 0,0c0.08692,0 0.17391,-0.00021 0,0c-0.17391,0.00021 -0.60872,0.00083 0,0c0.60872,-0.00083 2.26096,-0.00312 0,0c-2.26096,0.00312 -8.43514,0.01165 0,0c8.43514,-0.01165 31.47958,-0.04349 0,0c-31.47958,0.04349 -117.4832,0.16231 -149,0c-31.5168,-0.16231 -8.54679,-0.60575 0,0c8.54679,0.60575 2.67035,2.26069 0,0c-2.67035,-2.26069 -2.1346,-8.43701 0,0c2.1346,8.43701 5.86807,31.48735 0,0c-5.86807,-31.48735 -21.33767,-117.51237 -27,-149c-5.66233,-31.48763 -1.51738,-8.43785 0,0c1.51738,8.43785 0.40719,2.26377 0,0c-0.40719,-2.26377 -0.11136,-0.61724 0,0c0.11136,0.61724 0.03827,0.20519 0,0c-0.03827,-0.20519 -0.04171,-0.20352 0,0c0.04171,0.20352 0.12858,0.60887 0,0c-0.12858,-0.60887 -0.4726,-2.23198 0,0c0.4726,2.23198 1.76184,8.31904 0,0c-1.76184,-8.31904 -6.57474,-31.04419 0,0c6.57474,31.04419 24.53713,115.85771 27,149c2.46287,33.14229 -10.57378,14.61334 0,0c10.57378,-14.61334 44.75797,-25.31107 0,0c-44.75797,25.31107 -168.45811,86.63094 -74,149c94.45811,62.36906 407.07448,125.78729 521.5,149c114.42552,23.21271 30.6602,6.21988 0,0c-30.6602,-6.21988 -8.21527,-1.66682 0,0c8.21527,1.66682 2.20088,0.4474 0,0c-2.20088,-0.4474 -0.58826,-0.12278 0,0c0.58826,0.12278 0.15216,0.0437 0,0c-0.15216,-0.0437 -0.02036,-0.05204 0,0c0.02036,0.05204 -0.07071,0.16445 0,0c0.07071,-0.16445 0.30321,-0.60576 0,0c-0.30321,0.60576 -1.14211,2.25857 0,0c1.14211,-2.25857 4.26524,-8.42853 0,0c-4.26524,8.42853 -15.91885,31.45556 0,0c15.91885,-31.45556 59.41016,-117.39372 74.5,-149c15.08984,-31.60628 1.77822,-8.88069 0,0c-1.77822,8.88069 7.97697,3.91647 0,0c-7.97697,-3.91647 -33.68611,-6.7852 0,0c33.68611,6.7852 126.76746,23.22434 149,0c22.23254,-23.22434 -26.38373,-86.11217 -75,-149c-48.61627,-62.88783 50.19186,-31.44391 149,0" fill-opacity="0" fill="rgb(0,0,0)" stroke="rgb(0,0,0)" stroke-width="25" stroke-linecap="round" stroke-linejoin="round"/></g></svg>