<?xml version="1.0" encoding="utf-8"?><svg version="1.1" id="Calque_1" xmlns="http://www.w3.org/2000/svg" xmlns:xlink="http://www.w3.org/1999/xlink" x="0px" y="0px" width="2136px" height="718px" viewBox="-482 180 2136 718" enable-background="new -482 180 2136 718" xml:space="preserve"><g xmlns="http://www.w3.org/2000/svg"><polygon points="0,1440 0,0 2560,0 2560,1440" fill="rgb(255,255,255)" stroke-width="1" stroke-linecap="butt" stroke-linejoin="miter"/><path d="M973,720c304.8796,-4.19223 609.7592,-8.38445 596,0c-13.7592,8.38445 -346.15722,29.34558 -447,0c-100.84278,-29.34558 29.86966,-108.99785 122,-149c92.13034,-40.00215 145.67857,-40.35417 149,0c3.32143,40.35417 -43.58395,121.41452 27,149c70.58395,27.58548 258.65722,1.69609 149,0c-109.65722,-1.69609 -517.04492,20.80112 -745,0c-227.95508,-20.80112 -276.47754,-84.90056 -325,-149c-48.52246,-64.09944 287.23877,42.45028 623,149" fill-opacity="0" fill="rgb(0,0,0)" stroke="rgb(0,0,0)" stroke-width="25" stroke-linecap="round" stroke-linejoin="round"/></g></svg>