<?xml version="1.0" encoding="utf-8"?><svg version="1.1" id="Calque_1" xmlns="http://www.w3.org/2000/svg" xmlns:xlink="http://www.w3.org/1999/xlink" x="0px" y="0px" width="2136px" height="718px" viewBox="-482 180 2136 718" enable-background="new -482 180 2136 718" xml:space="preserve"><g xmlns="http://www.w3.org/2000/svg"><polygon points="0,1440 0,0 2560,0 2560,1440" fill="rgb(255,255,255)" stroke-width="1" stroke-linecap="butt" stroke-linejoin="miter"/><path d="M1420,720c-6.14704,-4.29123 -12.29408,-8.58246 0,0c12.29408,8.58246 43.02929,30.0386 0,0c-43.02929,-30.0386 -159.82307,-111.57196 -176,-149c-16.17693,-37.42804 68.26301,-30.75076 149,0c80.73699,30.75076 157.77104,85.57501 176,149c18.22896,63.42499 -22.34716,135.45072 -74,149c-51.65284,13.54928 -114.3824,-31.37788 -149,0c-34.6176,31.37788 -41.12324,139.06081 -74.5,149c-33.37676,9.93919 -93.62465,-77.86536 -74.5,-149c19.12465,-71.13464 117.62185,-125.59936 223,-149c105.37815,-23.40064 217.63724,-15.73719 298,0c80.36276,15.73719 128.82919,39.54811 149,0c20.17081,-39.54811 12.04599,-142.45526 -27,-149c-39.04599,-6.54474 -109.01314,83.27293 -122,149c-12.98686,65.72707 31.00657,107.36353 75,149c43.99343,41.63647 133.49672,-53.68177 223,-149" fill-opacity="0" fill="rgb(0,0,0)" stroke="rgb(0,0,0)" stroke-width="25" stroke-linecap="round" stroke-linejoin="round"/></g></svg>