<?xml version="1.0" encoding="utf-8"?><svg version="1.1" id="Calque_1" xmlns="http://www.w3.org/2000/svg" xmlns:xlink="http://www.w3.org/1999/xlink" x="0px" y="0px" width="2136px" height="718px" viewBox="-482 180 2136 718" enable-background="new -482 180 2136 718" xml:space="preserve"><g xmlns="http://www.w3.org/2000/svg"><polygon points="0,1440 0,0 2560,0 2560,1440" fill="rgb(255,255,255)" stroke-width="1" stroke-linecap="butt" stroke-linejoin="miter"/><path d="M2189,869c-174.33143,-36.06061 -348.66285,-72.12122 -471,-149c-122.33715,-76.87878 -192.68002,-194.57573 -325,-149c-132.31998,45.57573 -326.61709,254.42412 -494,298c-167.38291,43.57588 -307.85164,-78.12077 -373,-149c-65.14836,-70.87923 -54.97636,-90.94104 149,0c203.97636,90.94104 601.75709,292.88494 596.5,298c-5.25709,5.11506 -413.55199,-186.59872 -447.5,-298c-33.94801,-111.40128 306.45088,-142.49006 569,-149c262.54912,-6.50994 447.24846,11.55898 447,0c-0.24846,-11.55898 -185.44472,-52.74584 -298,0c-112.55528,52.74584 -152.46959,199.42439 -196,298c-43.53041,98.57561 -90.67691,149.04826 -74.5,149c16.17691,-0.04826 95.67723,-50.61745 223.5,-149c127.82277,-98.38255 303.96798,-244.57847 196,-298c-107.96798,-53.42153 -500.04917,-14.06866 -745,0c-244.95083,14.06866 -342.77132,2.8531 -149,0c193.77132,-2.8531 679.13445,2.65625 745,0c65.86555,-2.65625 -287.76649,-13.4781 -596,0c-308.23351,13.4781 -571.06849,51.25616 -420,149c151.06849,97.74384 716.04045,255.45346 745.5,298c29.45955,42.54654 -476.59332,-30.07 -372.5,-149c104.09332,-118.93 818.33282,-284.17346 792,-298c-26.33282,-13.82654 -793.23795,123.76385 -1016,149c-222.76205,25.23615 98.61897,-61.88192 420,-149c321.38103,-87.11808 -123.80949,30.94096 -569,149" fill-opacity="0" fill="rgb(0,0,0)" stroke="rgb(0,0,0)" stroke-width="25" stroke-linecap="round" stroke-linejoin="round"/></g></svg>