<?xml version="1.0" encoding="utf-8"?><svg version="1.1" id="Calque_1" xmlns="http://www.w3.org/2000/svg" xmlns:xlink="http://www.w3.org/1999/xlink" x="0px" y="0px" width="2136px" height="718px" viewBox="-482 180 2136 718" enable-background="new -482 180 2136 718" xml:space="preserve"><g xmlns="http://www.w3.org/2000/svg"><polygon points="0,1440 0,0 2560,0 2560,1440" fill="rgb(255,255,255)" stroke-width="1" stroke-linecap="butt" stroke-linejoin="miter"/><path d="M871,422c-67.84922,-17.2037 -135.69844,-34.40739 -149,0c-13.30156,34.40739 27.94454,120.42588 75,149c47.05546,28.57412 99.92027,-0.29612 149,0c49.07973,0.29612 94.37437,29.75859 149,0c54.62563,-29.75859 118.58226,-118.73824 74,-149c-44.58226,-30.26176 -197.7034,-1.80562 -298,0c-100.2966,1.80562 -147.76866,-23.0393 -149,0c-1.23134,23.0393 43.77804,93.9628 75,149c31.22196,55.0372 48.65648,94.1881 27,149c-21.65648,54.8119 -82.40398,125.28478 -74,149c8.40398,23.71522 85.95944,0.67276 149,0c63.04056,-0.67276 111.56621,21.02416 149,0c37.43379,-21.02416 63.77573,-84.7694 74,-149c10.22427,-64.2306 4.33088,-128.94654 -27,-149c-31.33088,-20.05346 -88.09924,4.55557 -149,0c-60.90076,-4.55557 -125.9339,-38.27575 -149,0c-23.0661,38.27575 -4.16515,148.54742 27,149c31.16515,0.45258 74.59451,-108.91392 122,-149c47.40549,-40.08608 98.78711,-10.89173 149,0c50.21289,10.89173 99.25703,3.48084 149,0c49.74297,-3.48084 100.18475,-3.03164 149,0c48.81525,3.03164 96.00397,8.64572 149,0c52.99603,-8.64572 111.79938,-31.55124 149,0c37.20062,31.55124 52.7985,117.55925 27,149c-25.7985,31.44075 -92.99338,8.31425 -149,0c-56.00662,-8.31425 -100.82498,-1.81625 -149,0c-48.17502,1.81625 -99.70671,-1.04925 -149,0c-49.29329,1.04925 -96.34819,6.01326 -149,0c-52.65181,-6.01326 -110.90052,-23.00379 -149,0c-38.09948,23.00379 -56.04974,86.00189 -74,149c-17.95026,62.99811 685.02487,-117.50095 1388,-298" fill-opacity="0" fill="rgb(0,0,0)" stroke="rgb(0,0,0)" stroke-width="25" stroke-linecap="round" stroke-linejoin="round"/></g></svg>