<?xml version="1.0" encoding="utf-8"?><svg version="1.1" id="Calque_1" xmlns="http://www.w3.org/2000/svg" xmlns:xlink="http://www.w3.org/1999/xlink" x="0px" y="0px" width="2136px" height="718px" viewBox="-482 180 2136 718" enable-background="new -482 180 2136 718" xml:space="preserve"><g xmlns="http://www.w3.org/2000/svg"><polygon points="0,1440 0,0 2560,0 2560,1440" fill="rgb(255,255,255)" stroke-width="1" stroke-linecap="butt" stroke-linejoin="miter"/><path d="M824,720c433.80995,-98.79145 867.61991,-197.58289 867,-149c-0.61991,48.58289 -435.66968,244.54013 -345,298c90.66968,53.45987 707.05882,-35.57761 670,-149c-37.05882,-113.42239 -727.5656,-251.22967 -921,-149c-193.4344,102.22967 110.20357,444.49629 176.5,447c66.29643,2.50371 -104.74868,-334.75549 -27.5,-447c77.24868,-112.24451 402.79114,0.52568 447,0c44.20886,-0.52568 -192.91589,-114.34721 -298,0c-105.08411,114.34721 -78.12759,456.86318 -121.5,447c-43.37241,-9.86318 -157.07376,-372.1055 -176.5,-447c-19.42624,-74.8945 55.42262,137.55883 176,149c120.57738,11.44117 286.88329,-178.12982 271,-149c-15.88329,29.12982 -213.95576,276.96046 -196,298c17.95576,21.03954 251.93977,-184.71202 223,-149c-28.93977,35.71202 -320.80332,312.8876 -297.5,298c23.30332,-14.8876 361.77352,-321.8384 270.5,-447c-91.27352,-125.1616 -612.29076,-68.534 -447,0c165.29076,68.534 1016.88951,148.97441 921,149c-95.88951,0.02559 -1139.26729,-80.36363 -1341,0c-201.73271,80.36363 438.17963,321.48011 596.5,298c158.32037,-23.48011 -164.95124,-311.5568 -176.5,-447c-11.54876,-135.4432 288.62534,-118.25292 447,0c158.37466,118.25292 174.9499,337.56846 -47,298c-221.9499,-39.56846 -682.42494,-338.02092 -698,-298c-15.57506,40.02092 413.74986,418.51523 474.5,447c60.75014,28.48477 -247.07451,-293.04001 -176.5,-447c70.57451,-153.95999 519.54816,-140.35519 596,0c76.45184,140.35519 -219.61813,407.46078 -419.5,447c-199.88187,39.53922 -303.57564,-148.48792 -149.5,-298c154.07564,-149.51208 565.92068,-260.50911 569,-149c3.07932,111.50911 -402.60707,445.52436 -419.5,447c-16.89293,1.47564 355.00759,-329.58832 419.5,-447c64.49241,-117.41168 -178.42331,-21.17109 -298,0c-119.57669,21.17109 -115.81437,-32.72734 -298,0c-182.18563,32.72734 -550.31921,152.08044 -420,149c130.31921,-3.08044 759.0912,-128.59441 867,-149c107.9088,-20.40559 -305.0456,64.29721 -718,149c-412.9544,84.70279 -219.9772,-32.1486 -27,-149" fill-opacity="0" fill="rgb(0,0,0)" stroke="rgb(0,0,0)" stroke-width="25" stroke-linecap="round" stroke-linejoin="round"/></g></svg>