<?xml version="1.0" encoding="utf-8"?><svg version="1.1" id="Calque_1" xmlns="http://www.w3.org/2000/svg" xmlns:xlink="http://www.w3.org/1999/xlink" x="0px" y="0px" width="2136px" height="718px" viewBox="-482 180 2136 718" enable-background="new -482 180 2136 718" xml:space="preserve"><g xmlns="http://www.w3.org/2000/svg"><polygon points="0,1440 0,0 2560,0 2560,1440" fill="rgb(255,255,255)" stroke-width="1" stroke-linecap="butt" stroke-linejoin="miter"/><path d="M424,422c0.00164,0 0.00328,0 0,0c-0.00328,0 -0.01149,0 0,0c0.01149,0 0.04267,0 0,0c-0.04267,0 -0.15919,0 0,0c0.15919,0 0.5941,0 0,0c-0.5941,0 -2.2172,0 0,0c2.2172,0 8.27471,0 0,0c-8.27471,0 -30.88165,0 0,0c30.88165,0 115.2519,0 149,0c33.7481,0 16.87405,0 0,0c-16.87405,0 -8.43702,0 0,0" fill-opacity="0" fill="rgb(0,0,0)" stroke="rgb(0,0,0)" stroke-width="25" stroke-linecap="round" stroke-linejoin="round"/></g></svg>