<?xml version="1.0" encoding="utf-8"?><svg version="1.1" id="Calque_1" xmlns="http://www.w3.org/2000/svg" xmlns:xlink="http://www.w3.org/1999/xlink" x="0px" y="0px" width="2136px" height="718px" viewBox="-482 180 2136 718" enable-background="new -482 180 2136 718" xml:space="preserve"><g xmlns="http://www.w3.org/2000/svg"><polygon points="0,1440 0,0 2560,0 2560,1440" fill="rgb(255,255,255)" stroke-width="1" stroke-linecap="butt" stroke-linejoin="miter"/><path d="M1095,571c175.604,53.60014 351.208,107.20029 176,149c-175.208,41.79971 -701.22799,71.79899 -745,0c-43.77201,-71.79899 394.70395,-245.39626 569,-149c174.29605,96.39626 84.4122,462.78605 176.5,447c92.0878,-15.78605 366.14727,-413.74793 419.5,-447c53.35273,-33.25207 -114.00128,298.20568 -345,298c-230.99872,-0.20568 -525.64215,-332.07479 -549,-298c-23.35785,34.07479 224.5699,434.09348 474.5,447c249.9301,12.90652 501.86257,-361.29915 568.5,-447c66.63743,-85.70085 -52.02017,117.1031 -122,149c-69.97983,31.8969 -91.28189,-107.11326 -325,-149c-233.71811,-41.88674 -679.85228,13.34995 -718,149c-38.14772,135.65005 331.691,351.71348 596.5,298c264.809,-53.71348 424.58829,-377.20385 419.5,-447c-5.08829,-69.79615 -175.04414,114.10193 -345,298c-169.95586,183.89807 -359.47793,-57.05096 -549,-298" fill-opacity="0" fill="rgb(0,0,0)" stroke="rgb(0,0,0)" stroke-width="25" stroke-linecap="round" stroke-linejoin="round"/></g></svg>