<?xml version="1.0" encoding="utf-8"?><svg version="1.1" id="Calque_1" xmlns="http://www.w3.org/2000/svg" xmlns:xlink="http://www.w3.org/1999/xlink" x="0px" y="0px" width="2136px" height="718px" viewBox="-482 180 2136 718" enable-background="new -482 180 2136 718" xml:space="preserve"><g xmlns="http://www.w3.org/2000/svg"><polygon points="0,1440 0,0 2560,0 2560,1440" fill="rgb(255,255,255)" stroke-width="1" stroke-linecap="butt" stroke-linejoin="miter"/><path d="M946,571c10.3464,-74.42194 20.6928,-148.84387 74,-149c53.3072,-0.15613 149.57521,73.95355 224,149c74.42479,75.04645 127.00635,151.02968 176,149c48.99365,-2.02968 94.3994,-82.07227 122,-149c27.6006,-66.92773 37.39607,-120.74059 74,-149c36.60393,-28.25941 100.01633,-30.96537 149,0c48.98367,30.96537 83.5386,95.60206 75,149c-8.5386,53.39794 -60.17075,95.55713 -122,149c-61.82925,53.44287 -133.85562,118.16941 -223,149c-89.14438,30.83059 -195.40677,27.76521 -298,0c-102.59323,-27.76521 -201.51728,-80.23025 -224,-149c-22.48272,-68.76975 31.4759,-153.8442 -27,-149c-58.4759,4.8442 -229.38632,99.60706 -420,149c-190.61368,49.39294 -400.93061,53.41596 0,0c400.93061,-53.41596 1413.10877,-164.27089 1314,-149c-99.10877,15.27089 -1309.50445,156.66759 -1314,149c-4.49555,-7.66759 1196.90904,-164.39946 1314,-149c117.09096,15.39946 -850.1317,202.93024 -1314,149c-463.8683,-53.93024 -424.38222,-349.32151 -102,-298c322.38222,51.32151 927.6606,449.35579 847.5,596c-80.1606,146.64421 -845.76017,41.89835 -960,0c-114.23983,-41.89835 422.88009,-20.94917 960,0c537.11991,20.94917 -104.19004,-138.52541 -745.5,-298" fill-opacity="0" fill="rgb(0,0,0)" stroke="rgb(0,0,0)" stroke-width="25" stroke-linecap="round" stroke-linejoin="round"/></g></svg>