<?xml version="1.0" encoding="utf-8"?><svg version="1.1" id="Calque_1" xmlns="http://www.w3.org/2000/svg" xmlns:xlink="http://www.w3.org/1999/xlink" x="0px" y="0px" width="2136px" height="718px" viewBox="-482 180 2136 718" enable-background="new -482 180 2136 718" xml:space="preserve"><g xmlns="http://www.w3.org/2000/svg"><polygon points="0,1440 0,0 2560,0 2560,1440" fill="rgb(255,255,255)" stroke-width="1" stroke-linecap="butt" stroke-linejoin="miter"/><path d="M573,422c-13.3094,0.00012 -26.61881,0.00024 0,0c26.61881,-0.00024 93.16583,-0.00084 149,0c55.83417,0.00084 100.95549,0.00312 149,0c48.04451,-0.00312 99.01222,-0.01165 149,0c49.98778,0.01165 98.99564,0.04349 149,0c50.00436,-0.04349 101.00521,-0.16231 149,0c47.99479,0.16231 92.98351,0.60575 149,0c56.01649,-0.60575 123.06075,-2.26069 149,0c25.93925,2.26069 10.7735,8.43702 149,0c138.2265,-8.43702 429.84525,-31.48741 149,0c-280.84525,31.48741 -1134.1545,117.5126 -1415,149c-280.8455,31.4874 10.77274,8.43702 149,0c138.22726,-8.43702 123.06354,-2.26068 149,0c25.93646,2.26068 92.97312,0.60569 149,0c56.02688,-0.60569 101.04399,-0.16209 149,0c47.95601,0.16209 98.85092,0.04265 149,0c50.14908,-0.04265 99.55235,-0.00853 149,0c49.44765,0.00853 98.9397,-0.00853 149,0c50.0603,0.00853 100.68885,0.04265 149,0c48.31115,-0.04265 94.3049,-0.16209 149,0c54.6951,0.16209 118.09154,0.60569 149,0c30.90846,-0.60569 29.32893,-2.26068 0,0c-29.32893,2.26068 -86.40725,8.43702 0,0c86.40725,-8.43702 316.30008,-31.4874 0,0c-316.30008,31.4874 -1178.79306,117.51259 -1463,149c-284.20694,31.48741 9.87217,8.43702 149,0c139.12783,-8.43702 123.30438,-2.26069 149,0c25.69562,2.26069 92.91031,0.60575 149,0c56.08969,-0.60575 101.05438,-0.16231 149,0c47.94562,0.16231 98.87217,0.04349 149,0c50.12783,-0.04349 99.45694,-0.01166 149,0c49.54306,0.01166 99.30005,0.00314 149,0c49.69995,-0.00314 99.34284,-0.0009 149,0c49.65716,0.0009 99.32858,0.00045 149,0c49.67142,-0.00045 99.33571,-0.00022 149,0" fill-opacity="0" fill="rgb(0,0,0)" stroke="rgb(0,0,0)" stroke-width="25" stroke-linecap="round" stroke-linejoin="round"/></g></svg>