<?xml version="1.0" encoding="utf-8"?><svg version="1.1" id="Calque_1" xmlns="http://www.w3.org/2000/svg" xmlns:xlink="http://www.w3.org/1999/xlink" x="0px" y="0px" width="2136px" height="718px" viewBox="-482 180 2136 718" enable-background="new -482 180 2136 718" xml:space="preserve"><g xmlns="http://www.w3.org/2000/svg"><polygon points="0,1440 0,0 2560,0 2560,1440" fill="rgb(255,255,255)" stroke-width="1" stroke-linecap="butt" stroke-linejoin="miter"/><path d="M675,720c-24.07925,47.39924 -48.15851,94.79849 -75,149c-26.84149,54.20151 -56.44522,115.20529 112.5,149c168.94522,33.79471 536.43938,40.38036 559,0c22.56062,-40.38036 -299.81229,-127.72673 -372.5,-149c-72.68771,-21.27327 104.30977,23.52656 149,0c44.69023,-23.52656 -42.92681,-115.37949 -75,-149c-32.07319,-33.62051 -8.60253,-9.00859 0,0c8.60253,9.00859 2.33692,2.41384 0,0c-2.33692,-2.41384 -0.74514,-0.64679 0,0c0.74514,0.64679 0.64366,0.17331 0,0c-0.64366,-0.17331 -1.82949,-0.04644 0,0c1.82949,0.04644 6.67429,0.01244 0,0c-6.67429,-0.01244 -24.86769,-0.00333 0,0c24.86769,0.00333 92.79647,0.00089 149,0c56.20353,-0.00089 100.68181,-0.00024 149,0c48.31819,0.00024 100.4763,0.00006 149,0c48.5237,-0.00006 93.41301,-0.00002 149,0c55.58699,0.00002 121.87168,0 149,0c27.12832,0 15.10029,0 0,0c-15.10029,0 -33.27282,0 0,0c33.27282,0 117.991,0 149,0c31.009,0 8.30884,0 0,0c-8.30884,0 -2.22635,0 0,0c2.22635,0 0.59655,0 0,0c-0.59655,0 -0.15984,0 0,0c0.15984,0 0.04283,0 0,0c-0.04283,0 -0.01148,0 0,0c0.01148,0 0.00308,0 0,0c-0.00308,0 -0.00082,0 0,0c0.00082,0 0.00022,0 0,0c-0.00022,0 -0.00006,0 0,0c0.00006,0 0.00002,0 0,0c-0.00002,0 0,0 0,0c0,0 0,0 0,0c0,0 0,0 0,0c0,0 0,0 0,0c0,0 0,0 0,0c0,0 0,0 0,0c0,0 0,0 0,0c0,0 0,0 0,0c0,0 0,0 0,0c0,0 0,0 0,0c0,0 0.00002,0 0,0c-0.00002,0 -0.00006,-0.00002 0,0c0.00006,0.00002 0.00022,0.00006 0,0c-0.00022,-0.00006 -0.00083,-0.00022 0,0c0.00083,0.00022 0.0031,0.00084 0,0c-0.0031,-0.00084 -0.01156,-0.00312 0,0c0.01156,0.00312 0.04314,0.01165 0,0c-0.04314,-0.01165 -0.161,-0.04349 0,0c0.161,0.04349 0.60086,0.16231 0,0c-0.60086,-0.16231 -2.24244,-0.60575 0,0c2.24244,0.60575 8.3689,2.26069 0,0c-8.3689,-2.26069 -31.23315,-8.43702 0,0c31.23315,8.43702 116.5637,31.48741 149,0c32.4363,-31.48741 11.97837,-117.5126 -27,-149c-38.97837,-31.4874 -96.47716,-8.43702 -149,0c-52.52284,8.43702 -100.06972,2.26069 -149,0c-48.93028,-2.26069 -99.24396,-0.60574 -149,0c-49.75604,0.60574 -98.95443,0.16225 -149,0c-50.04557,-0.16225 -100.93833,-0.04327 -149,0c-48.06167,0.04327 -93.29224,0.01082 -149,0c-55.70776,-0.01082 -121.89269,0 -149,0c-27.10731,0 -15.13698,-0.01082 0,0c15.13698,0.01082 33.44062,0.04326 0,0c-33.44062,-0.04326 -118.62551,-0.16223 -149,0c-30.37449,0.16223 -5.93858,0.60567 0,0c5.93858,-0.60567 -6.62019,-2.26047 0,0c6.62019,2.26047 32.41932,8.43619 0,0c-32.41932,-8.43619 -123.05711,-31.48428 -149,0c-25.94289,31.48428 12.80912,117.50094 27,149c14.19088,31.49906 3.82062,8.48052 0,0c-3.82062,-8.48052 -1.09161,-2.423 0,0c1.09161,2.423 0.5458,1.2115 0,0c-0.5458,-1.2115 -0.2729,-0.60575 0,0" fill-opacity="0" fill="rgb(0,0,0)" stroke="rgb(0,0,0)" stroke-width="25" stroke-linecap="round" stroke-linejoin="round"/></g></svg>