<?xml version="1.0" encoding="utf-8"?><svg version="1.1" id="Calque_1" xmlns="http://www.w3.org/2000/svg" xmlns:xlink="http://www.w3.org/1999/xlink" x="0px" y="0px" width="2136px" height="718px" viewBox="-482 180 2136 718" enable-background="new -482 180 2136 718" xml:space="preserve"><g xmlns="http://www.w3.org/2000/svg"><polygon points="0,1440 0,0 2560,0 2560,1440" fill="rgb(255,255,255)" stroke-width="1" stroke-linecap="butt" stroke-linejoin="miter"/><path d="M1495,869c-12.3119,-151.75769 -24.6238,-303.51538 47,-298c71.6238,5.51538 227.18331,168.30383 27,149c-200.18331,-19.30383 -756.10945,-220.69994 -772,-149c-15.89055,71.69994 508.25448,416.49593 474.5,447c-33.75448,30.50407 -625.40848,-253.2838 -745.5,-298c-120.09152,-44.7162 231.37946,149.63925 373,149c141.62054,-0.63925 73.39066,-196.2732 196,-298c122.60934,-101.7268 436.0579,-109.54645 447,0c10.9421,109.54645 -280.62225,336.45901 -494,298c-213.37775,-38.45901 -348.56889,-342.28959 -251,-298c97.56889,44.28959 427.89781,436.69936 474.5,447c46.60219,10.30064 -190.52234,-361.50784 -176.5,-447c14.02234,-85.49216 279.19156,115.332 176,149c-103.19156,33.668 -574.74388,-99.82015 -474,-149c100.74388,-49.17985 773.78397,-14.05138 894,0c120.21603,14.05138 -312.39198,7.02569 -745,0c-432.60802,-7.02569 -67.30401,-3.51285 298,0" fill-opacity="0" fill="rgb(0,0,0)" stroke="rgb(0,0,0)" stroke-width="25" stroke-linecap="round" stroke-linejoin="round"/></g></svg>