<?xml version="1.0" encoding="utf-8"?><svg version="1.1" id="Calque_1" xmlns="http://www.w3.org/2000/svg" xmlns:xlink="http://www.w3.org/1999/xlink" x="0px" y="0px" width="2136px" height="718px" viewBox="-482 180 2136 718" enable-background="new -482 180 2136 718" xml:space="preserve"><g xmlns="http://www.w3.org/2000/svg"><polygon points="0,1440 0,0 2560,0 2560,1440" fill="rgb(255,255,255)" stroke-width="1" stroke-linecap="butt" stroke-linejoin="miter"/><path d="M362.5,869c278.95776,39.44714 557.91551,78.89429 834.5,0c276.58449,-78.89429 550.7957,-276.13001 345,-298c-205.7957,-21.86999 -891.59833,131.62576 -867,149c24.59833,17.37424 759.5976,-101.37302 1016,-149c256.4024,-47.62698 34.20793,-24.13369 -298,0c-332.20793,24.13369 -774.42931,48.90777 -718,149c56.42931,100.09223 611.50933,275.50261 596.5,298c-15.00933,22.49739 -600.108,-107.91821 -909,-149c-308.892,-41.08179 -341.57733,7.17022 0,0c341.57733,-7.17022 1057.41733,-69.76268 1355.5,-149c298.08267,-79.23732 178.40802,-175.11952 -176,-149c-354.40802,26.11952 -943.5494,174.24074 -942,298c1.5494,123.75926 593.78959,223.15655 671.5,149c77.71041,-74.15655 -359.10895,-321.86694 -474.5,-447c-115.39105,-125.13306 90.64621,-127.68878 298,0c207.35379,127.68878 416.02411,385.62207 176.5,447c-239.52411,61.37793 -927.24266,-73.79952 -909,-149c18.24266,-75.20048 742.44652,-90.42401 1057.5,-149c315.05348,-58.57599 220.9566,-160.50445 -27,-149c-247.9566,11.50445 -649.7729,136.4418 -718,149c-68.2271,12.5582 197.135,-87.26275 420,-149c222.865,-61.73725 403.23288,-85.3908 447,0c43.76712,85.3908 -49.06654,279.82594 -196,298c-146.93346,18.17406 -347.96673,-139.91297 -549,-298c-201.03327,-158.08703 -317.76663,69.95649 -434.5,298" fill-opacity="0" fill="rgb(0,0,0)" stroke="rgb(0,0,0)" stroke-width="25" stroke-linecap="round" stroke-linejoin="round"/></g></svg>