<?xml version="1.0" encoding="utf-8"?><svg version="1.1" id="Calque_1" xmlns="http://www.w3.org/2000/svg" xmlns:xlink="http://www.w3.org/1999/xlink" x="0px" y="0px" width="2136px" height="718px" viewBox="-482 180 2136 718" enable-background="new -482 180 2136 718" xml:space="preserve"><g xmlns="http://www.w3.org/2000/svg"><polygon points="0,1440 0,0 2560,0 2560,1440" fill="rgb(255,255,255)" stroke-width="1" stroke-linecap="butt" stroke-linejoin="miter"/><path d="M1095,571c13.73406,80.9443 27.46812,161.88859 176,149c148.53188,-12.88859 431.86158,-119.61007 271,-149c-160.86158,-29.38993 -765.91443,18.5517 -867,149c-101.08557,130.4483 301.79615,343.40329 596.5,298c294.70385,-45.40329 481.22982,-349.16484 270.5,-447c-210.72982,-97.83516 -818.71544,10.25608 -867,149c-48.28456,138.74392 463.13194,308.14053 596.5,298c133.36806,-10.14053 -111.31231,-199.8182 -0.5,-298c110.81231,-98.1818 577.11731,-104.86774 420,-149c-157.11731,-44.13226 -937.65693,-125.71083 -1043,0c-105.34307,125.71083 464.51041,458.71107 623.5,447c158.98959,-11.71107 -92.88471,-368.13344 -176.5,-447c-83.61529,-78.86656 1.02842,119.8227 176,149c174.97158,29.1773 440.27105,-111.15737 271,-149c-169.27105,-37.84263 -773.1126,26.80679 -867,149c-93.8874,122.19321 322.17934,301.93023 596.5,298c274.32066,-3.93023 406.89523,-191.52769 446.5,-298c39.60477,-106.47231 -13.76025,-131.81947 -27,-149c-13.23975,-17.18053 13.64579,-26.19444 0,0c-13.64579,26.19444 -67.82289,87.59722 -122,149c-54.17711,61.40278 -474.08855,30.70139 -894,0" fill-opacity="0" fill="rgb(0,0,0)" stroke="rgb(0,0,0)" stroke-width="25" stroke-linecap="round" stroke-linejoin="round"/></g></svg>