<?xml version="1.0" encoding="utf-8"?><svg version="1.1" id="Calque_1" xmlns="http://www.w3.org/2000/svg" xmlns:xlink="http://www.w3.org/1999/xlink" x="0px" y="0px" width="2136px" height="718px" viewBox="-482 180 2136 718" enable-background="new -482 180 2136 718" xml:space="preserve"><g xmlns="http://www.w3.org/2000/svg"><polygon points="0,1440 0,0 2560,0 2560,1440" fill="rgb(255,255,255)" stroke-width="1" stroke-linecap="butt" stroke-linejoin="miter"/><path d="M362.5,869c564.15958,30.40652 1128.31915,60.81304 1132.5,0c4.18085,-60.81304 -551.61704,-212.84563 -698,-298c-146.38296,-85.15437 116.64899,-103.43053 149,0c32.35101,103.43053 -165.97892,328.56775 -47,298c118.97892,-30.56775 555.26669,-316.84045 643,-298c87.73331,18.84045 -173.08785,342.79406 -270.5,447c-97.41215,104.20594 -31.41529,-11.33578 -74.5,-149c-43.08471,-137.66422 -195.25098,-297.45093 -400,-298c-204.74902,-0.54907 -462.0808,158.13949 -271,149c191.0808,-9.13949 830.57417,-186.10702 867,-149c36.42583,37.10702 -530.21589,288.28861 -494,298c36.21589,9.71139 675.28941,-222.0474 792,-298c116.71059,-75.9526 -288.94173,3.901 -298,0c-9.05827,-3.901 378.4775,-91.5566 447,0c68.5225,91.5566 -181.96827,362.3254 -568.5,447c-386.53173,84.6746 -909.10443,-16.745 -909,-149c0.10443,-132.255 522.88597,-295.3454 732.5,-298c209.61403,-2.6546 106.06053,155.1266 176,149c69.93947,-6.1266 313.3719,-176.16099 420,-149c106.6281,27.16099 76.45186,251.51738 -196,298c-272.45186,46.48262 -787.17935,-84.90853 -969,-149c-181.82065,-64.09147 -30.73447,-60.88328 149,0c179.73447,60.88328 388.11724,179.44164 596.5,298c208.38276,118.55836 562.94138,-15.22082 917.5,-149" fill-opacity="0" fill="rgb(0,0,0)" stroke="rgb(0,0,0)" stroke-width="25" stroke-linecap="round" stroke-linejoin="round"/></g></svg>