<?xml version="1.0" encoding="utf-8"?><svg version="1.1" id="Calque_1" xmlns="http://www.w3.org/2000/svg" xmlns:xlink="http://www.w3.org/1999/xlink" x="0px" y="0px" width="2136px" height="718px" viewBox="-482 180 2136 718" enable-background="new -482 180 2136 718" xml:space="preserve"><g xmlns="http://www.w3.org/2000/svg"><polygon points="0,1440 0,0 2560,0 2560,1440" fill="rgb(255,255,255)" stroke-width="1" stroke-linecap="butt" stroke-linejoin="miter"/><path d="M1495,869c-0.1634,-0.32462 -0.3268,-0.64924 0,0c0.3268,0.64924 1.1438,2.27235 0,0c-1.1438,-2.27235 -4.2484,-8.44015 0,0c4.2484,8.44015 15.84979,31.48824 0,0c-15.84979,-31.48824 -59.15075,-117.51281 -75,-149c-15.84925,-31.48719 -4.2468,-8.43698 0,0c4.2468,8.43698 1.13796,2.26074 0,0c-1.13796,-2.26074 -0.30502,-0.60597 0,0c0.30502,0.60597 0.08212,0.16315 0,0c-0.08212,-0.16315 -0.02346,-0.04661 0,0c0.02346,0.04661 0.01173,0.02331 0,0c-0.01173,-0.02331 -0.00587,-0.01165 0,0" fill-opacity="0" fill="rgb(0,0,0)" stroke="rgb(0,0,0)" stroke-width="25" stroke-linecap="round" stroke-linejoin="round"/></g></svg>