<?xml version="1.0" encoding="utf-8"?><svg version="1.1" id="Calque_1" xmlns="http://www.w3.org/2000/svg" xmlns:xlink="http://www.w3.org/1999/xlink" x="0px" y="0px" width="2136px" height="718px" viewBox="-482 180 2136 718" enable-background="new -482 180 2136 718" xml:space="preserve"><g xmlns="http://www.w3.org/2000/svg"><polygon points="0,1440 0,0 2560,0 2560,1440" fill="rgb(255,255,255)" stroke-width="1" stroke-linecap="butt" stroke-linejoin="miter"/><path d="M1691,571c-42.79165,-22.62841 -85.5833,-45.25682 -149,0c-63.4167,45.25682 -147.45844,158.39887 -271,149c-123.54156,-9.39887 -286.58295,-141.33865 -325,-149c-38.41705,-7.66135 47.79025,108.95574 176,149c128.20975,40.04426 298.42196,3.51568 447,0c148.57804,-3.51568 275.52192,25.98154 149,0c-126.52192,-25.98154 -506.50963,-107.44184 -772,-149c-265.49037,-41.55816 -416.48342,-43.21419 -298,0c118.48342,43.21419 506.44329,131.2986 623,149c116.55671,17.7014 -38.28974,-34.98021 -149,0c-110.71026,34.98021 -177.28433,157.62224 -74,149c103.28433,-8.62224 376.42705,-148.50876 372,-149c-4.42705,-0.49124 -286.42387,138.41279 -223,149c63.42387,10.58721 472.26844,-107.14242 372,-149c-100.26844,-41.85758 -709.64987,-7.84313 -894,0c-184.35013,7.84313 56.33106,-10.48507 149,0c92.66894,10.48507 37.32565,49.7834 149,0c111.67435,-49.7834 390.36635,-188.64852 420,-149c29.63365,39.64852 -189.79104,257.81069 -345,298c-155.20896,40.18931 -246.20219,-97.59422 -224,-149c22.20219,-51.40578 157.59979,-16.4338 298,0c140.40021,16.4338 285.80302,14.32941 298,0c12.19698,-14.32941 -108.81186,-40.88385 -149,0c-40.18814,40.88385 0.44442,149.20598 -74,149c-74.44442,-0.20598 -263.9658,-108.94007 -224,-149c39.9658,-40.05993 309.4188,-11.44569 447,0c137.5812,11.44569 143.2906,5.72285 149,0c5.7094,-5.72285 -444.1453,-2.86142 -894,0" fill-opacity="0" fill="rgb(0,0,0)" stroke="rgb(0,0,0)" stroke-width="25" stroke-linecap="round" stroke-linejoin="round"/></g></svg>