<?xml version="1.0" encoding="utf-8"?><svg version="1.1" id="Calque_1" xmlns="http://www.w3.org/2000/svg" xmlns:xlink="http://www.w3.org/1999/xlink" x="0px" y="0px" width="2136px" height="718px" viewBox="-482 180 2136 718" enable-background="new -482 180 2136 718" xml:space="preserve"><g xmlns="http://www.w3.org/2000/svg"><polygon points="0,1440 0,0 2560,0 2560,1440" fill="rgb(255,255,255)" stroke-width="1" stroke-linecap="butt" stroke-linejoin="miter"/><path d="M973,720c255.83797,-104.66265 511.67594,-209.32529 420,-149c-91.67594,60.32529 -530.86578,285.63852 -494,298c36.86578,12.36148 549.78717,-188.2288 670,-149c120.21283,39.2288 -152.28292,318.27668 -297.5,298c-145.21708,-20.27668 -163.1555,-339.87793 -27.5,-447c135.6555,-107.12207 424.90493,-1.76497 447,0c22.09507,1.76497 -222.96421,-100.06218 -298,0c-75.03579,100.06218 19.95192,402.0137 -121.5,447c-141.45192,44.9863 -519.34347,-166.99262 -447.5,-298c71.84347,-131.00738 593.42196,-181.04321 569,-149c-24.42196,32.04321 -594.84437,146.16548 -718,149c-123.15563,2.83452 200.95554,-105.61871 420,-149c219.04446,-43.38129 333.02223,-21.69065 447,0c113.97777,21.69065 -41.01112,159.84532 -196,298" fill-opacity="0" fill="rgb(0,0,0)" stroke="rgb(0,0,0)" stroke-width="25" stroke-linecap="round" stroke-linejoin="round"/></g></svg>