<?xml version="1.0" encoding="utf-8"?><svg version="1.1" id="Calque_1" xmlns="http://www.w3.org/2000/svg" xmlns:xlink="http://www.w3.org/1999/xlink" x="0px" y="0px" width="2136px" height="718px" viewBox="-482 180 2136 718" enable-background="new -482 180 2136 718" xml:space="preserve"><g xmlns="http://www.w3.org/2000/svg"><polygon points="0,1440 0,0 2560,0 2560,1440" fill="rgb(255,255,255)" stroke-width="1" stroke-linecap="butt" stroke-linejoin="miter"/><path d="M824,720c251.90202,0 503.80404,0 596,0c92.19596,0 24.68585,0 0,0c-24.68585,0 -6.54743,0 0,0c6.54743,0 1.50386,0 0,0c-1.50386,0 0.53198,0 0,0c-0.53198,0 -3.6318,0.00002 0,0c3.6318,-0.00002 13.99522,-0.00006 0,0c-13.99522,0.00006 -52.34906,0.00022 0,0c52.34906,-0.00022 195.40104,-0.00084 0,0c-195.40104,0.00084 -729.2551,0.00312 -745,0c-15.7449,-0.00312 486.61936,-0.01165 745,0c258.38064,0.01165 272.77766,0.04349 298,0c25.22234,-0.04349 61.26999,-0.16231 -149,0c-210.26999,0.16231 -666.85763,0.60576 -745,0c-78.14237,-0.60576 222.16052,-2.26073 149,0c-73.16052,2.26073 -519.78446,8.43715 -447,0c72.78446,-8.43715 664.97732,-31.48787 894,0c229.02268,31.48787 94.87517,117.51434 -74,149c-168.87517,31.48566 -372.47799,8.4305 -447,0c-74.52201,-8.4305 -19.96319,-2.23633 0,0c19.96319,2.23633 5.33077,0.51483 0,0c-5.33077,-0.51483 -1.3599,0.17702 0,0c1.3599,-0.17702 0.10881,-1.22292 0,0c-0.10881,1.22292 0.92464,4.71464 0,0c-0.92464,-4.71464 -3.80737,-17.63564 0,0c3.80737,17.63564 14.30486,65.82794 0,0c-14.30486,-65.82794 -53.41206,-245.6761 47,-298c100.41206,-52.3239 340.34338,22.87648 447,0c106.65662,-22.87648 80.03853,-143.82982 74,-149c-6.03853,-5.17018 8.50249,105.44279 -74,149c-82.50249,43.55721 -262.04848,20.05865 -298,0c-35.95152,-20.05865 71.69141,-36.67739 149,0c77.30859,36.67739 124.28282,126.6509 27,149c-97.28282,22.3491 -338.82268,-22.9262 -298,0c40.82268,22.9262 364.0079,114.05389 373,149c8.9921,34.94611 -296.20893,13.71065 -298,0c-1.79107,-13.71065 299.82783,-19.89649 447,0c147.17217,19.89649 139.89763,65.87532 149,0c9.10237,-65.87532 34.58167,-243.60478 47,-298c12.41833,-54.39522 11.77569,14.5438 0,0c-11.77569,-14.5438 -34.68442,-112.57042 -75,-149c-40.31558,-36.42958 -98.03802,-11.26213 -149,0c-50.96198,11.26213 -95.1635,8.61892 -149,0c-53.8365,-8.61892 -117.30799,-23.21356 -149,0c-31.69201,23.21356 -31.60455,84.23531 -74,149c-42.39545,64.76469 -127.27382,133.27233 -122,149c5.27382,15.72767 100.69984,-21.32463 149,0c48.30016,21.32463 49.47445,101.02619 75,149c25.52555,47.97381 75.40235,64.21989 149,0c73.59765,-64.21989 170.91614,-208.90573 196,-298c25.08386,-89.09427 -22.0669,-122.59695 -75,-149c-52.9331,-26.40305 -111.64855,-45.70646 -149,0c-37.35145,45.70646 -53.3389,156.4228 -74,149c-20.6611,-7.4228 -45.99586,-132.98473 -75,-149c-29.00414,-16.01527 -61.67766,77.51612 -74,149c-12.32234,71.48388 -4.29352,120.92023 27,149c31.29352,28.07977 85.85172,34.80294 149,0c63.14828,-34.80294 134.88665,-111.13199 122,-149c-12.88665,-37.86801 -110.39831,-37.27497 -149,0c-38.60169,37.27497 -18.29339,111.23189 27,149c45.29339,37.76811 115.57188,39.34742 149,0c33.42812,-39.34742 30.00588,-119.62157 -27,-149c-57.00588,-29.37843 -167.59539,-7.86116 -149,0c18.59539,7.86116 166.37567,2.06619 149,0c-17.37567,-2.06619 -199.9073,-0.4036 -298,0c-98.0927,0.4036 -111.74647,-0.4518 -149,0c-37.25353,0.4518 -98.10683,2.21079 -149,0c-50.89317,-2.21079 -91.82622,-8.39137 -149,0c-57.17378,8.39137 -130.5883,31.35469 -149,0c-18.4117,-31.35469 18.1794,-117.02739 74,-149c55.8206,-31.97261 130.87069,-10.24512 149,0c18.12931,10.24512 -20.66216,9.00788 0,0c20.66216,-9.00788 100.77793,-25.78641 149,0c48.22207,25.78641 64.55043,94.13776 75,149c10.44957,54.86224 15.02036,96.23538 27,149c11.97964,52.76462 31.36812,116.92072 75,149c43.63188,32.07928 111.50717,32.08173 149,0c37.49283,-32.08173 44.6032,-96.24763 74,-149c29.3968,-52.75237 81.08002,-94.0912 122,-149c40.91998,-54.9088 71.07674,-123.38756 74,-149c2.92326,-25.61244 -21.38696,-8.35857 0,0c21.38696,8.35857 88.47109,7.82185 149,0c60.52891,-7.82185 114.5026,-22.92883 149,0c34.4974,22.92883 49.51852,83.89346 75,149c25.48148,65.10654 61.42332,134.35499 27,149c-34.42332,14.64501 -139.21179,-25.31341 -149,0c-9.78821,25.31341 75.42384,115.89865 75,149c-0.42384,33.10135 -86.48356,8.71882 -149,0c-62.51644,-8.71882 -101.48959,-1.77394 -149,0c-47.51041,1.77394 -103.55808,-1.62306 -149,0c-45.44192,1.62306 -80.27807,8.26617 -149,0c-68.72193,-8.26617 -171.32962,-31.44163 -149,0c22.32962,31.44163 169.59655,117.50033 223.5,149c53.90345,31.49967 14.44342,8.4403 0,0c-14.44342,-8.4403 -3.87023,-2.26153 0,0c3.87023,2.26153 1.03751,0.60581 0,0c-1.03751,-0.60581 -0.27982,-0.16172 0,0c0.27982,0.16172 0.08176,0.04106 0,0c-0.08176,-0.04106 -0.04722,-0.00251 0,0c0.04722,0.00251 0.10713,-0.031 0,0c-0.10713,0.031 -0.38129,0.12651 0,0c0.38129,-0.12651 1.41802,-0.47506 0,0c-1.41802,0.47506 -5.29078,1.77372 0,0c5.29078,-1.77372 19.74512,-6.61982 0,0c-19.74512,6.61982 -73.68968,24.70555 0,0c73.68968,-24.70555 275.01362,-92.2024 372.5,-149c97.48638,-56.7976 91.13522,-102.89595 74,-149c-17.13522,-46.10405 -45.05449,-92.21379 -27,-149c18.05449,-56.78621 82.08273,-124.2489 74,-149c-8.08273,-24.7511 -88.27643,-6.79061 -149,0c-60.72357,6.79061 -101.97703,2.41134 -149,0c-47.02297,-2.41134 -99.81547,-2.85476 -149,0c-49.18453,2.85476 -94.76111,9.00771 -149,0c-54.23889,-9.00771 -117.14011,-33.17608 -149,0c-31.85989,33.17608 -32.67845,123.69661 -74,149c-41.32155,25.30339 -123.14609,-14.61038 -149,0c-25.85391,14.61038 4.26282,83.74489 27,149c22.73718,65.25511 38.09482,126.63082 75,149c36.90518,22.36918 95.35789,5.73182 149,0c53.64211,-5.73182 102.4736,-0.55811 149,0c46.5264,0.55811 90.74769,-3.4994 149,0c58.25231,3.4994 130.53562,14.5557 149,0c18.46438,-14.5557 -16.89017,-54.7234 74,-149c90.89017,-94.2766 308.02507,-242.66209 196,-298c-112.02507,-55.33791 -553.2101,-17.62822 -745,0c-191.7899,17.62822 -134.18465,15.17497 -149,0c-14.81535,-15.17497 -102.05129,-43.07167 -149,0c-46.94871,43.07167 -53.61019,157.11171 -74,149c-20.38981,-8.11171 -54.50795,-138.37516 -75,-149c-20.49205,-10.62484 -27.358,98.38893 -74,149c-46.642,50.61107 -133.06006,42.81944 -187.5,0c-54.43994,-42.81944 -76.90175,-120.66669 -36.5,-149c40.40175,-28.33331 143.66706,-7.15269 149,0c5.33294,7.15269 -87.26648,0.27746 149,0c236.26648,-0.27746 801.39885,6.04287 1043,0c241.60115,-6.04287 159.67107,-24.44894 149,0c-10.67107,24.44894 49.91687,91.75289 75,149c25.08313,57.24711 14.66146,104.43737 27,149c12.33854,44.56263 47.4373,86.49763 75,149c27.5627,62.50237 47.58934,145.57211 87.5,149c39.91066,3.42789 99.70533,-72.78605 159.5,-149c59.79467,-76.21395 54.89734,36.39303 50,149" fill-opacity="0" fill="rgb(0,0,0)" stroke="rgb(0,0,0)" stroke-width="25" stroke-linecap="round" stroke-linejoin="round"/></g></svg>