<?xml version="1.0" encoding="utf-8"?><svg version="1.1" id="Calque_1" xmlns="http://www.w3.org/2000/svg" xmlns:xlink="http://www.w3.org/1999/xlink" x="0px" y="0px" width="2136px" height="718px" viewBox="-482 180 2136 718" enable-background="new -482 180 2136 718" xml:space="preserve"><g xmlns="http://www.w3.org/2000/svg"><polygon points="0,1440 0,0 2560,0 2560,1440" fill="rgb(255,255,255)" stroke-width="1" stroke-linecap="butt" stroke-linejoin="miter"/><path d="M1420,720c125.04901,-99.69195 250.09803,-199.3839 271,-149c20.90197,50.3839 -62.34309,250.84366 -345,298c-282.65691,47.15634 -764.72565,-58.99072 -820,-149c-55.27435,-90.00928 316.24568,-163.88076 569,-149c252.75432,14.88076 386.74291,118.51377 176,149c-210.74291,30.48623 -766.21733,-12.1743 -745,0c21.21733,12.1743 619.12642,79.18344 820,149c200.87358,69.81656 4.71166,142.44053 -74.5,149c-79.21166,6.55947 -41.47307,-52.94558 -74.5,-149c-33.02693,-96.05442 -136.81937,-228.65823 -251,-298c-114.18063,-69.34177 -238.74945,-75.42151 -149,0c89.74945,75.42151 393.81716,232.34425 549,298c155.18284,65.65575 161.48081,40.0445 0,0c-161.48081,-40.0445 -490.74041,-94.52225 -820,-149c-329.25959,-54.47775 245.3702,47.26112 820,149" fill-opacity="0" fill="rgb(0,0,0)" stroke="rgb(0,0,0)" stroke-width="25" stroke-linecap="round" stroke-linejoin="round"/></g></svg>