<?xml version="1.0" encoding="utf-8"?><svg version="1.1" id="Calque_1" xmlns="http://www.w3.org/2000/svg" xmlns:xlink="http://www.w3.org/1999/xlink" x="0px" y="0px" width="2136px" height="718px" viewBox="-482 180 2136 718" enable-background="new -482 180 2136 718" xml:space="preserve"><g xmlns="http://www.w3.org/2000/svg"><polygon points="0,1440 0,0 2560,0 2560,1440" fill="rgb(255,255,255)" stroke-width="1" stroke-linecap="butt" stroke-linejoin="miter"/><path d="M1271,720c47.78876,12.26113 95.57752,24.52227 149,0c53.42248,-24.52227 112.47868,-85.82794 122,-149c9.52132,-63.17206 -30.49223,-128.21051 -75,-149c-44.50777,-20.78949 -93.50976,2.66996 -149,0c-55.49024,-2.66996 -117.46872,-31.46934 -149,0c-31.53128,31.46934 -32.61535,123.20741 -74,149c-41.38465,25.79259 -123.06986,-14.36032 -149,0c-25.93014,14.36032 3.8948,83.23385 27,149c23.1052,65.76615 39.49065,128.42493 75,149c35.50935,20.57507 90.14259,-0.93358 149,0c58.85741,0.93358 121.93897,24.30939 149,0c27.06103,-24.30939 18.10152,-96.304 74,-149c55.89848,-52.696 176.65494,-86.09341 122,-149c-54.65494,-62.90659 -284.72129,-155.32237 -373,-149c-88.27871,6.32237 -34.7698,111.38288 -74,149c-39.2302,37.61712 -171.19953,7.79086 -149,0c22.19953,-7.79086 198.56791,6.45369 298,0c99.43209,-6.45369 121.92789,-33.6056 149,0c27.07211,33.6056 58.72055,127.96872 27,149c-31.72055,21.03128 -126.81008,-31.26927 -149,0c-22.18992,31.26927 28.51977,146.10836 75,149c46.48023,2.89164 88.73101,-106.16417 74,-149c-14.73101,-42.83583 -86.4438,-19.45169 -149,0c-62.5562,19.45169 -115.9558,34.97091 -149,0c-33.0442,-34.97091 -45.733,-120.43197 -27,-149c18.733,-28.56803 68.8878,-0.24303 149,0c80.1122,0.24303 190.18182,-27.5959 149,0c-41.18182,27.5959 -233.61506,110.62665 -271,149c-37.38494,38.37335 80.27843,32.0893 149,0c68.72157,-32.0893 88.50136,-89.98387 122,-149c33.49864,-59.01613 80.71614,-119.15384 74,-149c-6.71614,-29.84616 -67.36593,-29.40077 -149,0c-81.63407,29.40077 -184.25243,87.75691 -223,149c-38.74757,61.24309 -13.62435,125.37314 27,149c40.62435,23.62686 96.74981,6.75053 149,0c52.25019,-6.75053 100.62509,-3.37527 149,0c48.37491,3.37527 -50.31255,1.68763 -149,0" fill-opacity="0" fill="rgb(0,0,0)" stroke="rgb(0,0,0)" stroke-width="25" stroke-linecap="round" stroke-linejoin="round"/></g></svg>