<?xml version="1.0" encoding="utf-8"?><svg version="1.1" id="Calque_1" xmlns="http://www.w3.org/2000/svg" xmlns:xlink="http://www.w3.org/1999/xlink" x="0px" y="0px" width="2136px" height="718px" viewBox="-482 180 2136 718" enable-background="new -482 180 2136 718" xml:space="preserve"><g xmlns="http://www.w3.org/2000/svg"><polygon points="0,1440 0,0 2560,0 2560,1440" fill="rgb(255,255,255)" stroke-width="1" stroke-linecap="butt" stroke-linejoin="miter"/><path d="M362.5,869c-47.2462,61.318 -94.49239,122.63599 -51,149c43.49239,26.36401 177.72337,17.77402 401,0c223.27663,-17.77402 535.59891,-44.73207 782.5,-149c246.90109,-104.26793 428.38099,-285.84575 196,-298c-232.38099,-12.15425 -878.62286,145.11507 -867,149c11.62286,3.88493 681.11045,-145.61453 718,-149c36.88955,-3.38547 -558.81893,139.34307 -569,149c-10.18107,9.65693 565.16529,-113.75773 569,-149c3.83471,-35.24227 -563.84222,17.68786 -745,0c-181.15778,-17.68786 24.20358,-105.99371 149,0c124.79642,105.99371 169.02791,406.28697 325.5,447c156.47209,40.71303 425.18479,-178.15419 297.5,-298c-127.68479,-119.84581 -651.76708,-140.67023 -772,-149c-120.23292,-8.32977 163.38354,-4.16488 447,0c283.61646,4.16488 -142.69177,76.58244 -569,149" fill-opacity="0" fill="rgb(0,0,0)" stroke="rgb(0,0,0)" stroke-width="25" stroke-linecap="round" stroke-linejoin="round"/></g></svg>