<?xml version="1.0" encoding="utf-8"?><svg version="1.1" id="Calque_1" xmlns="http://www.w3.org/2000/svg" xmlns:xlink="http://www.w3.org/1999/xlink" x="0px" y="0px" width="2136px" height="718px" viewBox="-482 180 2136 718" enable-background="new -482 180 2136 718" xml:space="preserve"><g xmlns="http://www.w3.org/2000/svg"><polygon points="0,1440 0,0 2560,0 2560,1440" fill="rgb(255,255,255)" stroke-width="1" stroke-linecap="butt" stroke-linejoin="miter"/><path d="M1542,571c63.32063,-23.02495 126.64127,-46.04989 149,0c22.35873,46.04989 3.75557,161.17462 27,149c23.24443,-12.17462 88.33646,-151.6486 122,-149c33.66354,2.6486 35.89859,147.41978 27,149c-8.89859,1.58022 -28.93082,-140.0305 -27,-149c1.93082,-8.9695 25.82467,114.70224 27,149c1.17533,34.29776 -20.36788,-20.77845 0,0c20.36788,20.77845 82.64685,117.41157 75,149c-7.64685,31.58843 -85.21953,-1.86784 -149,0c-63.78047,1.86784 -113.76874,39.0598 -149,0c-35.23126,-39.0598 -55.7055,-154.37136 -75,-149c-19.2945,5.37136 -37.40926,131.42563 -74,149c-36.59074,17.57437 -91.65748,-73.33116 -75,-149c16.65748,-75.66884 105.03917,-136.101 122,-149c16.96083,-12.899 -37.49919,21.73514 0,0c37.49919,-21.73514 166.95759,-99.83956 149,0c-17.95759,99.83956 -183.33118,377.62312 -419.5,447c-236.16882,69.37688 -543.13288,-69.6529 -671.5,-149c-128.36712,-79.3471 -78.13731,-99.01151 -74,-149c4.13731,-49.98849 -37.81788,-130.30107 -27,-149c10.81788,-18.69893 74.40884,24.21578 149,0c74.59116,-24.21578 160.18254,-115.56205 223,-149c62.81746,-33.43795 102.86101,-8.96759 149,0c46.13899,8.96759 98.37342,2.43241 149,0c50.62658,-2.43241 99.64532,-0.76205 149,0c49.35468,0.76205 99.04532,0.6158 149,0c49.95468,-0.6158 100.17342,-1.70114 149,0c48.82658,1.70114 96.261,6.18877 149,0c52.739,-6.18877 110.78257,-23.05393 149,0c38.21743,23.05393 56.60871,86.02697 75,149c18.39129,62.97303 9.19564,31.48652 0,0" fill-opacity="0" fill="rgb(0,0,0)" stroke="rgb(0,0,0)" stroke-width="25" stroke-linecap="round" stroke-linejoin="round"/></g></svg>