<?xml version="1.0" encoding="utf-8"?><svg version="1.1" id="Calque_1" xmlns="http://www.w3.org/2000/svg" xmlns:xlink="http://www.w3.org/1999/xlink" x="0px" y="0px" width="2136px" height="718px" viewBox="-482 180 2136 718" enable-background="new -482 180 2136 718" xml:space="preserve"><g xmlns="http://www.w3.org/2000/svg"><polygon points="0,1440 0,0 2560,0 2560,1440" fill="rgb(255,255,255)" stroke-width="1" stroke-linecap="butt" stroke-linejoin="miter"/><path d="M946,571c-109.4157,10.53246 -218.83141,21.06492 0,0c218.83141,-21.06492 765.90992,-73.72723 745,0c-20.90992,73.72723 -609.80829,273.84401 -941,298c-331.19171,24.15599 -404.67676,-127.6488 -224,-149c180.67676,-21.3512 615.51533,87.7512 820,149c204.48467,61.2488 178.61543,74.64402 0,0c-178.61543,-74.64402 -509.97706,-237.32726 -549,-298c-39.02294,-60.67274 214.29282,-19.33496 447,0c232.70718,19.33496 444.80578,16.6671 447,0c2.19422,-16.6671 -205.51594,-47.33346 -298,0c-92.48406,47.33346 -69.74203,172.66673 -47,298c22.74203,125.33327 -100.62898,-11.83336 -224,-149" fill-opacity="0" fill="rgb(0,0,0)" stroke="rgb(0,0,0)" stroke-width="25" stroke-linecap="round" stroke-linejoin="round"/></g></svg>