<?xml version="1.0" encoding="utf-8"?><svg version="1.1" id="Calque_1" xmlns="http://www.w3.org/2000/svg" xmlns:xlink="http://www.w3.org/1999/xlink" x="0px" y="0px" width="2136px" height="718px" viewBox="-482 180 2136 718" enable-background="new -482 180 2136 718" xml:space="preserve"><g xmlns="http://www.w3.org/2000/svg"><polygon points="0,1440 0,0 2560,0 2560,1440" fill="rgb(255,255,255)" stroke-width="1" stroke-linecap="butt" stroke-linejoin="miter"/><path d="M1420,720c92.31001,-16.0108 184.62001,-32.02159 149,0c-35.62001,32.02159 -199.17005,112.07557 -372,149c-172.82995,36.92443 -354.93981,30.71931 -447,0c-92.06019,-30.71931 -94.0707,-85.9528 74,-149c168.0707,-63.0472 506.22263,-133.90809 569,-149c62.77737,-15.09191 -149.81981,25.58517 -149,0c0.81981,-25.58517 215.05663,-117.43259 223,-149c7.94337,-31.56741 -190.40669,-2.8548 -298,0c-107.59331,2.8548 -124.42986,-20.14819 -149,0c-24.57014,20.14819 -56.87387,83.44758 -74,149c-17.12613,65.55242 -19.07467,133.35787 27,149c46.07467,15.64213 140.17256,-20.87906 149,0c8.82744,20.87906 -67.61555,99.15835 -74,149c-6.38445,49.84165 57.28966,71.24564 149,0c91.71034,-71.24564 211.45691,-235.1409 345,-298c133.54309,-62.8591 280.88271,-24.68203 298,0c17.11729,24.68203 -95.98774,35.869 -149,0c-53.01226,-35.869 -45.93174,-118.79399 -75,-149c-29.06826,-30.20601 -94.28529,-7.69304 -149,0c-54.71471,7.69304 -98.92709,0.56614 -149,0c-50.07291,-0.56614 -106.00634,5.42847 -149,0c-42.99366,-5.42847 -73.04757,-22.28001 -149,0c-75.95243,22.28001 -197.8034,83.69157 -223,149c-25.1966,65.30843 46.26118,134.51374 27,149c-19.26118,14.48626 -129.2413,-25.74653 -149,0c-19.7587,25.74653 50.70402,117.47236 75,149c24.29598,31.52764 2.4252,2.85707 149,0c146.5748,-2.85707 461.59516,20.09936 596,0c134.40484,-20.09936 88.19416,-83.25451 74,-149c-14.19416,-65.74549 3.62821,-134.08132 -27,-149c-30.62821,-14.91868 -109.70701,23.5798 -149,0c-39.29299,-23.5798 -38.80018,-109.23789 -75,-149c-36.19982,-39.76211 -109.09226,-33.62826 -149,0c-39.90774,33.62826 -46.83078,94.75093 -74,149c-27.16922,54.24907 -74.58461,101.62453 -122,149c-47.41539,47.37547 50.7923,23.68773 149,0" fill-opacity="0" fill="rgb(0,0,0)" stroke="rgb(0,0,0)" stroke-width="25" stroke-linecap="round" stroke-linejoin="round"/></g></svg>