<?xml version="1.0" encoding="utf-8"?><svg version="1.1" id="Calque_1" xmlns="http://www.w3.org/2000/svg" xmlns:xlink="http://www.w3.org/1999/xlink" x="0px" y="0px" width="2136px" height="718px" viewBox="-482 180 2136 718" enable-background="new -482 180 2136 718" xml:space="preserve"><g xmlns="http://www.w3.org/2000/svg"><polygon points="0,1440 0,0 2560,0 2560,1440" fill="rgb(255,255,255)" stroke-width="1" stroke-linecap="butt" stroke-linejoin="miter"/><path d="M648,571c0.02343,0 0.04685,0 0,0c-0.04685,0 -0.16399,0 0,0c0.16399,0 0.6091,0 0,0c-0.6091,0 -2.27241,0 0,0c2.27241,0 8.48053,0 0,0c-8.48053,0 -31.64972,0 0,0c31.64972,0 118.11833,0.00002 149,0c30.88167,-0.00002 6.17638,-0.00006 0,0c-6.17638,0.00006 6.17615,0.00022 0,0c-6.17615,-0.00022 -30.88097,-0.00084 0,0c30.88097,0.00084 117.34773,0.00312 149,0c31.65227,-0.00312 8.49006,-0.01165 0,0c-8.49006,0.01165 -2.30796,0.04349 0,0c2.30796,-0.04349 0.74177,-0.16231 0,0c-0.74177,0.16231 -0.65913,0.60575 0,0c0.65913,-0.60575 1.89475,-2.26069 0,0c-1.89475,2.26069 -6.91988,8.43702 0,0c6.91988,-8.43702 25.78477,-31.4874 0,0c-25.78477,31.4874 -96.2192,117.5126 -122,149c-25.7808,31.4874 -6.90796,8.43702 0,0c6.90796,-8.43702 1.85104,-2.26069 0,0c-1.85104,2.26069 -0.49619,0.60575 0,0c0.49619,-0.60575 0.13373,-0.16231 0,0c-0.13373,0.16231 -0.03873,0.04349 0,0c0.03873,-0.04349 0.02119,-0.01165 0,0c-0.02119,0.01165 -0.04605,0.00312 0,0c0.04605,-0.00312 0.163,-0.00084 0,0c-0.163,0.00084 -0.60593,0.00022 0,0c0.60593,-0.00022 2.26074,-0.00006 0,0c-2.26074,0.00006 -8.43704,0.00002 0,0c8.43704,-0.00002 31.48741,0 0,0c-31.48741,0 -117.5126,0 -149,0c-31.4874,0 -8.43702,0 0,0c8.43702,0 2.26069,0 0,0c-2.26069,0 -0.60575,0 0,0c0.60575,0 0.16231,0 0,0c-0.16231,0 -0.04349,0 0,0c0.04349,0 0.01165,0 0,0c-0.01165,0 -0.00312,0 0,0c0.00312,0 0.00084,0 0,0c-0.00084,0 -0.00022,0 0,0c0.00022,0 0.00006,0 0,0c-0.00006,0 -0.00002,0 0,0c0.00002,0 0,0 0,0c0,0 0,0 0,0c0,0 0,0 0,0c0,0 0,0 0,0c0,0 0,0 0,0c0,0 0,0 0,0c0,0 0.00002,0 0,0c-0.00002,0 -0.00006,0 0,0c0.00006,0 0.00023,0 0,0c-0.00023,0 -0.00084,0 0,0c0.00084,0 0.00314,0 0,0c-0.00314,0 -0.01171,0 0,0c0.01171,0 0.04372,0 0,0c-0.04372,0 -0.16315,0 0,0c0.16315,0 0.60887,0 0,0c-0.60887,0 -2.27235,0 0,0c2.27235,0 8.48052,0 0,0c-8.48052,0 -31.64972,0 0,0c31.64972,0 118.11835,0 149,0c30.88165,0 6.17633,0 0,0c-6.17633,0 6.17633,0 0,0c-6.17633,0 -30.88165,0 0,0c30.88165,0 117.35028,0 149,0c31.64972,0 8.48052,0 0,0c-8.48052,0 -2.27235,0 0,0c2.27235,0 0.60887,0 0,0c-0.60887,0 -0.16315,0 0,0c0.16315,0 0.04372,0 0,0c-0.04372,0 -0.01172,0.00002 0,0c0.01172,-0.00002 0.00316,-0.00006 0,0c-0.00316,0.00006 -0.00091,0.00022 0,0c0.00091,-0.00022 0.00048,-0.00084 0,0c-0.00048,0.00084 -0.001,0.00312 0,0c0.001,-0.00312 0.00352,-0.01165 0,0c-0.00352,0.01165 -0.01309,0.04349 0,0c0.01309,-0.04349 0.04885,-0.16231 0,0c-0.04885,0.16231 -0.18232,0.60575 0,0c0.18232,-0.60575 0.68041,-2.26069 0,0c-0.68041,2.26069 -2.53932,8.43702 0,0c2.53932,-8.43702 9.47688,-31.4874 0,0c-9.47688,31.4874 -35.3682,117.5126 -74,149c-38.6318,31.4874 -90.00407,8.43702 -149,0c-58.99593,-8.43702 -125.61553,-2.26069 -150,0c-24.38447,2.26069 -6.5338,0.60575 0,0c6.5338,-0.60575 1.75073,-0.16231 0,0c-1.75073,0.16231 -0.46911,0.04349 0,0c0.46911,-0.04349 0.1257,-0.01165 0,0c-0.1257,0.01165 -0.03368,0.00313 0,0c0.03368,-0.00313 0.00902,-0.00085 0,0c-0.00902,0.00085 -0.00239,0.00028 0,0c0.00239,-0.00028 0.00054,-0.00028 0,0c-0.00054,0.00028 0.00024,0.00085 0,0c-0.00024,-0.00085 -0.0015,-0.00313 0,0c0.0015,0.00313 0.00577,0.01165 0,0c-0.00577,-0.01165 -0.0216,-0.04349 0,0c0.0216,0.04349 0.08061,0.16231 0,0c-0.08061,-0.16231 -0.30083,-0.60575 0,0c0.30083,0.60575 1.1227,2.26069 0,0c-1.1227,-2.26069 -4.18998,-8.43702 0,0c4.18998,8.43702 15.6372,31.4874 0,0c-15.6372,-31.4874 -58.35884,-117.5126 -74,-149c-15.64116,-31.4874 -4.20184,-8.43702 0,0c4.20184,8.43702 1.1662,2.26069 0,0c-1.1662,-2.26069 -0.46298,-0.60575 0,0c0.46298,0.60575 0.6857,0.16231 0,0c-0.6857,-0.16231 -2.27983,-0.04349 0,0c2.27983,0.04349 8.43362,0.01165 0,0c-8.43362,-0.01165 -31.45465,-0.00312 0,0c31.45465,0.00312 117.38498,0.00084 149,0c31.61502,-0.00084 8.91472,-0.00022 0,0c-8.91472,0.00022 -4.04385,0.00006 0,0c4.04385,-0.00006 7.2607,-0.00002 0,0c-7.2607,0.00002 -24.99894,0 0,0c24.99894,0 92.73507,0 149,0c56.26493,0 101.05868,0 149,0c47.94132,0 99.03022,0 149,0c49.96978,0 98.82046,0 149,0c50.17954,0 101.68796,0 149,0c47.31204,0 90.4277,0 149,0c58.5723,0 132.60124,0 0,0c-132.60124,0 -471.83268,0 -596,0c-124.16732,0 -33.27053,0 0,0c33.27053,0 8.91481,0 0,0c-8.91481,0 -2.38872,0 0,0c2.38872,0 0.64005,0 0,0c-0.64005,0 -0.1715,0 0,0c0.1715,0 0.04595,0 0,0c-0.04595,0 -0.01231,0 0,0c0.01231,0 0.0033,0 0,0c-0.0033,0 -0.00088,0 0,0c0.00088,0 0.00024,0 0,0c-0.00024,0 -0.00006,0 0,0c0.00006,0 0.00002,0 0,0c-0.00002,0 0,0 0,0c0,0 0,0 0,0c0,0 0,0 0,0c0,0 0,0 0,0c0,0 0,0 0,0c0,0 0,0 0,0c0,0 0,0 0,0c0,0 0,0 0,0c0,0 0,0 0,0c0,0 0,0 0,0c0,0 0,0 0,0c0,0 0,0 0,0c0,0 0,0 0,0c0,0 0.00001,-0.00002 0,0c-0.00001,0.00002 -0.00005,0.00006 0,0c0.00005,-0.00006 0.00018,-0.00022 0,0c-0.00018,0.00022 -0.00069,0.00084 0,0c0.00069,-0.00084 0.00256,-0.00312 0,0c-0.00256,0.00312 -0.00954,0.01165 0,0c0.00954,-0.01165 0.03561,-0.04349 0,0c-0.03561,0.04349 -0.1329,0.16231 0,0c0.1329,-0.16231 0.49598,-0.60575 0,0c-0.49598,0.60575 -1.85104,2.26069 0,0c1.85104,-2.26069 6.90817,-8.43702 0,0c-6.90817,8.43702 -25.78163,31.4874 0,0c25.78163,-31.4874 96.21837,-117.5126 122,-149c25.78163,-31.4874 6.90817,-8.43702 0,0c-6.90817,8.43702 -1.85104,2.26069 0,0c1.85104,-2.26069 0.49598,-0.60575 0,0c-0.49598,0.60575 -0.1329,0.16231 0,0c0.1329,-0.16231 0.03561,-0.04349 0,0c-0.03561,0.04349 -0.00954,0.01165 0,0c0.00954,-0.01165 0.00256,-0.00312 0,0c-0.00256,0.00312 -0.00069,0.00084 0,0c0.00069,-0.00084 0.00018,-0.00022 0,0c-0.00018,0.00022 -0.00005,0.00006 0,0c0.00005,-0.00006 0.00001,-0.00002 0,0c-0.00001,0.00002 0,0 0,0c0,0 0,0 0,0c0,0 0,0 0,0c0,0 0,0 0,0c0,0 0,0 0,0c0,0 0,0 0,0c0,0 0,0 0,0c0,0 0,0 0,0c0,0 0.00002,0 0,0c-0.00002,0 -0.00006,0 0,0c0.00006,0 0.00022,0 0,0c-0.00022,0 -0.00084,0 0,0c0.00084,0 0.00312,0 0,0c-0.00312,0 -0.01165,0 0,0c0.01165,0 0.04349,0.00002 0,0c-0.04349,-0.00002 -0.16232,-0.00006 0,0c0.16232,0.00006 0.60579,0.00022 0,0c-0.60579,-0.00022 -2.26085,-0.00084 0,0c2.26085,0.00084 8.43759,0.00312 0,0c-8.43759,-0.00312 -31.48952,-0.01165 0,0c31.48952,0.01165 117.52048,0.04349 149,0c31.47952,-0.04349 8.40761,-0.16231 0,0c-8.40761,0.16231 -2.15093,0.60575 0,0c2.15093,-0.60575 0.1961,-2.26069 0,0c-0.1961,2.26069 1.36655,8.43702 0,0c-1.36655,-8.43702 -5.66228,-31.4874 0,0c5.66228,31.4874 21.28258,117.5126 27,149c5.71742,31.4874 1.53198,8.43702 0,0c-1.53198,-8.43702 -0.41049,-2.26069 0,0c0.41049,2.26069 0.10999,0.60575 0,0c-0.10999,-0.60575 -0.02947,-0.16231 0,0c0.02947,0.16231 0.0079,0.04349 0,0c-0.0079,-0.04349 -0.00212,-0.01165 0,0c0.00212,0.01165 0.00057,0.00312 0,0c-0.00057,-0.00312 -0.00015,-0.00084 0,0c0.00015,0.00084 0.00004,0.00022 0,0c-0.00004,-0.00022 -0.00001,-0.00006 0,0c0.00001,0.00006 0,0.00002 0,0c0,-0.00002 0,0 0,0c0,0 0,0 0,0c0,0 0,0 0,0c0,0 -0.00001,0.00002 0,0c0.00001,-0.00002 0.00003,-0.00006 0,0c-0.00003,0.00006 -0.00011,0.00022 0,0c0.00011,-0.00022 0.00042,-0.00084 0,0c-0.00042,0.00084 -0.00155,0.00312 0,0c0.00155,-0.00312 0.00579,-0.01166 0,0c-0.00579,0.01166 -0.02159,0.04351 0,0c0.02159,-0.04351 0.08058,-0.16237 0,0c-0.08058,0.16237 -0.30073,0.60598 0,0c0.30073,-0.60598 1.12234,-2.26153 0,0c-1.12234,2.26153 -4.18864,8.44015 0,0c4.18864,-8.44015 15.63221,-31.49906 0,0c-15.63221,31.49906 -58.34021,117.55609 -74,149c-15.65979,31.44391 -4.27135,8.27471 0,0c4.27135,-8.27471 1.42563,-1.65494 0,0c-1.42563,1.65494 -1.43118,-1.65494 0,0c1.43118,1.65494 4.29909,8.2747 0,0c-4.29909,-8.2747 -15.76517,-31.44385 0,0c15.76517,31.44385 58.76159,117.5007 74.5,149c15.73841,31.4993 4.2188,8.44104 0,0c-4.2188,-8.44104 -1.13679,-2.26488 0,0c1.13679,2.26488 0.32837,0.61847 0,0c-0.32837,-0.61847 -0.1767,-0.209 0,0c0.1767,0.209 0.37843,0.21753 0,0c-0.37843,-0.21753 -1.33701,-0.66112 0,0c1.33701,0.66112 4.9696,2.42696 0,0c-4.9696,-2.42696 -18.54138,-9.04672 0,0c18.54138,9.04672 69.19592,33.75992 0,0c-69.19592,-33.75992 -258.24229,-125.99295 -372.5,-149c-114.25771,-23.00705 -153.72677,23.21187 -149,0c4.72677,-23.21187 53.64938,-115.85453 74,-149c20.35062,-33.14547 12.12927,-6.79374 0,0c-12.12927,6.79374 -28.16644,-5.97053 0,0c28.16644,5.97053 100.5365,30.67584 149,0c48.4635,-30.67584 73.02043,-116.73282 122,-149c48.97957,-32.26718 122.38179,-10.74456 149,0c26.61821,10.74456 6.4524,10.71105 0,0c-6.4524,-10.71105 0.80862,-32.09963 0,0c-0.80862,32.09963 -9.68686,117.68746 27,149c36.68686,31.31254 118.93884,8.3498 149,0c30.06116,-8.3498 7.93152,-2.08667 0,0c-7.93152,2.08667 -1.66492,-0.00313 0,0c1.66492,0.00313 -1.27183,2.09918 0,0c1.27183,-2.09918 6.75223,-8.3936 0,0c-6.75223,8.3936 -25.73711,31.4752 0,0c25.73711,-31.4752 96.19621,-117.5072 122,-149c25.80379,-31.4928 6.95226,-8.44639 0,0c-6.95226,8.44639 -2.00526,2.29275 0,0c2.00526,-2.29275 1.06877,-0.72463 0,0c-1.06877,0.72463 -2.26981,0.60577 0,0c2.26981,-0.60577 8.01046,-1.69845 0,0c-8.01046,1.69845 -29.77205,6.18805 0,0c29.77205,-6.18805 111.07773,-23.05373 149,0c37.92227,23.05373 32.46114,86.02686 27,149c-5.46114,62.97314 71.76943,31.48657 149,0" fill-opacity="0" fill="rgb(0,0,0)" stroke="rgb(0,0,0)" stroke-width="25" stroke-linecap="round" stroke-linejoin="round"/></g></svg>