<?xml version="1.0" encoding="utf-8"?><svg version="1.1" id="Calque_1" xmlns="http://www.w3.org/2000/svg" xmlns:xlink="http://www.w3.org/1999/xlink" x="0px" y="0px" width="2136px" height="718px" viewBox="-482 180 2136 718" enable-background="new -482 180 2136 718" xml:space="preserve"><g xmlns="http://www.w3.org/2000/svg"><polygon points="0,1440 0,0 2560,0 2560,1440" fill="rgb(255,255,255)" stroke-width="1" stroke-linecap="butt" stroke-linejoin="miter"/><path d="M600,869c50.09403,0.00045 100.18805,0.0009 150,0c49.81195,-0.0009 99.34182,-0.00314 149,0c49.65818,0.00314 99.44467,0.01166 149,0c49.55533,-0.01166 98.8795,-0.04349 149,0c50.1205,0.04349 101.03734,0.16231 149,0c47.96266,-0.16231 92.97113,-0.60575 149,0c56.02887,0.60575 123.07815,2.2607 149,0c25.92185,-2.2607 10.71626,-8.43704 149,0c138.28374,8.43704 430.05679,31.48747 149,0c-281.05679,-31.48747 -1134.94342,-117.51282 -1416,-149c-281.05658,-31.48718 10.7169,-8.43619 149,0c138.2831,8.43619 123.07584,2.25757 149,0c25.92416,-2.25757 92.97975,-0.5941 149,0c56.02025,0.5941 101.00515,0.11882 149,0c47.99485,-0.11882 98.99965,0.11882 149,0c50.00035,-0.11882 98.99623,-0.59409 149,0c50.00377,0.59409 101.01541,2.25756 149,0c47.98459,-2.25756 92.94214,-8.43613 149,0c56.05786,8.43613 123.21604,31.48696 149,0c25.78396,-31.48696 10.1937,-117.5117 -27,-149c-37.1937,-31.4883 -95.99083,-8.44016 -149,0c-53.00917,8.44016 -100.23038,2.27235 -149,0c-48.76962,-2.27235 -99.08765,-0.64924 -149,0c-49.91235,0.64924 -99.41901,0.32462 -149,0c-49.58099,-0.32462 -99.23632,-0.64924 -149,0c-49.76368,0.64924 -99.6357,2.27235 -149,0c-49.3643,-2.27235 -98.22087,-8.44015 -149,0c-50.77913,8.44015 -103.48081,31.48824 -149,0c-45.51919,-31.48824 -83.85587,-117.51282 -75,-149c8.85587,-31.48718 64.9043,-8.43696 149,0c84.0957,8.43696 196.23869,2.26068 149,0c-47.23869,-2.26068 -253.85905,-0.60575 -298,0c-44.14095,0.60575 74.19749,0.16231 149,0c74.80251,-0.16231 106.06907,-0.04349 149,0c42.93093,0.04349 97.52621,0.01165 149,0c51.47379,-0.01165 99.82608,-0.00312 149,0c49.17392,0.00312 99.16946,0.00084 149,0c49.83054,-0.00084 99.49606,-0.00022 149,0c49.50394,0.00022 98.84629,0.00006 149,0c50.15371,-0.00006 101.11879,0 149,0c47.88121,0 92.67857,-0.00004 149,0c56.32143,0.00004 124.16693,0.00016 149,0c24.83307,-0.00016 6.65372,-0.00061 0,0c-6.65372,0.00061 -1.78179,0.00229 0,0c1.78179,-0.00229 0.47344,-0.00853 0,0c-0.47344,0.00853 -0.11198,0.03184 0,0c0.11198,-0.03184 -0.02551,-0.11882 0,0c0.02551,0.11882 0.21402,0.44344 0,0c-0.21402,-0.44344 -0.83056,-1.65494 0,0c0.83056,1.65494 3.10823,6.17633 0,0c-3.10823,-6.17633 -11.60235,-23.05038 0,0c11.60235,23.05038 43.30118,86.02519 75,149c31.69882,62.97481 41.34941,180.4874 51,298" fill-opacity="0" fill="rgb(0,0,0)" stroke="rgb(0,0,0)" stroke-width="25" stroke-linecap="round" stroke-linejoin="round"/></g></svg>