<?xml version="1.0" encoding="utf-8"?><svg version="1.1" id="Calque_1" xmlns="http://www.w3.org/2000/svg" xmlns:xlink="http://www.w3.org/1999/xlink" x="0px" y="0px" width="2136px" height="718px" viewBox="-482 180 2136 718" enable-background="new -482 180 2136 718" xml:space="preserve"><g xmlns="http://www.w3.org/2000/svg"><polygon points="0,1440 0,0 2560,0 2560,1440" fill="rgb(255,255,255)" stroke-width="1" stroke-linecap="butt" stroke-linejoin="miter"/><path d="M899,869c-263.16867,-10.16879 -526.33734,-20.33757 -536.5,0c-10.16266,20.33757 232.68069,71.1815 536.5,0c303.81931,-71.1815 668.61457,-264.38841 792,-298c123.38543,-33.61159 5.36104,92.37215 27,149c21.63896,56.62785 182.94126,43.89981 0,0c-182.94126,-43.89981 -710.12607,-118.97137 -921,-149c-210.87393,-30.02863 -105.43696,-15.01431 0,0c105.43696,15.01431 327.21848,156.50716 549,298" fill-opacity="0" fill="rgb(0,0,0)" stroke="rgb(0,0,0)" stroke-width="25" stroke-linecap="round" stroke-linejoin="round"/></g></svg>