<?xml version="1.0" encoding="utf-8"?><svg version="1.1" id="Calque_1" xmlns="http://www.w3.org/2000/svg" xmlns:xlink="http://www.w3.org/1999/xlink" x="0px" y="0px" width="2136px" height="718px" viewBox="-482 180 2136 718" enable-background="new -482 180 2136 718" xml:space="preserve"><g xmlns="http://www.w3.org/2000/svg"><polygon points="0,1440 0,0 2560,0 2560,1440" fill="rgb(255,255,255)" stroke-width="1" stroke-linecap="butt" stroke-linejoin="miter"/><path d="M899,869c-25.14664,-45.90851 -50.29328,-91.81702 -75,-149c-24.70672,-57.18298 -48.97352,-125.64044 -27,-149c21.97352,-23.35956 90.18735,-1.62121 149,0c58.81265,1.62121 108.22412,-16.87471 149,0c40.77588,16.87471 72.91618,69.12006 27,149c-45.91618,79.87994 -169.88885,187.39446 -74,149c95.88885,-38.39446 411.63923,-222.69789 494,-298c82.36077,-75.30211 -68.66805,-41.6029 -149,0c-80.33195,41.6029 -89.96703,91.10951 -122,149c-32.03297,57.89049 -86.46382,124.16488 -74,149c12.46382,24.83512 91.82233,8.23099 149,0c57.17767,-8.23099 92.17451,-8.08884 149,0c56.82549,8.08884 135.47962,24.12436 149,0c13.52038,-24.12436 -38.09298,-88.4086 -75,-149c-36.90702,-60.5914 -59.10768,-117.48996 -27,-149c32.10768,-31.51004 118.52371,-37.63156 149,0c30.47629,37.63156 5.01285,119.01619 27,149c21.98715,29.98381 91.4249,8.5668 149,0c57.5751,-8.5668 103.28755,-4.2834 149,0c45.71245,4.2834 9.35623,-72.3583 -27,-149" fill-opacity="0" fill="rgb(0,0,0)" stroke="rgb(0,0,0)" stroke-width="25" stroke-linecap="round" stroke-linejoin="round"/></g></svg>