<?xml version="1.0" encoding="utf-8"?><svg version="1.1" id="Calque_1" xmlns="http://www.w3.org/2000/svg" xmlns:xlink="http://www.w3.org/1999/xlink" x="0px" y="0px" width="2136px" height="718px" viewBox="-482 180 2136 718" enable-background="new -482 180 2136 718" xml:space="preserve"><g xmlns="http://www.w3.org/2000/svg"><polygon points="0,1440 0,0 2560,0 2560,1440" fill="rgb(255,255,255)" stroke-width="1" stroke-linecap="butt" stroke-linejoin="miter"/><path d="M648,571c-2.218,62.96892 -4.43601,125.93785 27,149c31.43601,23.06215 96.52602,6.21754 149,0c52.47398,-6.21754 92.33193,-1.808 149,0c56.66807,1.808 130.14625,1.01447 149,0c18.85375,-1.01447 -16.91693,-2.24988 0,0c16.91693,2.24988 86.52149,7.98505 149,0c62.47851,-7.98505 117.83099,-29.69034 149,0c31.16901,29.69034 38.15455,110.77629 75,149c36.84545,38.22371 103.55083,33.58518 149,0c45.44917,-33.58518 69.64215,-96.11699 74,-149c4.35785,-52.88301 -11.11944,-96.1172 -27,-149c-15.88056,-52.8828 -32.16441,-115.41419 -75,-149c-42.83559,-33.58581 -112.22292,-38.22604 -149,0c-36.77708,38.22604 -40.94391,119.31836 -74,149c-33.05609,29.68164 -95.00145,7.95259 -149,0c-53.99855,-7.95259 -100.0503,-2.12871 -149,0c-48.9497,2.12871 -100.79734,0.56226 -149,0c-48.20266,-0.56226 -92.76034,-0.12034 -149,0c-56.23966,0.12034 -124.16132,-0.08089 -149,0c-24.83868,0.08089 -6.5944,0.4439 0,0c6.5944,-0.4439 1.53893,-1.6947 0,0c-1.53893,1.6947 0.4387,6.33489 0,0c-0.4387,-6.33489 -3.29371,-23.64488 0,0c3.29371,23.64488 12.73616,88.24462 27,149c14.26384,60.75538 33.34907,117.66639 75,149c41.65093,31.33361 105.86756,37.08982 149,0c43.13244,-37.08982 65.1807,-117.02566 74,-149c8.8193,-31.97434 4.40965,-15.98717 0,0c-4.40965,15.98717 -2.20483,7.99358 0,0" fill-opacity="0" fill="rgb(0,0,0)" stroke="rgb(0,0,0)" stroke-width="25" stroke-linecap="round" stroke-linejoin="round"/></g></svg>