<?xml version="1.0" encoding="utf-8"?><svg version="1.1" id="Calque_1" xmlns="http://www.w3.org/2000/svg" xmlns:xlink="http://www.w3.org/1999/xlink" x="0px" y="0px" width="2136px" height="718px" viewBox="-482 180 2136 718" enable-background="new -482 180 2136 718" xml:space="preserve"><g xmlns="http://www.w3.org/2000/svg"><polygon points="0,1440 0,0 2560,0 2560,1440" fill="rgb(255,255,255)" stroke-width="1" stroke-linecap="butt" stroke-linejoin="miter"/><path d="M1095,571c13.05438,-1.31429 26.10876,-2.62858 149,0c122.89124,2.62858 355.61935,9.20002 447,0c91.38065,-9.20002 41.41384,-34.17151 0,0c-41.41384,34.17151 -74.27471,127.48601 -122,149c-47.72529,21.51399 -110.31501,-28.77254 -149,0c-38.68499,28.77254 -53.46525,136.60415 -74,149c-20.53475,12.39585 -46.82398,-70.64405 -75,-149c-28.17602,-78.35595 -58.23883,-152.02796 -27,-149c31.23883,3.02796 123.7793,82.75589 176,149c52.2207,66.24411 64.12161,119.0044 75,149c10.87839,29.9956 20.73424,37.22652 0,0c-20.73424,-37.22652 -72.05858,-118.91048 -75,-149c-2.94142,-30.08952 42.50008,-8.5846 -149,0c-191.50008,8.5846 -619.94175,4.24888 -745,0c-125.05825,-4.24888 53.26693,-8.41091 149,0c95.73307,8.41091 108.87402,29.39475 149,0c40.12598,-29.39475 107.23698,-109.16811 122,-149c14.76302,-39.83189 -22.82193,-39.72231 0,0c22.82193,39.72231 106.05073,119.05735 176,149c69.94927,29.94265 126.619,10.49292 149,0c22.381,-10.49292 10.47326,-12.02903 0,0c-10.47326,12.02903 -19.51203,37.6232 -149,0c-129.48797,-37.6232 -379.42513,-138.46377 -474,-149c-94.57487,-10.53623 -33.78743,69.23189 27,149c60.78743,79.76811 104.89372,39.88406 149,0" fill-opacity="0" fill="rgb(0,0,0)" stroke="rgb(0,0,0)" stroke-width="25" stroke-linecap="round" stroke-linejoin="round"/></g></svg>