<?xml version="1.0" encoding="utf-8"?><svg version="1.1" id="Calque_1" xmlns="http://www.w3.org/2000/svg" xmlns:xlink="http://www.w3.org/1999/xlink" x="0px" y="0px" width="2136px" height="718px" viewBox="-482 180 2136 718" enable-background="new -482 180 2136 718" xml:space="preserve"><g xmlns="http://www.w3.org/2000/svg"><polygon points="0,1440 0,0 2560,0 2560,1440" fill="rgb(255,255,255)" stroke-width="1" stroke-linecap="butt" stroke-linejoin="miter"/><path d="M526,720c424.53333,92.50627 849.06667,185.01253 820,149c-29.06667,-36.01253 -511.73333,-200.54386 -522,-149c-10.26667,51.54386 451.86666,319.1629 447.5,298c-4.36666,-21.1629 -475.23331,-331.10774 -623.5,-447c-148.26669,-115.89226 26.06658,-37.73194 149,0c122.93342,37.73194 194.46699,35.0355 149,0c-45.46699,-35.0355 -207.93452,-102.41007 -149,0c58.93452,102.41007 339.27111,374.60476 474.5,447c135.22889,72.39524 125.35009,-55.00897 -74.5,-149c-199.85009,-93.99103 -589.67145,-154.56886 -671,-149c-81.32855,5.56886 145.83573,77.28443 373,149c227.16427,71.71557 448.58214,-38.64222 670,-149" fill-opacity="0" fill="rgb(0,0,0)" stroke="rgb(0,0,0)" stroke-width="25" stroke-linecap="round" stroke-linejoin="round"/></g></svg>