<?xml version="1.0" encoding="utf-8"?><svg version="1.1" id="Calque_1" xmlns="http://www.w3.org/2000/svg" xmlns:xlink="http://www.w3.org/1999/xlink" x="0px" y="0px" width="2136px" height="718px" viewBox="-482 180 2136 718" enable-background="new -482 180 2136 718" xml:space="preserve"><g xmlns="http://www.w3.org/2000/svg"><polygon points="0,1440 0,0 2560,0 2560,1440" fill="rgb(255,255,255)" stroke-width="1" stroke-linecap="butt" stroke-linejoin="miter"/><path d="M1197,869c7.44635,14.03961 14.8927,28.07922 0,0c-14.8927,-28.07922 -52.12446,-98.27728 -75,-149c-22.87554,-50.72272 -31.39485,-81.97012 -27,-149c4.39485,-67.02988 21.70387,-169.84226 74,-149c52.29613,20.84226 139.57938,165.33916 224,149c84.42062,-16.33916 165.97863,-193.51439 223,-149c57.02137,44.51439 89.50611,310.7184 28,447c-61.50611,136.2816 -217.00305,142.6408 -372.5,149c-155.49695,6.3592 -114.99847,-71.3204 -74.5,-149" fill-opacity="0" fill="rgb(0,0,0)" stroke="rgb(0,0,0)" stroke-width="25" stroke-linecap="round" stroke-linejoin="round"/></g></svg>