<?xml version="1.0" encoding="utf-8"?><svg version="1.1" id="Calque_1" xmlns="http://www.w3.org/2000/svg" xmlns:xlink="http://www.w3.org/1999/xlink" x="0px" y="0px" width="2136px" height="718px" viewBox="-482 180 2136 718" enable-background="new -482 180 2136 718" xml:space="preserve"><g xmlns="http://www.w3.org/2000/svg"><polygon points="0,1440 0,0 2560,0 2560,1440" fill="rgb(255,255,255)" stroke-width="1" stroke-linecap="butt" stroke-linejoin="miter"/><path d="M1271,720c189.14808,-55.99696 378.29615,-111.99392 420,-149c41.70385,-37.00608 -64.03653,-55.02129 -298,0c-233.96347,55.02129 -596.15005,183.07907 -718,149c-121.84995,-34.07907 -3.36329,-230.29498 122,-149c125.36329,81.29498 257.60319,440.10085 474.5,447c216.89681,6.89915 518.45051,-338.10842 419.5,-447c-98.95051,-108.89158 -598.40524,18.33282 -718,149c-119.59476,130.66718 140.67047,264.77714 298.5,298c157.82953,33.22286 213.22338,-34.4414 223.5,-149c10.27662,-114.5586 -24.564,-276.01156 47,-298c71.564,-21.98844 249.53262,95.48763 176,149c-73.53262,53.51237 -398.56647,43.06102 -596,0c-197.43353,-43.06102 -267.26672,-118.73172 -176,-149c91.26672,-30.26828 343.63336,-15.13414 596,0c252.36664,15.13414 102.68332,156.56707 -47,298" fill-opacity="0" fill="rgb(0,0,0)" stroke="rgb(0,0,0)" stroke-width="25" stroke-linecap="round" stroke-linejoin="round"/></g></svg>