<?xml version="1.0" encoding="utf-8"?><svg version="1.1" id="Calque_1" xmlns="http://www.w3.org/2000/svg" xmlns:xlink="http://www.w3.org/1999/xlink" x="0px" y="0px" width="2136px" height="718px" viewBox="-482 180 2136 718" enable-background="new -482 180 2136 718" xml:space="preserve"><g xmlns="http://www.w3.org/2000/svg"><polygon points="0,1440 0,0 2560,0 2560,1440" fill="rgb(255,255,255)" stroke-width="1" stroke-linecap="butt" stroke-linejoin="miter"/><path d="M362.5,869c465.58958,-41.90399 931.17916,-83.80799 908.5,-149c-22.67916,-65.19201 -533.62705,-153.67205 -474,-149c59.62705,4.67205 689.82904,102.49617 921,149c231.17096,46.50383 63.31089,41.68737 0,0c-63.31089,-41.68737 -22.07261,-120.24564 -27,-149c-4.92739,-28.75436 -56.02047,-7.70482 -149,0c-92.97953,7.70482 -227.84552,2.06492 -149,0c78.84552,-2.06492 371.40255,-0.55487 447,0c75.59745,0.55487 -65.7647,0.15456 -149,0c-83.2353,-0.15456 -108.34377,-0.06337 -149,0c-40.65623,0.06337 -96.86024,0.09893 -149,0c-52.13976,-0.09893 -100.21528,-0.33235 -149,0c-48.78472,0.33235 -98.27863,1.23048 -149,0c-50.72137,-1.23048 -102.67019,-4.58957 -149,0c-46.32981,4.58957 -87.04062,17.12781 -149,0c-61.95938,-17.12781 -145.16733,-63.92165 -149,0c-3.83267,63.92165 71.70995,238.5588 102,298c30.29005,59.4412 15.32755,3.68644 -75,-149c-90.32755,-152.68644 -256.02014,-402.30455 -102,-298c154.02014,104.30455 627.75301,562.53177 698.5,596c70.74699,33.46823 -261.49189,-357.82251 -325.5,-447c-64.00811,-89.17749 140.21456,123.75829 176,149c35.78544,25.24171 -96.86634,-137.21064 -27,-149c69.86634,-11.78936 342.25081,127.08427 474,149c131.74919,21.91573 122.8631,-73.12644 149,0c26.1369,73.12644 87.29678,314.42149 112,298c24.70322,-16.42149 12.94978,-290.5595 37,-298c24.05022,-7.4405 83.9041,251.81653 162.5,298c78.5959,46.18347 175.93382,-120.70661 159.5,-149c-16.43382,-28.29339 -146.63939,82.0099 -247,0c-100.36061,-82.0099 -170.87628,-356.33301 -177,-447c-6.12372,-90.66699 52.14449,2.32214 75,149c22.85551,146.67786 10.29832,347.04445 -47,298c-57.29832,-49.04445 -159.33777,-347.49994 -177,-447c-17.66223,-99.50006 49.05276,-0.04467 75,149c25.94724,149.04467 11.12672,347.67863 -47,298c-58.12672,-49.67863 -159.55965,-347.66985 -177,-447c-17.44035,-99.33015 49.11188,0.00078 75,149c25.88812,148.99922 11.11212,347.66674 -47,298c-58.11212,-49.66674 -159.56037,-347.66773 -177,-447c-17.43963,-99.33227 49.12935,0.00419 75,149c25.87065,148.99581 11.04296,347.65095 -47,298c-58.04296,-49.65095 -159.30119,-347.60801 -177,-447c-17.69881,-99.39199 48.16182,-0.21891 75,149c26.83818,149.21891 14.65393,348.48364 -47,298c-61.65393,-50.48364 -172.77754,-350.71566 -177,-447c-4.22246,-96.28434 98.45623,11.379 75,149c-23.45623,137.621 -173.04736,305.19965 -196,298c-22.95264,-7.19965 80.73323,-189.17761 47,-298c-33.73323,-108.82239 -204.88557,-144.48923 -224,-149c-19.11443,-4.51077 113.80904,22.13451 75,149c-38.80904,126.86549 -249.35059,353.95119 -284.5,447c-35.14941,93.04881 105.0933,52.06074 200,0c94.9067,-52.06074 144.47737,-115.19414 186.5,-149c42.02263,-33.80586 76.49722,-38.28417 149,0c72.50278,38.28417 183.03376,119.3308 223.5,149c40.46624,29.6692 10.86775,7.96095 0,0c-10.86775,-7.96095 -3.00477,-2.1746 0,0c3.00477,2.1746 1.15131,0.73745 0,0c-1.15131,-0.73745 -1.60049,-0.77521 0,0c1.60049,0.77521 5.25064,2.36337 0,0c-5.25064,-2.36337 -19.40209,-8.67829 0,0c19.40209,8.67829 72.3577,32.34977 0,0c-72.3577,-32.34977 -270.02872,-120.72078 -372.5,-149c-102.47128,-28.27922 -109.74283,3.53337 -149,0c-39.25717,-3.53337 -110.49995,-42.41269 -150,0c-39.50005,42.41269 -47.25737,166.1174 -87.5,149c-40.24263,-17.1174 -112.97057,-175.0569 -150,-149c-37.02943,26.0569 -38.36036,236.11021 -51,149c-12.63964,-87.11021 -36.588,-471.38394 -36.5,-596c0.088,-124.61606 24.21235,10.42554 36.5,149c12.28765,138.57446 12.73858,280.68179 51,298c38.26142,17.31821 114.33331,-90.15271 163.5,-149c49.16669,-58.84729 71.42818,-69.07095 -27,-149c-98.42818,-79.92905 -317.54602,-229.56349 -224,-149c93.54602,80.56349 499.7559,391.3249 773,447c273.2441,55.6751 413.52242,-143.73612 223,-149c-190.52242,-5.26388 -711.84557,183.61956 -671,149c40.84557,-34.61956 643.85986,-292.74213 644,-298c0.14014,-5.25787 -602.59388,242.34894 -494,298c108.59388,55.65106 928.51564,-80.65365 968,-149c39.48436,-68.34635 -701.46869,-68.73434 -1070,-149c-368.53131,-80.26566 -364.64087,-240.409 -75,-149c289.64087,91.409 865.03216,434.37034 1071,447c205.96784,12.62966 42.51222,-305.07236 -251,-298c-293.51222,7.07236 -717.08104,338.9191 -643,298c74.08104,-40.9191 645.81194,-454.60404 1015,-447c369.18806,7.60404 535.83328,436.49706 177,447c-358.83328,10.50294 -1243.14504,-397.38421 -1220,-447c23.14504,-49.61579 953.7469,259.03976 1294,298c340.2531,38.96024 90.15745,-191.77485 -27,-149c-117.15745,42.77485 -101.37669,359.05963 40.5,447c141.87669,87.94037 409.84929,-52.46366 159.5,-149c-250.34929,-96.53634 -1019.02049,-149.205 -1067,-149c-47.97951,0.205 624.73268,53.28365 596,0c-28.73268,-53.28365 -758.91021,-212.92959 -772,-149c-13.08979,63.92959 690.90817,351.43471 1083.5,447c392.59183,95.56529 473.77755,-0.80924 159.5,-149c-314.27755,-148.19076 -1024.01836,-348.19776 -1318,-447c-293.98164,-98.80224 -172.2041,-96.39971 149,0c321.2041,96.39971 841.83477,286.79661 996,298c154.16523,11.20339 -58.135,-156.78673 -176,-149c-117.865,7.78673 -141.29479,191.35031 -420,149c-278.70521,-42.35031 -812.68583,-310.61449 -698,-298c114.68583,12.61449 878.03811,306.10767 1220,447c341.96189,140.89233 262.53338,129.18381 -112,149c-374.53338,19.81619 -1044.17163,71.15708 -1117.5,0c-73.32837,-71.15708 449.65316,-264.81215 558.5,-298c108.84684,-33.18785 -196.441,94.0915 -223,149c-26.559,54.9085 225.61084,37.44615 149,0c-76.61084,-37.44615 -482.00236,-94.87611 -373,-149c109.00236,-54.12389 732.39859,-104.9417 718,-149c-14.39859,-44.0583 -666.59201,-81.3571 -894,0c-227.40799,81.3571 -30.03056,281.37008 251,298c281.03056,16.62992 645.71424,-150.12324 670,-149c24.28576,1.12324 -291.82639,170.12286 -521,149c-229.17361,-21.12286 -371.40868,-232.3682 -251,-298c120.40868,-65.6318 503.46112,14.34992 447,0c-56.46112,-14.34992 -552.43581,-123.0315 -671,-149c-118.56419,-25.9685 140.2821,30.77607 373,149c232.7179,118.22393 439.3074,297.92723 549,298c109.6926,0.07277 122.48831,-179.48499 74,-149c-48.48831,30.48499 -158.26063,271.01274 -297.5,298c-139.23937,26.98726 -307.94578,-159.56596 -149.5,-298c158.44578,-138.43404 644.04377,-228.7489 569,-149c-75.04377,79.7489 -710.72928,329.56157 -941,298c-230.27072,-31.56157 -55.12666,-344.49739 -28,-447c27.12666,-102.50261 -93.76409,5.42799 149,0c242.76409,-5.42799 849.18301,-124.21456 745,0c-104.18301,124.21456 -918.96796,491.43027 -903.5,596c15.46796,104.56973 861.18884,-53.50651 1229.5,-149c368.31116,-95.49349 259.21259,-128.40424 74,-149c-185.21259,-20.59576 -446.53919,-28.87652 -596,0c-149.46081,28.87652 -187.05583,94.91031 -372,149c-184.94417,54.08969 -517.23748,96.23527 -298,0c219.23748,-96.23527 990.00574,-330.8514 1015,-447c24.99426,-116.1486 -695.78549,-113.82969 -894,0c-198.21451,113.82969 126.13624,339.17015 475,447c348.86376,107.82985 722.24055,98.1491 596,0c-126.24055,-98.1491 -752.09845,-284.76655 -996,-298c-243.90155,-13.23345 -105.84675,146.91709 176,149c281.84675,2.08291 707.48546,-153.90181 569,-149c-138.48546,4.90181 -841.09507,170.69015 -792,298c49.09507,127.30985 849.89484,216.14122 931,149c81.10516,-67.14122 -557.48429,-290.25503 -884,-447c-326.51571,-156.74497 -340.9577,-247.12112 -75,-149c265.9577,98.12112 812.31508,384.73949 922,447c109.68492,62.26051 -217.30261,-99.83684 -373,-149c-155.69739,-49.16316 -140.10465,14.60785 0,0c140.10465,-14.60785 404.7212,-107.59458 271,-149c-133.7212,-41.40542 -665.78014,-31.22955 -596,0c69.78014,31.22955 741.39936,83.51276 772,149c30.60064,65.48724 -579.81731,144.1785 -670,149c-90.18269,4.8215 339.86986,-64.22675 596,0c256.13014,64.22675 338.33786,261.72851 37,149c-301.33786,-112.72851 -986.22132,-535.6873 -959,-596c27.22132,-60.3127 766.54741,242.02068 847,298c80.45259,55.97932 -497.96832,-134.39542 -623,-149c-125.03168,-14.60458 203.32586,146.561 176,149c-27.32586,2.439 -410.33511,-153.84857 -325,-149c85.33511,4.84857 639.01459,170.83327 847,298c207.98541,127.16673 70.27676,215.51549 37,149c-33.27676,-66.51549 37.87836,-287.89523 -112,-298c-149.87836,-10.10477 -520.7902,191.06545 -670,149c-149.2098,-42.06545 -76.71758,-327.36655 -28,-447c48.71758,-119.63345 73.6605,-73.59924 149,0c75.3395,73.59924 201.07556,174.76352 224,149c22.92444,-25.76352 -56.96275,-178.45484 -75,-149c-18.03725,29.45484 25.77542,241.05583 102,298c76.22458,56.94417 184.86106,-40.76848 149,0c-35.86106,40.76848 -216.21968,220.01807 -223,149c-6.78032,-71.01807 160.01765,-392.30381 270,-447c109.98235,-54.69619 163.1491,157.19718 102,298c-61.1491,140.80282 -236.61403,210.51509 -223,149c13.61403,-61.51509 216.30701,-254.25755 419,-447c202.69299,-192.74245 -219.90351,201.62877 -642.5,596" fill-opacity="0" fill="rgb(0,0,0)" stroke="rgb(0,0,0)" stroke-width="25" stroke-linecap="round" stroke-linejoin="round"/></g></svg>