<?xml version="1.0" encoding="utf-8"?><svg version="1.1" id="Calque_1" xmlns="http://www.w3.org/2000/svg" xmlns:xlink="http://www.w3.org/1999/xlink" x="0px" y="0px" width="2136px" height="718px" viewBox="-482 180 2136 718" enable-background="new -482 180 2136 718" xml:space="preserve"><g xmlns="http://www.w3.org/2000/svg"><polygon points="0,1440 0,0 2560,0 2560,1440" fill="rgb(255,255,255)" stroke-width="1" stroke-linecap="butt" stroke-linejoin="miter"/><path d="M1095,571c-5.52234,-9.70624 -11.04468,-19.41248 -149,0c-137.95532,19.41248 -408.34362,67.94367 -420,149c-11.65638,81.05633 235.41917,194.63781 522,149c286.58083,-45.63781 612.66695,-250.4949 494,-298c-118.66695,-47.5051 -682.08698,62.34179 -867,149c-184.91302,86.65821 8.68096,150.12774 224,149c215.31904,-1.12774 452.36316,-66.85275 372,-149c-80.36316,-82.14725 -478.13358,-180.71673 -474,-149c4.13358,31.71673 410.17115,193.71968 549,298c138.82885,104.28032 10.44897,150.83802 -74.5,149c-84.94897,-1.83802 -126.46703,-52.07178 -74.5,-149c51.96703,-96.92822 197.41915,-240.55092 196,-298c-1.41915,-57.44908 -149.70958,-28.72454 -298,0c-148.29042,28.72454 -74.14521,14.36227 0,0" fill-opacity="0" fill="rgb(0,0,0)" stroke="rgb(0,0,0)" stroke-width="25" stroke-linecap="round" stroke-linejoin="round"/></g></svg>