<?xml version="1.0" encoding="utf-8"?><svg version="1.1" id="Calque_1" xmlns="http://www.w3.org/2000/svg" xmlns:xlink="http://www.w3.org/1999/xlink" x="0px" y="0px" width="2136px" height="718px" viewBox="-482 180 2136 718" enable-background="new -482 180 2136 718" xml:space="preserve"><g xmlns="http://www.w3.org/2000/svg"><polygon points="0,1440 0,0 2560,0 2560,1440" fill="rgb(255,255,255)" stroke-width="1" stroke-linecap="butt" stroke-linejoin="miter"/><path d="M973,720c-97.56192,-54.66822 -195.12384,-109.33644 -27,-149c168.12384,-39.66356 601.93343,-64.32246 745,0c143.06657,64.32246 -4.60989,217.62629 -196,298c-191.39011,80.37371 -426.49386,87.8173 -596,0c-169.50614,-87.8173 -273.41467,-270.89549 -102,-298c171.41467,-27.10451 618.15254,101.76465 623,149c4.84746,47.23535 -432.19548,12.8369 -447,0c-14.80452,-12.8369 392.62939,-4.11223 596,0c203.37061,4.11223 202.67792,3.61202 0,0c-202.67792,-3.61202 -607.34109,-10.33586 -596,0c11.34109,10.33586 438.68642,37.73141 596,0c157.31358,-37.73141 44.5954,-140.58979 -27,-149c-71.5954,-8.41021 -102.06801,77.62773 -122,149c-19.93199,71.37227 -29.32336,128.07887 -74,149c-44.67664,20.92113 -124.63857,6.0568 -149,0c-24.36143,-6.0568 6.87763,-3.30606 0,0c-6.87763,3.30606 -51.87196,7.16745 -149,0c-97.12804,-7.16745 -246.3898,-25.36373 -149,0c97.3898,25.36373 441.43114,94.28746 596,0c154.56886,-94.28746 119.66524,-351.78613 121,-447c1.33476,-95.21387 38.90792,-28.14296 0,0c-38.90792,28.14296 -154.2969,17.35796 -149,0c5.2969,-17.35796 131.27967,-41.28889 149,0c17.72033,41.28889 -72.8218,147.7976 -223,149c-150.1782,1.2024 -359.99247,-102.90152 -522,-149c-162.00753,-46.09848 -276.20834,-34.19154 -298,0c-21.79166,34.19154 48.82581,90.66767 75,149c26.17419,58.33233 7.9051,118.52085 27,149c19.0949,30.47915 75.55378,31.24892 149,0c73.44622,-31.24892 163.87978,-94.51652 122,-149c-41.87978,-54.48348 -216.07289,-100.18284 -149,0c67.07289,100.18284 375.4118,346.24789 474.5,447c99.0882,100.75211 -11.0743,56.19129 0,0c11.0743,-56.19129 143.38539,-124.01304 223.5,-149c80.11461,-24.98696 108.03275,-7.13913 149,0c40.96725,7.13913 94.98363,3.56957 149,0c54.01637,-3.56957 274.00819,-150.78478 494,-298" fill-opacity="0" fill="rgb(0,0,0)" stroke="rgb(0,0,0)" stroke-width="25" stroke-linecap="round" stroke-linejoin="round"/></g></svg>