<?xml version="1.0" encoding="utf-8"?><svg version="1.1" id="Calque_1" xmlns="http://www.w3.org/2000/svg" xmlns:xlink="http://www.w3.org/1999/xlink" x="0px" y="0px" width="2136px" height="718px" viewBox="-482 180 2136 718" enable-background="new -482 180 2136 718" xml:space="preserve"><g xmlns="http://www.w3.org/2000/svg"><polygon points="0,1440 0,0 2560,0 2560,1440" fill="rgb(255,255,255)" stroke-width="1" stroke-linecap="butt" stroke-linejoin="miter"/><path d="M1644,869c0.01158,-0.02331 0.02315,-0.04661 0,0c-0.02315,0.04661 -0.08103,0.16314 0,0c0.08103,-0.16314 0.30097,-0.60593 0,0c-0.30097,0.60593 -1.12286,2.26059 0,0c1.12286,-2.26059 4.19047,-8.43644 0,0c-4.19047,8.43644 -15.63904,31.48517 0,0c15.63904,-31.48517 58.36567,-117.50425 74,-149c15.63433,-31.49575 4.17635,-8.46819 0,0c-4.17635,8.46819 -1.07107,2.377 0,0c1.07107,-2.377 0.10793,-1.03982 0,0c-0.10793,1.03982 0.63934,1.78229 0,0c-0.63934,-1.78229 -2.66529,-6.08935 0,0c2.66529,6.08935 10.02181,22.5751 0,0c-10.02181,-22.5751 -37.42196,-84.21106 -27,-149c10.42196,-64.78894 58.66603,-132.73086 74,-149c15.33397,-16.26914 -2.24216,19.1345 0,0c2.24216,-19.1345 24.3026,-92.80715 0,0c-24.3026,92.80715 -94.96823,352.0941 -121,447c-26.03177,94.9059 -7.42967,25.43073 0,0c7.42967,-25.43073 3.68692,-6.81704 0,0c-3.68692,6.81704 -7.31799,1.83744 0,0c7.31799,-1.83744 25.58505,-0.5327 0,0c-25.58505,0.5327 -95.02219,0.29338 -149,0c-53.97781,-0.29338 -92.49628,-0.64082 -149,0c-56.50372,0.64082 -130.99269,2.26988 -149,0c-18.00731,-2.26988 20.46703,-8.43871 0,0c-20.46703,8.43871 -99.87544,31.48496 -149,0c-49.12456,-31.48496 -67.96527,-117.50112 -75,-149c-7.03473,-31.49888 -2.26348,-8.48047 0,0c2.26348,8.48047 2.01921,2.423 0,0c-2.01921,-2.423 -5.81335,-1.21151 0,0c5.81335,1.21151 21.23419,2.42306 0,0c-21.23419,-2.42306 -79.1234,-8.48074 -149,0c-69.8766,8.48074 -151.74058,31.4999 -149,0c2.74058,-31.4999 90.08573,-117.51884 122,-149c31.91427,-31.48116 8.39765,-8.42453 0,0c-8.39765,8.42453 -1.67632,2.21697 0,0c1.67632,-2.21697 -1.69235,-0.44335 0,0c1.69235,0.44335 8.44573,-0.44356 0,0c-8.44573,0.44356 -32.09057,2.21758 0,0c32.09057,-2.21758 119.91655,-8.42677 149,0c29.08345,8.42677 -0.57563,31.48952 0,0c0.57563,-31.48952 31.38595,-117.53129 74,-149c42.61405,-31.46871 97.03182,-8.36436 149,0c51.96818,8.36436 101.48678,1.98874 149,0c47.51322,-1.98874 93.02108,0.40941 149,0c55.97892,-0.40941 122.4289,-3.62636 149,0c26.5711,3.62636 13.26331,14.09603 0,0c-13.26331,-14.09603 -26.48216,-52.75778 0,0c26.48216,52.75778 92.66532,196.93507 102,298c9.33468,101.06493 -38.17912,159.01748 -74,149c-35.82088,-10.01748 -59.94882,-88.00499 -75,-149c-15.05118,-60.99501 -21.02559,-104.9975 -27,-149c-5.97441,-44.0025 -2.98721,-22.00125 0,0" fill-opacity="0" fill="rgb(0,0,0)" stroke="rgb(0,0,0)" stroke-width="25" stroke-linecap="round" stroke-linejoin="round"/></g></svg>