<?xml version="1.0" encoding="utf-8"?><svg version="1.1" id="Calque_1" xmlns="http://www.w3.org/2000/svg" xmlns:xlink="http://www.w3.org/1999/xlink" x="0px" y="0px" width="2136px" height="718px" viewBox="-482 180 2136 718" enable-background="new -482 180 2136 718" xml:space="preserve"><g xmlns="http://www.w3.org/2000/svg"><polygon points="0,1440 0,0 2560,0 2560,1440" fill="rgb(255,255,255)" stroke-width="1" stroke-linecap="butt" stroke-linejoin="miter"/><path d="M2016,720c-417.75947,161.25748 -835.51894,322.51496 -744.5,298c91.01894,-24.51496 690.8163,-234.80235 744.5,-298c53.6837,-63.19765 -438.74625,20.69443 -596,0c-157.25375,-20.69443 20.6687,-145.97536 -27,-149c-47.6687,-3.02464 -320.92856,116.20703 -271,149c49.92856,32.79297 423.04555,-20.85275 596,0c172.95445,20.85275 145.74635,116.20396 -74,149c-219.74635,32.79604 -632.03095,3.03691 -596,0c36.03095,-3.03691 520.37744,20.64839 596,0c75.62256,-20.64839 -257.4788,-85.63049 -522,-149c-264.5212,-63.36951 -460.46225,-125.12643 -325,-149c135.46225,-23.87357 602.32779,-9.86378 745,0c142.67221,9.86378 -38.84892,15.58154 -149,0c-110.15108,-15.58154 -148.93211,-52.46239 -149,0c-0.06789,52.46239 38.57736,194.26804 -122,149c-160.57736,-45.26804 -520.37733,-277.60975 -549,-298c-28.62267,-20.39025 273.93196,171.17096 400,298c126.06804,126.82904 75.64948,188.92592 -74,149c-149.64948,-39.92592 -398.52987,-181.87462 -400,-298c-1.47013,-116.12538 244.46998,-206.42742 223,-149c-21.46998,57.42742 -310.35007,262.58431 -397,298c-86.64993,35.41569 28.93031,-98.9098 323,-149c294.06969,-50.0902 766.62883,-15.9451 1043,0c276.37117,15.9451 356.55437,13.69022 149,0c-207.55437,-13.69022 -702.84631,-38.81577 -894,0c-191.15369,38.81577 -78.16912,141.57287 176,149c254.16912,7.42713 649.52279,-80.47572 867,-149c217.47721,-68.52428 257.07795,-117.67 -149,0c-406.07795,117.67 -1257.8346,402.15571 -1528.5,447c-270.6654,44.84429 39.76045,-149.95283 51,-149c11.23955,0.95283 -276.70721,197.65562 -51,149c225.70721,-48.65562 965.06838,-342.66963 1230.5,-447c265.43162,-104.33037 56.93369,-18.97709 0,0c-56.93369,18.97709 37.69686,-28.42201 0,0c-37.69686,28.42201 -207.72113,132.66513 -271,149c-63.27887,16.33487 -19.81234,-55.23849 0,0c19.81234,55.23849 15.97048,237.28884 0.5,298c-15.47048,60.71116 -42.56959,0.08312 0,0c42.56959,-0.08312 154.80787,60.37867 0,0c-154.80787,-60.37867 -576.6619,-241.5978 -745.5,-298c-168.8381,-56.4022 -84.66028,12.01252 0,0c84.66028,-12.01252 169.80303,-104.45228 271,-149c101.19697,-44.54772 218.44816,-41.2034 149,0c-69.44816,41.2034 -325.59567,120.26589 -420,149c-94.40433,28.73411 -27.06547,7.13986 0,0c27.06547,-7.13986 13.85755,0.17469 0,0c-13.85755,-0.17469 -28.36473,-7.83861 0,0c28.36473,7.83861 99.60136,31.17976 149,0c49.39864,-31.17976 76.95928,-116.88044 122,-149c45.04072,-32.11956 107.56154,-10.658 149,0c41.43846,10.658 61.79458,10.51246 149,0c87.20542,-10.51246 241.26013,-31.39182 298,0c56.73987,31.39182 16.16488,115.05484 27,149c10.83512,33.94516 73.08033,18.17248 0,0c-73.08033,-18.17248 -281.48619,-38.74475 -298,0c-16.51381,38.74475 158.86445,136.80652 224,149c65.13555,12.19348 20.0284,-61.48134 -224,-149c-244.0284,-87.51866 -686.97806,-188.88116 -623,-149c63.97806,39.88116 634.88383,221.00599 847,298c212.11617,76.99401 65.44272,49.85719 0,0c-65.44272,-49.85719 -49.65472,-122.43476 74,-149c123.65472,-26.56524 355.17617,-7.11815 447,0c91.82383,7.11815 43.95003,1.90735 -298,0c-341.95003,-1.90735 -977.9763,-0.51125 -1043,0c-65.0237,0.51125 440.95516,0.13764 447,0c6.04484,-0.13764 -487.84433,-0.03933 -447,0c40.84433,0.03933 616.42217,0.01966 1192,0c575.57783,-0.01966 362.28892,-0.00983 149,0" fill-opacity="0" fill="rgb(0,0,0)" stroke="rgb(0,0,0)" stroke-width="25" stroke-linecap="round" stroke-linejoin="round"/></g></svg>