<?xml version="1.0" encoding="utf-8"?><svg version="1.1" id="Calque_1" xmlns="http://www.w3.org/2000/svg" xmlns:xlink="http://www.w3.org/1999/xlink" x="0px" y="0px" width="2136px" height="718px" viewBox="-482 180 2136 718" enable-background="new -482 180 2136 718" xml:space="preserve"><g xmlns="http://www.w3.org/2000/svg"><polygon points="0,1440 0,0 2560,0 2560,1440" fill="rgb(255,255,255)" stroke-width="1" stroke-linecap="butt" stroke-linejoin="miter"/><path d="M648,571c369.03087,57.32422 738.06173,114.64844 623,149c-115.06173,34.35156 -714.21607,45.73046 -745,0c-30.78393,-45.73046 506.80253,-148.57026 569,-149c62.19747,-0.42974 -350.99405,101.5506 -420,149c-69.00595,47.4494 206.17366,40.36788 447,0c240.82634,-40.36788 447.2994,-114.02212 569,-149c121.7006,-34.97788 158.62874,-31.27939 0,0c-158.62874,31.27939 -512.81437,90.1397 -867,149c-354.18563,58.8603 505.40719,103.93015 1365,149" fill-opacity="0" fill="rgb(0,0,0)" stroke="rgb(0,0,0)" stroke-width="25" stroke-linecap="round" stroke-linejoin="round"/></g></svg>