<?xml version="1.0" encoding="utf-8"?><svg version="1.1" id="Calque_1" xmlns="http://www.w3.org/2000/svg" xmlns:xlink="http://www.w3.org/1999/xlink" x="0px" y="0px" width="2136px" height="718px" viewBox="-482 180 2136 718" enable-background="new -482 180 2136 718" xml:space="preserve"><g xmlns="http://www.w3.org/2000/svg"><polygon points="0,1440 0,0 2560,0 2560,1440" fill="rgb(255,255,255)" stroke-width="1" stroke-linecap="butt" stroke-linejoin="miter"/><path d="M526,720c428.56074,71.12335 857.12149,142.24671 820,149c-37.12149,6.75329 -539.9252,-50.86347 -522,-149c17.9252,-98.13653 556.57932,-236.79283 718,-149c161.42068,87.79283 -54.39209,402.03479 -270.5,447c-216.10791,44.96521 -432.51096,-179.34634 -298.5,-298c134.01096,-118.65366 618.43593,-131.64943 569,-149c-49.43593,-17.35057 -632.73275,-39.05592 -745,0c-112.26725,39.05592 246.49507,138.87312 325,149c78.50493,10.12688 -123.24754,-69.43656 -325,-149c-201.75246,-79.56344 -26.37623,-39.78172 149,0" fill-opacity="0" fill="rgb(0,0,0)" stroke="rgb(0,0,0)" stroke-width="25" stroke-linecap="round" stroke-linejoin="round"/></g></svg>