<?xml version="1.0" encoding="utf-8"?><svg version="1.1" id="Calque_1" xmlns="http://www.w3.org/2000/svg" xmlns:xlink="http://www.w3.org/1999/xlink" x="0px" y="0px" width="2136px" height="718px" viewBox="-482 180 2136 718" enable-background="new -482 180 2136 718" xml:space="preserve"><g xmlns="http://www.w3.org/2000/svg"><polygon points="0,1440 0,0 2560,0 2560,1440" fill="rgb(255,255,255)" stroke-width="1" stroke-linecap="butt" stroke-linejoin="miter"/><path d="M600,869c42.06047,-114.73948 84.12094,-229.47897 197,-298c112.87906,-68.52103 296.57671,-90.82362 447,0c150.42329,90.82362 267.57222,294.77344 102,298c-165.57222,3.22656 -613.86558,-194.27015 -549,-298c64.86558,-103.72985 642.89011,-113.69282 1043,0c400.10989,113.69282 622.30513,351.04145 349,298c-273.30513,-53.04145 -1042.11063,-396.47299 -1467,-447c-424.88937,-50.52701 -505.86262,191.8505 -397,298c108.86262,106.1495 407.56112,76.071 499,0c91.43888,-76.071 -24.38184,-198.1345 -27,-149c-2.61816,49.1345 107.96624,269.467 251,298c143.03376,28.533 318.51688,-134.7335 494,-298c175.48312,-163.2665 -10.25844,67.36675 -196,298" fill-opacity="0" fill="rgb(0,0,0)" stroke="rgb(0,0,0)" stroke-width="25" stroke-linecap="round" stroke-linejoin="round"/></g></svg>