<?xml version="1.0" encoding="utf-8"?><svg version="1.1" id="Calque_1" xmlns="http://www.w3.org/2000/svg" xmlns:xlink="http://www.w3.org/1999/xlink" x="0px" y="0px" width="2136px" height="718px" viewBox="-482 180 2136 718" enable-background="new -482 180 2136 718" xml:space="preserve"><g xmlns="http://www.w3.org/2000/svg"><polygon points="0,1440 0,0 2560,0 2560,1440" fill="rgb(255,255,255)" stroke-width="1" stroke-linecap="butt" stroke-linejoin="miter"/><path d="M526,720c-15.20142,15.58223 -30.40285,31.16447 0,0c30.40285,-31.16447 106.40997,-109.07564 122,-149c15.59003,-39.92436 -29.23702,-41.8619 0,0c29.23702,41.8619 132.53812,127.52326 176,149c43.46188,21.47674 27.08454,-21.23114 0,0c-27.08454,21.23114 -64.87628,106.40128 -74,149c-9.12372,42.59872 10.42059,42.62601 0,0c-10.42059,-42.62601 -50.80607,-127.90531 -75,-149c-24.19393,-21.09469 -32.19631,21.99524 0,0c32.19631,-21.99524 104.59131,-109.07564 122,-149c17.40869,-39.92436 -20.16895,-32.69267 0,0c20.16895,32.69267 98.08447,90.84634 176,149c77.91553,58.15366 38.95776,29.07683 0,0" fill-opacity="0" fill="rgb(0,0,0)" stroke="rgb(0,0,0)" stroke-width="25" stroke-linecap="round" stroke-linejoin="round"/></g></svg>