<?xml version="1.0" encoding="utf-8"?><svg version="1.1" id="Calque_1" xmlns="http://www.w3.org/2000/svg" xmlns:xlink="http://www.w3.org/1999/xlink" x="0px" y="0px" width="2136px" height="718px" viewBox="-482 180 2136 718" enable-background="new -482 180 2136 718" xml:space="preserve"><g xmlns="http://www.w3.org/2000/svg"><polygon points="0,1440 0,0 2560,0 2560,1440" fill="rgb(255,255,255)" stroke-width="1" stroke-linecap="butt" stroke-linejoin="miter"/><path d="M1840,571c-362.8106,5.38619 -725.62119,10.77239 -894,0c-168.37881,-10.77239 -142.32582,-37.70336 -149,0c-6.67418,37.70336 -46.07553,140.04104 -122,149c-75.92447,8.95896 -188.37207,-75.4608 0,0c188.37207,75.4608 677.5638,310.80217 596.5,298c-81.0638,-12.80217 -732.38312,-273.74788 -745.5,-298c-13.11688,-24.25212 611.96868,188.18935 820,149c208.03132,-39.18935 -0.99161,-330.00952 -102,-298c-101.00839,32.00952 -94.00226,386.84872 27.5,447c121.50226,60.15128 357.50065,-174.38535 297.5,-298c-60.00065,-123.61465 -416.00032,-136.30733 -772,-149c-355.99968,-12.69267 45.50016,-6.34634 447,0" fill-opacity="0" fill="rgb(0,0,0)" stroke="rgb(0,0,0)" stroke-width="25" stroke-linecap="round" stroke-linejoin="round"/></g></svg>