<?xml version="1.0" encoding="utf-8"?><svg version="1.1" id="Calque_1" xmlns="http://www.w3.org/2000/svg" xmlns:xlink="http://www.w3.org/1999/xlink" x="0px" y="0px" width="2136px" height="718px" viewBox="-482 180 2136 718" enable-background="new -482 180 2136 718" xml:space="preserve"><g xmlns="http://www.w3.org/2000/svg"><polygon points="0,1440 0,0 2560,0 2560,1440" fill="rgb(255,255,255)" stroke-width="1" stroke-linecap="butt" stroke-linejoin="miter"/><path d="M1420,720c125.05048,-99.68798 250.10097,-199.37596 271,-149c20.89903,50.37596 -62.35338,250.81586 -345,298c-282.64662,47.18414 -764.68743,-58.88747 -820,-149c-55.31257,-90.11253 316.1031,-164.26597 569,-149c252.8969,15.26597 387.27503,119.95134 176,149c-211.27503,29.04866 -768.2032,-17.53939 -745,0c23.2032,17.53939 626.53779,99.20621 820,149c193.46221,49.79379 -22.94795,67.71455 -149,0c-126.05205,-67.71455 -161.74599,-221.06439 -251,-298c-89.25401,-76.93561 -232.06808,-77.45697 -149,0c83.06808,77.45697 392.01833,232.89226 549,298c156.98167,65.10774 161.99476,39.88793 0,0c-161.99476,-39.88793 -490.99738,-94.44396 -820,-149c-329.00262,-54.55604 245.49869,47.22198 820,149" fill-opacity="0" fill="rgb(0,0,0)" stroke="rgb(0,0,0)" stroke-width="25" stroke-linecap="round" stroke-linejoin="round"/></g></svg>