<?xml version="1.0" encoding="utf-8"?><svg version="1.1" id="Calque_1" xmlns="http://www.w3.org/2000/svg" xmlns:xlink="http://www.w3.org/1999/xlink" x="0px" y="0px" width="2136px" height="718px" viewBox="-482 180 2136 718" enable-background="new -482 180 2136 718" xml:space="preserve"><g xmlns="http://www.w3.org/2000/svg"><polygon points="0,1440 0,0 2560,0 2560,1440" fill="rgb(255,255,255)" stroke-width="1" stroke-linecap="butt" stroke-linejoin="miter"/><path d="M824,720c-23.18492,-63.75265 -46.36984,-127.5053 -27,-149c19.36984,-21.4947 81.29445,-0.73145 149,0c67.70555,0.73145 141.19203,-18.56892 149,0c7.80797,18.56892 -50.06258,75.00711 -122,149c-71.93742,73.99289 -157.9417,165.54049 -223,149c-65.0583,-16.54049 -109.17061,-141.16907 -75,-149c34.17061,-7.83093 146.62413,101.13577 224,149c77.37587,47.86423 119.67411,34.62597 149,0c29.32589,-34.62597 45.67945,-90.63965 74,-149c28.32055,-58.36035 68.60808,-119.06738 122,-149c53.39192,-29.93262 119.88824,-29.09083 149,0c29.11176,29.09083 20.83898,86.4307 27,149c6.16102,62.5693 26.75585,130.36802 -74,149c-100.75585,18.63198 -322.86239,-11.90277 -298,0c24.86239,11.90277 296.69372,66.24305 447,0c150.30628,-66.24305 179.08751,-253.06944 196,-298c16.91249,-44.93056 21.95625,52.03472 27,149c5.04375,96.96528 40.02188,122.98264 75,149" fill-opacity="0" fill="rgb(0,0,0)" stroke="rgb(0,0,0)" stroke-width="25" stroke-linecap="round" stroke-linejoin="round"/></g></svg>