<?xml version="1.0" encoding="utf-8"?><svg version="1.1" id="Calque_1" xmlns="http://www.w3.org/2000/svg" xmlns:xlink="http://www.w3.org/1999/xlink" x="0px" y="0px" width="2136px" height="718px" viewBox="-482 180 2136 718" enable-background="new -482 180 2136 718" xml:space="preserve"><g xmlns="http://www.w3.org/2000/svg"><polygon points="0,1440 0,0 2560,0 2560,1440" fill="rgb(255,255,255)" stroke-width="1" stroke-linecap="butt" stroke-linejoin="miter"/><path d="M2189,869c-705.6648,-45.74417 -1411.32959,-91.48834 -1514,-149c-102.67041,-57.51166 397.65357,-126.79081 420,-149c22.34643,-22.20919 -433.28467,2.65157 -298,0c135.28467,-2.65157 861.48512,-32.81548 1043,0c181.51488,32.81548 -181.65581,128.61033 -569,149c-387.34419,20.38967 -798.8619,-34.62586 -745,0c53.8619,34.62586 573.1034,158.8931 820,149c246.8966,-9.8931 221.4483,-153.94655 196,-298c-25.4483,-144.05345 -385.22415,-72.02672 -745,0" fill-opacity="0" fill="rgb(0,0,0)" stroke="rgb(0,0,0)" stroke-width="25" stroke-linecap="round" stroke-linejoin="round"/></g></svg>