<?xml version="1.0" encoding="utf-8"?><svg version="1.1" id="Calque_1" xmlns="http://www.w3.org/2000/svg" xmlns:xlink="http://www.w3.org/1999/xlink" x="0px" y="0px" width="2136px" height="718px" viewBox="-482 180 2136 718" enable-background="new -482 180 2136 718" xml:space="preserve"><g xmlns="http://www.w3.org/2000/svg"><polygon points="0,1440 0,0 2560,0 2560,1440" fill="rgb(255,255,255)" stroke-width="1" stroke-linecap="butt" stroke-linejoin="miter"/><path d="M722,422c-34.79357,4.84601 -69.58713,9.69202 0,0c69.58713,-9.69202 243.55496,-33.92206 298,0c54.44504,33.92206 -10.63272,125.99623 -74,149c-63.36728,23.00377 -125.02407,-23.06287 -149,0c-23.97593,23.06287 -10.27099,115.25525 27,149c37.27099,33.74475 98.10804,9.04187 149,0c50.89196,-9.04187 91.83884,-2.42275 149,0c57.16116,2.42275 130.53662,0.64912 149,0c18.46338,-0.64912 -17.9853,-0.17372 0,0c17.9853,0.17372 90.40459,0.04577 149,0c58.59541,-0.04577 103.36696,-0.00937 149,0c45.63304,0.00937 92.12757,-0.00831 149,0c56.87243,0.00831 124.12274,0.04259 149,0c24.87726,-0.04259 7.38145,-0.16205 0,0c-7.38145,0.16205 -4.64855,0.60563 0,0c4.64855,-0.60563 11.21276,-2.26045 0,0c-11.21276,2.26045 -40.2025,8.43618 0,0c40.2025,-8.43618 149.59725,-31.48429 149,0c-0.59725,31.48429 -111.18651,117.50096 -223,149c-111.81349,31.49904 -224.85122,8.48046 -298,0c-73.14878,-8.48046 -106.4086,-2.42278 -149,0c-42.5914,2.42278 -94.51438,1.21067 -149,0c-54.48562,-1.21067 -111.5339,-2.41988 -149,0c-37.4661,2.41988 -55.35003,8.46886 -149,0c-93.64997,-8.46886 -263.06597,-31.45557 -149,0c114.06597,31.45557 511.61392,117.35342 521.5,149c9.88608,31.64658 -367.88969,9.04188 -559,0c-191.11031,-9.04188 -195.55515,-4.52094 -200,0c-4.44485,4.52094 -2.22242,2.26047 0,0" fill-opacity="0" fill="rgb(0,0,0)" stroke="rgb(0,0,0)" stroke-width="25" stroke-linecap="round" stroke-linejoin="round"/></g></svg>