<?xml version="1.0" encoding="utf-8"?><svg version="1.1" id="Calque_1" xmlns="http://www.w3.org/2000/svg" xmlns:xlink="http://www.w3.org/1999/xlink" x="0px" y="0px" width="2136px" height="718px" viewBox="-482 180 2136 718" enable-background="new -482 180 2136 718" xml:space="preserve"><g xmlns="http://www.w3.org/2000/svg"><polygon points="0,1440 0,0 2560,0 2560,1440" fill="rgb(255,255,255)" stroke-width="1" stroke-linecap="butt" stroke-linejoin="miter"/><path d="M362.5,869c722.40464,-127.12338 1444.80928,-254.24675 1477.5,-298c32.69072,-43.75325 -624.33246,-4.13637 -894,0c-269.66754,4.13637 -151.97942,-27.20776 -149,0c2.97942,27.20776 -108.74986,112.96741 -122,149c-13.25014,36.03259 71.97887,22.33812 0,0c-71.97887,-22.33812 -301.16561,-53.31988 -149,0c152.16561,53.31988 685.68357,190.94141 820,149c134.31643,-41.94141 -130.56865,-263.44576 -102,-298c28.56865,-34.55424 350.59104,117.84165 325,149c-25.59104,31.15835 -398.79552,-58.92082 -772,-149c-373.20448,-90.07918 36.89776,-45.03959 447,0" fill-opacity="0" fill="rgb(0,0,0)" stroke="rgb(0,0,0)" stroke-width="25" stroke-linecap="round" stroke-linejoin="round"/></g></svg>