<?xml version="1.0" encoding="utf-8"?><svg version="1.1" id="Calque_1" xmlns="http://www.w3.org/2000/svg" xmlns:xlink="http://www.w3.org/1999/xlink" x="0px" y="0px" width="2136px" height="718px" viewBox="-482 180 2136 718" enable-background="new -482 180 2136 718" xml:space="preserve"><g xmlns="http://www.w3.org/2000/svg"><polygon points="0,1440 0,0 2560,0 2560,1440" fill="rgb(255,255,255)" stroke-width="1" stroke-linecap="butt" stroke-linejoin="miter"/><path d="M1542,571c-161.33236,214.74816 -322.66473,429.49631 -270.5,447c52.16473,17.50369 317.82654,-162.23709 446.5,-298c128.67346,-135.76291 120.35856,-227.54793 -27,-149c-147.35856,78.54793 -433.76077,327.42883 -643,298c-209.23923,-29.42883 -341.31548,-337.16739 -251,-298c90.31548,39.16739 403.02271,425.24074 474.5,447c71.47729,21.75926 -98.27534,-320.79559 -27.5,-447c70.77534,-126.20441 382.07867,-36.0584 447,0c64.92133,36.0584 -116.53933,18.0292 -298,0c-181.46067,-18.0292 -151.48033,214.4854 -121.5,447" fill-opacity="0" fill="rgb(0,0,0)" stroke="rgb(0,0,0)" stroke-width="25" stroke-linecap="round" stroke-linejoin="round"/></g></svg>