<?xml version="1.0" encoding="utf-8"?><svg version="1.1" id="Calque_1" xmlns="http://www.w3.org/2000/svg" xmlns:xlink="http://www.w3.org/1999/xlink" x="0px" y="0px" width="2136px" height="718px" viewBox="-482 180 2136 718" enable-background="new -482 180 2136 718" xml:space="preserve"><g xmlns="http://www.w3.org/2000/svg"><polygon points="0,1440 0,0 2560,0 2560,1440" fill="rgb(255,255,255)" stroke-width="1" stroke-linecap="butt" stroke-linejoin="miter"/><path d="M1271,720c-81.62312,-99.85555 -163.24623,-199.7111 -176,-149c-12.75377,50.7111 43.36181,251.98885 102,298c58.63819,46.01115 119.799,-63.24429 74,-149c-45.799,-85.75571 -198.5578,-148.0117 -176,-149c22.5578,-0.9883 220.43222,59.29107 325,149c104.56778,89.70893 115.82894,208.84742 75,149c-40.82894,-59.84742 -133.74796,-298.68075 -102,-298c31.74796,0.68075 188.16291,240.87559 251,298c62.83709,57.12441 32.09631,-68.8216 -75,-149c-107.09631,-80.1784 -290.54816,-114.5892 -474,-149c-183.45184,-34.4108 57.27408,-17.2054 298,0" fill-opacity="0" fill="rgb(0,0,0)" stroke="rgb(0,0,0)" stroke-width="25" stroke-linecap="round" stroke-linejoin="round"/></g></svg>