<?xml version="1.0" encoding="utf-8"?><svg version="1.1" id="Calque_1" xmlns="http://www.w3.org/2000/svg" xmlns:xlink="http://www.w3.org/1999/xlink" x="0px" y="0px" width="2136px" height="718px" viewBox="-482 180 2136 718" enable-background="new -482 180 2136 718" xml:space="preserve"><g xmlns="http://www.w3.org/2000/svg"><polygon points="0,1440 0,0 2560,0 2560,1440" fill="rgb(255,255,255)" stroke-width="1" stroke-linecap="butt" stroke-linejoin="miter"/><path d="M1691,571c-74.09725,177.33983 -148.1945,354.67966 -345,298c-196.8055,-56.67966 -516.31925,-347.3788 -549,-298c-32.68075,49.3788 221.4715,438.83553 474.5,447c253.0285,8.16447 504.93325,-364.96333 568.5,-447c63.56675,-82.03667 -61.20449,127.0178 -122,149c-60.79551,21.9822 -57.61529,-143.10786 -325,-149c-267.38471,-5.89214 -805.33434,147.41366 -718,149c87.33434,1.58634 799.95267,-148.54676 1016,-149c216.04733,-0.45324 -64.47633,148.77338 -345,298c-280.52367,149.22662 -414.76183,-74.38669 -549,-298" fill-opacity="0" fill="rgb(0,0,0)" stroke="rgb(0,0,0)" stroke-width="25" stroke-linecap="round" stroke-linejoin="round"/></g></svg>