<?xml version="1.0" encoding="utf-8"?><svg version="1.1" id="Calque_1" xmlns="http://www.w3.org/2000/svg" xmlns:xlink="http://www.w3.org/1999/xlink" x="0px" y="0px" width="2136px" height="718px" viewBox="-482 180 2136 718" enable-background="new -482 180 2136 718" xml:space="preserve"><g xmlns="http://www.w3.org/2000/svg"><polygon points="0,1440 0,0 2560,0 2560,1440" fill="rgb(255,255,255)" stroke-width="1" stroke-linecap="butt" stroke-linejoin="miter"/><path d="M1542,571c-161.27212,214.72749 -322.54423,429.45497 -270.5,447c52.04423,17.54503 317.40481,-162.0924 446.5,-298c129.09519,-135.9076 121.92501,-228.08536 -27,-149c-148.92501,79.08536 -439.60484,329.43383 -643,298c-203.39516,-31.43383 -319.50564,-344.64996 -251,-298c68.50564,46.64996 321.62739,453.16601 474.5,447c152.87261,-6.16601 205.49606,-425.01408 46.5,-596c-158.99606,-170.98592 -529.61163,-94.10969 -745,0c-215.38837,94.10969 -275.54952,205.45283 -47,298c228.54952,92.54717 745.80972,166.29835 820,149c74.19028,-17.29835 -294.68934,-125.64624 -522,-149c-227.31066,-23.35376 -313.05234,38.28662 -149,0c164.05234,-38.28662 577.89871,-176.50024 718,-149c140.10129,27.50024 6.45751,220.71436 -47,298c-53.45751,77.28564 -26.72876,38.64282 0,0c26.72876,-38.64282 -37.63562,-168.32141 -102,-298" fill-opacity="0" fill="rgb(0,0,0)" stroke="rgb(0,0,0)" stroke-width="25" stroke-linecap="round" stroke-linejoin="round"/></g></svg>