<?xml version="1.0" encoding="utf-8"?><svg version="1.1" id="Calque_1" xmlns="http://www.w3.org/2000/svg" xmlns:xlink="http://www.w3.org/1999/xlink" x="0px" y="0px" width="2136px" height="718px" viewBox="-482 180 2136 718" enable-background="new -482 180 2136 718" xml:space="preserve"><g xmlns="http://www.w3.org/2000/svg"><polygon points="0,1440 0,0 2560,0 2560,1440" fill="rgb(255,255,255)" stroke-width="1" stroke-linecap="butt" stroke-linejoin="miter"/><path d="M1495,869c110.04177,-164.57312 220.08353,-329.14624 47,-298c-173.08353,31.14624 -629.29237,258.01185 -643,298c-13.70763,39.98815 415.08594,-106.90116 372,-149c-43.08594,-42.09884 -558.05139,20.59279 -745,0c-186.94861,-20.59279 -45.88037,-124.47 271,-149c316.88037,-24.53 809.57288,30.28723 921,149c111.42712,118.71277 -158.41114,301.32109 -446.5,298c-288.08886,-3.32109 -594.42833,-192.5716 -596.5,-298c-2.07167,-105.4284 300.12444,-127.03468 420,-149c119.87556,-21.96532 57.43056,-44.28967 -149,0c-206.43056,44.28967 -556.84669,155.19337 -420,149c136.84669,-6.19337 760.9562,-129.48382 867,-149c106.0438,-19.51618 -305.9781,64.74191 -718,149c-412.0219,84.25809 -206.01095,42.12904 0,0" fill-opacity="0" fill="rgb(0,0,0)" stroke="rgb(0,0,0)" stroke-width="25" stroke-linecap="round" stroke-linejoin="round"/></g></svg>