<?xml version="1.0" encoding="utf-8"?><svg version="1.1" id="Calque_1" xmlns="http://www.w3.org/2000/svg" xmlns:xlink="http://www.w3.org/1999/xlink" x="0px" y="0px" width="2136px" height="718px" viewBox="-482 180 2136 718" enable-background="new -482 180 2136 718" xml:space="preserve"><g xmlns="http://www.w3.org/2000/svg"><polygon points="0,1440 0,0 2560,0 2560,1440" fill="rgb(255,255,255)" stroke-width="1" stroke-linecap="butt" stroke-linejoin="miter"/><path d="M1095,571c-47.05295,-14.36212 -94.1059,-28.72423 0,0c94.1059,28.72423 329.37065,100.53481 176,149c-153.37065,48.46519 -695.37669,73.585 -745,0c-49.62331,-73.585 393.1361,-245.87482 569,-149c175.8639,96.87482 84.8323,462.91428 176.5,447c91.6677,-15.91428 366.0347,-413.78229 419.5,-447c53.4653,-33.21771 -113.97112,298.21489 -345,298c-231.02888,-0.21489 -525.65024,-332.07726 -549,-298c-23.34976,34.07726 224.57206,434.09415 474.5,447c249.92794,12.90585 501.86199,-361.29932 568.5,-447c66.63801,-85.70068 -52.02001,117.10315 -122,149c-69.97999,31.89685 -91.28193,-107.11327 -325,-149c-233.71807,-41.88673 -679.85227,13.34995 -718,149c-38.14773,135.65005 331.69099,351.71348 596.5,298c264.80901,-53.71348 424.58829,-377.20385 419.5,-447c-5.08829,-69.79615 -175.04414,114.10193 -345,298c-169.95586,183.89807 -359.47793,-57.05096 -549,-298" fill-opacity="0" fill="rgb(0,0,0)" stroke="rgb(0,0,0)" stroke-width="25" stroke-linecap="round" stroke-linejoin="round"/></g></svg>