<?xml version="1.0" encoding="utf-8"?><svg version="1.1" id="Calque_1" xmlns="http://www.w3.org/2000/svg" xmlns:xlink="http://www.w3.org/1999/xlink" x="0px" y="0px" width="2136px" height="718px" viewBox="-482 180 2136 718" enable-background="new -482 180 2136 718" xml:space="preserve"><g xmlns="http://www.w3.org/2000/svg"><polygon points="0,1440 0,0 2560,0 2560,1440" fill="rgb(255,255,255)" stroke-width="1" stroke-linecap="butt" stroke-linejoin="miter"/><path d="M1271.5,1018c162.96797,46.01393 325.93595,92.02786 0,0c-325.93595,-92.02786 -1140.77582,-322.0975 -960,-447c180.77582,-124.9025 1357.16734,-144.63787 1528.5,0c171.33266,144.63787 -662.39355,453.64899 -1127.5,447c-465.10645,-6.64899 -561.59314,-328.9581 -213.5,-447c348.09314,-118.0419 1140.7661,-31.81658 1192,0c51.2339,31.81658 -638.97127,9.22443 -894,0c-255.02873,-9.22443 -74.88103,-5.08114 0,0c74.88103,5.08114 44.4954,11.10012 0,0c-44.4954,-11.10012 -103.10058,-39.31933 0,0c103.10058,39.31933 367.9069,146.17722 474,149c106.0931,2.82278 53.47297,-98.38955 122,-149c68.52703,-50.61045 258.2012,-50.61901 149,0c-109.2012,50.61901 -517.27778,151.86561 -420,149c97.27778,-2.86561 699.90992,-109.84341 569,-149c-130.90992,-39.15659 -995.3619,-10.49198 -1192,0c-196.6381,10.49198 274.53769,2.81132 447,0c172.46231,-2.81132 46.21114,-0.75329 0,0c-46.21114,0.75329 -12.38224,0.20184 0,0c12.38224,-0.20184 3.31781,-0.05408 0,0c-3.31781,0.05408 -0.889,0.01449 0,0c0.889,-0.01449 0.23821,-0.00388 0,0c-0.23821,0.00388 -0.06383,0.00104 0,0c0.06383,-0.00104 0.0171,-0.00028 0,0c-0.0171,0.00028 -0.00458,0.00007 0,0c0.00458,-0.00007 0.00123,-0.00002 0,0c-0.00123,0.00002 -0.00033,0.00001 0,0c0.00033,-0.00001 0.00009,0 0,0c-0.00009,0 -0.00002,0 0,0c0.00002,0 0.00001,0 0,0c-0.00001,0 0,0 0,0c0,0 0,0 0,0c0,0 0,0 0,0c0,0 0,0 0,0c0,0 0,0 0,0c0,0 -0.00001,0 0,0c0.00001,0 0.00005,0 0,0c-0.00005,0 -0.0002,0 0,0c0.0002,0 0.00076,0.00002 0,0c-0.00076,-0.00002 -0.00285,-0.00006 0,0c0.00285,0.00006 0.01064,0.00021 0,0c-0.01064,-0.00021 -0.03971,-0.00078 0,0c0.03971,0.00078 0.1482,0.00291 0,0c-0.1482,-0.00291 -0.55311,-0.01088 0,0c0.55311,0.01088 2.06423,0.04059 0,0c-2.06423,-0.04059 -7.70381,-0.15149 0,0c7.70381,0.15149 28.75099,0.56538 0,0c-28.75099,-0.56538 -107.30017,-2.11002 0,0c107.30017,2.11002 400.44969,7.8747 596,0c195.55031,-7.8747 293.50141,-29.38879 149,0c-144.50141,29.38879 -531.45535,109.68047 -569,149c-37.54465,39.31953 274.31998,37.66692 149,0c-125.31998,-37.66692 -687.82457,-111.34816 -772,-149c-84.17543,-37.65184 309.9783,-39.27429 447,0c137.0217,39.27429 16.91138,119.44533 176,149c159.08862,29.55467 597.3762,8.49299 596,0c-1.3762,-8.49299 -442.41616,-4.41728 -745,0c-302.58384,4.41728 -466.71155,9.17613 -298,0c168.71155,-9.17613 670.26235,-32.28724 745,0c74.73765,32.28724 -277.33785,119.97284 -372,149c-94.66215,29.02716 68.08905,-0.60412 149,0c80.91095,0.60412 79.98166,31.44365 149,0c69.01834,-31.44365 207.9843,-125.17046 223,-149c15.0157,-23.82954 -93.91885,22.2382 -298,0c-204.08115,-22.2382 -503.3089,-112.78234 -474,-149c29.3089,-36.21766 387.15445,-18.10883 745,0c357.84555,18.10883 -44.57723,9.05441 -447,0" fill-opacity="0" fill="rgb(0,0,0)" stroke="rgb(0,0,0)" stroke-width="25" stroke-linecap="round" stroke-linejoin="round"/></g></svg>