<?xml version="1.0" encoding="utf-8"?><svg version="1.1" id="Calque_1" xmlns="http://www.w3.org/2000/svg" xmlns:xlink="http://www.w3.org/1999/xlink" x="0px" y="0px" width="2136px" height="718px" viewBox="-482 180 2136 718" enable-background="new -482 180 2136 718" xml:space="preserve"><g xmlns="http://www.w3.org/2000/svg"><polygon points="0,1440 0,0 2560,0 2560,1440" fill="rgb(255,255,255)" stroke-width="1" stroke-linecap="butt" stroke-linejoin="miter"/><path d="M1495,869c110.01125,-164.56445 220.02249,-329.1289 47,-298c-173.02249,31.1289 -629.07873,257.95115 -643,298c-13.92127,40.04885 414.29242,-106.67568 372,-149c-42.29242,-42.32432 -555.09093,19.75159 -745,0c-189.90907,-19.75159 -56.92868,-121.33066 271,-149c327.92868,-27.66934 850.80564,18.57107 921,149c70.19436,130.42893 -312.29389,345.04638 -446.5,298c-134.20611,-47.04638 -20.13008,-355.7566 -176.5,-447c-156.36992,-91.2434 -583.18579,34.98 -569,149c14.18579,114.02 469.37325,215.8366 522,149c52.62675,-66.8366 -297.3072,-302.32638 -251,-298c46.3072,4.32638 488.85554,248.46893 549,298c60.14446,49.53107 -262.11495,-95.54933 -522,-149c-259.88505,-53.45067 -457.39573,-15.27162 -298,0c159.39573,15.27162 675.69786,7.63581 1192,0c516.30214,-7.63581 -202.34893,-78.31791 -921,-149" fill-opacity="0" fill="rgb(0,0,0)" stroke="rgb(0,0,0)" stroke-width="25" stroke-linecap="round" stroke-linejoin="round"/></g></svg>