<?xml version="1.0" encoding="utf-8"?><svg version="1.1" id="Calque_1" xmlns="http://www.w3.org/2000/svg" xmlns:xlink="http://www.w3.org/1999/xlink" x="0px" y="0px" width="2136px" height="718px" viewBox="-482 180 2136 718" enable-background="new -482 180 2136 718" xml:space="preserve"><g xmlns="http://www.w3.org/2000/svg"><polygon points="0,1440 0,0 2560,0 2560,1440" fill="rgb(255,255,255)" stroke-width="1" stroke-linecap="butt" stroke-linejoin="miter"/><path d="M526,720c0.00268,0.00054 0.00537,0.00108 0,0c-0.00537,-0.00108 -0.01878,-0.00379 0,0c0.01878,0.00379 0.06975,0.01409 0,0c-0.06975,-0.01409 -0.26024,-0.05258 0,0c0.26024,0.05258 0.9712,0.19621 0,0c-0.9712,-0.19621 -3.62457,-0.73226 0,0c3.62457,0.73226 13.52709,2.73285 0,0c-13.52709,-2.73285 -50.48378,-10.19913 149,0c199.48378,10.19913 635.40802,38.06369 596,0c-39.40802,-38.06369 -554.14831,-142.05561 -474,-149c80.14831,-6.94439 755.18523,83.15875 921,149c165.81477,65.84125 -177.59262,107.42063 -521,149c-343.40738,41.57937 -148.20369,-128.21031 47,-298" fill-opacity="0" fill="rgb(0,0,0)" stroke="rgb(0,0,0)" stroke-width="25" stroke-linecap="round" stroke-linejoin="round"/></g></svg>