<?xml version="1.0" encoding="utf-8"?><svg version="1.1" id="Calque_1" xmlns="http://www.w3.org/2000/svg" xmlns:xlink="http://www.w3.org/1999/xlink" x="0px" y="0px" width="2136px" height="718px" viewBox="-482 180 2136 718" enable-background="new -482 180 2136 718" xml:space="preserve"><g xmlns="http://www.w3.org/2000/svg"><polygon points="0,1440 0,0 2560,0 2560,1440" fill="rgb(255,255,255)" stroke-width="1" stroke-linecap="butt" stroke-linejoin="miter"/><path d="M1569,720c146.89436,-4.5298 293.78873,-9.0596 149,0c-144.78873,9.0596 -581.26055,31.70859 -596,0c-14.73945,-31.70859 392.25346,-117.77477 569,-149c176.74654,-31.22523 123.24672,-7.60952 -149,0c-272.24672,7.60952 -763.24035,-0.78717 -745,0c18.24035,0.78717 545.71466,10.75819 596,0c50.28534,-10.75819 -376.61831,-42.2456 -447,0c-70.38169,42.2456 215.75857,158.22421 176,149c-39.75857,-9.22421 -405.41597,-143.65124 -325,-149c80.41597,-5.34876 606.90531,118.38074 772,149c165.09469,30.61926 -31.20528,-31.87174 -149,0c-117.79472,31.87174 -157.08421,158.10621 -223,149c-65.91579,-9.10621 -158.4579,-153.55311 -251,-298c-92.5421,-144.44689 4.72895,76.77655 102,298" fill-opacity="0" fill="rgb(0,0,0)" stroke="rgb(0,0,0)" stroke-width="25" stroke-linecap="round" stroke-linejoin="round"/></g></svg>