<?xml version="1.0" encoding="utf-8"?><svg version="1.1" id="Calque_1" xmlns="http://www.w3.org/2000/svg" xmlns:xlink="http://www.w3.org/1999/xlink" x="0px" y="0px" width="2136px" height="718px" viewBox="-482 180 2136 718" enable-background="new -482 180 2136 718" xml:space="preserve"><g xmlns="http://www.w3.org/2000/svg"><polygon points="0,1440 0,0 2560,0 2560,1440" fill="rgb(255,255,255)" stroke-width="1" stroke-linecap="butt" stroke-linejoin="miter"/><path d="M973,720c122.81965,1.24551 245.6393,2.49101 298,0c52.3607,-2.49101 34.26245,-8.71854 0,0c-34.26245,8.71854 -84.68911,32.38314 0,0c84.68911,-32.38314 304.49399,-120.81404 420,-149c115.50601,-28.18596 126.71316,3.87301 0,0c-126.71316,-3.87301 -391.34662,-43.678 -447,0c-55.65338,43.678 97.67331,170.839 251,298c153.32669,127.161 300.16335,63.5805 447,0" fill-opacity="0" fill="rgb(0,0,0)" stroke="rgb(0,0,0)" stroke-width="25" stroke-linecap="round" stroke-linejoin="round"/></g></svg>