<?xml version="1.0" encoding="utf-8"?><svg version="1.1" id="Calque_1" xmlns="http://www.w3.org/2000/svg" xmlns:xlink="http://www.w3.org/1999/xlink" x="0px" y="0px" width="2136px" height="718px" viewBox="-482 180 2136 718" enable-background="new -482 180 2136 718" xml:space="preserve"><g xmlns="http://www.w3.org/2000/svg"><polygon points="0,1440 0,0 2560,0 2560,1440" fill="rgb(255,255,255)" stroke-width="1" stroke-linecap="butt" stroke-linejoin="miter"/><path d="M1095,571c-95.35195,14.21367 -190.7039,28.42733 -149,0c41.7039,-28.42733 220.46366,-99.49566 298,0c77.53634,99.49566 53.84927,369.55529 27.5,447c-26.34927,77.44471 -55.36073,-37.72551 74.5,-149c129.86073,-111.27449 418.59365,-218.65324 345,-298c-73.59365,-79.34676 -509.51389,-130.66154 -596,0c-86.48611,130.66154 176.4619,443.29939 176.5,447c0.0381,3.70061 -262.83371,-301.53602 -176.5,-447c86.33371,-145.46398 521.87295,-131.15529 596,0c74.12705,131.15529 -213.1581,379.15719 -419.5,447c-206.3419,67.84281 -331.74054,-44.47348 -372.5,-149c-40.75946,-104.52652 3.12027,-201.26326 47,-298c43.87973,-96.73674 170.93986,-48.36837 298,0" fill-opacity="0" fill="rgb(0,0,0)" stroke="rgb(0,0,0)" stroke-width="25" stroke-linecap="round" stroke-linejoin="round"/></g></svg>