<?xml version="1.0" encoding="utf-8"?><svg version="1.1" id="Calque_1" xmlns="http://www.w3.org/2000/svg" xmlns:xlink="http://www.w3.org/1999/xlink" x="0px" y="0px" width="2136px" height="718px" viewBox="-482 180 2136 718" enable-background="new -482 180 2136 718" xml:space="preserve"><g xmlns="http://www.w3.org/2000/svg"><polygon points="0,1440 0,0 2560,0 2560,1440" fill="rgb(255,255,255)" stroke-width="1" stroke-linecap="butt" stroke-linejoin="miter"/><path d="M899,869c367.80684,-114.08769 735.61368,-228.17537 792,-298c56.38632,-69.82463 -198.64789,-95.38619 -298,0c-99.35211,95.38619 -43.02211,311.72015 -47,298c-3.97789,-13.72015 -68.26366,-257.49439 -251,-298c-182.73634,-40.50561 -483.92326,122.25741 -271,149c212.92326,26.74259 939.95669,-82.53525 867,-149c-72.95669,-66.46475 -945.9035,-90.11641 -1043,0c-97.0965,90.11641 581.65731,294.00089 698,298c116.34269,3.99911 -329.72574,-191.88715 -251,-298c78.72574,-106.11285 682.24564,-122.4523 819,-149c136.75436,-26.5477 -193.25683,-63.30364 -447,0c-253.74317,63.30364 -431.21831,226.66686 -643,298c-211.78169,71.33314 -457.86992,50.63621 -298,0c159.86992,-50.63621 725.698,-131.21171 718,-149c-7.698,-17.78829 -588.92208,27.21061 -569,149c19.92208,121.78939 640.9903,320.36926 596.5,298c-44.4903,-22.36926 -754.53913,-265.68764 -745.5,-298c9.03913,-32.31236 737.16623,146.38131 820,149c82.83377,2.61869 -479.62578,-170.83761 -522,-149c-42.37422,21.83761 435.33689,238.96913 447.5,298c12.16311,59.03087 -441.22177,-40.03892 -372.5,-149c68.72177,-108.96108 659.5502,-227.81345 792,-298c132.4498,-70.18655 -193.47903,-91.70728 -298,0c-104.52097,91.70728 12.36593,296.64256 -47,298c-59.36593,1.35744 -294.98468,-200.86295 -251,-298c43.98468,-97.13705 367.5728,-89.19074 447,0c79.4272,89.19074 -85.30651,259.62593 -196,298c-110.69349,38.37407 -167.34674,-55.31296 -224,-149c-56.65326,-93.68704 505.17337,27.65648 1067,149" fill-opacity="0" fill="rgb(0,0,0)" stroke="rgb(0,0,0)" stroke-width="25" stroke-linecap="round" stroke-linejoin="round"/></g></svg>