<?xml version="1.0" encoding="utf-8"?><svg version="1.1" id="Calque_1" xmlns="http://www.w3.org/2000/svg" xmlns:xlink="http://www.w3.org/1999/xlink" x="0px" y="0px" width="2136px" height="718px" viewBox="-482 180 2136 718" enable-background="new -482 180 2136 718" xml:space="preserve"><g xmlns="http://www.w3.org/2000/svg"><polygon points="0,1440 0,0 2560,0 2560,1440" fill="rgb(255,255,255)" stroke-width="1" stroke-linecap="butt" stroke-linejoin="miter"/><path d="M526,720c37.68461,-62.67391 75.36922,-125.34783 122,-149c46.63078,-23.65217 102.20772,-8.28261 149,0c46.79228,8.28261 84.7999,9.47825 149,0c64.2001,-9.47825 154.59266,-29.63039 149,0c-5.59266,29.63039 -107.17056,109.04333 -122,149c-14.82944,39.95667 57.08957,40.45709 149,0c91.91043,-40.45709 203.81229,-121.87167 271,-149c67.18771,-27.12833 89.66127,0.0296 149,0c59.33873,-0.0296 155.54262,-27.24674 149,0c-6.54262,27.24674 -115.83174,108.95736 -122,149c-6.16826,40.04264 90.78434,38.41729 149,0c58.21566,-38.41729 77.69439,-113.62654 122,-149c44.30561,-35.37346 113.43811,-30.91115 149,0c35.56189,30.91115 37.55317,88.27112 27,149c-10.55317,60.72888 -33.65077,124.82665 -74,149c-40.34923,24.17335 -97.95007,8.42226 -149,0c-51.04993,-8.42226 -95.54896,-9.51571 -149,0c-53.45104,9.51571 -115.8541,29.64058 -149,0c-33.1459,-29.64058 -37.03465,-109.04661 -75,-149c-37.96535,-39.95339 -110.00732,-40.45413 -149,0c-38.99268,40.45413 -44.93607,121.86314 -74,149c-29.06393,27.13686 -81.24839,0.00157 -149,0c-67.75161,-0.00157 -151.07038,27.13059 -149,0c2.07038,-27.13059 89.52991,-108.52394 74,-149c-15.52991,-40.47606 -134.04925,-40.03482 -149,0c-14.95075,40.03482 73.66711,119.66322 75,149c1.33289,29.33678 -84.61917,8.38194 -149,0c-64.38083,-8.38194 -107.19041,-4.19097 -150,0c-42.80959,4.19097 -58.40479,-72.40452 -74,-149" fill-opacity="0" fill="rgb(0,0,0)" stroke="rgb(0,0,0)" stroke-width="25" stroke-linecap="round" stroke-linejoin="round"/></g></svg>