<?xml version="1.0" encoding="utf-8"?><svg version="1.1" id="Calque_1" xmlns="http://www.w3.org/2000/svg" xmlns:xlink="http://www.w3.org/1999/xlink" x="0px" y="0px" width="2136px" height="718px" viewBox="-482 180 2136 718" enable-background="new -482 180 2136 718" xml:space="preserve"><g xmlns="http://www.w3.org/2000/svg"><polygon points="0,1440 0,0 2560,0 2560,1440" fill="rgb(255,255,255)" stroke-width="1" stroke-linecap="butt" stroke-linejoin="miter"/><path d="M600,869c93.37188,-46.92427 186.74376,-93.84854 224,-149c37.25624,-55.15146 18.39683,-118.53011 -27,-149c-45.39683,-30.46989 -117.33108,-28.03102 -149,0c-31.66892,28.03102 -23.07251,81.65418 27,149c50.07251,67.34582 141.62111,148.4143 224,149c82.37889,0.5857 155.58805,-79.31138 223,-149c67.41195,-69.68862 129.02669,-129.16877 122,-149c-7.02669,-19.83123 -82.6948,-0.01353 -149,0c-66.3052,0.01353 -123.24747,-19.77712 -149,0c-25.75253,19.77712 -20.31531,79.12199 27,149c47.31531,69.87801 136.5087,150.28915 224,149c87.4913,-1.28915 173.28052,-84.2786 223,-149c49.71948,-64.7214 63.36924,-111.17475 -27,-149c-90.36924,-37.82525 -284.75747,-67.02241 -298,0c-13.24253,67.02241 154.66063,230.2644 251,298c96.33937,67.7356 121.11496,39.96481 149,0c27.88504,-39.96481 58.87952,-92.12365 74,-149c15.12048,-56.87635 14.36697,-118.4702 -27,-149c-41.36697,-30.5298 -123.3474,-29.99555 -149,0c-25.6526,29.99555 5.02264,89.45239 27,149c21.97736,59.54761 35.25684,119.18597 75,149c39.74316,29.81403 105.95001,29.80373 149,0c43.04999,-29.80373 62.94312,-89.40088 74,-149c11.05688,-59.59912 13.27749,-119.20021 -27,-149c-40.27749,-29.79979 -123.05309,-29.79827 -149,0c-25.94691,29.79827 4.93487,89.3933 27,149c22.06513,59.6067 35.31361,119.22506 75,149c39.68639,29.77494 105.8107,29.70645 149,0c43.1893,-29.70645 63.44359,-89.05084 74,-149c10.55641,-59.94916 11.41494,-120.50307 -27,-149c-38.41494,-28.49693 -116.10334,-24.93688 -149,0c-32.89666,24.93688 -21.00157,71.2506 27,149c48.00157,77.7494 132.10962,186.93449 224,149c91.89038,-37.93449 191.5631,-222.98857 196,-298c4.4369,-75.01143 -86.36201,-39.9802 -149,0c-62.63799,39.9802 -97.11504,84.90937 27,149c124.11504,64.09063 406.82219,147.34273 173,149c-233.82219,1.65727 -984.17371,-78.28029 -1365,-149c-380.82629,-70.71971 -392.12735,-132.22159 -325,-149c67.12735,-16.77841 212.68311,11.16663 298,0c85.31689,-11.16663 110.39492,-61.44493 149,0c38.60508,61.44493 90.73722,234.6131 102,298c11.26278,63.3869 -18.34381,16.99254 0,0c18.34381,-16.99254 84.63801,-4.58327 149,0c64.36199,4.58327 126.79175,1.34054 149,0c22.20825,-1.34054 4.19497,-0.77887 0,0c-4.19497,0.77887 5.42835,1.77495 0,0c-5.42835,-1.77495 -25.90837,-6.32094 0,0c25.90837,6.32094 98.20513,23.5088 149,0c50.79487,-23.5088 80.08783,-87.71428 74,-149c-6.08783,-61.28572 -47.55647,-119.65169 -27,-149c20.55647,-29.34831 103.13806,-29.67897 149,0c45.86194,29.67897 55.00423,89.36756 27,149c-28.00423,59.63244 -93.15499,119.20873 -74,149c19.15499,29.79127 122.61571,29.7975 149,0c26.38429,-29.7975 -24.30786,-89.39875 -75,-149c-50.69214,-59.60125 35.65393,-104.30062 122,-149" fill-opacity="0" fill="rgb(0,0,0)" stroke="rgb(0,0,0)" stroke-width="25" stroke-linecap="round" stroke-linejoin="round"/></g></svg>