<?xml version="1.0" encoding="utf-8"?><svg version="1.1" id="Calque_1" xmlns="http://www.w3.org/2000/svg" xmlns:xlink="http://www.w3.org/1999/xlink" x="0px" y="0px" width="2136px" height="718px" viewBox="-482 180 2136 718" enable-background="new -482 180 2136 718" xml:space="preserve"><g xmlns="http://www.w3.org/2000/svg"><polygon points="0,1440 0,0 2560,0 2560,1440" fill="rgb(255,255,255)" stroke-width="1" stroke-linecap="butt" stroke-linejoin="miter"/><path d="M1691,571c-49.67159,-0.05698 -99.34318,-0.11395 -149,0c-49.65682,0.11395 -99.29889,0.39883 -149,0c-49.70111,-0.39883 -99.46128,-1.48136 -149,0c-49.53872,1.48136 -98.85598,5.52663 -149,0c-50.14402,-5.52663 -101.11478,-20.62515 -149,0c-47.88522,20.62515 -92.6849,76.97395 -122,149c-29.3151,72.02605 -43.14561,159.72933 75,149c118.14561,-10.72933 368.26736,-119.89129 521,-149c152.73264,-29.10871 208.07618,21.83582 149,0c-59.07618,-21.83582 -232.57208,-116.45197 -325,-149c-92.42792,-32.54803 -103.78785,-3.02792 -149,0c-45.21215,3.02792 -124.2765,-20.43635 -149,0c-24.7235,20.43635 4.89385,84.77334 27,149c22.10615,64.22666 36.70109,128.34301 75,149c38.29891,20.65699 100.30179,-2.14538 149,0c48.69821,2.14538 84.09176,29.23853 149,0c64.90824,-29.23853 159.33118,-114.80872 223,-149c63.66882,-34.19128 96.5835,-17.00363 149,0c52.4165,17.00363 124.3348,33.82324 149,0c24.6652,-33.82324 2.07731,-118.28935 -27,-149c-29.07731,-30.71065 -64.64404,-7.66586 -149,0c-84.35596,7.66586 -217.50116,-0.04721 -298,0c-80.49884,0.04721 -108.35132,7.8547 -149,0c-40.64868,-7.8547 -94.09358,-31.37159 -149,0c-54.90642,31.37159 -111.27438,117.63165 -122,149c-10.72562,31.36835 24.1911,7.84499 149,0c124.8089,-7.84499 339.50999,-0.01161 447,0c107.49001,0.01161 107.76894,-7.79856 149,0c41.23106,7.79856 123.41424,31.20583 149,0c25.58576,-31.20583 -5.42592,-117.02477 -27,-149c-21.57408,-31.97523 -33.71058,-10.10676 -149,0c-115.28942,10.10676 -333.73177,8.45182 -447,0c-113.26823,-8.45182 -121.36235,-23.70052 -149,0c-27.63765,23.70052 -74.81882,86.35026 -122,149c-47.18118,62.64974 13.90941,105.82487 75,149" fill-opacity="0" fill="rgb(0,0,0)" stroke="rgb(0,0,0)" stroke-width="25" stroke-linecap="round" stroke-linejoin="round"/></g></svg>