<?xml version="1.0" encoding="utf-8"?><svg version="1.1" id="Calque_1" xmlns="http://www.w3.org/2000/svg" xmlns:xlink="http://www.w3.org/1999/xlink" x="0px" y="0px" width="2136px" height="718px" viewBox="-482 180 2136 718" enable-background="new -482 180 2136 718" xml:space="preserve"><g xmlns="http://www.w3.org/2000/svg"><polygon points="0,1440 0,0 2560,0 2560,1440" fill="rgb(255,255,255)" stroke-width="1" stroke-linecap="butt" stroke-linejoin="miter"/><path d="M797,571c-265.77111,4.26409 -531.54222,8.52818 -298,0c233.54222,-8.52818 966.39777,-29.84864 894,0c-72.39777,29.84864 -950.04885,110.86639 -867,149c83.04885,38.13361 1126.79763,33.38309 1192,0c65.20237,-33.38309 -848.14167,-95.39875 -1043,0c-194.85833,95.39875 328.76905,348.21191 596.5,298c267.73095,-50.21191 279.56545,-403.44889 270.5,-447c-9.06545,-43.55111 -39.03086,222.58364 -196,298c-156.96914,75.41636 -440.94201,-39.88567 -373,-149c67.94201,-109.11433 487.79889,-212.04095 569,-149c81.20111,63.04095 -176.25355,292.04949 -196,298c-19.74645,5.95051 198.2153,-211.157 196,-298c-2.2153,-86.843 -224.60765,-43.4215 -447,0c-222.39235,43.4215 -36.69618,21.71075 149,0" fill-opacity="0" fill="rgb(0,0,0)" stroke="rgb(0,0,0)" stroke-width="25" stroke-linecap="round" stroke-linejoin="round"/></g></svg>