<?xml version="1.0" encoding="utf-8"?><svg version="1.1" id="Calque_1" xmlns="http://www.w3.org/2000/svg" xmlns:xlink="http://www.w3.org/1999/xlink" x="0px" y="0px" width="2136px" height="718px" viewBox="-482 180 2136 718" enable-background="new -482 180 2136 718" xml:space="preserve"><g xmlns="http://www.w3.org/2000/svg"><polygon points="0,1440 0,0 2560,0 2560,1440" fill="rgb(255,255,255)" stroke-width="1" stroke-linecap="butt" stroke-linejoin="miter"/><path d="M797,571c12.29435,-0.88688 24.5887,-1.77376 0,0c-24.5887,1.77376 -86.06044,6.20817 -149,0c-62.93956,-6.20817 -127.34693,-23.05891 -149,0c-21.65307,23.05891 -0.55183,86.02748 27,149c27.55183,62.97252 61.55425,125.94901 74,149c12.44575,23.05099 3.33484,6.17649 0,0c-3.33484,-6.17649 -0.89361,-1.65498 0,0c0.89361,1.65498 0.2396,0.44344 0,0c-0.2396,-0.44344 -0.0648,-0.11878 0,0c0.0648,0.11878 0.0196,0.03167 0,0c-0.0196,-0.03167 -0.01361,-0.00792 0,0c0.01361,0.00792 0.03482,0 0,0c-0.03482,0 -0.12569,0.00792 0,0c0.12569,-0.00792 0.46793,-0.03167 0,0c-0.46793,0.03167 -1.74604,0.11877 0,0c1.74604,-0.11877 6.51622,-0.44342 0,0c-6.51622,0.44342 -24.31882,1.6549 0,0c24.31882,-1.6549 90.75908,-6.17617 150,0c59.24092,6.17617 111.2825,23.04977 149,0c37.7175,-23.04977 61.11093,-86.02291 74,-149c12.88907,-62.97709 15.2738,-125.95815 -27,-149c-42.2738,-23.04185 -129.20611,-6.14451 -149,0c-19.79389,6.14451 27.55066,1.53618 0,0c-27.55066,-1.53618 -129.99653,-0.00022 0,0c129.99653,0.00022 492.43547,-1.53529 596,0c103.56453,1.53529 -51.74535,6.14137 -149,0c-97.25465,-6.14137 -136.45408,-23.03019 -149,0c-12.54592,23.03019 1.56167,85.9794 27,149c25.43833,63.0206 62.20741,126.1126 75,149c12.79259,22.8874 1.60871,5.57019 0,0c-1.60871,-5.57019 6.35777,0.60663 0,0c-6.35777,-0.60663 -27.03979,-7.99672 0,0c27.03979,7.99672 101.80139,31.38025 149,0c47.19861,-31.38025 66.83425,-117.52429 74,-149c7.16575,-31.47571 1.86162,-8.28308 0,0c-1.86162,8.28308 -0.28073,1.65662 0,0c0.28073,-1.65662 -0.73869,1.6566 0,0c0.73869,-1.6566 3.23551,-8.28303 0,0c-3.23551,8.28303 -12.20335,31.47553 0,0c12.20335,-31.47553 45.57789,-117.61909 -27,-149c-72.57789,-31.38091 -251.1082,-7.99916 -149,0c102.1082,7.99916 484.85493,0.61573 596,0c111.14507,-0.61573 -49.3115,5.53624 -149,0c-99.6885,-5.53624 -138.60892,-22.7607 -149,0c-10.39108,22.7607 7.74717,85.50657 27,149c19.25283,63.49343 39.62023,127.73443 75,149c35.37977,21.26557 85.7719,-0.44428 149,0c63.2281,0.44428 139.29218,23.04269 149,0c9.70782,-23.04269 -46.94062,-91.72648 -75,-149c-28.05938,-57.27352 -27.52969,-103.13676 -27,-149c0.52969,-45.86324 -74.23516,-22.93162 -149,0" fill-opacity="0" fill="rgb(0,0,0)" stroke="rgb(0,0,0)" stroke-width="25" stroke-linecap="round" stroke-linejoin="round"/></g></svg>