<?xml version="1.0" encoding="utf-8"?><svg version="1.1" id="Calque_1" xmlns="http://www.w3.org/2000/svg" xmlns:xlink="http://www.w3.org/1999/xlink" x="0px" y="0px" width="2136px" height="718px" viewBox="-482 180 2136 718" enable-background="new -482 180 2136 718" xml:space="preserve"><g xmlns="http://www.w3.org/2000/svg"><polygon points="0,1440 0,0 2560,0 2560,1440" fill="rgb(255,255,255)" stroke-width="1" stroke-linecap="butt" stroke-linejoin="miter"/><path d="M362.5,869c429.21393,-116.23938 858.42787,-232.47877 881.5,-298c23.07213,-65.52123 -359.99753,-80.32431 -447,0c-87.00247,80.32431 122.06225,255.77602 251,298c128.93775,42.22398 177.74851,-48.77976 74,-149c-103.74851,-100.22024 -360.0563,-209.65697 -325,-149c35.0563,60.65697 361.4767,291.40765 549,298c187.5233,6.59235 236.14952,-210.97361 196,-298c-40.14952,-87.02639 -169.07476,-43.51319 -298,0c-128.92524,43.51319 -423.46262,96.2566 -718,149" fill-opacity="0" fill="rgb(0,0,0)" stroke="rgb(0,0,0)" stroke-width="25" stroke-linecap="round" stroke-linejoin="round"/></g></svg>