<?xml version="1.0" encoding="utf-8"?><svg version="1.1" id="Calque_1" xmlns="http://www.w3.org/2000/svg" xmlns:xlink="http://www.w3.org/1999/xlink" x="0px" y="0px" width="2136px" height="718px" viewBox="-482 180 2136 718" enable-background="new -482 180 2136 718" xml:space="preserve"><g xmlns="http://www.w3.org/2000/svg"><polygon points="0,1440 0,0 2560,0 2560,1440" fill="rgb(255,255,255)" stroke-width="1" stroke-linecap="butt" stroke-linejoin="miter"/><path d="M1691,571c-312.33082,4.63164 -624.66164,9.26327 -596,0c28.66164,-9.26327 398.31572,-32.42145 447,0c48.68428,32.42145 -223.60126,120.42253 -271,149c-47.39874,28.57747 130.08931,-2.26866 149,0c18.91069,2.26866 -120.75597,37.6521 -298,0c-177.24403,-37.6521 -392.06541,-148.33974 -325,-149c67.06541,-0.66026 416.01761,108.70685 623,149c206.98239,40.29315 271.99497,11.51233 149,0c-122.99497,-11.51233 -433.99748,-5.75616 -745,0c-311.00252,5.75616 365.99874,2.87808 1043,0" fill-opacity="0" fill="rgb(0,0,0)" stroke="rgb(0,0,0)" stroke-width="25" stroke-linecap="round" stroke-linejoin="round"/></g></svg>