<?xml version="1.0" encoding="utf-8"?><svg version="1.1" id="Calque_1" xmlns="http://www.w3.org/2000/svg" xmlns:xlink="http://www.w3.org/1999/xlink" x="0px" y="0px" width="2136px" height="718px" viewBox="-482 180 2136 718" enable-background="new -482 180 2136 718" xml:space="preserve"><g xmlns="http://www.w3.org/2000/svg"><polygon points="0,1440 0,0 2560,0 2560,1440" fill="rgb(255,255,255)" stroke-width="1" stroke-linecap="butt" stroke-linejoin="miter"/><path d="M499,571c130.50375,172.07369 261.0075,344.14738 400,298c138.9925,-46.14738 286.47375,-310.51581 345,-298c58.52625,12.51581 28.09751,301.91588 102,298c73.90249,-3.91588 252.1362,-301.14771 345,-298c92.8638,3.14771 100.35768,306.67498 102,298c1.64232,-8.67498 -2.56693,-329.55219 -28,-447c-25.43307,-117.44781 -72.08996,-31.4662 -298,0c-225.91004,31.4662 -631.07324,8.41699 -596,0c35.07324,-8.41699 510.38293,-2.20175 447,0c-63.38293,2.20175 -665.45847,0.39003 -894,0c-228.54153,-0.39003 -83.54903,0.64164 149,0c232.54903,-0.64164 552.65461,-2.95658 745,0c192.34539,2.95658 256.93061,11.18467 149,0c-107.93061,-11.18467 -388.37704,-41.78211 -447,0c-58.62296,41.78211 104.57757,155.94378 75,149c-29.57757,-6.94378 -251.93323,-134.99301 -224,-149c27.93323,-14.00699 306.15534,86.02826 224,149c-82.15534,62.97174 -524.68815,88.87997 -569,149c-44.31185,60.12003 309.59724,154.45188 373,149c63.40276,-5.45188 -163.70083,-110.68747 -75,-149c88.70083,-38.31253 493.20606,-9.702 745,0c251.79394,9.702 350.87657,0.49548 149,0c-201.87657,-0.49548 -704.71233,7.72007 -894,0c-189.28767,-7.72007 -65.02723,-31.37578 149,0c214.02723,31.37578 517.82125,117.78303 671,149c153.17875,31.21697 155.74222,7.24366 149,0c-6.74222,-7.24366 -22.79013,2.24233 -149,0c-126.20987,-2.24233 -362.58169,-16.21297 -447,0c-84.41831,16.21297 -16.88309,62.60954 149,0c165.88309,-62.60954 430.11405,-234.2252 643,-298c212.88595,-63.7748 374.42689,-19.70873 149,0c-225.42689,19.70873 -837.82159,15.06013 -1043,0c-205.17841,-15.06013 -3.14052,-40.53177 149,0c152.14052,40.53177 254.38366,147.06697 325,149c70.61634,1.93303 109.60587,-100.73609 122,-149c12.39413,-48.26391 -1.80715,-42.1226 -298,0c-296.19285,42.1226 -874.37726,120.2265 -867,149c7.37726,28.7735 600.31618,8.21661 596,0c-4.31618,-8.21661 -605.88748,-4.09295 -797,0c-191.11252,4.09295 28.23373,8.15518 350,0c321.76627,-8.15518 745.95256,-28.52777 596,0c-149.95256,28.52777 -874.04399,105.9559 -908.5,149c-34.45601,43.0441 620.72338,51.70418 685.5,0c64.77662,-51.70418 -460.84954,-163.77262 -522,-149c-61.15046,14.77262 342.17477,156.38631 745.5,298c403.32523,141.61369 201.66262,70.80684 0,0" fill-opacity="0" fill="rgb(0,0,0)" stroke="rgb(0,0,0)" stroke-width="25" stroke-linecap="round" stroke-linejoin="round"/></g></svg>