<?xml version="1.0" encoding="utf-8"?><svg version="1.1" id="Calque_1" xmlns="http://www.w3.org/2000/svg" xmlns:xlink="http://www.w3.org/1999/xlink" x="0px" y="0px" width="2136px" height="718px" viewBox="-482 180 2136 718" enable-background="new -482 180 2136 718" xml:space="preserve"><g xmlns="http://www.w3.org/2000/svg"><polygon points="0,1440 0,0 2560,0 2560,1440" fill="rgb(255,255,255)" stroke-width="1" stroke-linecap="butt" stroke-linejoin="miter"/><path d="M1197,869c-200.53371,-162.50697 -401.06741,-325.01395 -400,-298c1.06741,27.01395 203.73594,243.54882 102,298c-101.73594,54.45118 -507.87636,-53.18131 -373,-149c134.87636,-95.81869 810.7695,-179.82356 867,-149c56.2305,30.82356 -507.20163,176.47556 -718,149c-210.79837,-27.47556 -68.96297,-228.07869 122,-149c190.96297,79.07869 431.05352,437.83921 474.5,447c43.44648,9.16079 -109.75113,-331.27815 -27.5,-447c82.25113,-115.72185 399.95098,-6.7266 447,0c47.04902,6.7266 -176.55279,-88.81546 -298,0c-121.44721,88.81546 -140.73982,361.98843 -121.5,447c19.23982,85.01157 77.01208,-18.13828 -74.5,-149c-151.51208,-130.86172 -512.30848,-289.43532 -400,-298c112.30848,-8.56468 697.72186,132.87957 921,149c223.27814,16.12043 84.42104,-93.08296 -176,-149c-260.42104,-55.91704 -642.40601,-58.54773 -745,0c-102.59399,58.54773 74.20301,178.27386 251,298c176.79699,119.72614 -37.1015,-89.13693 -251,-298" fill-opacity="0" fill="rgb(0,0,0)" stroke="rgb(0,0,0)" stroke-width="25" stroke-linecap="round" stroke-linejoin="round"/></g></svg>