<?xml version="1.0" encoding="utf-8"?><svg version="1.1" id="Calque_1" xmlns="http://www.w3.org/2000/svg" xmlns:xlink="http://www.w3.org/1999/xlink" x="0px" y="0px" width="2136px" height="718px" viewBox="-482 180 2136 718" enable-background="new -482 180 2136 718" xml:space="preserve"><g xmlns="http://www.w3.org/2000/svg"><polygon points="0,1440 0,0 2560,0 2560,1440" fill="rgb(255,255,255)" stroke-width="1" stroke-linecap="butt" stroke-linejoin="miter"/><path d="M1542,571c-161.3248,214.74982 -322.64961,429.49963 -270.5,447c52.14961,17.50037 317.77363,-162.24871 446.5,-298c128.72637,-135.75129 120.55511,-227.50479 -27,-149c-147.55511,78.50479 -434.49405,327.26786 -643,298c-208.50595,-29.26786 -338.57892,-336.56664 -251,-298c87.57892,38.56664 392.80971,422.99871 474.5,447c81.69029,24.00129 -60.15992,-312.4282 -27.5,-447c32.65992,-134.5718 239.82996,-67.2859 447,0c207.17004,67.2859 -45.41498,33.64295 -298,0" fill-opacity="0" fill="rgb(0,0,0)" stroke="rgb(0,0,0)" stroke-width="25" stroke-linecap="round" stroke-linejoin="round"/></g></svg>