<?xml version="1.0" encoding="utf-8"?><svg version="1.1" id="Calque_1" xmlns="http://www.w3.org/2000/svg" xmlns:xlink="http://www.w3.org/1999/xlink" x="0px" y="0px" width="2136px" height="718px" viewBox="-482 180 2136 718" enable-background="new -482 180 2136 718" xml:space="preserve"><g xmlns="http://www.w3.org/2000/svg"><polygon points="0,1440 0,0 2560,0 2560,1440" fill="rgb(255,255,255)" stroke-width="1" stroke-linecap="butt" stroke-linejoin="miter"/><path d="M1095,571c-108.18308,-59.33531 -216.36616,-118.67063 -224,-149c-7.63384,-30.32937 85.28156,-31.6528 149,0c63.71844,31.6528 98.23993,96.28182 75,149c-23.23993,52.71818 -104.24128,93.52553 -122,149c-17.75872,55.47447 27.72519,125.61607 75,149c47.27481,23.38393 96.34052,0.01019 149,0c52.65948,-0.01019 108.91272,23.34316 149,0c40.08728,-23.34316 64.00858,-93.38285 74,-149c9.99142,-55.61715 6.05295,-96.81178 -27,-149c-33.05295,-52.18822 -95.22038,-115.37004 -75,-149c20.22038,-33.62996 122.82856,-37.70807 149,0c26.17144,37.70807 -24.09388,117.2023 -74,149c-49.90612,31.7977 -99.45306,15.89885 -149,0c-49.54694,-15.89885 -99.27347,-7.94942 -149,0" fill-opacity="0" fill="rgb(0,0,0)" stroke="rgb(0,0,0)" stroke-width="25" stroke-linecap="round" stroke-linejoin="round"/></g></svg>