<?xml version="1.0" encoding="utf-8"?><svg version="1.1" id="Calque_1" xmlns="http://www.w3.org/2000/svg" xmlns:xlink="http://www.w3.org/1999/xlink" x="0px" y="0px" width="2136px" height="718px" viewBox="-482 180 2136 718" enable-background="new -482 180 2136 718" xml:space="preserve"><g xmlns="http://www.w3.org/2000/svg"><polygon points="0,1440 0,0 2560,0 2560,1440" fill="rgb(255,255,255)" stroke-width="1" stroke-linecap="butt" stroke-linejoin="miter"/><path d="M1420,720c-320.21253,-95.80156 -640.42505,-191.60311 -623,-149c17.42505,42.60311 372.48769,223.6109 549,298c176.51231,74.3891 174.47429,42.15951 0,0c-174.47429,-42.15951 -521.38486,-94.24894 -522,-149c-0.61514,-54.75106 345.06516,-112.16375 569,-149c223.93484,-36.83625 326.12424,-53.09607 298,0c-28.12424,53.09607 -186.56212,175.54804 -345,298c-158.43788,122.45196 -191.21894,-13.27402 -224,-149" fill-opacity="0" fill="rgb(0,0,0)" stroke="rgb(0,0,0)" stroke-width="25" stroke-linecap="round" stroke-linejoin="round"/></g></svg>