<?xml version="1.0" encoding="utf-8"?><svg version="1.1" id="Calque_1" xmlns="http://www.w3.org/2000/svg" xmlns:xlink="http://www.w3.org/1999/xlink" x="0px" y="0px" width="2136px" height="718px" viewBox="-482 180 2136 718" enable-background="new -482 180 2136 718" xml:space="preserve"><g xmlns="http://www.w3.org/2000/svg"><polygon points="0,1440 0,0 2560,0 2560,1440" fill="rgb(255,255,255)" stroke-width="1" stroke-linecap="butt" stroke-linejoin="miter"/><path d="M1420,720c-253.63748,-4.60838 -507.27496,-9.21676 -596,0c-88.72504,9.21676 -12.53764,32.25865 0,0c12.53764,-32.25865 -38.57449,-119.81784 -27,-149c11.57449,-29.18216 85.83561,0.01271 149,0c63.16439,-0.01271 115.23204,-29.23302 149,0c33.76796,29.23302 49.23623,116.91935 27,149c-22.23623,32.08065 -82.17695,8.55561 -149,0c-66.82305,-8.55561 -140.52843,-2.1418 -149,0c-8.47157,2.1418 48.29065,0.01158 149,0c100.70935,-0.01158 245.36582,2.09549 298,0c52.63418,-2.09549 13.24607,-8.39353 0,0c-13.24607,8.39353 -0.35011,31.47864 0,0c0.35011,-31.47864 -11.84563,-117.52101 -27,-149c-15.15437,-31.47899 -33.26736,-8.39459 0,0c33.26736,8.39459 117.91506,2.09937 149,0c31.08494,-2.09937 8.60712,-0.00288 0,0c-8.60712,0.00288 -3.34354,-2.08785 0,0c3.34354,2.08785 4.76703,8.35429 0,0c-4.76703,-8.35429 -15.72458,-31.32931 0,0c15.72458,31.32931 58.13128,116.96296 27,149c-31.13128,32.03704 -135.80054,10.47749 -149,0c-13.19946,-10.47749 65.07089,-9.8729 149,0c83.92911,9.8729 173.51697,29.01413 149,0c-24.51697,-29.01413 -163.13876,-106.18362 -176,-149c-12.86124,-42.81638 100.03809,-51.27965 149,0c48.96191,51.27965 33.98641,162.30222 27,149c-6.98641,-13.30222 -5.98373,-150.92923 -176,-149c-170.01627,1.92923 -511.0515,143.41471 -569,149c-57.9485,5.58529 167.18974,-124.72961 122,-149c-45.18974,-24.27039 -360.70745,57.50373 -271,149c89.70745,91.49627 584.64008,192.71469 671,149c86.35992,-43.71469 -235.85286,-232.36249 -251,-298c-15.14714,-65.63751 276.77136,-8.26475 298,0c21.22864,8.26475 -228.23259,-32.57853 -298,0c-69.76741,32.57853 40.159,138.57886 27,149c-13.159,10.42114 -149.40342,-74.7369 -176,-149c-26.59658,-74.2631 56.45468,-137.63127 149,0c92.54532,137.63127 194.5847,476.26198 176.5,447c-18.0847,-29.26198 -156.2935,-426.41664 -176.5,-447c-20.2065,-20.58336 77.58928,335.40459 176.5,447c98.91072,111.59541 198.93636,-21.20172 74.5,-149c-124.43636,-127.79828 -473.33473,-250.59771 -549,-298c-75.66527,-47.40229 121.90256,-19.40745 149,0c27.09744,19.40745 -116.27551,30.22752 -149,0c-32.72449,-30.22752 45.1995,-101.50264 149,0c103.8005,101.50264 233.47753,375.78302 325.5,447c92.02247,71.21698 146.39038,-60.62946 74.5,-149c-71.89038,-88.37054 -270.03905,-133.26518 -224,-149c46.03905,-15.73482 336.26581,-2.30981 298,0c-38.26581,2.30981 -405.02421,-6.49558 -447,0c-41.97579,6.49558 240.83103,28.29213 298,0c57.16897,-28.29213 -111.29989,-106.67295 -176,-149c-64.70011,-42.32705 -25.63145,-48.60034 0,0c25.63145,48.60034 37.82569,152.0743 176,149c138.17431,-3.0743 402.32869,-112.69686 271,-149c-131.32869,-36.30314 -658.14045,0.71314 -596,0c62.14045,-0.71314 713.2331,-39.15571 894,0c180.7669,39.15571 -108.79195,155.90969 -420,149c-311.20805,-6.90969 -644.06532,-137.48306 -474,-149c170.06532,-11.51694 843.05321,96.02254 921,149c77.94679,52.97746 -439.14753,51.39289 -745,0c-305.85247,-51.39289 -400.46307,-152.59409 -176,-149c224.46307,3.59409 767.99983,111.98348 772,149c4.00017,37.01652 -531.53625,2.66016 -596,0c-64.46375,-2.66016 342.14516,26.37587 298,0c-44.14516,-26.37587 -539.04438,-108.16365 -474,-149c65.04438,-40.83635 690.03238,-40.72127 745,0c54.96762,40.72127 -460.08514,122.04874 -569,149c-108.91486,26.95126 188.30818,-0.47369 149,0c-39.30818,0.47369 -415.14756,28.846 -596,0c-180.85244,-28.846 -166.71793,-114.91033 122,-149c288.71793,-34.08967 852.01928,-16.20467 894,0c41.98072,16.20467 -437.35919,30.72903 -569,149c-131.64081,118.27097 84.41749,340.28857 149.5,298c65.08251,-42.28857 -20.81077,-348.88331 -176.5,-447c-155.68923,-98.11669 -381.17442,12.24467 -447,0c-65.82558,-12.24467 28.00845,-147.09538 223,-149c194.99155,-1.90462 491.14061,129.13685 522,149c30.85939,19.86315 -203.5709,-71.45202 -298,0c-94.4291,71.45202 -48.85701,305.67124 102,298c150.85701,-7.67124 406.99894,-257.23295 494,-298c87.00106,-40.76705 4.86125,127.26055 -271,149c-275.86125,21.73945 -745.44395,-102.80927 -623,-149c122.44395,-46.19073 836.91454,-14.02348 894,0c57.08546,14.02348 -543.21421,9.9032 -745,0c-201.78579,-9.9032 -5.05771,-25.58932 149,0c154.05771,25.58932 265.44506,92.45409 325,149c59.55494,56.54591 67.27747,102.77295 75,149c7.72253,46.22705 -70.63873,23.11352 -149,0" fill-opacity="0" fill="rgb(0,0,0)" stroke="rgb(0,0,0)" stroke-width="25" stroke-linecap="round" stroke-linejoin="round"/></g></svg>