<?xml version="1.0" encoding="utf-8"?><svg version="1.1" id="Calque_1" xmlns="http://www.w3.org/2000/svg" xmlns:xlink="http://www.w3.org/1999/xlink" x="0px" y="0px" width="2136px" height="718px" viewBox="-482 180 2136 718" enable-background="new -482 180 2136 718" xml:space="preserve"><g xmlns="http://www.w3.org/2000/svg"><polygon points="0,1440 0,0 2560,0 2560,1440" fill="rgb(255,255,255)" stroke-width="1" stroke-linecap="butt" stroke-linejoin="miter"/><path d="M1095,571c151.28389,96.92213 302.56778,193.84425 176,149c-126.56778,-44.84425 -530.98723,-231.45488 -474,-149c56.98723,82.45488 575.38116,433.97528 474.5,447c-100.88116,13.02472 -821.03739,-312.44625 -772.5,-447c48.53739,-134.55375 865.76842,-78.1903 894,0c28.23158,78.1903 -732.53627,178.20743 -718,149c14.53627,-29.20743 804.37668,-187.63943 867,-149c62.62332,38.63943 -601.97043,274.3503 -643,298c-41.02957,23.6497 541.50504,-164.76178 670,-149c128.49496,15.76178 -197.04973,235.69682 -297.5,298c-100.45027,62.30318 24.19387,-33.02549 -74.5,-149c-98.69387,-115.97451 -420.72576,-252.59486 -251,-298c169.72576,-45.40514 831.20915,0.40493 745,0c-86.20915,-0.40493 -920.11086,-47.02485 -1043,0c-122.88914,47.02485 465.23429,187.69448 698,298c232.76571,110.30552 110.17371,190.24693 -74.5,149c-184.67371,-41.24693 -431.42914,-203.68219 -298.5,-298c132.92914,-94.31781 645.54286,-120.51818 867,-149c221.45714,-28.48182 151.75769,-59.24511 -149,0c-300.75769,59.24511 -832.57363,208.4986 -941,298c-108.42637,89.5014 206.53681,119.2507 521.5,149c314.96319,29.7493 306.23159,-134.12535 297.5,-298" fill-opacity="0" fill="rgb(0,0,0)" stroke="rgb(0,0,0)" stroke-width="25" stroke-linecap="round" stroke-linejoin="round"/></g></svg>