<?xml version="1.0" encoding="utf-8"?><svg version="1.1" id="Calque_1" xmlns="http://www.w3.org/2000/svg" xmlns:xlink="http://www.w3.org/1999/xlink" x="0px" y="0px" width="2136px" height="718px" viewBox="-482 180 2136 718" enable-background="new -482 180 2136 718" xml:space="preserve"><g xmlns="http://www.w3.org/2000/svg"><polygon points="0,1440 0,0 2560,0 2560,1440" fill="rgb(255,255,255)" stroke-width="1" stroke-linecap="butt" stroke-linejoin="miter"/><path d="M824,720c557.89434,-64.57786 1115.78868,-129.15573 1016,-149c-99.78868,-19.84427 -857.2604,5.04505 -894,0c-36.7396,-5.04505 647.2529,-40.02446 745,0c97.7471,40.02446 -390.75119,155.05278 -569,149c-178.24881,-6.05278 -46.24813,-133.18667 -176,-149c-129.75187,-15.81333 -521.25629,79.69388 -420,149c101.25629,69.30612 695.27327,112.41114 969,149c273.72673,36.58886 227.16319,66.66155 0,0c-227.16319,-66.66155 -634.92604,-230.05735 -698,-298c-63.07396,-67.94265 218.54095,-40.43215 149,0c-69.54095,40.43215 -490.23778,93.78594 -271,149c219.23778,55.21406 1078.41017,112.2884 1118,149c39.58983,36.7116 -740.40291,53.06046 -894,0c-153.59709,-53.06046 319.20145,-175.53023 792,-298c472.79855,-122.46977 138.39927,87.76511 -196,298" fill-opacity="0" fill="rgb(0,0,0)" stroke="rgb(0,0,0)" stroke-width="25" stroke-linecap="round" stroke-linejoin="round"/></g></svg>