<?xml version="1.0" encoding="utf-8"?><svg version="1.1" id="Calque_1" xmlns="http://www.w3.org/2000/svg" xmlns:xlink="http://www.w3.org/1999/xlink" x="0px" y="0px" width="2136px" height="718px" viewBox="-482 180 2136 718" enable-background="new -482 180 2136 718" xml:space="preserve"><g xmlns="http://www.w3.org/2000/svg"><polygon points="0,1440 0,0 2560,0 2560,1440" fill="rgb(255,255,255)" stroke-width="1" stroke-linecap="butt" stroke-linejoin="miter"/><path d="M1197,869c-200.53371,-162.50697 -401.06741,-325.01395 -400,-298c1.06741,27.01395 203.73594,243.54881 102,298c-101.73594,54.45119 -507.87636,-53.18131 -373,-149c134.87636,-95.81869 810.76949,-179.82357 867,-149c56.23051,30.82357 -507.20161,176.47558 -718,149c-210.79839,-27.47558 -68.96304,-228.07875 122,-149c190.96304,79.07875 431.05376,437.83941 474.5,447c43.44624,9.16059 -109.75199,-331.27888 -27.5,-447c82.25199,-115.72112 399.95419,-6.7239 447,0c47.04581,6.7239 -176.56478,-88.82554 -298,0c-121.43522,88.82554 -140.69508,362.02606 -121.5,447c19.19508,84.97394 76.84511,-18.2787 -74.5,-149c-151.34511,-130.7213 -511.68537,-288.91126 -400,-298c111.68537,-9.08874 695.39636,130.92374 921,149c225.60364,18.07626 93.09995,-85.78368 -176,-149c-269.09995,-63.21632 -674.79614,-85.78901 -745,0c-70.20386,85.78901 195.08461,279.93972 251,298c55.91539,18.06028 -97.54231,-139.96986 -251,-298c-153.45769,-158.03014 -63.22885,-4.51507 27,149" fill-opacity="0" fill="rgb(0,0,0)" stroke="rgb(0,0,0)" stroke-width="25" stroke-linecap="round" stroke-linejoin="round"/></g></svg>