<?xml version="1.0" encoding="utf-8"?><svg version="1.1" id="Calque_1" xmlns="http://www.w3.org/2000/svg" xmlns:xlink="http://www.w3.org/1999/xlink" x="0px" y="0px" width="2136px" height="718px" viewBox="-482 180 2136 718" enable-background="new -482 180 2136 718" xml:space="preserve"><g xmlns="http://www.w3.org/2000/svg"><polygon points="0,1440 0,0 2560,0 2560,1440" fill="rgb(255,255,255)" stroke-width="1" stroke-linecap="butt" stroke-linejoin="miter"/><path d="M1271,720c-130.34295,-80.17302 -260.6859,-160.34604 -325,-149c-64.3141,11.34604 -62.59934,114.21115 27,149c89.59934,34.78885 267.08325,1.50143 298,0c30.91675,-1.50143 -84.73365,28.78312 -149,0c-64.26635,-28.78312 -77.14863,-116.63392 -27,-149c50.14863,-32.36608 163.32818,-9.24745 149,0c-14.32818,9.24745 -156.16409,4.62373 -298,0c-141.83591,-4.62373 17.08205,72.18814 176,149" fill-opacity="0" fill="rgb(0,0,0)" stroke="rgb(0,0,0)" stroke-width="25" stroke-linecap="round" stroke-linejoin="round"/></g></svg>