<?xml version="1.0" encoding="utf-8"?><svg version="1.1" id="Calque_1" xmlns="http://www.w3.org/2000/svg" xmlns:xlink="http://www.w3.org/1999/xlink" x="0px" y="0px" width="2136px" height="718px" viewBox="-482 180 2136 718" enable-background="new -482 180 2136 718" xml:space="preserve"><g xmlns="http://www.w3.org/2000/svg"><polygon points="0,1440 0,0 2560,0 2560,1440" fill="rgb(255,255,255)" stroke-width="1" stroke-linecap="butt" stroke-linejoin="miter"/><path d="M526,720c28.46837,-80.2626 56.93673,-160.52519 122,-149c65.06327,11.52519 166.72144,114.83817 176,149c9.27856,34.16183 -73.82247,-0.82747 -149,0c-75.17753,0.82747 -142.43154,37.47172 -149,0c-6.56846,-37.47172 47.54864,-149.05941 122,-149c74.45136,0.05941 169.23697,111.76592 176,149c6.76303,37.23408 -74.49651,-0.00427 -149,0c-74.50349,0.00427 -142.25094,37.25114 -149,0c-6.74906,-37.25114 47.50025,-149.00031 122,-149c74.49975,0.00031 169.24993,111.75008 176,149c6.75007,37.24992 -74.49998,-0.00002 -149,0c-74.50002,0.00002 -142.25,37.25 -149,0c-6.75,-37.25 47.49999,-148.99998 122,-149c74.50001,-0.00002 169.25003,111.7499 176,149c6.74997,37.2501 -74.50013,0.00036 -149,0c-74.49987,-0.00036 -142.24952,37.24865 -149,0c-6.75048,-37.24865 47.49821,-148.99496 122,-149c74.50179,-0.00504 169.25667,111.73117 176,149c6.74333,37.26883 -74.52488,0.07027 -149,0c-74.47512,-0.07027 -142.15715,36.98776 -149,0c-6.84285,-36.98776 47.15349,-148.0213 122,-149c74.84651,-0.9787 170.54319,108.09746 176,149c5.45681,40.90254 -79.32626,13.63148 -149,0c-69.67374,-13.63148 -124.23816,-13.62336 -149,0c-24.76184,13.62336 -19.7211,40.86198 0,0c19.7211,-40.86198 54.12257,-149.82456 122,-149c67.87743,0.82456 169.23081,111.43625 176,149c6.76919,37.56375 -81.04582,2.07955 -149,0c-67.95418,-2.07955 -116.04755,29.24554 -149,0c-32.95245,-29.24554 -50.76399,-119.06172 -27,-149c23.76399,-29.93828 89.10351,0.00135 149,0c59.89649,-0.00135 114.34996,-29.94368 149,0c34.65004,29.94368 49.49667,119.77339 27,149c-22.49667,29.22661 -82.33662,-2.14986 -149,0c-66.66338,2.14986 -140.15018,37.82605 -149,0c-8.84982,-37.82605 46.93734,-149.15433 122,-149c75.06266,0.15433 169.40083,111.79128 176,149c6.59917,37.20872 -74.54065,-0.01078 -149,0c-74.45935,0.01078 -142.23824,37.25183 -149,0c-6.76176,-37.25183 47.49361,-148.99653 122,-149c74.50639,-0.00347 169.26381,111.73429 176,149c6.73619,37.26571 -74.54885,0.05935 -149,0c-74.45115,-0.05935 -142.0684,37.0283 -149,0c-6.9316,-37.0283 46.82246,-148.17253 122,-149c75.17754,-0.82747 171.77857,108.66184 176,149c4.22143,40.33816 -83.93673,11.52519 -149,0c-65.06327,-11.52519 -107.03163,-5.76259 -149,0c-41.96837,5.76259 40.01582,-71.6187 122,-149" fill-opacity="0" fill="rgb(0,0,0)" stroke="rgb(0,0,0)" stroke-width="25" stroke-linecap="round" stroke-linejoin="round"/></g></svg>