<?xml version="1.0" encoding="utf-8"?><svg version="1.1" id="Calque_1" xmlns="http://www.w3.org/2000/svg" xmlns:xlink="http://www.w3.org/1999/xlink" x="0px" y="0px" width="2136px" height="718px" viewBox="-482 180 2136 718" enable-background="new -482 180 2136 718" xml:space="preserve"><g xmlns="http://www.w3.org/2000/svg"><polygon points="0,1440 0,0 2560,0 2560,1440" fill="rgb(255,255,255)" stroke-width="1" stroke-linecap="butt" stroke-linejoin="miter"/><path d="M712.5,1018c-4.08378,-33.73104 -8.16756,-67.46207 37.5,-149c45.66756,-81.53793 141.08646,-210.88274 196,-298c54.91354,-87.11726 69.32172,-132.00697 74,-149c4.67828,-16.99303 -0.37335,-6.0894 0,0c0.37335,6.0894 6.17169,7.36455 0,0c-6.17169,-7.36455 -24.31342,-23.36879 0,0c24.31342,23.36879 91.08198,86.11062 75,149c-16.08198,62.88938 -115.01451,125.92631 -122,149c-6.98549,23.07369 77.97607,6.18414 149,0c71.02393,-6.18414 128.11022,-1.66287 149,0c20.88978,1.66287 5.58304,0.46735 0,0c-5.58304,-0.46735 -1.44238,-0.20653 0,0c1.44238,0.20653 0.18647,0.35876 0,0c-0.18647,-0.35876 0.6965,-1.22851 0,0c-0.6965,1.22851 -2.97247,4.55527 0,0c2.97247,-4.55527 11.19336,-16.99257 0,0c-11.19336,16.99257 -41.80098,63.41502 0,0c41.80098,-63.41502 156.01058,-236.66752 196,-298c39.98942,-61.33248 5.75868,-10.74495 0,0c-5.75868,10.74495 16.9547,-18.35269 0,0c-16.9547,18.35269 -73.57747,84.15569 -74,149c-0.42253,64.84431 55.3552,128.72992 27,149c-28.3552,20.27008 -140.84333,-3.07537 -149,0c-8.15667,3.07537 88.01811,32.57156 149,0c60.98189,-32.57156 86.7709,-127.21086 122,-149c35.2291,-21.78914 79.89828,29.27188 149,0c69.10172,-29.27188 162.63596,-138.87664 223,-149c60.36404,-10.12336 87.55787,79.2347 75,149c-12.55787,69.7653 -64.86745,119.93785 -122,149c-57.13255,29.06215 -119.08808,37.01389 -149,0c-29.91192,-37.01389 -27.78025,-118.99341 -27,-149c0.78025,-30.00659 0.20907,-8.04025 0,0c-0.20907,8.04025 -0.05601,2.15439 0,0c0.05601,-2.15439 0.01499,-0.57732 0,0c-0.01499,0.57732 -0.00393,0.1549 0,0c0.00393,-0.1549 0.00075,-0.04228 0,0c-0.00075,0.04228 0.00093,0.01422 0,0c-0.00093,-0.01422 -0.00448,-0.01461 0,0c0.00448,0.01461 0.01699,0.04423 0,0c-0.01699,-0.04423 -0.06349,-0.1623 0,0c0.06349,0.1623 0.23696,0.60497 0,0c-0.23696,-0.60497 -0.88437,-2.25759 0,0c0.88437,2.25759 3.30051,8.42538 0,0c-3.30051,-8.42538 -12.31766,-31.44392 0,0c12.31766,31.44392 45.97014,117.35028 27,149c-18.97014,31.64972 -90.5629,9.04278 -149,0c-58.4371,-9.04278 -103.71855,-4.52139 -149,0c-45.28145,4.52139 14.85928,76.76069 75,149" fill-opacity="0" fill="rgb(0,0,0)" stroke="rgb(0,0,0)" stroke-width="25" stroke-linecap="round" stroke-linejoin="round"/></g></svg>