<?xml version="1.0" encoding="utf-8"?><svg version="1.1" id="Calque_1" xmlns="http://www.w3.org/2000/svg" xmlns:xlink="http://www.w3.org/1999/xlink" x="0px" y="0px" width="2136px" height="718px" viewBox="-482 180 2136 718" enable-background="new -482 180 2136 718" xml:space="preserve"><g xmlns="http://www.w3.org/2000/svg"><polygon points="0,1440 0,0 2560,0 2560,1440" fill="rgb(255,255,255)" stroke-width="1" stroke-linecap="butt" stroke-linejoin="miter"/><path d="M973,720c396.53973,-57.25107 793.07947,-114.50215 718,-149c-75.07947,-34.49785 -621.77814,-46.24248 -745,0c-123.22186,46.24248 177.03308,150.47208 176,149c-1.03308,-1.47208 -303.35417,-108.64583 -325,-149c-21.64583,-40.35417 237.38359,-13.88875 298,0c60.61641,13.88875 -77.1802,15.20082 0,0c77.1802,-15.20082 369.3372,-46.91452 447,0c77.6628,46.91452 -59.1686,172.45726 -196,298c-136.8314,125.54274 -180.4157,-11.72863 -224,-149" fill-opacity="0" fill="rgb(0,0,0)" stroke="rgb(0,0,0)" stroke-width="25" stroke-linecap="round" stroke-linejoin="round"/></g></svg>