<?xml version="1.0" encoding="utf-8"?><svg version="1.1" id="Calque_1" xmlns="http://www.w3.org/2000/svg" xmlns:xlink="http://www.w3.org/1999/xlink" x="0px" y="0px" width="2136px" height="718px" viewBox="-482 180 2136 718" enable-background="new -482 180 2136 718" xml:space="preserve"><g xmlns="http://www.w3.org/2000/svg"><polygon points="0,1440 0,0 2560,0 2560,1440" fill="rgb(255,255,255)" stroke-width="1" stroke-linecap="butt" stroke-linejoin="miter"/><path d="M1271,720c-282.31171,-78.72479 -564.62341,-157.44958 -474,-149c90.62341,8.44958 554.18195,104.07352 772,149c217.81805,44.92648 189.89561,39.15551 149,0c-40.89561,-39.15551 -94.76439,-111.69556 -27,-149c67.76439,-37.30444 257.16195,-39.37327 0,0c-257.16195,39.37327 -960.88341,120.18864 -1016,149c-55.11659,28.81136 538.37167,5.6187 596,0c57.62833,-5.6187 -420.60329,6.33656 -447,0c-26.39671,-6.33656 399.04147,-30.96496 596,0c196.95853,30.96496 165.43739,117.52327 -74,149c-239.43739,31.47673 -686.79103,7.87189 -596,0c90.79103,-7.87189 719.72675,-0.01083 745,0c25.27325,0.01083 -553.11596,-7.82857 -596,0c-42.88404,7.82857 449.73709,31.3251 447,0c-2.73709,-31.3251 -500.83241,-117.47185 -522,-149c-21.16759,-31.52815 434.59256,-8.43771 596,0c161.40744,8.43771 28.46216,2.22269 -149,0c-177.46216,-2.22269 -399.44121,-0.45304 -298,0c101.44121,0.45304 526.30267,-0.41054 447,0c-79.30267,0.41054 -662.76948,2.0952 -596,0c66.76948,-2.0952 783.77525,-7.97026 745,0c-38.77525,7.97026 -833.33151,29.78584 -894,0c-60.66849,-29.78584 612.55079,-111.17311 867,-149c254.44921,-37.82689 90.12835,-32.0934 -149,0c-239.12835,32.0934 -553.06417,90.5467 -867,149c-313.93583,58.4533 215.53209,29.22665 745,0" fill-opacity="0" fill="rgb(0,0,0)" stroke="rgb(0,0,0)" stroke-width="25" stroke-linecap="round" stroke-linejoin="round"/></g></svg>