<?xml version="1.0" encoding="utf-8"?><svg version="1.1" id="Calque_1" xmlns="http://www.w3.org/2000/svg" xmlns:xlink="http://www.w3.org/1999/xlink" x="0px" y="0px" width="2136px" height="718px" viewBox="-482 180 2136 718" enable-background="new -482 180 2136 718" xml:space="preserve"><g xmlns="http://www.w3.org/2000/svg"><polygon points="0,1440 0,0 2560,0 2560,1440" fill="rgb(255,255,255)" stroke-width="1" stroke-linecap="butt" stroke-linejoin="miter"/><path d="M1318,422c-585.40968,-11.63601 -1170.81935,-23.27202 -894,0c276.81935,23.27202 1415.86773,81.45207 1416,149c0.13227,67.54793 -1138.65156,144.46375 -1515,149c-376.34844,4.53625 9.73851,-63.30709 323,-149c313.26149,-85.69291 553.69751,-189.23541 819,-149c265.30249,40.23541 555.47146,224.24873 400,298c-155.47146,73.75127 -756.58335,37.24047 -894,0c-137.41665,-37.24047 188.86195,-75.21063 149,0c-39.86195,75.21063 -445.86445,263.60204 -609.5,298c-163.63555,34.39796 -84.90414,-85.19754 237.5,-149c322.40414,-63.80246 888.481,-71.81187 1117,-149c228.519,-77.18813 119.48012,-223.55497 -176,-149c-295.48012,74.55497 -777.40149,370.03177 -978.5,447c-201.09851,76.96823 -121.37418,-64.57209 186.5,-149c307.87418,-84.42791 843.89819,-111.7434 968,-149c124.10181,-37.2566 -163.71859,-84.45432 -325,-149c-161.28141,-64.54568 -196.02382,-146.43932 -224,-149c-27.97618,-2.56068 -49.18613,74.21159 -223,149c-173.81387,74.78841 -500.23165,147.59296 -569,149c-68.76835,1.40704 120.11272,-68.58341 122,-149c1.88728,-80.41659 -183.21923,-171.2593 74,-149c257.21923,22.2593 956.76421,157.62062 969,149c12.23579,-8.62062 -662.83762,-161.22318 -820,-149c-157.16238,12.22318 203.58625,189.2721 102,298c-101.58625,108.7279 -665.50739,149.13477 -610.5,149c55.00739,-0.13477 728.94331,-40.81119 685.5,0c-43.44331,40.81119 -804.26585,163.11001 -736.5,149c67.76585,-14.11001 964.12009,-164.62883 1257.5,-298c293.37991,-133.37117 -16.21449,-249.5947 -176,-149c-159.78551,100.5947 -169.76211,418.00763 -121.5,447c48.26211,28.99237 154.76293,-230.43581 148.5,-298c-6.26293,-67.56419 -125.28961,56.73562 -372,149c-246.71039,92.26438 -621.1045,152.49333 -335.5,149c285.6045,-3.49333 1231.20759,-70.70893 1476.5,-149c245.29241,-78.29107 -209.72586,-167.65759 -620,-149c-410.27414,18.65759 -775.80413,145.33929 -670,149c105.80413,3.66071 682.94239,-115.69958 819,-149c136.05761,-33.30042 -168.96541,19.45901 -447,0c-278.03459,-19.45901 -529.08073,-111.13647 -325,-149c204.08073,-37.86353 863.28835,-21.91314 745,0c-118.28835,21.91314 -1014.07267,49.78905 -1043,0c-28.92733,-49.78905 809.00233,-177.24304 819,-149c9.99767,28.24304 -807.93663,212.1831 -941,298c-133.06337,85.8169 418.74421,73.51063 596,0c177.25579,-73.51063 -20.04022,-208.22563 -27,-149c-6.95978,59.22563 176.41667,312.39187 102,298c-74.41667,-14.39187 -406.62645,-296.34186 -400,-298c6.62645,-1.65814 352.08913,276.97558 549,298c196.91087,21.02442 245.26992,-215.56047 345,-298c99.73008,-82.43953 250.83117,-10.73372 149,0c-101.83117,10.73372 -456.59462,-39.50465 -745,0c-288.40538,39.50465 -510.45269,168.75233 -732.5,298c-222.04731,129.24767 604.22634,64.62384 1430.5,0" fill-opacity="0" fill="rgb(0,0,0)" stroke="rgb(0,0,0)" stroke-width="25" stroke-linecap="round" stroke-linejoin="round"/></g></svg>