<?xml version="1.0" encoding="utf-8"?><svg version="1.1" id="Calque_1" xmlns="http://www.w3.org/2000/svg" xmlns:xlink="http://www.w3.org/1999/xlink" x="0px" y="0px" width="2136px" height="718px" viewBox="-482 180 2136 718" enable-background="new -482 180 2136 718" xml:space="preserve"><g xmlns="http://www.w3.org/2000/svg"><polygon points="0,1440 0,0 2560,0 2560,1440" fill="rgb(255,255,255)" stroke-width="1" stroke-linecap="butt" stroke-linejoin="miter"/><path d="M362.5,869c305.90358,-147.64096 611.80716,-295.28193 732.5,-298c120.69284,-2.71807 56.17492,139.48675 176,149c119.82508,9.51325 423.99314,-113.66508 271,-149c-152.99314,-35.33492 -763.14747,17.17357 -867,149c-103.85253,131.82643 298.59676,342.97079 596.5,298c297.90324,-44.97079 491.26043,-346.05672 270.5,-447c-220.76043,-100.94328 -855.63847,-1.7439 -867,149c-11.36153,150.7439 600.79346,353.03231 596.5,298c-4.29346,-55.03231 -625.03538,-367.38534 -623.5,-447c1.53538,-79.61466 625.34805,73.50906 623,149c-2.34805,75.49094 -630.85682,73.34911 -745,0c-114.14318,-73.34911 286.07922,-217.90548 569,-149c282.92078,68.90548 448.53995,351.27282 176.5,447c-272.03995,95.72718 -981.73901,4.81421 -909,-149c72.73901,-153.81421 927.91609,-370.52965 1179.5,-298c251.58391,72.52965 -100.42535,434.30439 -270.5,447c-170.07465,12.69561 -158.2147,-323.68792 -176.5,-447c-18.2853,-123.31208 -66.71586,-33.55271 149,0c215.71586,33.55271 695.57813,10.89875 596,0c-99.57813,-10.89875 -778.59665,-10.04231 -1043,0c-264.40335,10.04231 -114.19152,29.27048 27,149c141.19152,119.72952 273.36272,339.96037 447.5,298c174.13728,-41.96037 390.24064,-346.11198 419.5,-447c29.25936,-100.88802 -128.32529,1.48755 -298,0c-169.67471,-1.48755 -351.4395,-106.83824 -298,0c53.4395,106.83824 342.08327,425.86539 176.5,447c-165.58327,21.13461 -785.39359,-255.62334 -745.5,-298c39.89359,-42.37666 739.4911,149.62797 820,149c80.5089,-0.62797 -458.07081,-193.88856 -522,-149c-63.92919,44.88856 346.79212,327.92625 447.5,298c100.70788,-29.92625 -108.59769,-372.81646 -176.5,-447c-67.90231,-74.18354 5.59862,120.33958 176,149c170.40138,28.66042 437.7032,-108.54186 271,-149c-166.7032,-40.45814 -767.41141,15.82784 -867,149c-99.58859,133.17216 301.94246,343.23048 596.5,298c294.55754,-45.23048 482.14157,-345.74977 270.5,-447c-211.64157,-101.25023 -822.50874,-3.23139 -867,149c-44.49126,152.23139 477.39338,358.67534 596.5,298c119.10662,-60.67534 -164.56478,-388.46996 -176.5,-447c-11.93522,-58.53004 247.86573,152.20448 176,149c-71.86573,-3.20448 -475.39815,-220.34798 -474,-149c1.39815,71.34798 407.72687,431.18745 474.5,447c66.77313,15.81255 -206.00935,-312.40182 -325.5,-447c-119.49065,-134.59818 -85.68948,-75.58018 -149,0c-63.31052,75.58018 -223.73272,167.72252 -122,149c101.73272,-18.72252 465.62035,-148.30991 718,-149c252.37965,-0.69009 393.25133,127.51712 325,149c-68.25133,21.48288 -345.62566,-63.75856 -623,-149c-277.37434,-85.24144 210.31283,106.37928 698,298" fill-opacity="0" fill="rgb(0,0,0)" stroke="rgb(0,0,0)" stroke-width="25" stroke-linecap="round" stroke-linejoin="round"/></g></svg>