<?xml version="1.0" encoding="utf-8"?><svg version="1.1" id="Calque_1" xmlns="http://www.w3.org/2000/svg" xmlns:xlink="http://www.w3.org/1999/xlink" x="0px" y="0px" width="2136px" height="718px" viewBox="-482 180 2136 718" enable-background="new -482 180 2136 718" xml:space="preserve"><g xmlns="http://www.w3.org/2000/svg"><polygon points="0,1440 0,0 2560,0 2560,1440" fill="rgb(255,255,255)" stroke-width="1" stroke-linecap="butt" stroke-linejoin="miter"/><path d="M499,571c907.59148,142.80054 1815.18296,285.60108 1690,298c-125.18296,12.39892 -1283.14036,-105.60377 -1663,-149c-379.85964,-43.39623 18.37849,-12.18601 149,0c130.62151,12.18601 -6.37361,5.34779 149,0c155.37361,-5.34779 603.11595,-9.20515 596,0c-7.11595,9.20515 -469.09017,31.47281 -447,0c22.09017,-31.47281 528.24475,-116.6861 718,-149c189.75525,-32.3139 63.11118,-11.72842 0,0c-63.11118,11.72842 -62.68946,14.59978 0,0c62.68946,-14.59978 187.64666,-46.67069 0,0c-187.64666,46.67069 -687.89717,172.08297 -718,149c-30.10283,-23.08297 409.94201,-194.66119 569,-149c159.05799,45.66119 37.12912,308.5618 -196,298c-233.12912,-10.5618 -577.4585,-294.58599 -549,-298c28.4585,-3.41401 429.7049,273.78216 549,298c119.2951,24.21784 -43.36108,-204.54266 -102,-298c-58.63892,-93.45734 -13.26059,-51.61151 0,0c13.26059,51.61151 -5.59658,112.9887 27,149c32.59658,36.0113 116.6469,46.6567 149,0c32.3531,-46.6567 13.00898,-150.61552 -27,-149c-40.00898,1.61552 -100.68283,108.80537 -122,149c-21.31717,40.19463 -3.27767,13.39402 0,0c3.27767,-13.39402 -8.2065,-13.38146 0,0c8.2065,13.38146 36.10368,40.13181 0,0c-36.10368,-40.13181 -136.20821,-147.14579 -176,-149c-39.79179,-1.85421 -19.27083,101.45134 27,149c46.27083,47.54866 118.29153,39.34042 149,0c30.70847,-39.34042 20.10473,-109.81302 -27,-149c-47.10473,-39.18698 -130.71043,-47.08833 -149,0c-18.28957,47.08833 28.73699,149.16634 27,149c-1.73699,-0.16634 -52.23753,-102.57702 -27,-149c25.23753,-46.42298 126.21312,-36.85824 149,0c22.78688,36.85824 -32.61495,101.01 27,149c59.61495,47.99 234.24669,79.81824 149,0c-85.24669,-79.81824 -430.37182,-271.28296 -549,-298c-118.62818,-26.71704 -10.75942,111.31358 75,149c85.75942,37.68642 149.40949,-24.97137 149,0c-0.40949,24.97137 -64.87855,137.57191 27,149c91.87855,11.42809 340.10473,-78.31626 420,-149c79.89527,-70.68374 -8.54035,-122.30687 -75,-149c-66.45965,-26.69313 -110.94333,-28.45628 -149,0c-38.05667,28.45628 -69.68633,87.13197 -74,149c-4.31367,61.86803 18.68865,126.92839 27,149c8.31135,22.07161 1.93174,1.15448 0,0c-1.93174,-1.15448 0.58438,17.45371 0,0c-0.58438,-17.45371 -4.26928,-70.96932 0,0c4.26928,70.96932 16.49272,266.42355 0.5,298c-15.99272,31.57645 -60.2016,-100.72489 -74.5,-149c-14.2984,-48.27511 1.31369,-12.52399 0,0c-1.31369,12.52399 -19.55315,1.82086 0,0c19.55315,-1.82086 76.89893,5.24054 149,0c72.10107,-5.24054 158.95745,-22.78301 149,0c-9.95745,22.78301 -116.72872,85.89151 -223.5,149c-106.77128,63.10849 169.86436,-117.44575 446.5,-298" fill-opacity="0" fill="rgb(0,0,0)" stroke="rgb(0,0,0)" stroke-width="25" stroke-linecap="round" stroke-linejoin="round"/></g></svg>