<?xml version="1.0" encoding="utf-8"?><svg version="1.1" id="Calque_1" xmlns="http://www.w3.org/2000/svg" xmlns:xlink="http://www.w3.org/1999/xlink" x="0px" y="0px" width="2136px" height="718px" viewBox="-482 180 2136 718" enable-background="new -482 180 2136 718" xml:space="preserve"><g xmlns="http://www.w3.org/2000/svg"><polygon points="0,1440 0,0 2560,0 2560,1440" fill="rgb(255,255,255)" stroke-width="1" stroke-linecap="butt" stroke-linejoin="miter"/><path d="M1542,571c0,0 -0.00001,0 0,0c0.00001,0 0.00003,0 0,0c-0.00003,0 -0.0001,0.00001 0,0c0.0001,-0.00001 0.00037,-0.00004 0,0c-0.00037,0.00004 -0.00139,0.00015 0,0c0.00139,-0.00015 0.00517,-0.00057 0,0c-0.00517,0.00057 -0.01931,0.00211 0,0c0.01931,-0.00211 0.07205,-0.00788 0,0c-0.07205,0.00788 -0.2689,0.0294 0,0c0.2689,-0.0294 1.00356,-0.10972 0,0c-1.00356,0.10972 -3.74533,0.40948 0,0c3.74533,-0.40948 13.97778,-1.5282 0,0c-13.97778,1.5282 -52.16577,5.70334 0,0c52.16577,-5.70334 194.6853,-21.28515 0,0c-194.6853,21.28515 -726.57544,79.43726 -718,149c8.57544,69.56274 557.61647,150.53612 820,149c262.38353,-1.53612 238.10958,-85.58175 223,-149c-15.10958,-63.41825 -21.05479,-106.20913 -27,-149c-5.94521,-42.79087 -151.9726,-21.39544 -298,0" fill-opacity="0" fill="rgb(0,0,0)" stroke="rgb(0,0,0)" stroke-width="25" stroke-linecap="round" stroke-linejoin="round"/></g></svg>