<?xml version="1.0" encoding="utf-8"?><svg version="1.1" id="Calque_1" xmlns="http://www.w3.org/2000/svg" xmlns:xlink="http://www.w3.org/1999/xlink" x="0px" y="0px" width="2136px" height="718px" viewBox="-482 180 2136 718" enable-background="new -482 180 2136 718" xml:space="preserve"><g xmlns="http://www.w3.org/2000/svg"><polygon points="0,1440 0,0 2560,0 2560,1440" fill="rgb(255,255,255)" stroke-width="1" stroke-linecap="butt" stroke-linejoin="miter"/><path d="M1542,571c-48.87764,-1.33163 -97.75528,-2.66327 -149,0c-51.24472,2.66327 -104.8565,9.32144 -149,0c-44.1435,-9.32144 -78.8187,-34.62251 -149,0c-70.1813,34.62251 -175.86869,129.16859 -122,149c53.86869,19.83141 267.29346,-35.05183 298,0c30.70654,35.05183 -121.30515,160.03875 -223,149c-101.69485,-11.03875 -153.07285,-158.10317 -75,-149c78.07285,9.10317 285.59654,174.37393 224,149c-61.59654,-25.37393 -392.3133,-241.39255 -400,-298c-7.6867,-56.60745 307.65665,46.19628 623,149c315.34335,102.80372 -228.32832,-23.09814 -772,-149" fill-opacity="0" fill="rgb(0,0,0)" stroke="rgb(0,0,0)" stroke-width="25" stroke-linecap="round" stroke-linejoin="round"/></g></svg>