<?xml version="1.0" encoding="utf-8"?><svg version="1.1" id="Calque_1" xmlns="http://www.w3.org/2000/svg" xmlns:xlink="http://www.w3.org/1999/xlink" x="0px" y="0px" width="2136px" height="718px" viewBox="-482 180 2136 718" enable-background="new -482 180 2136 718" xml:space="preserve"><g xmlns="http://www.w3.org/2000/svg"><polygon points="0,1440 0,0 2560,0 2560,1440" fill="rgb(255,255,255)" stroke-width="1" stroke-linecap="butt" stroke-linejoin="miter"/><path d="M600,869c-41.80512,-47.63677 -83.61025,-95.27353 -74,-149c9.61025,-53.72647 70.63587,-113.54264 122,-149c51.36413,-35.45736 93.06677,-46.55591 149,0c55.93323,46.55591 126.09707,150.76629 176,149c49.90293,-1.76629 79.54497,-109.50925 122,-149c42.45503,-39.49075 97.72307,-10.72929 149,0c51.27693,10.72929 98.56277,3.4264 149,0c50.43723,-3.4264 104.02586,-2.97631 149,0c44.97414,2.97631 81.33379,8.47883 149,0c67.66621,-8.47883 166.63897,-30.939 149,0c-17.63897,30.939 -151.88966,115.27717 -271,149c-119.11034,33.72283 -223.08031,16.83033 -298,0c-74.91969,-16.83033 -120.78909,-33.59847 -149,0c-28.21091,33.59847 -38.76332,117.56356 -74,149c-35.23668,31.43644 -95.15763,10.34423 -149,0c-53.84237,-10.34423 -101.60617,-9.9405 -149,0c-47.39383,9.9405 -94.41768,29.41776 -150,0c-55.58232,-29.41776 -119.7231,-107.73053 -74,-149c45.7231,-41.26947 201.31006,-45.49563 298,0c96.68994,45.49563 134.48284,140.71304 75,149c-59.48284,8.28696 -216.24142,-70.35652 -373,-149c-156.75858,-78.64348 70.62071,-39.32174 298,0" fill-opacity="0" fill="rgb(0,0,0)" stroke="rgb(0,0,0)" stroke-width="25" stroke-linecap="round" stroke-linejoin="round"/></g></svg>