<?xml version="1.0" encoding="utf-8"?><svg version="1.1" id="Calque_1" xmlns="http://www.w3.org/2000/svg" xmlns:xlink="http://www.w3.org/1999/xlink" x="0px" y="0px" width="2136px" height="718px" viewBox="-482 180 2136 718" enable-background="new -482 180 2136 718" xml:space="preserve"><g xmlns="http://www.w3.org/2000/svg"><polygon points="0,1440 0,0 2560,0 2560,1440" fill="rgb(255,255,255)" stroke-width="1" stroke-linecap="butt" stroke-linejoin="miter"/><path d="M973,720c253.06919,-103.22141 506.13838,-206.44282 420,-149c-86.13838,57.44282 -511.48433,275.54986 -494,298c17.48433,22.45014 477.79896,-150.75662 670,-149c192.20104,1.75662 116.28851,178.47661 -74,149c-190.28851,-29.47661 -494.953,-265.14981 -698,-298c-203.047,-32.85019 -304.47652,137.12263 -122,149c182.47652,11.87737 648.85906,-134.34071 867,-149c218.14094,-14.65929 188.04027,102.2402 176,149c-12.04027,46.7598 -6.02013,23.3799 0,0c6.02013,-23.3799 -233.98993,-86.18995 -474,-149" fill-opacity="0" fill="rgb(0,0,0)" stroke="rgb(0,0,0)" stroke-width="25" stroke-linecap="round" stroke-linejoin="round"/></g></svg>