<?xml version="1.0" encoding="utf-8"?><svg version="1.1" id="Calque_1" xmlns="http://www.w3.org/2000/svg" xmlns:xlink="http://www.w3.org/1999/xlink" x="0px" y="0px" width="2136px" height="718px" viewBox="-482 180 2136 718" enable-background="new -482 180 2136 718" xml:space="preserve"><g xmlns="http://www.w3.org/2000/svg"><polygon points="0,1440 0,0 2560,0 2560,1440" fill="rgb(255,255,255)" stroke-width="1" stroke-linecap="butt" stroke-linejoin="miter"/><path d="M797,571c326.2856,62.97481 652.5712,125.94962 772,149c119.4288,23.05038 32.00082,6.17633 0,0c-32.00082,-6.17633 -8.57446,-1.65494 0,0c8.57446,1.65494 2.29703,0.44344 0,0c-2.29703,-0.44344 -0.61365,-0.11882 0,0c0.61365,0.11882 0.15757,0.03184 0,0c-0.15757,-0.03184 -0.01663,-0.00853 0,0c0.01663,0.00853 -0.09106,0.00229 0,0c0.09106,-0.00229 0.38086,-0.00061 0,0c-0.38086,0.00061 -1.43237,0.00016 0,0c1.43237,-0.00016 5.34863,-0.00004 0,0c-5.34863,0.00004 -19.96215,0.00001 -298,0c-278.03785,-0.00001 -819.50002,0 -745,0c74.50002,0 764.96222,0 745,0c-19.96222,0 -750.34886,0 -745,0c5.34886,0 746.43322,0 745,0c-1.43322,0 -745.38403,0 -745,0c0.38403,0 745.1029,0 745,0c-0.1029,0 -745.02757,0 -745,0c0.02757,0 745.00739,0 745,0c-0.00739,0 -745.00198,0 -745,0c0.00198,0 745.00053,0 745,0c-0.00053,0 -745.00014,0 -745,0c0.00014,0 745.00004,0 745,0c-0.00004,0 -745.00001,0 -745,0c0.00001,0 745,0 745,0c0,0 -745,0 -745,0c0,0 745,0 745,0c0,0 -745,0 -745,0c0,0 745,0 745,0c0,0 -745,0 -745,0c0,0 745,0 745,0c0,0 -745,0 -745,0c0,0 745,0 745,0c0,0 -745,0 -745,0c0,0 745,0 745,0c0,0 -745,0 -745,0c0,0 745,0 745,0c0,0 -745,0 -745,0c0,0 745,0 745,0c0,0 -745,0 -745,0c0,0 745,0 745,0c0,0 -745,0 -745,0c0,0 745,0 745,0c0,0 -745,0 -745,0c0,0 745,0 745,0c0,0 -744.99999,0 -745,0c-0.00001,0 744.99996,0 745,0c0.00004,0 -744.99986,0 -745,0c-0.00014,0 744.99947,0 745,0c0.00053,0 -744.99802,0 -745,0c-0.00198,0 744.99261,0 745,0c0.00739,0 -744.97243,0 -745,0c-0.02757,0 744.8971,0 745,0c0.1029,0 -744.61597,0 -745,0c-0.38403,0 743.56678,0 745,0c1.43322,0 -739.65114,0 -745,0c-5.34886,0 725.03778,0 745,0c19.96222,0 -670.5,0 -745,0c-74.5,0 466.9622,0 745,0c278.0378,0 292.6512,0 298,0c5.3488,0 1.433,0 0,0c-1.433,0 -0.38319,0 0,0c0.38319,0 0.09978,0 0,0c-0.09978,0 -0.01592,0 0,0c0.01592,0 -0.0361,0 0,0c0.0361,0 0.16033,0 0,0c-0.16033,0 -0.60522,0 0,0c0.60522,0 2.26055,-0.00002 0,0c-2.26055,0.00002 -8.43698,0.00006 0,0c8.43698,-0.00006 31.48735,-0.00022 0,0c-31.48735,0.00022 -117.51244,0.00084 -149,0c-31.48756,-0.00084 -8.43759,-0.00312 0,0c8.43759,0.00312 2.26281,0.01165 0,0c-2.26281,-0.01165 -0.61364,-0.04349 0,0c0.61364,0.04349 0.19174,0.16231 0,0c-0.19174,-0.16231 -0.15332,-0.60575 0,0c0.15332,0.60575 0.42153,2.26069 0,0c-0.42153,-2.26069 -1.53281,-8.43702 0,0c1.53281,8.43702 5.70973,31.4874 0,0c-5.70973,-31.4874 -21.30609,-117.5126 -27,-149c-5.69391,-31.4874 -1.48537,-8.43702 0,0c1.48537,8.43702 0.24755,2.26069 0,0c-0.24755,-2.26069 0.49515,-0.60575 0,0c-0.49515,0.60575 -2.22816,0.16231 0,0c2.22816,-0.16231 8.41749,-0.04349 0,0c-8.41749,0.04349 -31.4418,0.01166 0,0c31.4418,-0.01166 117.34972,-0.00314 149,0c31.65028,0.00314 9.04294,0.0009 0,0c-9.04294,-0.0009 -4.52147,-0.00045 0,0c4.52147,0.00045 76.76073,0.00022 149,0" fill-opacity="0" fill="rgb(0,0,0)" stroke="rgb(0,0,0)" stroke-width="25" stroke-linecap="round" stroke-linejoin="round"/></g></svg>