<?xml version="1.0" encoding="utf-8"?><svg version="1.1" id="Calque_1" xmlns="http://www.w3.org/2000/svg" xmlns:xlink="http://www.w3.org/1999/xlink" x="0px" y="0px" width="2136px" height="718px" viewBox="-482 180 2136 718" enable-background="new -482 180 2136 718" xml:space="preserve"><g xmlns="http://www.w3.org/2000/svg"><polygon points="0,1440 0,0 2560,0 2560,1440" fill="rgb(255,255,255)" stroke-width="1" stroke-linecap="butt" stroke-linejoin="miter"/><path d="M675,720c49.66667,0 99.33333,0 149,0c49.66667,0 99.33333,0 149,0c49.66667,0 99.33333,0 149,0c49.66667,0 99.33333,0 149,0c49.66667,0 99.33333,0 149,0c49.66667,0 99.33333,0 149,0c49.66667,0 99.33333,0 149,0c49.66667,0 99.33333,0 149,0" fill-opacity="0" fill="rgb(0,0,0)" stroke="rgb(0,0,0)" stroke-width="25" stroke-linecap="round" stroke-linejoin="round"/></g></svg>