<?xml version="1.0" encoding="utf-8"?><svg version="1.1" id="Calque_1" xmlns="http://www.w3.org/2000/svg" xmlns:xlink="http://www.w3.org/1999/xlink" x="0px" y="0px" width="2136px" height="718px" viewBox="-482 180 2136 718" enable-background="new -482 180 2136 718" xml:space="preserve"><g xmlns="http://www.w3.org/2000/svg"><polygon points="0,1440 0,0 2560,0 2560,1440" fill="rgb(255,255,255)" stroke-width="1" stroke-linecap="butt" stroke-linejoin="miter"/><path d="M1244,571c-211.41395,-36.23909 -422.82789,-72.47819 -447,0c-24.17211,72.47819 138.89763,253.67365 251,298c112.10237,44.32635 173.23738,-48.21642 74,-149c-99.23738,-100.78358 -358.84713,-209.80797 -325,-149c33.84713,60.80797 361.15115,291.4483 549,298c187.84885,6.5517 236.24253,-210.98523 196,-298c-40.24253,-87.01477 -169.12126,-43.50739 -298,0c-128.87874,43.50739 -423.43937,96.25369 -718,149" fill-opacity="0" fill="rgb(0,0,0)" stroke="rgb(0,0,0)" stroke-width="25" stroke-linecap="round" stroke-linejoin="round"/></g></svg>