<?xml version="1.0" encoding="utf-8"?><svg version="1.1" id="Calque_1" xmlns="http://www.w3.org/2000/svg" xmlns:xlink="http://www.w3.org/1999/xlink" x="0px" y="0px" width="2136px" height="718px" viewBox="-482 180 2136 718" enable-background="new -482 180 2136 718" xml:space="preserve"><g xmlns="http://www.w3.org/2000/svg"><polygon points="0,1440 0,0 2560,0 2560,1440" fill="rgb(255,255,255)" stroke-width="1" stroke-linecap="butt" stroke-linejoin="miter"/><path d="M526,720c17.92433,1.12452 35.84865,2.24905 149,0c113.15135,-2.24905 321.52971,-7.87166 596,0c274.47029,7.87166 615.03249,29.23761 447,0c-168.03249,-29.23761 -844.65968,-109.07877 -921,-149c-76.34032,-39.92123 447.60622,-39.92253 447,0c-0.60622,39.92253 -525.76521,119.7689 -718,149c-192.23479,29.2311 -51.54538,7.84694 0,0c51.54538,-7.84694 13.94672,-2.15668 0,0c-13.94672,2.15668 -4.24149,0.77976 0,0c4.24149,-0.77976 3.01925,-0.96237 0,0c-3.01925,0.96237 -7.83552,3.06971 0,0c7.83552,-3.06971 28.32284,-11.31647 0,0c-28.32284,11.31647 -105.45583,42.19616 0,0c105.45583,-42.19616 393.50048,-157.46818 569,-149c175.49952,8.46818 238.45392,140.67657 176,149c-62.45392,8.32343 -250.31614,-107.23811 -474,-149c-223.68386,-41.76189 -483.18936,-9.72415 -298,0c185.18936,9.72415 815.07358,-2.86529 894,0c78.92642,2.86529 -393.10495,21.18532 -596,0c-202.89505,-21.18532 -136.65376,-81.876 0,0c136.65376,81.876 343.72,306.31869 549,298c205.28,-8.31869 408.77376,-249.39876 345,-298c-63.77376,-48.60124 -394.81505,95.27636 -718,149c-323.18495,53.72364 -638.51355,17.29333 -447,0c191.51355,-17.29333 889.86926,-15.44968 1192,0c302.13074,15.44968 208.03651,44.50539 0,0c-208.03651,-44.50539 -530.01531,-162.57189 -623,-149c-92.98469,13.57189 43.02472,158.78216 176,149c132.97528,-9.78216 262.91642,-174.55673 271,-149c8.08358,25.55673 -105.69041,241.44478 -196,298c-90.30959,56.55522 -157.1548,-46.22239 -224,-149c-66.8452,-102.77761 -256.9226,-51.3888 -447,0" fill-opacity="0" fill="rgb(0,0,0)" stroke="rgb(0,0,0)" stroke-width="25" stroke-linecap="round" stroke-linejoin="round"/></g></svg>