<?xml version="1.0" encoding="utf-8"?><svg version="1.1" id="Calque_1" xmlns="http://www.w3.org/2000/svg" xmlns:xlink="http://www.w3.org/1999/xlink" x="0px" y="0px" width="2136px" height="718px" viewBox="-482 180 2136 718" enable-background="new -482 180 2136 718" xml:space="preserve"><g xmlns="http://www.w3.org/2000/svg"><polygon points="0,1440 0,0 2560,0 2560,1440" fill="rgb(255,255,255)" stroke-width="1" stroke-linecap="butt" stroke-linejoin="miter"/><path d="M499,571c49.66635,0.00012 99.33269,0.00024 149,0c49.66731,-0.00024 99.33557,-0.00084 149,0c49.66443,0.00084 99.32501,0.00312 149,0c49.67499,-0.00312 99.36438,-0.01165 149,0c49.63562,0.01165 99.21747,0.04349 149,0c49.78253,-0.04349 99.76574,-0.16231 149,0c49.23426,0.16231 97.71956,0.60575 149,0c51.28044,-0.60575 105.35603,-2.26069 149,0c43.64397,2.26069 76.85634,8.43702 149,0c72.14366,-8.43702 183.21861,-31.48741 149,0c-34.21861,31.48741 -213.73078,117.5126 -271,149c-57.26922,31.4874 7.70453,8.43702 0,0c-7.70453,-8.43702 -88.08732,-2.26068 -149,0c-60.91268,2.26068 -102.35524,0.60569 -149,0c-46.64476,-0.60569 -98.49172,-0.16209 -149,0c-50.50828,0.16209 -99.67788,0.04265 -149,0c-49.32212,-0.04265 -98.79675,-0.00853 -149,0c-50.20325,0.00853 -101.13512,-0.00853 -149,0c-47.86488,0.00853 -92.66277,0.04265 -149,0c-56.33723,-0.04265 -124.2138,-0.16209 -149,0c-24.7862,0.16209 -6.48204,0.60569 0,0c6.48204,-0.60569 1.14197,-2.26068 0,0c-1.14197,2.26068 1.91418,8.43702 0,0c-1.91418,-8.43702 -8.79868,-31.4874 0,0c8.79868,31.4874 33.28054,117.51259 74,149c40.71946,31.48741 97.67652,8.43702 150,0c52.32348,-8.43702 100.01339,-2.26069 149,0c48.98661,2.26069 99.26993,0.60575 149,0c49.73007,-0.60575 98.90688,-0.16231 149,0c50.09312,0.16231 101.10254,0.04349 149,0c47.89746,-0.04349 92.68295,-0.01167 149,0c56.31705,0.01167 124.16567,0.00317 149,0c24.83433,-0.00317 6.65439,-0.001 0,0c-6.65439,0.001 -1.78321,0.00085 0,0c1.78321,-0.00085 0.47845,-0.00239 0,0c-0.47845,0.00239 -0.13058,0.00871 0,0c0.13058,-0.00871 0.04387,-0.03247 0,0c-0.04387,0.03247 -0.04492,0.12115 0,0c0.04492,-0.12115 0.13579,-0.45214 0,0c-0.13579,0.45214 -0.49826,1.68741 0,0c0.49826,-1.68741 1.85723,-6.29748 0,0c-1.85723,6.29748 -6.93066,23.50252 0,0c6.93066,-23.50252 25.86539,-87.7126 74,-149c48.13461,-61.2874 125.46908,-119.65214 122,-149c-3.46908,-29.34786 -87.74173,-29.67885 -149,0c-61.25827,29.67885 -99.50217,89.36754 -122,149c-22.49783,59.63246 -29.2496,119.2087 -74,149c-44.7504,29.7913 -127.49942,29.79767 -149,0c-21.50058,-29.79767 18.24726,-89.39938 74,-149c55.75274,-59.60062 127.51036,-119.20017 122,-149c-5.51036,-29.79983 -88.28869,-29.79996 -149,0c-60.71131,29.79996 -99.35561,89.39999 -122,149c-22.64439,59.60001 -29.28887,119.2 -74,149c-44.71113,29.8 -127.4889,29.8 -149,0c-21.5111,-29.8 18.24449,-89.4 74,-149c55.75551,-59.6 127.51094,-119.2 122,-149c-5.51094,-29.8 -88.28826,-29.80001 -149,0c-60.71174,29.80001 -99.35791,89.40003 -122,149c-22.64209,59.59997 -29.28011,119.19988 -74,149c-44.71989,29.80012 -127.52165,29.80046 -149,0c-21.47835,-29.80046 18.3667,-89.40171 74,-149c55.6333,-59.59829 127.05486,-119.19363 122,-149c-5.05486,-29.80637 -86.58613,-29.82376 -149,0c-62.41387,29.82376 -105.71035,89.48869 -122,149c-16.28965,59.51131 -5.57248,118.86901 -75,149c-69.42752,30.13099 -218.99972,31.03527 -237.5,0c-18.50028,-31.03527 94.07135,-94.01008 163.5,-149c69.42865,-54.98992 95.71433,-101.99496 122,-149c26.28567,-47.00504 -61.35716,-23.50252 -149,0" fill-opacity="0" fill="rgb(0,0,0)" stroke="rgb(0,0,0)" stroke-width="25" stroke-linecap="round" stroke-linejoin="round"/></g></svg>