<?xml version="1.0" encoding="utf-8"?><svg version="1.1" id="Calque_1" xmlns="http://www.w3.org/2000/svg" xmlns:xlink="http://www.w3.org/1999/xlink" x="0px" y="0px" width="2136px" height="718px" viewBox="-482 180 2136 718" enable-background="new -482 180 2136 718" xml:space="preserve"><g xmlns="http://www.w3.org/2000/svg"><polygon points="0,1440 0,0 2560,0 2560,1440" fill="rgb(255,255,255)" stroke-width="1" stroke-linecap="butt" stroke-linejoin="miter"/><path d="M600,869c-29.64139,-47.23111 -59.28278,-94.46222 -74,-149c-14.71722,-54.53778 -14.51028,-116.38223 -27,-149c-12.48972,-32.61777 -37.6761,-36.00885 0,0c37.6761,36.00885 138.21466,111.41763 176,149c37.78534,37.58237 12.81744,37.33833 0,0c-12.81744,-37.33833 -13.48442,-111.77095 -27,-149c-13.51558,-37.22905 -39.87974,-37.25453 0,0c39.87974,37.25453 146.0034,111.78907 176,149c29.9966,37.21093 -16.13385,37.09825 0,0c16.13385,-37.09825 94.53201,-111.18207 122,-149c27.46799,-37.81793 4.00581,-39.36998 0,0c-4.00581,39.36998 11.44474,119.66199 27,149c15.55526,29.33801 31.21523,7.72203 0,0c-31.21523,-7.72203 -109.30564,-1.5501 -149,0c-39.69436,1.5501 -40.99266,-1.52162 0,0c40.99266,1.52162 124.27629,7.63657 149,0c24.72371,-7.63657 -9.11249,-29.02466 0,0c9.11249,29.02466 61.17366,108.46208 75,149c13.82634,40.53792 -10.58215,42.17633 0,0c10.58215,-42.17633 56.15492,-128.1674 74,-149c17.84508,-20.8326 7.96246,23.49325 0,0c-7.96246,-23.49325 -14.00474,-114.80562 -27,-149c-12.99526,-34.19438 -32.94348,-11.27078 0,0c32.94348,11.27078 118.77866,10.88873 149,0c30.22134,-10.88873 4.82884,-32.28412 0,0c-4.82884,32.28412 10.90597,118.24777 27,149c16.09403,30.75223 32.54728,6.29303 0,0c-32.54728,-6.29303 -114.09511,5.5801 -149,0c-34.90489,-5.5801 -23.16686,-28.61342 0,0c23.16686,28.61342 57.76255,108.87358 75,149c17.23745,40.12642 17.11666,40.11911 0,0c-17.11666,-40.11911 -51.22921,-120.35002 -75,-149c-23.77079,-28.64998 -37.19983,-5.71902 0,0c37.19983,5.71902 125.02853,-5.77388 149,0c23.97147,5.77388 -15.91428,28.81456 0,0c15.91428,-28.81456 87.6286,-109.48435 122,-149c34.3714,-39.51565 31.39989,-37.87716 0,0c-31.39989,37.87716 -91.22816,111.99297 -122,149c-30.77184,37.00703 -32.48726,36.90527 0,0c32.48726,-36.90527 99.17721,-110.61404 122,-149c22.82279,-38.38596 1.77842,-41.44911 0,0c-1.77842,41.44911 15.70911,127.41047 27,149c11.29089,21.58953 16.38515,-21.19278 0,0c-16.38515,21.19278 -54.24969,106.36064 -74,149c-19.75031,42.63936 -21.38639,42.75022 0,0c21.38639,-42.75022 65.79524,-128.36151 74,-149c8.20476,-20.63849 -19.79457,23.69583 0,0c19.79457,-23.69583 87.38305,-115.4218 122,-149c34.61695,-33.5782 36.26238,-9.00862 0,0c-36.26238,9.00862 -110.43258,2.45629 -149,0c-38.56742,-2.45629 -41.53207,-0.81653 0,0c41.53207,0.81653 127.56085,0.80982 149,0c21.43915,-0.80982 -21.71135,-2.42277 0,0c21.71135,2.42277 108.28453,8.88124 149,0c40.71547,-8.88124 35.57322,-33.10219 0,0c-35.57322,33.10219 -101.5774,123.52751 -122,149c-20.4226,25.47249 4.7364,-14.00786 0,0c-4.7364,14.00786 -39.3682,81.50393 -74,149c-34.6318,67.49607 -17.3159,33.74803 0,0" fill-opacity="0" fill="rgb(0,0,0)" stroke="rgb(0,0,0)" stroke-width="25" stroke-linecap="round" stroke-linejoin="round"/></g></svg>