<?xml version="1.0" encoding="utf-8"?><svg version="1.1" id="Calque_1" xmlns="http://www.w3.org/2000/svg" xmlns:xlink="http://www.w3.org/1999/xlink" x="0px" y="0px" width="2136px" height="718px" viewBox="-482 180 2136 718" enable-background="new -482 180 2136 718" xml:space="preserve"><g xmlns="http://www.w3.org/2000/svg"><polygon points="0,1440 0,0 2560,0 2560,1440" fill="rgb(255,255,255)" stroke-width="1" stroke-linecap="butt" stroke-linejoin="miter"/><path d="M1691,571c-630.34571,175.93456 -1260.69141,351.86912 -1328.5,298c-67.80859,-53.86912 426.91994,-337.54192 657.5,-447c230.58006,-109.45808 197.01166,-44.70142 149,0c-48.01166,44.70142 -110.46657,69.34762 -223,149c-112.53343,79.65238 -275.14539,214.31096 -346,298c-70.85461,83.68904 -49.95188,116.40856 150,0c199.95188,-116.40856 578.9529,-381.94518 717,-447c138.0471,-65.05482 35.14028,70.37218 -74,149c-109.14028,78.62782 -224.51404,100.45647 -271,149c-46.48596,48.54353 -24.08414,123.80196 -74,149c-49.91586,25.19804 -172.14941,0.33571 -149,0c23.14941,-0.33571 191.6818,23.8552 298,0c106.3182,-23.8552 150.42223,-95.75652 223,-149c72.57777,-53.24348 173.62928,-87.82912 271,-149c97.37072,-61.17088 191.06066,-148.927 223,-149c31.93934,-0.073 2.12807,87.53714 -74,149c-76.12807,61.46286 -198.57294,96.77846 -271,149c-72.42706,52.22154 -94.8363,121.34901 -74,149c20.8363,27.65099 84.91815,13.82549 149,0c64.08185,-13.82549 106.54092,-6.91275 149,0" fill-opacity="0" fill="rgb(0,0,0)" stroke="rgb(0,0,0)" stroke-width="25" stroke-linecap="round" stroke-linejoin="round"/></g></svg>