<?xml version="1.0" encoding="utf-8"?><svg version="1.1" id="Calque_1" xmlns="http://www.w3.org/2000/svg" xmlns:xlink="http://www.w3.org/1999/xlink" x="0px" y="0px" width="2136px" height="718px" viewBox="-482 180 2136 718" enable-background="new -482 180 2136 718" xml:space="preserve"><g xmlns="http://www.w3.org/2000/svg"><polygon points="0,1440 0,0 2560,0 2560,1440" fill="rgb(255,255,255)" stroke-width="1" stroke-linecap="butt" stroke-linejoin="miter"/><path d="M499,571c-15.87299,-1.12455 -31.74597,-2.2491 0,0c31.74597,2.2491 111.1109,7.87185 149,0c37.8891,-7.87185 34.30236,-29.2383 0,0c-34.30236,29.2383 -99.32035,109.08135 -122,149c-22.67965,39.91865 -3.02095,39.91289 0,0c3.02095,-39.91289 -10.59584,-119.73292 -27,-149c-16.40416,-29.26708 -35.59567,-7.98121 0,0c35.59567,7.98121 125.97853,2.65778 149,0c23.02147,-2.65778 -21.31846,-2.64989 0,0c21.31846,2.64989 108.29532,7.94177 149,0c40.70468,-7.94177 35.13717,-29.1172 0,0c-35.13717,29.1172 -99.84402,108.52702 -122,149c-22.15598,40.47298 -1.76109,42.0091 0,0c1.76109,-42.0091 -15.11163,-127.56343 -27,-149c-11.88837,-21.43657 -18.7924,21.24463 0,0c18.7924,-21.24463 63.28124,-106.41508 74,-149c10.71876,-42.58492 -12.33255,-42.58432 0,0c12.33255,42.58432 60.04895,127.75234 75,149c14.95105,21.24766 -2.86325,-21.42505 0,0c2.86325,21.42505 26.40405,106.94786 27,149c0.59595,42.05214 -21.75295,40.63361 0,0c21.75295,-40.63361 87.60776,-120.48231 122,-149c34.39224,-28.51769 37.32192,-5.70438 0,0c-37.32192,5.70438 -114.89542,-5.70016 -149,0c-34.10458,5.70016 -24.74023,28.50502 0,0c24.74023,-28.50502 64.85633,-108.31994 74,-149c9.14367,-40.68006 -12.6851,-42.22527 0,0c12.6851,42.22527 59.88408,128.22102 75,149c15.11592,20.77898 -1.85123,-23.65881 0,0c1.85123,23.65881 22.52085,115.4142 27,149c4.47915,33.5858 -7.23217,9.00199 0,0c7.23217,-9.00199 33.40781,-2.42217 0,0c-33.40781,2.42217 -126.39908,0.68668 -149,0c-22.60092,-0.68668 25.18851,-0.32456 0,0c-25.18851,0.32456 -123.35495,0.61156 -149,0c-25.64505,-0.61156 21.2313,-2.12169 0,0c-21.2313,2.12169 -110.57024,7.87518 -149,0c-38.42976,-7.87518 -25.95035,-29.37905 0,0c25.95035,29.37905 65.37165,109.64102 74,149c8.62835,39.35898 -13.53625,37.81496 0,0c13.53625,-37.81496 62.77334,-111.90085 75,-149c12.22666,-37.09915 -12.55711,-37.21156 0,0c12.55711,37.21156 62.45511,111.74709 75,149c12.54489,37.25291 -12.26332,37.22321 0,0c12.26332,-37.22321 61.59818,-111.63992 74,-149c12.40182,-37.36008 -12.12941,-37.66353 0,0c12.12941,37.66353 60.91946,113.29403 75,149c14.08054,35.70597 -6.54842,31.48742 0,0c6.54842,-31.48742 40.27421,-90.24371 74,-149c33.72579,-58.75629 16.8629,-29.37814 0,0" fill-opacity="0" fill="rgb(0,0,0)" stroke="rgb(0,0,0)" stroke-width="25" stroke-linecap="round" stroke-linejoin="round"/></g></svg>