<?xml version="1.0" encoding="utf-8"?><svg version="1.1" id="Calque_1" xmlns="http://www.w3.org/2000/svg" xmlns:xlink="http://www.w3.org/1999/xlink" x="0px" y="0px" width="2136px" height="718px" viewBox="-482 180 2136 718" enable-background="new -482 180 2136 718" xml:space="preserve"><g xmlns="http://www.w3.org/2000/svg"><polygon points="0,1440 0,0 2560,0 2560,1440" fill="rgb(255,255,255)" stroke-width="1" stroke-linecap="butt" stroke-linejoin="miter"/><path d="M1122,720c-46.71235,3.43876 -93.4247,6.87753 -149,0c-55.5753,-6.87753 -120.01354,-24.07135 -149,0c-28.98646,24.07135 -22.52115,89.40787 -74,149c-51.47885,59.59213 -160.90186,113.43987 -37.5,149c123.40186,35.56013 479.62859,52.83264 559,0c79.37141,-52.83264 -118.1125,-175.77043 -149.5,-298c-31.3875,-122.22957 103.3214,-243.75092 196,-298c92.6786,-54.24908 143.32691,-41.22588 149,0c5.67309,41.22588 -33.62903,110.65445 -74,149c-40.37097,38.34555 -81.81077,45.60809 -122,149c-40.18923,103.39191 -79.12787,302.91321 0.5,298c79.62787,-4.91321 277.82225,-214.26092 297.5,-298c19.67775,-83.73908 -139.16112,-41.86954 -298,0c-158.83888,41.86954 -116.41944,95.43477 -74,149" fill-opacity="0" fill="rgb(0,0,0)" stroke="rgb(0,0,0)" stroke-width="25" stroke-linecap="round" stroke-linejoin="round"/></g></svg>