<?xml version="1.0" encoding="utf-8"?><svg version="1.1" id="Calque_1" xmlns="http://www.w3.org/2000/svg" xmlns:xlink="http://www.w3.org/1999/xlink" x="0px" y="0px" width="2136px" height="718px" viewBox="-482 180 2136 718" enable-background="new -482 180 2136 718" xml:space="preserve"><g xmlns="http://www.w3.org/2000/svg"><polygon points="0,1440 0,0 2560,0 2560,1440" fill="rgb(255,255,255)" stroke-width="1" stroke-linecap="butt" stroke-linejoin="miter"/><path d="M600,869c-29.64139,-47.23111 -59.28278,-94.46222 -74,-149c-14.71722,-54.53778 -14.51028,-116.38223 -27,-149c-12.48972,-32.61777 -37.6761,-36.00885 0,0c37.6761,36.00885 138.21466,111.41763 176,149c37.78534,37.58237 12.81744,37.33833 0,0c-12.81744,-37.33833 -13.48442,-111.77095 -27,-149c-13.51558,-37.22905 -39.87975,-37.25453 0,0c39.87975,37.25453 146.00341,111.78909 176,149c29.99659,37.21091 -16.13388,37.09819 0,0c16.13388,-37.09819 94.53212,-111.18184 122,-149c27.46788,-37.81816 4.00542,-39.37081 0,0c-4.00542,39.37081 11.44622,119.66509 27,149c15.55378,29.33491 31.2097,7.71044 0,0c-31.2097,-7.71044 -109.28501,-1.50685 -149,0c-39.71499,1.50685 -41.06967,-1.68303 0,0c41.06967,1.68303 124.56368,8.23899 149,0c24.43632,-8.23899 -10.18506,-31.27293 0,0c10.18506,31.27293 65.17657,116.85272 75,149c9.82343,32.14728 -25.5212,10.86205 0,0c25.5212,-10.86205 111.90825,-11.30092 149,0c37.09175,11.30092 24.88821,34.34162 0,0c-24.88821,-34.34162 -62.46109,-126.06558 -75,-149c-12.53891,-22.93442 -0.04384,22.9207 0,0c0.04384,-22.9207 -12.36354,-114.61722 -27,-149c-14.63646,-34.38278 -31.50201,-11.45184 0,0c31.50201,11.45184 111.37158,11.42456 149,0c37.62842,-11.42456 33.01569,-34.2464 0,0c-33.01569,34.2464 -94.43435,125.56102 -122,149c-27.56565,23.43898 -21.2783,-20.9977 0,0c21.2783,20.9977 57.54756,107.42977 75,149c17.45244,41.57023 16.08806,38.27863 0,0c-16.08806,-38.27863 -46.89979,-111.54427 -75,-149c-28.10021,-37.45573 -53.48889,-39.10153 0,0c53.48889,39.10153 185.85536,118.95039 224,149c38.14464,30.04961 -17.93257,10.29998 0,0c17.93257,-10.29998 109.8749,-11.1503 149,0c39.1251,11.1503 25.43297,34.30122 0,0c-25.43297,-34.30122 -62.60676,-126.05457 -75,-149c-12.39324,-22.94543 -0.00591,22.91707 0,0c0.00591,-22.91707 -12.3696,-114.6137 -27,-149c-14.6304,-34.3863 -31.51569,-11.46225 0,0c31.51569,11.46225 111.43237,11.46271 149,0c37.56763,-11.46271 32.7862,-34.38858 0,0c-32.7862,34.38858 -93.57718,126.09163 -122,149c-28.42282,22.90837 -24.47747,-22.97792 0,0c24.47747,22.97792 69.48706,114.82005 75,149c5.51294,34.17995 -28.47076,10.69772 0,0c28.47076,-10.69772 119.39597,-8.61092 149,0c29.60403,8.61092 -2.11314,23.74598 0,0c2.11314,-23.74598 38.05657,-86.37299 74,-149c35.94343,-62.62701 17.97172,-31.31351 0,0" fill-opacity="0" fill="rgb(0,0,0)" stroke="rgb(0,0,0)" stroke-width="25" stroke-linecap="round" stroke-linejoin="round"/></g></svg>