<?xml version="1.0" encoding="utf-8"?><svg version="1.1" id="Calque_1" xmlns="http://www.w3.org/2000/svg" xmlns:xlink="http://www.w3.org/1999/xlink" x="0px" y="0px" width="2136px" height="718px" viewBox="-482 180 2136 718" enable-background="new -482 180 2136 718" xml:space="preserve"><g xmlns="http://www.w3.org/2000/svg"><polygon points="0,1440 0,0 2560,0 2560,1440" fill="rgb(255,255,255)" stroke-width="1" stroke-linecap="butt" stroke-linejoin="miter"/><path d="M362.5,869c94.61913,17.99702 189.23826,35.99405 237.5,0c48.26174,-35.99405 50.1661,-125.97917 75,-149c24.8339,-23.02083 72.59735,20.92265 149,0c76.40265,-20.92265 181.44451,-106.71142 271,-149c89.55549,-42.28858 163.62463,-41.07695 149,0c-14.62463,41.07695 -117.94302,122.01924 -122,149c-4.05698,26.98076 91.14746,0 149,0c57.85254,0 78.35319,26.98076 149,0c70.64681,-26.98076 191.43978,-107.92305 271,-149c79.56022,-41.07695 117.88768,-42.28858 149,0c31.11232,42.28858 55.00949,128.07735 27,149c-28.00949,20.92265 -107.92563,-23.02083 -149,0c-41.07437,23.02083 -43.30696,113.00595 -74,149c-30.69304,35.99405 -89.84652,17.99702 -149,0c-59.15348,-17.99702 -141.57674,-83.49851 -224,-149" fill-opacity="0" fill="rgb(0,0,0)" stroke="rgb(0,0,0)" stroke-width="25" stroke-linecap="round" stroke-linejoin="round"/></g></svg>