<?xml version="1.0" encoding="utf-8"?><svg version="1.1" id="Calque_1" xmlns="http://www.w3.org/2000/svg" xmlns:xlink="http://www.w3.org/1999/xlink" x="0px" y="0px" width="2136px" height="718px" viewBox="-482 180 2136 718" enable-background="new -482 180 2136 718" xml:space="preserve"><g xmlns="http://www.w3.org/2000/svg"><polygon points="0,1440 0,0 2560,0 2560,1440" fill="rgb(255,255,255)" stroke-width="1" stroke-linecap="butt" stroke-linejoin="miter"/><path d="M499,571c8.04981,47.00504 16.09962,94.01008 27,149c10.90038,54.98992 24.65132,117.96473 74,149c49.34868,31.03527 134.29511,30.13099 150,0c15.70489,-30.13099 -37.83175,-89.48869 -75,-149c-37.16825,-59.51131 -57.9681,-119.17624 -27,-149c30.9681,-29.82376 113.70416,-29.80637 149,0c35.29584,29.80637 23.15147,89.40171 27,149c3.84853,59.59829 23.68998,119.19954 75,149c51.31002,29.80046 134.08861,29.80012 149,0c14.91139,-29.80012 -38.04443,-89.40003 -75,-149c-36.95557,-59.59997 -57.91089,-119.19999 -27,-149c30.91089,-29.80001 113.68798,-29.8 149,0c35.31202,29.8 23.15897,89.4 27,149c3.84103,59.6 23.67613,119.2 75,149c51.32387,29.8 134.13651,29.8 149,0c14.86349,-29.8 -38.22216,-89.4 -75,-149c-36.77784,-59.6 -57.24788,-119.2 -27,-149c30.24788,-29.8 111.21368,-29.8 149,0c37.78632,29.8 32.39316,89.4 27,149c-5.39316,59.6 34.80342,104.3 75,149" fill-opacity="0" fill="rgb(0,0,0)" stroke="rgb(0,0,0)" stroke-width="25" stroke-linecap="round" stroke-linejoin="round"/></g></svg>