<?xml version="1.0" encoding="utf-8"?><svg version="1.1" id="Calque_1" xmlns="http://www.w3.org/2000/svg" xmlns:xlink="http://www.w3.org/1999/xlink" x="0px" y="0px" width="2136px" height="718px" viewBox="-482 180 2136 718" enable-background="new -482 180 2136 718" xml:space="preserve"><g xmlns="http://www.w3.org/2000/svg"><polygon points="0,1440 0,0 2560,0 2560,1440" fill="rgb(255,255,255)" stroke-width="1" stroke-linecap="butt" stroke-linejoin="miter"/><path d="M311.5,1018c203.49146,-132.10001 406.98291,-264.20001 512.5,-298c105.51709,-33.79999 113.0598,30.70004 149,0c35.9402,-30.70004 100.27788,-156.60014 122,-149c21.72212,7.60014 0.82866,148.70053 27,149c26.17134,0.29947 99.40747,-140.20199 122,-149c22.59253,-8.79801 -5.45855,114.10742 27,149c32.45855,34.89258 125.42674,-18.22768 149,0c23.57326,18.22768 -22.2484,107.8033 -74,149c-51.7516,41.1967 -109.43312,34.0145 -149,0c-39.56688,-34.0145 -61.01911,-94.86128 -75,-149c-13.98089,-54.13872 -20.49045,-101.56936 -27,-149c-6.50955,-47.43064 71.24522,-23.71532 149,0" fill-opacity="0" fill="rgb(0,0,0)" stroke="rgb(0,0,0)" stroke-width="25" stroke-linecap="round" stroke-linejoin="round"/></g></svg>