<?xml version="1.0" encoding="utf-8"?><svg version="1.1" id="Calque_1" xmlns="http://www.w3.org/2000/svg" xmlns:xlink="http://www.w3.org/1999/xlink" x="0px" y="0px" width="2136px" height="718px" viewBox="-482 180 2136 718" enable-background="new -482 180 2136 718" xml:space="preserve"><g xmlns="http://www.w3.org/2000/svg"><polygon points="0,1440 0,0 2560,0 2560,1440" fill="rgb(255,255,255)" stroke-width="1" stroke-linecap="butt" stroke-linejoin="miter"/><path d="M871,422c-49.53049,-0.45785 -99.06098,-0.91571 -149,0c-49.93902,0.91571 -100.28658,3.20497 -149,0c-48.71342,-3.20497 -95.79272,-11.90418 -149,0c-53.20728,11.90418 -112.54255,44.41175 -112.5,149c0.04255,104.58825 59.46291,281.25718 51,298c-8.46291,16.74282 -84.80911,-126.44049 -37.5,-149c47.30911,-22.55951 218.27351,75.50476 275,149c56.72649,73.49524 -0.78493,122.42145 112.5,149c113.28493,26.57855 397.36623,30.80943 559,0c161.63377,-30.80943 200.82002,-96.65918 223.5,-149c22.67998,-52.34082 28.85368,-91.17273 74,-149c45.14632,-57.82727 129.26527,-134.64992 122,-149c-7.26527,-14.35008 -105.91474,33.77241 -149,0c-43.08526,-33.77241 -30.6063,-149.43972 -75,-149c-44.3937,0.43972 -145.66004,116.98648 -223,149c-77.33996,32.01352 -130.75352,-20.50618 -149,0c-18.24648,20.50618 -1.32586,114.03825 27,149c28.32586,34.96175 68.05697,11.35319 149,0c80.94303,-11.35319 203.098,-10.45099 298,0c94.902,10.45099 162.55105,30.45078 149,0c-13.55105,-30.45078 -108.30221,-111.35213 -176,-149c-67.69779,-37.64787 -108.34223,-32.04225 -149,0c-40.65777,32.04225 -81.32889,90.52112 -122,149c-40.67111,58.47888 54.16444,29.23944 149,0" fill-opacity="0" fill="rgb(0,0,0)" stroke="rgb(0,0,0)" stroke-width="25" stroke-linecap="round" stroke-linejoin="round"/></g></svg>