<?xml version="1.0" encoding="utf-8"?><svg version="1.1" id="Calque_1" xmlns="http://www.w3.org/2000/svg" xmlns:xlink="http://www.w3.org/1999/xlink" x="0px" y="0px" width="2136px" height="718px" viewBox="-482 180 2136 718" enable-background="new -482 180 2136 718" xml:space="preserve"><g xmlns="http://www.w3.org/2000/svg"><polygon points="0,1440 0,0 2560,0 2560,1440" fill="rgb(255,255,255)" stroke-width="1" stroke-linecap="butt" stroke-linejoin="miter"/><path d="M362.5,869c504.29164,-153.4204 1008.58327,-306.84081 1179.5,-298c170.91673,8.84081 8.45855,179.94283 -47,298c-55.45855,118.05717 -3.91749,183.0695 -223.5,149c-219.58251,-34.0695 -710.2886,-167.22083 -596.5,-298c113.7886,-130.77917 832.0719,-259.18618 1016,-149c183.9281,110.18618 -166.499,458.96555 -419.5,447c-253.001,-11.96555 -408.57591,-384.67602 -474.5,-447c-65.92409,-62.32398 -42.19737,185.73853 -47,298c-4.80263,112.26147 -38.13463,88.7219 149,0c187.13463,-88.7219 594.73588,-242.62614 643,-298c48.26412,-55.37386 -262.80888,-12.21736 -447,0c-184.19112,12.21736 -241.50037,-6.50444 -298,0c-56.49963,6.50444 -112.18965,38.23512 27,149c139.18965,110.76488 473.25897,300.56396 447.5,298c-25.75897,-2.56396 -411.34623,-197.49098 -298.5,-298c112.84623,-100.50902 724.12597,-106.60006 718,-149c-6.12597,-42.39994 -629.65763,-121.10879 -745,0c-115.34237,121.10879 277.50457,442.03524 325.5,447c47.99543,4.96476 -248.86064,-306.03215 -176.5,-447c72.36064,-140.96785 513.93799,-111.90664 596,0c82.06201,111.90664 -195.39131,306.65869 -196,298c-0.60869,-8.65869 275.62726,-220.72814 196,-298c-79.62726,-77.27186 -515.11774,-19.74613 -745,0c-229.88226,19.74613 -254.15632,1.71266 0,0c254.15632,-1.71266 786.743,12.89548 745,0c-41.743,-12.89548 -657.81568,-53.29457 -1043,0c-385.18432,53.29457 -539.48028,200.28279 -285.5,298c253.98028,97.71721 916.23678,146.16342 909,149c-7.23678,2.83658 -683.96685,-39.93646 -909,-149c-225.03315,-109.06354 1.63062,-284.41758 285.5,-298c283.86938,-13.58242 624.94437,134.60677 623,149c-1.94437,14.39323 -346.9081,-105.00952 -474,-149c-127.0919,-43.99048 -36.31197,-12.56871 0,0c36.31197,12.56871 18.15599,6.28435 0,0c-18.15599,-6.28435 -9.07799,-3.14218 0,0" fill-opacity="0" fill="rgb(0,0,0)" stroke="rgb(0,0,0)" stroke-width="25" stroke-linecap="round" stroke-linejoin="round"/></g></svg>