<?xml version="1.0" encoding="utf-8"?><svg version="1.1" id="Calque_1" xmlns="http://www.w3.org/2000/svg" xmlns:xlink="http://www.w3.org/1999/xlink" x="0px" y="0px" width="2136px" height="718px" viewBox="-482 180 2136 718" enable-background="new -482 180 2136 718" xml:space="preserve"><g xmlns="http://www.w3.org/2000/svg"><polygon points="0,1440 0,0 2560,0 2560,1440" fill="rgb(255,255,255)" stroke-width="1" stroke-linecap="butt" stroke-linejoin="miter"/><path d="M499,571c55.0588,-18.07886 110.11759,-36.15772 149,0c38.88241,36.15772 61.58843,126.55201 27,149c-34.58843,22.44799 -126.47132,-23.05032 -149,0c-22.52868,23.05032 24.29686,114.64925 74,149c49.70314,34.35075 102.2839,11.4533 150,0c47.7161,-11.4533 90.56756,-11.46244 149,0c58.43244,11.46244 132.44585,34.39646 149,0c16.55415,-34.39646 -24.35098,-126.1234 -75,-149c-50.64902,-22.8766 -111.04193,23.09715 -149,0c-37.95807,-23.09715 -53.4813,-115.26521 -27,-149c26.4813,-33.73479 94.96713,-9.0363 149,0c54.03287,9.0363 93.61279,2.4104 149,0c55.38721,-2.4104 126.58171,-0.60529 149,0c22.41829,0.60529 -3.93963,0.01075 0,0c3.93963,-0.01075 38.1768,0.56228 0,0c-38.1768,-0.56228 -148.76759,-2.25986 -149,0c-0.23241,2.25986 109.89354,8.47715 149,0c39.10646,-8.47715 7.19341,-31.64876 0,0c-7.19341,31.64876 10.33282,118.11788 27,149c16.66718,30.88212 32.4753,6.17723 0,0c-32.4753,-6.17723 -113.23401,6.17321 -149,0c-35.76599,-6.17321 -26.53925,-30.87006 0,0c26.53925,30.87006 70.391,117.30702 75,149c4.609,31.69298 -30.02477,8.64199 0,0c30.02477,-8.64199 124.70807,-2.87499 149,0c24.29193,2.87499 -21.80751,2.85797 0,0c21.80751,-2.85797 111.52198,-8.5569 149,0c37.47802,8.5569 22.7196,31.36964 0,0c-22.7196,-31.36964 -53.40037,-116.92166 -75,-149c-21.59963,-32.07834 -34.11813,-10.68299 0,0c34.11813,10.68299 114.87289,10.65361 149,0c34.12711,-10.65361 21.62658,-31.93145 0,0c-21.62658,31.93145 -52.3792,117.0722 -74,149c-21.6208,31.9278 -34.10979,10.64265 0,0c34.10979,-10.64265 114.81835,-10.64282 149,0c34.18165,10.64282 21.83641,31.92862 0,0c-21.83641,-31.92862 -53.16397,-117.07165 -75,-149c-21.83603,-31.92835 -34.18053,-10.64202 0,0c34.18053,10.64202 114.8861,10.63972 149,0c34.1139,-10.63972 21.63613,-31.91687 0,0c-21.63613,31.91687 -52.43063,117.02774 -74,149c-21.56937,31.97226 -33.91363,10.80589 0,0c33.91363,-10.80589 114.08515,-11.2513 149,0c34.91485,11.2513 24.57305,34.19931 0,0c-24.57305,-34.19931 -63.37733,-125.54594 -75,-149c-11.62267,-23.45406 3.93627,20.98445 0,0c-3.93627,-20.98445 -27.36774,-107.39185 -27,-149c0.36774,-41.60815 24.53469,-38.41704 0,0c-24.53469,38.41704 -97.77101,112.06 -122,149c-24.22899,36.94 0.54936,37.17703 0,0c-0.54936,-37.17703 -26.42643,-111.76811 -27,-149c-0.57357,-37.23189 24.15637,-37.10458 0,0c-24.15637,37.10458 -97.19906,111.18644 -122,149c-24.80094,37.81356 -1.36015,39.35882 0,0c1.36015,-39.35882 -19.36034,-119.62174 -27,-149c-7.63966,-29.37826 -2.19847,-7.87188 0,0c2.19847,7.87188 1.15423,2.10925 0,0c-1.15423,-2.10925 -2.41845,-0.56511 0,0c2.41845,0.56511 8.51956,0.15121 0,0c-8.51956,-0.15121 -31.65979,-0.03973 0,0c31.65979,0.03973 118.11962,0.00769 149,0c30.88038,-0.00769 6.18132,0.00895 0,0c-6.18132,-0.00895 6.15509,-0.04349 0,0c-6.15509,0.04349 -30.80168,0.16502 0,0c30.80168,-0.16502 117.05163,-0.61657 149,0c31.94837,0.61657 9.59516,2.30127 0,0c-9.59516,-2.30127 -6.43228,-8.58851 0,0c6.43228,8.58851 16.13395,32.05279 0,0c-16.13395,-32.05279 -58.10353,-119.62263 -75,-149c-16.89647,-29.37737 -8.71982,-0.56226 0,0c8.71982,0.56226 17.98279,-27.12831 0,0c-17.98279,27.12831 -63.21136,109.07551 -74,149c-10.78864,39.92449 12.86266,37.82626 0,0c-12.86266,-37.82626 -62.23929,-111.38054 -75,-149c-12.76071,-37.61946 11.09451,-39.30411 0,0c-11.09451,39.30411 -57.13873,119.59698 -74,149c-16.86127,29.40302 -4.53957,7.9162 0,0c4.53957,-7.9162 1.29702,-2.26177 0,0c-1.29702,2.26177 -0.64851,1.13089 0,0c0.64851,-1.13089 13.82426,73.93456 27,149" fill-opacity="0" fill="rgb(0,0,0)" stroke="rgb(0,0,0)" stroke-width="25" stroke-linecap="round" stroke-linejoin="round"/></g></svg>