<?xml version="1.0" encoding="utf-8"?><svg version="1.1" id="Calque_1" xmlns="http://www.w3.org/2000/svg" xmlns:xlink="http://www.w3.org/1999/xlink" x="0px" y="0px" width="2136px" height="718px" viewBox="-482 180 2136 718" enable-background="new -482 180 2136 718" xml:space="preserve"><g xmlns="http://www.w3.org/2000/svg"><polygon points="0,1440 0,0 2560,0 2560,1440" fill="rgb(255,255,255)" stroke-width="1" stroke-linecap="butt" stroke-linejoin="miter"/><path d="M600,869c26.44106,-67.25817 52.88212,-134.51634 75,-149c22.11788,-14.48366 39.91258,23.80718 149,0c109.08742,-23.80718 309.46757,-109.71238 420,-149c110.53243,-39.28762 131.21715,-31.95766 149,0c17.78285,31.95766 32.66384,88.54304 27,149c-5.66384,60.45696 -31.87249,124.78552 -74,149c-42.12751,24.21448 -100.17386,8.31487 -149,0c-48.82614,-8.31487 -88.43207,-9.045 -149,0c-60.56793,9.045 -142.09786,27.86514 -149,0c-6.90214,-27.86514 60.82352,-102.41557 74,-149c13.17648,-46.58443 -28.19621,-65.20285 -149,0c-120.80379,65.20285 -321.03867,214.22697 -74,149c247.03867,-65.22697 941.35089,-344.70504 1164,-447c222.64911,-102.29496 -26.3649,-27.4068 -149,0c-122.6351,27.4068 -118.89129,7.33224 -149,0c-30.10871,-7.33224 -94.06994,-1.92218 -149,0c-54.93006,1.92218 -100.82895,0.35647 -149,0c-48.17105,-0.35647 -98.61426,0.4963 -149,0c-50.38574,-0.4963 -100.714,-2.34168 -149,0c-48.286,2.34168 -94.52972,8.8704 -149,0c-54.47028,-8.8704 -117.1671,-33.13994 -149,0c-31.8329,33.13994 -32.80188,123.68936 -74,149c-41.19812,25.31064 -122.62536,-14.61751 -149,0c-26.37464,14.61751 2.30334,83.78067 27,149c24.69666,65.21933 45.41199,126.49483 74,149c28.58801,22.50517 65.04868,6.24002 150,0c84.95132,-6.24002 218.39329,-2.4549 298,0c79.60671,2.4549 105.37817,3.5796 149,0c43.62183,-3.5796 105.09405,-11.86349 149,0c43.90595,11.86349 70.24563,43.87435 149,0c78.75437,-43.87435 209.92342,-163.63392 223,-149c13.07658,14.63392 -91.9393,163.66135 -74,149c17.9393,-14.66135 158.83379,-193.01146 196,-298c37.16621,-104.98854 -29.39584,-136.6155 -75,-149c-45.60416,-12.3845 -70.25042,-5.52652 -149,0c-78.74958,5.52652 -211.60247,9.72159 -298,0c-86.39753,-9.72159 -126.33971,-33.35985 -149,0c-22.66029,33.35985 -28.03868,123.7178 -74,149c-45.96132,25.2822 -132.50555,-14.51136 -149,0c-16.49445,14.51136 37.06088,83.32763 27,149c-10.06088,65.67237 -83.73797,128.20084 -74,149c9.73797,20.79916 102.89099,-0.131 149,0c46.10901,0.131 45.174,21.32314 149,0c103.826,-21.32314 312.413,-85.16157 521,-149c208.587,-63.83843 141.7935,42.58079 75,149" fill-opacity="0" fill="rgb(0,0,0)" stroke="rgb(0,0,0)" stroke-width="25" stroke-linecap="round" stroke-linejoin="round"/></g></svg>