<?xml version="1.0" encoding="utf-8"?><svg version="1.1" id="Calque_1" xmlns="http://www.w3.org/2000/svg" xmlns:xlink="http://www.w3.org/1999/xlink" x="0px" y="0px" width="2136px" height="718px" viewBox="-482 180 2136 718" enable-background="new -482 180 2136 718" xml:space="preserve"><g xmlns="http://www.w3.org/2000/svg"><polygon points="0,1440 0,0 2560,0 2560,1440" fill="rgb(255,255,255)" stroke-width="1" stroke-linecap="butt" stroke-linejoin="miter"/><path d="M1271,720c3.68467,-4.60837 7.36935,-9.21674 0,0c-7.36935,9.21674 -25.79271,32.25858 0,0c25.79271,-32.25858 95.8015,-119.8176 122,-149c26.1985,-29.1824 8.58671,0.01182 0,0c-8.58671,-0.01182 -8.14833,-29.22967 0,0c8.14833,29.22967 24.0066,116.90684 27,149c2.9934,32.09316 -6.87806,8.60229 0,0c6.87806,-8.60229 30.50563,-2.316 0,0c-30.50563,2.316 -115.14447,0.66171 -149,0c-33.85553,-0.66171 -16.92777,-0.33086 0,0c16.92777,0.33086 8.46388,0.16543 0,0" fill-opacity="0" fill="rgb(0,0,0)" stroke="rgb(0,0,0)" stroke-width="25" stroke-linecap="round" stroke-linejoin="round"/></g></svg>