<?xml version="1.0" encoding="utf-8"?><svg version="1.1" id="Calque_1" xmlns="http://www.w3.org/2000/svg" xmlns:xlink="http://www.w3.org/1999/xlink" x="0px" y="0px" width="2136px" height="718px" viewBox="-482 180 2136 718" enable-background="new -482 180 2136 718" xml:space="preserve"><g xmlns="http://www.w3.org/2000/svg"><polygon points="0,1440 0,0 2560,0 2560,1440" fill="rgb(255,255,255)" stroke-width="1" stroke-linecap="butt" stroke-linejoin="miter"/><path d="M1616,422c-49.83161,0.25282 -99.66322,0.50564 -149,0c-49.33678,-0.50564 -98.17872,-1.76974 -149,0c-50.82128,1.76974 -103.62191,6.5733 -149,0c-45.37809,-6.5733 -83.33364,-24.52348 -149,0c-65.66636,24.52348 -159.04352,91.52062 -223,149c-63.95648,57.47938 -98.49227,105.44102 -122,149c-23.50773,43.55898 -35.9874,82.71531 75,149c110.9874,66.28469 345.44186,159.69774 521.5,149c176.05814,-10.69774 293.71996,-125.50628 372.5,-149c78.78004,-23.49372 118.67829,44.32737 149,0c30.32171,-44.32737 51.06687,-200.80319 47,-298c-4.06687,-97.19681 -32.94576,-135.11461 -75,-149c-42.05424,-13.88539 -97.28383,-3.73837 -149,0c-51.71617,3.73837 -99.9189,1.06811 -149,0c-49.0811,-1.06811 -99.04055,-0.53405 -149,0c-49.95945,0.53405 -99.47973,0.26703 -149,0" fill-opacity="0" fill="rgb(0,0,0)" stroke="rgb(0,0,0)" stroke-width="25" stroke-linecap="round" stroke-linejoin="round"/></g></svg>