<?xml version="1.0" encoding="utf-8"?><svg version="1.1" id="Calque_1" xmlns="http://www.w3.org/2000/svg" xmlns:xlink="http://www.w3.org/1999/xlink" x="0px" y="0px" width="2136px" height="718px" viewBox="-482 180 2136 718" enable-background="new -482 180 2136 718" xml:space="preserve"><g xmlns="http://www.w3.org/2000/svg"><polygon points="0,1440 0,0 2560,0 2560,1440" fill="rgb(255,255,255)" stroke-width="1" stroke-linecap="butt" stroke-linejoin="miter"/><path d="M600,869c-29.72213,-47.23111 -59.44425,-94.46222 -74,-149c-14.55575,-54.53778 -13.94512,-116.38223 -27,-149c-13.05488,-32.61777 -39.77526,-36.00885 0,0c39.77526,36.00885 146.04615,111.41763 176,149c29.95385,37.58237 -16.40933,37.33833 0,0c16.40933,-37.33833 95.59116,-111.77095 122,-149c26.40884,-37.22905 0.04468,-37.25453 0,0c-0.04468,37.25453 26.23012,111.78909 27,149c0.76988,37.21091 -23.96515,37.09819 0,0c23.96515,-37.09819 96.6305,-111.18184 122,-149c25.3695,-37.81816 3.44316,-39.37081 0,0c-3.44316,39.37081 11.59688,119.66509 27,149c15.40312,29.33491 31.16933,7.71044 0,0c-31.16933,-7.71044 -109.27419,-1.50685 -149,0c-39.72581,1.50685 -41.07257,-1.68303 0,0c41.07257,1.68303 124.56446,8.23899 149,0c24.43554,-8.23899 -10.18527,-31.27293 0,0c10.18527,31.27293 65.17664,116.85272 75,149c9.82336,32.14728 -25.52128,10.86205 0,0c25.52128,-10.86205 111.90847,-11.30092 149,0c37.09153,11.30092 24.88739,34.34165 0,0c-24.88739,-34.34165 -62.45803,-126.06566 -75,-149c-12.54197,-22.93434 -0.05527,22.92098 0,0c0.05527,-22.92098 -12.32088,-114.61827 -27,-149c-14.67912,-34.38173 -31.66122,-11.4479 0,0c31.66122,11.4479 111.96575,11.40986 149,0c37.03425,-11.40986 30.79822,-34.19156 0,0c-30.79822,34.19156 -86.15864,125.35636 -122,149c-35.84136,23.64364 -52.16367,-20.23388 0,0c52.16367,20.23388 172.81332,104.57915 224,149c51.18668,44.42085 32.91039,48.91726 0,0c-32.91039,-48.91726 -80.45488,-151.24821 -75,-149c5.45488,2.24821 63.90912,109.07557 75,149c11.09088,39.92443 -25.1816,12.94593 0,0c25.1816,-12.94593 111.81727,-11.85928 149,0c37.18273,11.85928 24.91251,34.49119 0,0c-24.91251,-34.49119 -62.4673,-126.10546 -75,-149c-12.5327,-22.89454 -0.04331,22.93067 0,0c0.04331,-22.93067 -12.35945,-114.61721 -27,-149c-14.64055,-34.38279 -31.51889,-11.46182 0,0c31.51889,11.46182 111.43503,11.4645 149,0c37.56497,-11.4645 32.77879,-34.39618 0,0c-32.77879,34.39618 -93.55019,126.12023 -122,149c-28.44981,22.87977 -24.57803,-23.08472 0,0c24.57803,23.08472 69.86233,115.21867 75,149c5.13767,33.78133 -29.87128,9.21005 0,0c29.87128,-9.21005 124.62279,-3.05886 149,0c24.37721,3.05886 -21.61987,3.02539 0,0c21.61987,-3.02539 110.85671,-9.04272 149,0c38.14329,9.04272 25.19305,33.14547 0,0c-25.19305,-33.14547 -62.6289,-123.53917 -75,-149c-12.3711,-25.46083 0.32254,14.01119 0,0c-0.32254,-14.01119 -13.66127,-81.5056 -27,-149c-13.33873,-67.4944 -6.66936,-33.7472 0,0" fill-opacity="0" fill="rgb(0,0,0)" stroke="rgb(0,0,0)" stroke-width="25" stroke-linecap="round" stroke-linejoin="round"/></g></svg>