<?xml version="1.0" encoding="utf-8"?><svg version="1.1" id="Calque_1" xmlns="http://www.w3.org/2000/svg" xmlns:xlink="http://www.w3.org/1999/xlink" x="0px" y="0px" width="2136px" height="718px" viewBox="-482 180 2136 718" enable-background="new -482 180 2136 718" xml:space="preserve"><g xmlns="http://www.w3.org/2000/svg"><polygon points="0,1440 0,0 2560,0 2560,1440" fill="rgb(255,255,255)" stroke-width="1" stroke-linecap="butt" stroke-linejoin="miter"/><path d="M499,571c-0.01423,-0.02321 -0.02846,-0.04642 0,0c0.02846,0.04642 0.09959,0.16247 0,0c-0.09959,-0.16247 -0.36992,-0.60346 0,0c0.36992,0.60346 1.38007,2.25137 0,0c-1.38007,-2.25137 -5.15038,-8.40202 0,0c5.15038,8.40202 19.22143,31.35671 0,0c-19.22143,-31.35671 -71.73534,-117.02483 -75,-149c-3.26466,-31.97517 42.71995,-10.25739 0,0c-42.71995,10.25739 -174.14444,9.05438 0,0c174.14444,-9.05438 653.85781,-25.96012 894,0c240.14219,25.96012 240.7132,94.78612 224,149c-16.7132,54.21388 -50.71061,93.81565 -122,149c-71.28939,55.18435 -179.87077,125.95128 -223,149c-43.12923,23.04872 -20.80631,-1.62079 0,0c20.80631,1.62079 40.09599,29.53186 0,0c-40.09599,-29.53186 -139.57767,-116.50667 -224,-149c-84.42233,-32.49333 -153.78531,-10.5052 -149,0c4.78531,10.5052 83.71892,9.52747 149,0c65.28108,-9.52747 116.90963,-27.60466 149,0c32.09037,27.60466 44.64256,100.89118 75,149c30.35744,48.10882 78.52013,71.03993 149,0c70.47987,-71.03993 163.27693,-236.05089 196,-298c32.72307,-61.94911 5.37216,-20.83635 149,0c143.62784,20.83635 458.23444,21.39629 596,0c137.76556,-21.39629 98.6901,-64.74881 0,0c-98.6901,64.74881 -256.99483,237.59896 -345,298c-88.00517,60.40104 -105.71077,8.35296 -149,0c-43.28923,-8.35296 -112.1621,26.9892 -149,0c-36.8379,-26.9892 -41.64083,-116.30977 -75,-149c-33.35917,-32.69023 -95.27458,-8.75011 -149,0c-53.72542,8.75011 -99.26084,2.31023 -149,0c-49.73916,-2.31023 -103.68206,-0.49079 -149,0c-45.31794,0.49079 -82.01092,-0.34707 -149,0c-66.98908,0.34707 -164.27426,1.87908 -149,0c15.27426,-1.87908 143.10794,-7.16926 149,0c5.89206,7.16926 -110.15752,26.79795 -149,0c-38.84248,-26.79795 -0.47785,-100.02256 -27,-149c-26.52215,-48.97744 -117.93106,-73.70772 -149,0c-31.06894,73.70772 -1.79791,245.85344 -48,298c-46.20209,52.14656 -167.87729,-15.70605 -237.5,0c-69.62271,15.70605 -87.19294,114.97076 -51,149c36.19294,34.02924 126.14906,2.82301 201,0c74.85094,-2.82301 134.59671,22.73719 200,0c65.40329,-22.73719 136.46409,-93.77176 186.5,-149c50.03591,-55.22824 79.04692,-94.65016 74,-149c-5.04692,-54.34984 -44.15176,-123.6276 -27,-149c17.15176,-25.3724 90.56011,-6.83946 149,0c58.43989,6.83946 101.91132,1.98542 149,0c47.08868,-1.98542 97.7946,-1.10221 149,0c51.2054,1.10221 102.91028,2.42342 149,0c46.08972,-2.42342 86.5643,-8.59149 149,0c62.4357,8.59149 146.83253,31.94252 149,0c2.16747,-31.94252 -77.89443,-119.17859 -75,-149c2.89443,-29.82141 88.74518,-2.22817 149,0c60.25482,2.22817 94.91372,-20.90873 149,0c54.08628,20.90873 127.59994,85.86309 75,149c-52.59994,63.13691 -231.31347,124.45636 -271,149c-39.68653,24.54364 59.65394,12.31147 0,0c-59.65394,-12.31147 -278.3023,-24.70225 -298,0c-19.6977,24.70225 159.55526,86.49751 224,149c64.44474,62.50249 14.08128,125.71221 37,149c22.91872,23.28779 119.11964,6.65365 199.5,0c80.38036,-6.65365 144.94018,-3.32683 209.5,0c64.55982,3.32683 7.27991,-72.83659 -50,-149" fill-opacity="0" fill="rgb(0,0,0)" stroke="rgb(0,0,0)" stroke-width="25" stroke-linecap="round" stroke-linejoin="round"/></g></svg>