<?xml version="1.0" encoding="utf-8"?><svg version="1.1" id="Calque_1" xmlns="http://www.w3.org/2000/svg" xmlns:xlink="http://www.w3.org/1999/xlink" x="0px" y="0px" width="2136px" height="718px" viewBox="-482 180 2136 718" enable-background="new -482 180 2136 718" xml:space="preserve"><g xmlns="http://www.w3.org/2000/svg"><polygon points="0,1440 0,0 2560,0 2560,1440" fill="rgb(255,255,255)" stroke-width="1" stroke-linecap="butt" stroke-linejoin="miter"/><path d="M824,720c261.77739,-80.9886 523.55478,-161.97721 569,-149c45.44522,12.97721 -125.44174,119.92023 -122,149c3.44174,29.07977 181.21217,-19.70371 149,0c-32.21217,19.70371 -274.40695,107.89461 -372,149c-97.59305,41.10539 -50.58436,35.12529 -149,0c-98.41564,-35.12529 -342.25563,-99.39576 -373,-149c-30.74437,-49.60424 151.60686,-84.54226 271,-149c119.39314,-64.45774 175.8282,-158.4352 223,-149c47.1718,9.4352 85.08034,122.28307 75,149c-10.08034,26.71693 -68.14956,-32.69707 -149,0c-80.85044,32.69707 -184.48212,157.50522 -122,149c62.48212,-8.50522 291.07802,-150.32382 271,-149c-20.07802,1.32382 -288.82998,145.79006 -271,149c17.82998,3.20994 322.24189,-134.83644 420,-149c97.75811,-14.16356 -11.1376,95.55569 -122,149c-110.8624,53.44431 -223.6915,50.61369 -149,0c74.6915,-50.61369 336.9036,-149.01046 420,-149c83.0964,0.01046 -12.92289,98.42816 -122,149c-109.07711,50.57184 -231.21206,53.29781 -149,0c82.21206,-53.29781 368.77111,-162.6194 420,-149c51.22889,13.6194 -132.87237,150.17978 -122,149c10.87237,-1.17978 216.71837,-140.09974 271,-149c54.28163,-8.90026 -43.0011,112.21916 -122,149c-78.9989,36.78084 -139.71397,-10.7769 -149,0c-9.28603,10.7769 32.85699,79.88845 75,149c42.14301,69.11155 -53.42849,34.55577 -149,0" fill-opacity="0" fill="rgb(0,0,0)" stroke="rgb(0,0,0)" stroke-width="25" stroke-linecap="round" stroke-linejoin="round"/></g></svg>