<svg version="1.1" id="Calque_1" xmlns="http://www.w3.org/2000/svg" xmlns:xlink="http://www.w3.org/1999/xlink" x="0px" y="0px"
	 width="2560px" height="1600px" viewBox="0 0 2560 1600" enable-background="new 0 0 2560 1600" xml:space="preserve">
<g>
	<path id="path-1_1_" fill="none" stroke="#000000" stroke-width="2" d="M369,441h110c3.312,0,6,2.688,6,6v110c0,3.312-2.688,6-6,6
		H369c-3.313,0-6-2.688-6-6V447C363,443.688,365.687,441,369,441z"/>
	<path id="path-3_1_" fill="none" stroke="#000000" stroke-width="2" d="M220,441h110c3.313,0,6,2.688,6,6v110c0,3.312-2.687,6-6,6
		H220c-3.313,0-6-2.688-6-6V447C214,443.688,216.687,441,220,441z"/>
	<path id="path-5_1_" fill="none" stroke="#000000" stroke-width="2" d="M518,441h110c3.312,0,6,2.688,6,6v110c0,3.312-2.688,6-6,6
		H518c-3.312,0-6-2.688-6-6V447C512,443.688,514.688,441,518,441z"/>
	<path id="path-7_1_" fill="none" stroke="#000000" stroke-width="2" d="M667,441h110c3.312,0,6,2.688,6,6v110c0,3.312-2.688,6-6,6
		H667c-3.312,0-6-2.688-6-6V447C661,443.688,663.688,441,667,441z"/>
	<path id="path-9_1_" fill="none" stroke="#000000" stroke-width="2" d="M816,441h110c3.312,0,6,2.688,6,6v110c0,3.312-2.688,6-6,6
		H816c-3.312,0-6-2.688-6-6V447C810,443.688,812.688,441,816,441z"/>
	<path id="path-11_1_" fill="none" stroke="#000000" stroke-width="2" d="M965,441h110c3.312,0,6,2.688,6,6v110c0,3.312-2.688,6-6,6
		H965c-3.312,0-6-2.688-6-6V447C959,443.688,961.688,441,965,441z"/>
	<path id="path-13_1_" fill="none" stroke="#000000" stroke-width="2" d="M1114,441h110c3.312,0,6,2.688,6,6v110
		c0,3.312-2.688,6-6,6h-110c-3.312,0-6-2.688-6-6V447C1108,443.688,1110.688,441,1114,441z"/>
	<path id="path-15_1_" fill="none" stroke="#000000" stroke-width="2" d="M1263,441h110c3.312,0,6,2.688,6,6v110
		c0,3.312-2.688,6-6,6h-110c-3.312,0-6-2.688-6-6V447C1257,443.688,1259.688,441,1263,441z"/>
	<path id="path-17_1_" fill="none" stroke="#000000" stroke-width="2" d="M1412,441h110c3.312,0,6,2.688,6,6v110
		c0,3.312-2.688,6-6,6h-110c-3.312,0-6-2.688-6-6V447C1406,443.688,1408.688,441,1412,441z"/>
	<path id="path-19_1_" fill="none" stroke="#000000" stroke-width="2" d="M1561,441h110c3.312,0,6,2.688,6,6v110
		c0,3.312-2.688,6-6,6h-110c-3.312,0-6-2.688-6-6V447C1555,443.688,1557.688,441,1561,441z"/>
	<path id="path-21_1_" fill="none" stroke="#000000" stroke-width="2" d="M1710,441h110c3.312,0,6,2.688,6,6v110
		c0,3.312-2.688,6-6,6h-110c-3.312,0-6-2.688-6-6V447C1704,443.688,1706.688,441,1710,441z"/>
	<path id="path-23_1_" fill="none" stroke="#000000" stroke-width="2" d="M1859,441h110c3.312,0,6,2.688,6,6v110
		c0,3.312-2.688,6-6,6h-110c-3.312,0-6-2.688-6-6V447C1853,443.688,1855.688,441,1859,441z"/>
	<path id="path-25_1_" fill="none" stroke="#000000" stroke-width="2" d="M2008,441h110c3.312,0,6,2.688,6,6v110
		c0,3.312-2.688,6-6,6h-110c-3.312,0-6-2.688-6-6V447C2002,443.688,2004.688,441,2008,441z"/>
	<path id="path-27_1_" fill="none" stroke="#000000" stroke-width="2" d="M444,590h110c3.312,0,6,2.688,6,6v110c0,3.312-2.688,6-6,6
		H444c-3.312,0-6-2.688-6-6V596C438,592.688,440.688,590,444,590z"/>
	<path id="path-29_1_" fill="none" stroke="#000000" stroke-width="2" d="M593,590h110c3.312,0,6,2.688,6,6v110c0,3.312-2.688,6-6,6
		H593c-3.312,0-6-2.688-6-6V596C587,592.688,589.688,590,593,590z"/>
	<path id="path-31_1_" fill="none" stroke="#000000" stroke-width="2" d="M742,590h110c3.312,0,6,2.688,6,6v110c0,3.312-2.688,6-6,6
		H742c-3.312,0-6-2.688-6-6V596C736,592.688,738.688,590,742,590z"/>
	<path id="path-33_1_" fill="none" stroke="#000000" stroke-width="2" d="M891,590h110c3.312,0,6,2.688,6,6v110c0,3.312-2.688,6-6,6
		H891c-3.312,0-6-2.688-6-6V596C885,592.688,887.688,590,891,590z"/>
	<path id="path-35_1_" fill="none" stroke="#000000" stroke-width="2" d="M1040,590h110c3.312,0,6,2.688,6,6v110
		c0,3.312-2.688,6-6,6h-110c-3.312,0-6-2.688-6-6V596C1034,592.688,1036.688,590,1040,590z"/>
	<path id="path-37_1_" fill="none" stroke="#000000" stroke-width="2" d="M1189,590h110c3.312,0,6,2.688,6,6v110
		c0,3.312-2.688,6-6,6h-110c-3.312,0-6-2.688-6-6V596C1183,592.688,1185.688,590,1189,590z"/>
	<path id="path-39_1_" fill="none" stroke="#000000" stroke-width="2" d="M1338,590h110c3.312,0,6,2.688,6,6v110
		c0,3.312-2.688,6-6,6h-110c-3.312,0-6-2.688-6-6V596C1332,592.688,1334.688,590,1338,590z"/>
	<path id="path-41_1_" fill="none" stroke="#000000" stroke-width="2" d="M1487,590h110c3.312,0,6,2.688,6,6v110
		c0,3.312-2.688,6-6,6h-110c-3.312,0-6-2.688-6-6V596C1481,592.688,1483.688,590,1487,590z"/>
	<path id="path-43_1_" fill="none" stroke="#000000" stroke-width="2" d="M1636,590h110c3.312,0,6,2.688,6,6v110
		c0,3.312-2.688,6-6,6h-110c-3.312,0-6-2.688-6-6V596C1630,592.688,1632.688,590,1636,590z"/>
	<path id="path-45_1_" fill="none" stroke="#000000" stroke-width="2" d="M1785,590h110c3.312,0,6,2.688,6,6v110
		c0,3.312-2.688,6-6,6h-110c-3.312,0-6-2.688-6-6V596C1779,592.688,1781.688,590,1785,590z"/>
	<path id="path-47_1_" fill="none" stroke="#000000" stroke-width="2" d="M1934,590h110c3.312,0,6,2.688,6,6v110
		c0,3.312-2.688,6-6,6h-110c-3.312,0-6-2.688-6-6V596C1928,592.688,1930.688,590,1934,590z"/>
	<path id="path-49_1_" fill="none" stroke="#000000" stroke-width="2" d="M2083,590h110c3.312,0,6,2.688,6,6v110
		c0,3.312-2.688,6-6,6h-110c-3.312,0-6-2.688-6-6V596C2077,592.688,2079.688,590,2083,590z"/>
	<path id="path-51_1_" fill="none" stroke="#000000" stroke-width="2" d="M2232,590h110c3.312,0,6,2.688,6,6v110
		c0,3.312-2.688,6-6,6h-110c-3.312,0-6-2.688-6-6V596C2226,592.688,2228.688,590,2232,590z"/>
	<path id="path-53_1_" fill="none" stroke="#000000" stroke-width="2" d="M471,739h110c3.312,0,6,2.688,6,6v110c0,3.312-2.688,6-6,6
		H471c-3.312,0-6-2.688-6-6V745C465,741.688,467.688,739,471,739z"/>
	<path id="path-55_1_" fill="none" stroke="#000000" stroke-width="2" d="M620,739h110c3.312,0,6,2.688,6,6v110c0,3.312-2.688,6-6,6
		H620c-3.312,0-6-2.688-6-6V745C614,741.688,616.688,739,620,739z"/>
	<path id="path-57_1_" fill="none" stroke="#000000" stroke-width="2" d="M769,739h110c3.312,0,6,2.688,6,6v110c0,3.312-2.688,6-6,6
		H769c-3.312,0-6-2.688-6-6V745C763,741.688,765.688,739,769,739z"/>
	<path id="path-59_1_" fill="none" stroke="#000000" stroke-width="2" d="M918,739h110c3.312,0,6,2.688,6,6v110c0,3.312-2.688,6-6,6
		H918c-3.312,0-6-2.688-6-6V745C912,741.688,914.688,739,918,739z"/>
	<path id="path-61_1_" fill="none" stroke="#000000" stroke-width="2" d="M1067,739h110c3.312,0,6,2.688,6,6v110
		c0,3.312-2.688,6-6,6h-110c-3.312,0-6-2.688-6-6V745C1061,741.688,1063.688,739,1067,739z"/>
	<path id="path-63_1_" fill="none" stroke="#000000" stroke-width="2" d="M1216,739h110c3.312,0,6,2.688,6,6v110
		c0,3.312-2.688,6-6,6h-110c-3.312,0-6-2.688-6-6V745C1210,741.688,1212.688,739,1216,739z"/>
	<path id="path-65_1_" fill="none" stroke="#000000" stroke-width="2" d="M1365,739h110c3.312,0,6,2.688,6,6v110
		c0,3.312-2.688,6-6,6h-110c-3.312,0-6-2.688-6-6V745C1359,741.688,1361.688,739,1365,739z"/>
	<path id="path-67_1_" fill="none" stroke="#000000" stroke-width="2" d="M1514,739h110c3.312,0,6,2.688,6,6v110
		c0,3.312-2.688,6-6,6h-110c-3.312,0-6-2.688-6-6V745C1508,741.688,1510.688,739,1514,739z"/>
	<path id="path-69_1_" fill="none" stroke="#000000" stroke-width="2" d="M1663,739h110c3.312,0,6,2.688,6,6v110
		c0,3.312-2.688,6-6,6h-110c-3.312,0-6-2.688-6-6V745C1657,741.688,1659.688,739,1663,739z"/>
	<path id="path-71_1_" fill="none" stroke="#000000" stroke-width="2" d="M1812,739h110c3.312,0,6,2.688,6,6v110
		c0,3.312-2.688,6-6,6h-110c-3.312,0-6-2.688-6-6V745C1806,741.688,1808.688,739,1812,739z"/>
	<path id="path-73_1_" fill="none" stroke="#000000" stroke-width="2" d="M1961,739h110c3.312,0,6,2.688,6,6v110
		c0,3.312-2.688,6-6,6h-110c-3.312,0-6-2.688-6-6V745C1955,741.688,1957.688,739,1961,739z"/>
	<path id="path-75_1_" fill="none" stroke="#000000" stroke-width="2" d="M545,888h110c3.312,0,6,2.688,6,6v110c0,3.312-2.688,6-6,6
		H545c-3.312,0-6-2.688-6-6V894C539,890.688,541.688,888,545,888z"/>
	<path id="path-77_1_" fill="none" stroke="#000000" stroke-width="2" d="M695,888h110c3.312,0,6,2.688,6,6v110c0,3.312-2.688,6-6,6
		H695c-3.312,0-6-2.688-6-6V894C689,890.688,691.688,888,695,888z"/>
	<path id="path-79_1_" fill="none" stroke="#000000" stroke-width="2" d="M844,888h110c3.312,0,6,2.688,6,6v110c0,3.312-2.688,6-6,6
		H844c-3.312,0-6-2.688-6-6V894C838,890.688,840.688,888,844,888z"/>
	<path id="path-81_1_" fill="none" stroke="#000000" stroke-width="2" d="M993,888h110c3.312,0,6,2.688,6,6v110c0,3.312-2.688,6-6,6
		H993c-3.312,0-6-2.688-6-6V894C987,890.688,989.688,888,993,888z"/>
	<path id="path-83_1_" fill="none" stroke="#000000" stroke-width="2" d="M1142,888h110c3.312,0,6,2.688,6,6v110
		c0,3.312-2.688,6-6,6h-110c-3.312,0-6-2.688-6-6V894C1136,890.688,1138.688,888,1142,888z"/>
	<path id="path-85_1_" fill="none" stroke="#000000" stroke-width="2" d="M1291,888h110c3.312,0,6,2.688,6,6v110
		c0,3.312-2.688,6-6,6h-110c-3.312,0-6-2.688-6-6V894C1285,890.688,1287.688,888,1291,888z"/>
	<path id="path-87_1_" fill="none" stroke="#000000" stroke-width="2" d="M1440,888h110c3.312,0,6,2.688,6,6v110
		c0,3.312-2.688,6-6,6h-110c-3.312,0-6-2.688-6-6V894C1434,890.688,1436.688,888,1440,888z"/>
	<path id="path-89_1_" fill="none" stroke="#000000" stroke-width="2" d="M1589,888h110c3.312,0,6,2.688,6,6v110
		c0,3.312-2.688,6-6,6h-110c-3.312,0-6-2.688-6-6V894C1583,890.688,1585.688,888,1589,888z"/>
	<path id="path-91_1_" fill="none" stroke="#000000" stroke-width="2" d="M1738,888h110c3.312,0,6,2.688,6,6v110
		c0,3.312-2.688,6-6,6h-110c-3.312,0-6-2.688-6-6V894C1732,890.688,1734.688,888,1738,888z"/>
	<path id="path-93_1_" fill="none" stroke="#000000" stroke-width="2" d="M1887,888h110c3.312,0,6,2.688,6,6v110
		c0,3.312-2.688,6-6,6h-110c-3.312,0-6-2.688-6-6V894C1881,890.688,1883.688,888,1887,888z"/>
	<path id="path-95_1_" fill="none" stroke="#000000" stroke-width="2" d="M2157,441h185c3.312,0,6,2.688,6,6v110
		c0,3.312-2.688,6-6,6h-185c-3.312,0-6-2.688-6-6V447C2151,443.688,2153.688,441,2157,441z"/>
	<path id="path-97_1_" fill="none" stroke="#000000" stroke-width="2" d="M218,590h187c3.312,0,6,2.688,6,6v110c0,3.312-2.688,6-6,6
		H218c-3.313,0-6-2.688-6-6V596C212,592.688,214.687,590,218,590z"/>
	<path id="path-99_1_" fill="none" stroke="#000000" stroke-width="2" d="M218,739h214c3.312,0,6,2.688,6,6v110c0,3.312-2.688,6-6,6
		H218c-3.313,0-6-2.688-6-6V745C212,741.688,214.687,739,218,739z"/>
	<path id="path-101_1_" fill="none" stroke="#000000" stroke-width="2" d="M218,888h289c3.312,0,6,2.688,6,6v110
		c0,3.312-2.688,6-6,6H218c-3.313,0-6-2.688-6-6V894C212,890.688,214.687,888,218,888z"/>
	<path id="path-103_1_" fill="none" stroke="#000000" stroke-width="2" d="M844,1037h855c3.312,0,6,2.688,6,6v110
		c0,3.312-2.688,6-6,6H844c-3.312,0-6-2.688-6-6v-110C838,1039.688,840.688,1037,844,1037z"/>
	<path id="path-105_1_" fill="none" stroke="#000000" stroke-width="2" d="M1738,1037h184c3.312,0,6,2.688,6,6v110
		c0,3.312-2.688,6-6,6h-184c-3.312,0-6-2.688-6-6v-110C1732,1039.688,1734.688,1037,1738,1037z"/>
	<path id="path-107_1_" fill="none" stroke="#000000" stroke-width="2" d="M218,1037h187c3.312,0,6,2.688,6,6v110
		c0,3.312-2.688,6-6,6H218c-3.313,0-6-2.688-6-6v-110C212,1039.688,214.687,1037,218,1037z"/>
	<path id="path-109_1_" fill="none" stroke="#000000" stroke-width="2" d="M1961,1037h137c3.312,0,6,2.688,6,6v110
		c0,3.312-2.688,6-6,6h-137c-3.312,0-6-2.688-6-6v-110C1955,1039.688,1957.688,1037,1961,1037z"/>
	<path id="path-111_1_" fill="none" stroke="#000000" stroke-width="2" d="M444,1037h137c3.312,0,6,2.688,6,6v110
		c0,3.312-2.688,6-6,6H444c-3.312,0-6-2.688-6-6v-110C438,1039.688,440.688,1037,444,1037z"/>
	<path id="path-113_1_" fill="none" stroke="#000000" stroke-width="2" d="M2137,1037h204c3.312,0,6,2.688,6,6v110
		c0,3.312-2.688,6-6,6h-204c-3.312,0-6-2.688-6-6v-110C2131,1039.688,2133.688,1037,2137,1037z"/>
	<path id="path-115_1_" fill="none" stroke="#000000" stroke-width="2" d="M620,1037h185c3.312,0,6,2.688,6,6v110
		c0,3.312-2.688,6-6,6H620c-3.312,0-6-2.688-6-6v-110C614,1039.688,616.688,1037,620,1037z"/>
	<path id="path-117_1_" fill="none" stroke="#000000" stroke-width="2" d="M2036,888h306c3.312,0,6,2.688,6,6v110
		c0,3.312-2.688,6-6,6h-306c-3.312,0-6-2.688-6-6V894C2030,890.688,2032.688,888,2036,888z"/>
	<path id="path-119_1_" fill="none" stroke="#000000" stroke-width="2" d="M2110,739h232c3.312,0,6,2.688,6,6v110
		c0,3.312-2.688,6-6,6h-232c-3.312,0-6-2.688-6-6V745C2104,741.688,2106.688,739,2110,739z"/>
</g>
</svg>